<svg width="227" height="231" viewBox="0 0 207 211" fill="none" xmlns="http://www.w3.org/2000/svg">
<mask id="path-1-inside-1" fill="white">
<path fill-rule="evenodd" clip-rule="evenodd" d="M201.825 100.378H191.459L199.765 93.1979C201.907 91.3477 202.14 88.1124 200.292 85.9732C198.438 83.832 195.206 83.5984 193.065 85.4466L175.794 100.378H168.154L180.903 89.0037C183.013 87.1206 183.199 83.8833 181.314 81.7728C179.433 79.6624 176.194 79.4738 174.084 81.361L152.764 100.378H115.661L141.999 73.499L170.236 71.5607C173.059 71.366 175.19 68.9195 174.995 66.1001C174.801 63.2766 172.34 61.1478 169.535 61.3383L152.786 62.4878L158.282 56.8797L180.835 54.9701C183.654 54.7324 185.746 52.2531 185.509 49.4337C185.269 46.6164 182.833 44.5264 179.972 44.76L169.266 45.6677L176.673 38.107C178.653 36.0867 178.62 32.8431 176.6 30.8618C174.575 28.8804 171.338 28.9173 169.354 30.9355L162.212 38.2258L163.091 27.399C163.32 24.5796 161.218 22.1085 158.399 21.877C155.626 21.6885 153.108 23.7497 152.879 26.5712L151.006 49.6632L145.728 55.05L146.846 38.0537C147.031 35.2302 144.894 32.7919 142.072 32.6075C139.273 32.4108 136.808 34.5561 136.624 37.3816L134.723 66.2825L108.596 92.9479V55.0951L127.27 33.2918C129.11 31.1445 128.86 27.9112 126.711 26.0692C124.568 24.2292 121.328 24.4792 119.49 26.6286L108.596 39.3466V31.5932L123.267 13.9126C125.074 11.7345 124.773 8.50532 122.597 6.69812C120.419 4.88887 117.185 5.19212 115.382 7.36814L108.596 15.5497V5.12245C108.596 2.29281 106.301 0 103.474 0C100.644 0 98.3511 2.29281 98.3511 5.12245V15.5477L91.5669 7.37019C89.7597 5.19007 86.5264 4.88887 84.3566 6.69812C82.1764 8.50327 81.8773 11.7325 83.6824 13.9105L98.3511 31.5912V39.3466L87.4546 26.6286C85.6167 24.4771 82.3813 24.2251 80.234 26.0692C78.0846 27.9112 77.8347 31.1445 79.6746 33.2918L98.3511 55.0951V92.9541L72.2286 66.2948L70.3251 37.3816C70.1387 34.5561 67.6533 32.4108 64.8789 32.6075C62.0555 32.7919 59.9184 35.2302 60.1048 38.0537L61.2215 55.0602L55.9454 49.6755L54.0665 26.5712C53.837 23.7497 51.327 21.6905 48.5465 21.877C45.7251 22.1085 43.6269 24.5796 43.8544 27.401L44.7354 38.234L37.5845 30.9355C35.6031 28.9173 32.3637 28.8824 30.3393 30.8618C28.319 32.8431 28.2862 36.0867 30.2655 38.107L37.6705 45.6656L26.9748 44.76C24.1227 44.5264 21.6762 46.6164 21.4385 49.4337C21.1988 52.2531 23.2908 54.7324 26.1102 54.9701L48.6572 56.8777L54.1546 62.4878L37.4062 61.3383C34.6216 61.1416 32.1403 63.2766 31.9457 66.1001C31.7531 68.9195 33.884 71.366 36.7075 71.5607L64.9384 73.497L91.278 100.378H54.1833L32.8677 81.361C30.7552 79.4738 27.5158 79.6624 25.6348 81.7728C23.7518 83.8833 23.9362 87.1206 26.0487 89.0037L38.7954 100.378H31.1548L13.8778 85.4466C11.7366 83.5984 8.50122 83.8341 6.65304 85.9732C4.80281 88.1144 5.03845 91.3497 7.17963 93.1979L15.4883 100.378H5.12245C2.29281 100.378 0 102.67 0 105.5C0 108.33 2.29281 110.622 5.12245 110.622H15.4883L7.17963 117.804C5.03845 119.654 4.80281 122.888 6.65304 125.029C7.66524 126.203 9.09338 126.803 10.5297 126.803C11.7161 126.803 12.9086 126.391 13.8778 125.555L31.1568 110.622H38.7954L26.0487 121.996C23.9362 123.879 23.7518 127.117 25.6348 129.227C26.647 130.362 28.0506 130.94 29.4603 130.94C30.6712 130.94 31.8903 130.512 32.8677 129.639L54.1833 110.622H91.278L64.9384 137.505L36.7075 139.439C33.884 139.634 31.7531 142.08 31.9457 144.902C32.1403 147.723 34.5786 149.846 37.4062 149.662L54.1525 148.512L48.6572 154.122L26.1102 156.03C23.2908 156.268 21.1988 158.747 21.4385 161.566C21.6762 164.384 24.1595 166.478 26.9748 166.24L37.6705 165.334L30.2655 172.893C28.2862 174.913 28.319 178.157 30.3393 180.138C31.3392 181.114 32.63 181.601 33.925 181.601C35.2548 181.601 36.5805 181.087 37.5845 180.064L44.7354 172.766L43.8544 183.599C43.6269 186.42 45.7251 188.892 48.5465 189.123L48.9666 189.137C51.6077 189.137 53.8493 187.109 54.0665 184.431L55.9454 161.325L61.2215 155.94L60.1048 172.946C59.9184 175.77 62.0555 178.208 64.8789 178.393L65.2211 178.405C67.8951 178.405 70.1469 176.327 70.3251 173.618L72.2286 144.705L98.3511 118.046V155.905L79.6746 177.708C77.8347 179.855 78.0846 183.089 80.234 184.931C82.3793 186.773 85.6146 186.521 87.4546 184.371L98.3511 171.653V179.407L83.6824 197.081C81.8773 199.259 82.1764 202.489 84.3545 204.296C85.3093 205.091 86.4711 205.476 87.6226 205.476C89.0938 205.476 90.5547 204.845 91.5669 203.626L98.3511 195.45V205.878C98.3511 208.707 100.644 211 103.474 211C106.301 211 108.596 208.707 108.596 205.878V195.448L115.382 203.626C117.185 205.8 120.419 206.103 122.597 204.296C124.773 202.489 125.074 199.259 123.267 197.081L108.596 179.405V171.653L119.49 184.371C120.503 185.556 121.937 186.162 123.381 186.162C124.562 186.162 125.748 185.759 126.711 184.931C128.86 183.089 129.11 179.855 127.27 177.708L108.596 155.905V118.052L134.721 144.717L136.624 173.618C136.802 176.327 139.054 178.405 141.73 178.405L142.072 178.393C144.894 178.208 147.031 175.77 146.846 172.946L145.728 155.95L151.006 161.337L152.879 184.431C153.096 187.109 155.337 189.137 157.979 189.137L158.399 189.123C161.218 188.892 163.32 186.42 163.091 183.601L162.212 172.774L169.354 180.064C170.358 181.087 171.686 181.601 173.014 181.601C174.309 181.601 175.602 181.114 176.6 180.138C178.62 178.157 178.653 174.913 176.673 172.893L169.266 165.332L179.972 166.24C182.798 166.482 185.269 164.386 185.509 161.566C185.746 158.747 183.654 156.268 180.835 156.03L158.282 154.12L152.786 148.512L169.535 149.662C172.381 149.84 174.801 147.723 174.995 144.902C175.19 142.08 173.059 139.634 170.236 139.439L142.001 137.505L115.661 110.622H152.764L174.084 129.639C175.059 130.512 176.278 130.94 177.491 130.94C178.899 130.94 180.304 130.362 181.314 129.227C183.199 127.117 183.013 123.879 180.903 121.996L168.154 110.622H175.792L193.065 125.555C194.034 126.391 195.227 126.803 196.413 126.803C197.85 126.803 199.276 126.203 200.292 125.029C202.14 122.89 201.907 119.654 199.765 117.804L191.457 110.622H201.825C204.652 110.622 206.947 108.33 206.947 105.5C206.947 102.67 204.652 100.378 201.825 100.378Z"/>
</mask>
<path fill-rule="evenodd" clip-rule="evenodd" d="M201.825 100.378H191.459L199.765 93.1979C201.907 91.3477 202.14 88.1124 200.292 85.9732C198.438 83.832 195.206 83.5984 193.065 85.4466L175.794 100.378H168.154L180.903 89.0037C183.013 87.1206 183.199 83.8833 181.314 81.7728C179.433 79.6624 176.194 79.4738 174.084 81.361L152.764 100.378H115.661L141.999 73.499L170.236 71.5607C173.059 71.366 175.19 68.9195 174.995 66.1001C174.801 63.2766 172.34 61.1478 169.535 61.3383L152.786 62.4878L158.282 56.8797L180.835 54.9701C183.654 54.7324 185.746 52.2531 185.509 49.4337C185.269 46.6164 182.833 44.5264 179.972 44.76L169.266 45.6677L176.673 38.107C178.653 36.0867 178.62 32.8431 176.6 30.8618C174.575 28.8804 171.338 28.9173 169.354 30.9355L162.212 38.2258L163.091 27.399C163.32 24.5796 161.218 22.1085 158.399 21.877C155.626 21.6885 153.108 23.7497 152.879 26.5712L151.006 49.6632L145.728 55.05L146.846 38.0537C147.031 35.2302 144.894 32.7919 142.072 32.6075C139.273 32.4108 136.808 34.5561 136.624 37.3816L134.723 66.2825L108.596 92.9479V55.0951L127.27 33.2918C129.11 31.1445 128.86 27.9112 126.711 26.0692C124.568 24.2292 121.328 24.4792 119.49 26.6286L108.596 39.3466V31.5932L123.267 13.9126C125.074 11.7345 124.773 8.50532 122.597 6.69812C120.419 4.88887 117.185 5.19212 115.382 7.36814L108.596 15.5497V5.12245C108.596 2.29281 106.301 0 103.474 0C100.644 0 98.3511 2.29281 98.3511 5.12245V15.5477L91.5669 7.37019C89.7597 5.19007 86.5264 4.88887 84.3566 6.69812C82.1764 8.50327 81.8773 11.7325 83.6824 13.9105L98.3511 31.5912V39.3466L87.4546 26.6286C85.6167 24.4771 82.3813 24.2251 80.234 26.0692C78.0846 27.9112 77.8347 31.1445 79.6746 33.2918L98.3511 55.0951V92.9541L72.2286 66.2948L70.3251 37.3816C70.1387 34.5561 67.6533 32.4108 64.8789 32.6075C62.0555 32.7919 59.9184 35.2302 60.1048 38.0537L61.2215 55.0602L55.9454 49.6755L54.0665 26.5712C53.837 23.7497 51.327 21.6905 48.5465 21.877C45.7251 22.1085 43.6269 24.5796 43.8544 27.401L44.7354 38.234L37.5845 30.9355C35.6031 28.9173 32.3637 28.8824 30.3393 30.8618C28.319 32.8431 28.2862 36.0867 30.2655 38.107L37.6705 45.6656L26.9748 44.76C24.1227 44.5264 21.6762 46.6164 21.4385 49.4337C21.1988 52.2531 23.2908 54.7324 26.1102 54.9701L48.6572 56.8777L54.1546 62.4878L37.4062 61.3383C34.6216 61.1416 32.1403 63.2766 31.9457 66.1001C31.7531 68.9195 33.884 71.366 36.7075 71.5607L64.9384 73.497L91.278 100.378H54.1833L32.8677 81.361C30.7552 79.4738 27.5158 79.6624 25.6348 81.7728C23.7518 83.8833 23.9362 87.1206 26.0487 89.0037L38.7954 100.378H31.1548L13.8778 85.4466C11.7366 83.5984 8.50122 83.8341 6.65304 85.9732C4.80281 88.1144 5.03845 91.3497 7.17963 93.1979L15.4883 100.378H5.12245C2.29281 100.378 0 102.67 0 105.5C0 108.33 2.29281 110.622 5.12245 110.622H15.4883L7.17963 117.804C5.03845 119.654 4.80281 122.888 6.65304 125.029C7.66524 126.203 9.09338 126.803 10.5297 126.803C11.7161 126.803 12.9086 126.391 13.8778 125.555L31.1568 110.622H38.7954L26.0487 121.996C23.9362 123.879 23.7518 127.117 25.6348 129.227C26.647 130.362 28.0506 130.94 29.4603 130.94C30.6712 130.94 31.8903 130.512 32.8677 129.639L54.1833 110.622H91.278L64.9384 137.505L36.7075 139.439C33.884 139.634 31.7531 142.08 31.9457 144.902C32.1403 147.723 34.5786 149.846 37.4062 149.662L54.1525 148.512L48.6572 154.122L26.1102 156.03C23.2908 156.268 21.1988 158.747 21.4385 161.566C21.6762 164.384 24.1595 166.478 26.9748 166.24L37.6705 165.334L30.2655 172.893C28.2862 174.913 28.319 178.157 30.3393 180.138C31.3392 181.114 32.63 181.601 33.925 181.601C35.2548 181.601 36.5805 181.087 37.5845 180.064L44.7354 172.766L43.8544 183.599C43.6269 186.42 45.7251 188.892 48.5465 189.123L48.9666 189.137C51.6077 189.137 53.8493 187.109 54.0665 184.431L55.9454 161.325L61.2215 155.94L60.1048 172.946C59.9184 175.77 62.0555 178.208 64.8789 178.393L65.2211 178.405C67.8951 178.405 70.1469 176.327 70.3251 173.618L72.2286 144.705L98.3511 118.046V155.905L79.6746 177.708C77.8347 179.855 78.0846 183.089 80.234 184.931C82.3793 186.773 85.6146 186.521 87.4546 184.371L98.3511 171.653V179.407L83.6824 197.081C81.8773 199.259 82.1764 202.489 84.3545 204.296C85.3093 205.091 86.4711 205.476 87.6226 205.476C89.0938 205.476 90.5547 204.845 91.5669 203.626L98.3511 195.45V205.878C98.3511 208.707 100.644 211 103.474 211C106.301 211 108.596 208.707 108.596 205.878V195.448L115.382 203.626C117.185 205.8 120.419 206.103 122.597 204.296C124.773 202.489 125.074 199.259 123.267 197.081L108.596 179.405V171.653L119.49 184.371C120.503 185.556 121.937 186.162 123.381 186.162C124.562 186.162 125.748 185.759 126.711 184.931C128.86 183.089 129.11 179.855 127.27 177.708L108.596 155.905V118.052L134.721 144.717L136.624 173.618C136.802 176.327 139.054 178.405 141.73 178.405L142.072 178.393C144.894 178.208 147.031 175.77 146.846 172.946L145.728 155.95L151.006 161.337L152.879 184.431C153.096 187.109 155.337 189.137 157.979 189.137L158.399 189.123C161.218 188.892 163.32 186.42 163.091 183.601L162.212 172.774L169.354 180.064C170.358 181.087 171.686 181.601 173.014 181.601C174.309 181.601 175.602 181.114 176.6 180.138C178.62 178.157 178.653 174.913 176.673 172.893L169.266 165.332L179.972 166.24C182.798 166.482 185.269 164.386 185.509 161.566C185.746 158.747 183.654 156.268 180.835 156.03L158.282 154.12L152.786 148.512L169.535 149.662C172.381 149.84 174.801 147.723 174.995 144.902C175.19 142.08 173.059 139.634 170.236 139.439L142.001 137.505L115.661 110.622H152.764L174.084 129.639C175.059 130.512 176.278 130.94 177.491 130.94C178.899 130.94 180.304 130.362 181.314 129.227C183.199 127.117 183.013 123.879 180.903 121.996L168.154 110.622H175.792L193.065 125.555C194.034 126.391 195.227 126.803 196.413 126.803C197.85 126.803 199.276 126.203 200.292 125.029C202.14 122.89 201.907 119.654 199.765 117.804L191.457 110.622H201.825C204.652 110.622 206.947 108.33 206.947 105.5C206.947 102.67 204.652 100.378 201.825 100.378Z" fill="#FFFFFE" stroke="#DBDCD6" stroke-width="6" mask="url(#path-1-inside-1)"/>
<path fill-rule="evenodd" clip-rule="evenodd" d="M201.825 100.378H191.459L199.766 93.1979C201.907 91.3477 202.14 88.1124 200.292 85.9732C198.438 83.832 195.207 83.5984 193.065 85.4466L175.794 100.378H168.154L180.903 89.0037C183.013 87.1206 183.199 83.8833 181.314 81.7728C179.433 79.6624 176.194 79.4738 174.084 81.361L152.764 100.378H115.661L141.999 73.499L170.236 71.5607C173.059 71.366 175.19 68.9195 174.995 66.1001C174.801 63.2766 172.34 61.1478 169.535 61.3383L152.786 62.4878L158.282 56.8797L180.835 54.9701C183.654 54.7324 185.746 52.2531 185.509 49.4337C185.269 46.6164 182.833 44.5264 179.972 44.76L169.266 45.6677L176.673 38.107C178.653 36.0867 178.62 32.8431 176.6 30.8618C174.575 28.8804 171.338 28.9173 169.355 30.9355L162.212 38.2258L163.091 27.399C163.32 24.5796 161.218 22.1085 158.399 21.877C155.626 21.6885 153.108 23.7497 152.879 26.5712L151.006 49.6632L145.728 55.05L146.846 38.0537C147.031 35.2302 144.894 32.7919 142.072 32.6075C139.273 32.4108 136.809 34.5561 136.624 37.3816L134.723 66.2825L108.596 92.9479V55.0951L127.271 33.2918C129.11 31.1445 128.861 27.9112 126.711 26.0692C124.568 24.2292 121.328 24.4792 119.491 26.6286L108.596 39.3466V31.5932L123.267 13.9126C125.074 11.7345 124.773 8.50532 122.597 6.69812C120.419 4.88887 117.185 5.19212 115.382 7.36814L108.596 15.5497V5.12245C108.596 2.29281 106.301 0 103.474 0V211C106.301 211 108.596 208.707 108.596 205.878V195.448L115.382 203.626C117.185 205.8 120.419 206.103 122.597 204.296C124.773 202.489 125.074 199.259 123.267 197.081L108.596 179.405V171.653L119.491 184.371C120.503 185.556 121.937 186.162 123.382 186.162C124.562 186.162 125.748 185.759 126.711 184.931C128.861 183.089 129.11 179.855 127.271 177.708L108.596 155.905V118.052L134.721 144.717L136.624 173.618C136.802 176.327 139.054 178.405 141.73 178.405L142.072 178.393C144.894 178.208 147.031 175.77 146.846 172.946L145.728 155.95L151.006 161.337L152.879 184.431C153.096 187.109 155.337 189.137 157.979 189.137L158.399 189.123C161.218 188.892 163.32 186.42 163.091 183.601L162.212 172.774L169.355 180.064C170.359 181.087 171.686 181.601 173.014 181.601C174.309 181.601 175.602 181.114 176.6 180.138C178.62 178.157 178.653 174.913 176.673 172.893L169.266 165.332L179.972 166.24C182.798 166.482 185.269 164.386 185.509 161.566C185.746 158.747 183.654 156.268 180.835 156.03L158.282 154.12L152.786 148.512L169.535 149.662C172.381 149.84 174.801 147.723 174.995 144.902C175.19 142.08 173.059 139.634 170.236 139.439L142.001 137.505L115.661 110.622H152.764L174.084 129.639C175.059 130.512 176.278 130.94 177.491 130.94C178.899 130.94 180.304 130.362 181.314 129.227C183.199 127.117 183.013 123.879 180.903 121.996L168.154 110.622H175.792L193.065 125.555C194.035 126.391 195.227 126.803 196.413 126.803C197.85 126.803 199.276 126.203 200.292 125.029C202.14 122.89 201.907 119.654 199.766 117.804L191.457 110.622H201.825C204.652 110.622 206.947 108.33 206.947 105.5C206.947 102.67 204.652 100.378 201.825 100.378Z" fill="#DBDCD6"/>
</svg>
