<svg width="232" height="231" viewBox="0 0 213 211" fill="none" xmlns="http://www.w3.org/2000/svg">
<path fill-rule="evenodd" clip-rule="evenodd" d="M27.217 105.499C27.217 61.837 62.6128 26.4412 106.275 26.4412C149.937 26.4412 185.333 61.837 185.333 105.499C185.333 149.163 149.937 184.559 106.275 184.559C62.6128 184.559 27.217 149.163 27.217 105.499ZM20.443 117.478L6.17669 145.018L35.1174 156.173L35.2832 187.188L66.0923 183.615L80.654 211L106.275 193.518L131.895 211L146.455 183.615L177.266 187.188L177.432 156.173L206.373 145.018L192.106 117.478L212.549 94.1509L187.12 76.3945L194.379 46.2401L163.61 42.3356L156.026 12.262L126.966 23.1041L106.275 0L85.583 23.1041L56.5233 12.262L48.9395 42.3356L18.1709 46.2401L25.4294 76.3945L0 94.1509L20.443 117.478Z" fill="#F0A64D"/>
<path fill-rule="evenodd" clip-rule="evenodd" d="M106.274 36.4202C144.425 36.4202 175.353 67.3482 175.353 105.499C175.353 143.651 144.425 174.577 106.274 174.577C68.1239 174.577 37.1958 143.651 37.1958 105.499C37.1958 67.3482 68.1239 36.4202 106.274 36.4202Z" fill="#F0A64D"/>
<path fill-rule="evenodd" clip-rule="evenodd" d="M185.332 105.499C185.332 61.837 149.936 26.4412 106.274 26.4412V0L126.966 23.1041L156.026 12.262L163.61 42.3356L194.378 46.2401L187.12 76.3945L212.549 94.1509L192.106 117.478L206.372 145.018L177.432 156.173L177.266 187.188L146.455 183.615L131.895 211L106.274 193.518V184.559C149.936 184.559 185.332 149.163 185.332 105.499Z" fill="#EB8C3C"/>
<path fill-rule="evenodd" clip-rule="evenodd" d="M175.353 105.499C175.353 143.651 144.425 174.577 106.274 174.577V36.4202C144.425 36.4202 175.353 67.3482 175.353 105.499Z" fill="#EB8C3C"/>
</svg>
