<svg width="230" height="200" viewBox="0 0 212 185" fill="none" xmlns="http://www.w3.org/2000/svg">
<path d="M182.773 27.7073V29.2073H184.273H184.293C198.703 29.2073 210.5 41.0042 210.5 55.4164C210.5 69.8269 198.703 81.6238 184.293 81.6238H147.396H145.896V83.1238C145.896 97.5342 134.099 109.331 119.688 109.331H55.6213C41.2108 109.331 29.4139 97.5342 29.4139 83.1238V81.6238H27.9139H27.7073C13.2969 81.6238 1.5 69.8269 1.5 55.4164C1.5 41.0042 13.297 29.2073 27.7073 29.2073H64.7912H66.2912V27.7073C66.2912 13.2969 78.0881 1.5 92.4985 1.5H156.566C170.976 1.5 182.773 13.2969 182.773 27.7073Z" fill="#FFFFFE" stroke="#DBDCD6" stroke-width="3"/>
<path fill-rule="evenodd" clip-rule="evenodd" d="M184.293 27.7073H184.273C184.273 12.4685 171.804 0 156.566 0H106V110.831H119.688C134.927 110.831 147.396 98.3626 147.396 83.1238H184.293C199.532 83.1238 212 70.6553 212 55.4164C212 40.1758 199.532 27.7073 184.293 27.7073Z" fill="#DBDCD6"/>
<path fill-rule="evenodd" clip-rule="evenodd" d="M135.945 40.2869H177.281C179.236 40.2869 180.551 42.2901 179.771 44.0831L159.236 91.395C158.456 93.188 159.771 95.1913 161.726 95.1913H172.534C174.615 95.1913 175.923 97.437 174.895 99.2462L127.314 183.09C126.29 184.898 123.525 183.836 123.972 181.808L137.553 120.211C137.926 118.517 136.636 116.912 134.901 116.912H120.53C118.798 116.912 117.51 115.313 117.876 113.623L133.291 42.4266C133.562 41.178 134.667 40.2869 135.945 40.2869Z" fill="#F0A64D" style="transform: translateX(-25px);"/>
<path fill-rule="evenodd" clip-rule="evenodd" d="M179.77 44.0831C180.55 42.2901 179.235 40.2869 177.28 40.2869H148.904V145.042L174.894 99.2462C175.922 97.437 174.614 95.1913 172.533 95.1913H161.725C159.77 95.1913 158.455 93.188 159.235 91.395L179.77 44.0831Z" fill="#EB8C3C" style="transform: translateX(-25px);"/>
</svg>
