<svg width="19" height="17" viewBox="0 0 19 17" fill="none" xmlns="http://www.w3.org/2000/svg">
<path d="M7.70104 2.40562C7.89139 2.21413 8.12611 2.07264 8.38432 1.99373C8.64253 1.91482 8.91624 1.90093 9.18112 1.9533C9.44599 2.00566 9.69382 2.12266 9.90258 2.29389C10.1113 2.46511 10.2746 2.68527 10.3777 2.93478C10.4809 3.18429 10.5208 3.45543 10.494 3.72409C10.4671 3.99275 10.3743 4.25061 10.2237 4.47475C10.0732 4.69888 9.86957 4.88235 9.63103 5.00884C9.3925 5.13533 9.1264 5.20092 8.8564 5.19979H1.48175M10.1593 14.5492C10.3496 14.7407 10.5843 14.8822 10.8425 14.9611C11.1007 15.04 11.3745 15.0539 11.6393 15.0015C11.9042 14.9492 12.152 14.8322 12.3608 14.6609C12.5696 14.4897 12.7328 14.2696 12.836 14.02C12.9391 13.7705 12.979 13.4994 12.9522 13.2307C12.9253 12.9621 12.8325 12.7042 12.6819 12.4801C12.5314 12.2559 12.3278 12.0725 12.0893 11.946C11.8507 11.8195 11.5846 11.7539 11.3146 11.755H1.48175M14.371 4.97855C14.6093 4.74083 14.9026 4.5655 15.2248 4.46807C15.547 4.37064 15.8882 4.35411 16.2183 4.41995C16.5485 4.48579 16.8573 4.63196 17.1174 4.84553C17.3776 5.05911 17.5812 5.33351 17.7101 5.64447C17.839 5.95543 17.8892 6.29336 17.8565 6.62838C17.8237 6.96339 17.7089 7.28517 17.5221 7.56525C17.3354 7.84532 17.0825 8.07507 16.7859 8.23417C16.4892 8.39327 16.158 8.47681 15.8214 8.47741H1.48175" stroke="black" stroke-opacity="0.3" stroke-width="2" stroke-linecap="round" stroke-linejoin="round"/>
</svg>
