<svg width="151" height="125" viewBox="0 0 151 125" fill="none" xmlns="http://www.w3.org/2000/svg">
<path d="M150.507 28.8765C150.507 19.2415 135.455 11.4307 116.888 11.4307C106.036 11.4307 74.4448 11.4307 63.5934 11.4307C45.0257 11.4307 29.9736 19.2415 29.9736 28.8765C29.9736 35.7451 37.6233 41.686 48.7425 44.5315C51.586 45.2592 53.9863 47.138 55.476 49.6668C60.336 57.9162 72.5492 63.768 86.8481 63.768C100.155 63.768 111.655 58.7001 117.104 51.3483C119.371 48.2889 122.697 46.1824 126.462 45.6033C140.365 43.4642 150.507 36.7854 150.507 28.8765Z" fill="url(#egg_paint0_radial)"/>
<path d="M120.041 11.5077C119.003 11.4577 117.951 11.4307 116.888 11.4307C106.987 11.4307 79.8243 11.4307 66.8982 11.4307C62.7664 15.9418 60.3193 21.5424 60.3193 27.6098C60.3193 29.2898 61.1596 30.7804 62.6473 32.0824L93.8517 63.2868C104.108 61.8618 112.638 57.373 117.103 51.3486C119.371 48.2892 122.697 46.1827 126.461 45.6036C134.822 44.3171 141.818 41.388 146.071 37.5383L120.041 11.5077Z" fill="url(#egg_paint1_linear)"/>
<path d="M126.515 27.6098C126.515 42.5409 60.3193 42.5409 60.3193 27.6098C60.3193 12.6786 75.1376 0.574463 93.417 0.574463C111.696 0.574463 126.515 12.6786 126.515 27.6098Z" fill="url(#egg_paint2_linear)"/>
<path d="M117.338 23.3009C118.707 23.3009 119.817 22.1909 119.817 20.8218C119.817 19.4526 118.707 18.3427 117.338 18.3427C115.968 18.3427 114.858 19.4526 114.858 20.8218C114.858 22.1909 115.968 23.3009 117.338 23.3009Z" fill="url(#egg_paint3_linear)"/>
<path d="M112.734 29.1903C113.815 29.1903 114.692 28.314 114.692 27.233C114.692 26.152 113.815 25.2756 112.734 25.2756C111.653 25.2756 110.777 26.152 110.777 27.233C110.777 28.314 111.653 29.1903 112.734 29.1903Z" fill="url(#egg_paint4_linear)"/>
<path d="M121.265 30.0553C121.917 30.0553 122.445 29.527 122.445 28.8753C122.445 28.2236 121.917 27.6953 121.265 27.6953C120.614 27.6953 120.085 28.2236 120.085 28.8753C120.085 29.527 120.614 30.0553 121.265 30.0553Z" fill="url(#egg_paint5_linear)"/>
<path d="M99.0283 7.01212C101.986 12.6548 96.9565 21.1215 87.7947 25.9236C78.633 30.7256 68.8088 30.0439 65.8515 24.4012C62.8941 18.7586 67.9233 10.2918 77.085 5.48977C86.2468 0.687708 96.0706 1.36947 99.0283 7.01212Z" fill="url(#egg_paint6_linear)"/>
<path d="M150.508 71.9801C150.508 58.1765 128.529 44.6671 101.417 44.6671C88.2169 44.6671 49.6269 44.6671 36.3208 44.6671C16.5419 44.6671 0.507812 52.9277 0.507812 63.1174C0.507812 66.1198 1.89987 68.9542 4.36958 71.4592C9.3887 76.5503 11.5622 83.6203 10.3208 90.4683C10.0628 91.8906 9.92928 93.3465 9.92928 94.8277C9.92928 111.058 25.9634 124.215 45.7422 124.215C52.639 124.215 59.0799 122.615 64.5443 119.843C70.1322 117.008 76.5978 116.21 82.8237 117.374C85.7722 117.925 88.8413 118.216 91.9937 118.216C110.01 118.216 125.319 108.715 130.878 95.4912C131.959 92.9195 133.948 90.7886 136.518 89.4501C145.173 84.9445 150.508 78.7801 150.508 71.9801Z" fill="url(#egg_paint7_radial)"/>
<path d="M141.742 86.2348L107.949 52.4424C105.03 49.3821 101.474 46.748 97.4472 44.6671C86.8398 44.6671 68.2639 44.6671 53.5624 44.6671C42.0492 50.6168 34.4033 61.1083 34.4033 73.0598C34.4033 75.1633 35.4642 77.0271 37.3398 78.6536L75.5954 116.909C77.998 116.772 80.4283 116.926 82.8236 117.374C85.7722 117.925 88.8413 118.216 91.9936 118.216C110.01 118.216 125.319 108.715 130.878 95.4912C131.959 92.9195 133.948 90.7886 136.518 89.4504C138.429 88.4559 140.177 87.3801 141.742 86.2348Z" fill="url(#egg_paint8_linear)"/>
<path d="M116.612 73.0597C116.612 91.6029 34.4033 91.6029 34.4033 73.0597C34.4033 54.5164 52.8063 39.4844 75.5074 39.4844C98.2086 39.4844 116.612 54.5167 116.612 73.0597Z" fill="url(#egg_paint9_linear)"/>
<g opacity="0.6">
<g opacity="0.6">
<path opacity="0.6" d="M68.5704 75.8076C69.9396 75.8076 71.0495 74.6977 71.0495 73.3285C71.0495 71.9593 69.9396 70.8494 68.5704 70.8494C67.2012 70.8494 66.0913 71.9593 66.0913 73.3285C66.0913 74.6977 67.2012 75.8076 68.5704 75.8076Z" fill="url(#egg_paint10_linear)"/>
<path opacity="0.6" d="M63.9671 81.6971C65.0481 81.6971 65.9245 80.8207 65.9245 79.7397C65.9245 78.6587 65.0481 77.7823 63.9671 77.7823C62.8861 77.7823 62.0098 78.6587 62.0098 79.7397C62.0098 80.8207 62.8861 81.6971 63.9671 81.6971Z" fill="url(#egg_paint11_linear)"/>
<path opacity="0.6" d="M72.4979 82.562C73.1496 82.562 73.6779 82.0337 73.6779 81.382C73.6779 80.7303 73.1496 80.202 72.4979 80.202C71.8462 80.202 71.3179 80.7303 71.3179 81.382C71.3179 82.0337 71.8462 82.562 72.4979 82.562Z" fill="url(#egg_paint12_linear)"/>
</g>
<g opacity="0.6">
<path opacity="0.6" d="M81.6783 77.0287C82.6901 77.0287 83.5103 76.2085 83.5103 75.1967C83.5103 74.1849 82.6901 73.3646 81.6783 73.3646C80.6664 73.3646 79.8462 74.1849 79.8462 75.1967C79.8462 76.2085 80.6664 77.0287 81.6783 77.0287Z" fill="url(#egg_paint13_linear)"/>
<path opacity="0.6" d="M75.8803 77.2664C76.679 77.2664 77.3264 76.6189 77.3264 75.8202C77.3264 75.0215 76.679 74.374 75.8803 74.374C75.0816 74.374 74.4341 75.0215 74.4341 75.8202C74.4341 76.6189 75.0816 77.2664 75.8803 77.2664Z" fill="url(#egg_paint14_linear)"/>
<path opacity="0.6" d="M79.1787 82.1999C79.6603 82.1999 80.0508 81.8095 80.0508 81.3279C80.0508 80.8462 79.6603 80.4558 79.1787 80.4558C78.6971 80.4558 78.3066 80.8462 78.3066 81.3279C78.3066 81.8095 78.6971 82.1999 79.1787 82.1999Z" fill="url(#egg_paint15_linear)"/>
</g>
</g>
<path d="M81.0983 50.595C84.9274 57.9006 79.953 68.0573 69.9877 73.2803C60.0224 78.5032 48.8398 76.8152 45.0106 69.5097C41.1815 62.2041 46.1559 52.0473 56.1212 46.8244C66.0865 41.6014 77.2692 43.2894 81.0983 50.595Z" fill="url(#egg_paint16_linear)"/>
<defs>
<radialGradient id="egg_paint0_radial" cx="0" cy="0" r="1" gradientUnits="userSpaceOnUse" gradientTransform="translate(73.103 23.9507) scale(69.211 46.8804)">
<stop stop-color="#F8F6FB"/>
<stop offset="0.5047" stop-color="#F7F4FB"/>
<stop offset="0.7657" stop-color="#F5ECFB"/>
<stop offset="0.9705" stop-color="#F0DFFB"/>
<stop offset="1" stop-color="#EFDCFB"/>
</radialGradient>
<linearGradient id="egg_paint1_linear" x1="112.631" y1="54.9801" x2="82.0135" y2="-16.0755" gradientUnits="userSpaceOnUse">
<stop stop-color="#EFDCFB" stop-opacity="0"/>
<stop offset="0.0287" stop-color="#E9D6F7" stop-opacity="0.029"/>
<stop offset="0.2203" stop-color="#C5B5DE" stop-opacity="0.22"/>
<stop offset="0.4138" stop-color="#AA9BCB" stop-opacity="0.414"/>
<stop offset="0.6078" stop-color="#9688BD" stop-opacity="0.608"/>
<stop offset="0.8028" stop-color="#8A7DB5" stop-opacity="0.803"/>
<stop offset="1" stop-color="#8679B2"/>
</linearGradient>
<linearGradient id="egg_paint2_linear" x1="89.0338" y1="14.8068" x2="103.151" y2="50.6892" gradientUnits="userSpaceOnUse">
<stop stop-color="#FFA936"/>
<stop offset="0.4112" stop-color="#FF8548"/>
<stop offset="0.7781" stop-color="#FF6C54"/>
<stop offset="1" stop-color="#FF6359"/>
</linearGradient>
<linearGradient id="egg_paint3_linear" x1="119.557" y1="24.0053" x2="113.223" y2="14.1201" gradientUnits="userSpaceOnUse">
<stop stop-color="#F82814" stop-opacity="0"/>
<stop offset="0.2454" stop-color="#F12817" stop-opacity="0.245"/>
<stop offset="0.6052" stop-color="#DD2820" stop-opacity="0.605"/>
<stop offset="1" stop-color="#C0272D"/>
</linearGradient>
<linearGradient id="egg_paint4_linear" x1="114.523" y1="29.751" x2="109.523" y2="21.9469" gradientUnits="userSpaceOnUse">
<stop stop-color="#F82814" stop-opacity="0"/>
<stop offset="0.2454" stop-color="#F12817" stop-opacity="0.245"/>
<stop offset="0.6052" stop-color="#DD2820" stop-opacity="0.605"/>
<stop offset="1" stop-color="#C0272D"/>
</linearGradient>
<linearGradient id="egg_paint5_linear" x1="122.421" y1="30.3964" x2="119.406" y2="25.6915" gradientUnits="userSpaceOnUse">
<stop stop-color="#F82814" stop-opacity="0"/>
<stop offset="0.2454" stop-color="#F12817" stop-opacity="0.245"/>
<stop offset="0.6052" stop-color="#DD2820" stop-opacity="0.605"/>
<stop offset="1" stop-color="#C0272D"/>
</linearGradient>
<linearGradient id="egg_paint6_linear" x1="83.7221" y1="17.6008" x2="68.0464" y2="-12.2825" gradientUnits="userSpaceOnUse">
<stop stop-color="white" stop-opacity="0"/>
<stop offset="1" stop-color="white"/>
</linearGradient>
<radialGradient id="egg_paint7_radial" cx="0" cy="0" r="1" gradientUnits="userSpaceOnUse" gradientTransform="translate(60.4267 44.7881) scale(81.4025)">
<stop stop-color="#F8F6FB"/>
<stop offset="0.5047" stop-color="#F7F4FB"/>
<stop offset="0.7657" stop-color="#F5ECFB"/>
<stop offset="0.9705" stop-color="#F0DFFB"/>
<stop offset="1" stop-color="#EFDCFB"/>
</radialGradient>
<linearGradient id="egg_paint8_linear" x1="94.4925" y1="102.573" x2="70.296" y2="17.7783" gradientUnits="userSpaceOnUse">
<stop stop-color="#EFDCFB" stop-opacity="0"/>
<stop offset="0.0287" stop-color="#E9D6F7" stop-opacity="0.029"/>
<stop offset="0.2203" stop-color="#C5B5DE" stop-opacity="0.22"/>
<stop offset="0.4138" stop-color="#AA9BCB" stop-opacity="0.414"/>
<stop offset="0.6078" stop-color="#9688BD" stop-opacity="0.608"/>
<stop offset="0.8028" stop-color="#8A7DB5" stop-opacity="0.803"/>
<stop offset="1" stop-color="#8679B2"/>
</linearGradient>
<linearGradient id="egg_paint9_linear" x1="69.0548" y1="47.2929" x2="79.9683" y2="88.4823" gradientUnits="userSpaceOnUse">
<stop stop-color="#FFD945"/>
<stop offset="0.3043" stop-color="#FFCD3E"/>
<stop offset="0.8558" stop-color="#FFAD2B"/>
<stop offset="1" stop-color="#FFA325"/>
</linearGradient>
<linearGradient id="egg_paint10_linear" x1="70.771" y1="76.5442" x2="64.4363" y2="66.6588" gradientUnits="userSpaceOnUse">
<stop stop-color="#F82814" stop-opacity="0"/>
<stop offset="0.2454" stop-color="#F12817" stop-opacity="0.245"/>
<stop offset="0.6052" stop-color="#DD2820" stop-opacity="0.605"/>
<stop offset="1" stop-color="#C0272D"/>
</linearGradient>
<linearGradient id="egg_paint11_linear" x1="65.7371" y1="82.2896" x2="60.7363" y2="74.4859" gradientUnits="userSpaceOnUse">
<stop stop-color="#F82814" stop-opacity="0"/>
<stop offset="0.2454" stop-color="#F12817" stop-opacity="0.245"/>
<stop offset="0.6052" stop-color="#DD2820" stop-opacity="0.605"/>
<stop offset="1" stop-color="#C0272D"/>
</linearGradient>
<linearGradient id="egg_paint12_linear" x1="73.634" y1="82.9351" x2="70.6191" y2="78.2302" gradientUnits="userSpaceOnUse">
<stop stop-color="#F82814" stop-opacity="0"/>
<stop offset="0.2454" stop-color="#F12817" stop-opacity="0.245"/>
<stop offset="0.6052" stop-color="#DD2820" stop-opacity="0.605"/>
<stop offset="1" stop-color="#C0272D"/>
</linearGradient>
<linearGradient id="egg_paint13_linear" x1="81.0434" y1="77.901" x2="83.3653" y2="69.5436" gradientUnits="userSpaceOnUse">
<stop stop-color="#F82814" stop-opacity="0"/>
<stop offset="0.2454" stop-color="#F12817" stop-opacity="0.245"/>
<stop offset="0.6052" stop-color="#DD2820" stop-opacity="0.605"/>
<stop offset="1" stop-color="#C0272D"/>
</linearGradient>
<linearGradient id="egg_paint14_linear" x1="75.4007" y1="77.9597" x2="77.2341" y2="71.3622" gradientUnits="userSpaceOnUse">
<stop stop-color="#F82814" stop-opacity="0"/>
<stop offset="0.2454" stop-color="#F12817" stop-opacity="0.245"/>
<stop offset="0.6052" stop-color="#DD2820" stop-opacity="0.605"/>
<stop offset="1" stop-color="#C0272D"/>
</linearGradient>
<linearGradient id="egg_paint15_linear" x1="78.9355" y1="82.6256" x2="80.0406" y2="78.6481" gradientUnits="userSpaceOnUse">
<stop stop-color="#F82814" stop-opacity="0"/>
<stop offset="0.2454" stop-color="#F12817" stop-opacity="0.245"/>
<stop offset="0.6052" stop-color="#DD2820" stop-opacity="0.605"/>
<stop offset="1" stop-color="#C0272D"/>
</linearGradient>
<linearGradient id="egg_paint16_linear" x1="64.8962" y1="63.6114" x2="44.594" y2="24.9244" gradientUnits="userSpaceOnUse">
<stop stop-color="white" stop-opacity="0"/>
<stop offset="1" stop-color="white"/>
</linearGradient>
</defs>
</svg>
