<svg width="151" height="150" viewBox="0 0 151 150" fill="none" xmlns="http://www.w3.org/2000/svg">
<path d="M1.90527 124.393C1.90527 134.378 8.90616 142.985 18.6779 145.038C33.3385 148.117 53.4306 150.016 75.5976 150.016C97.7647 150.016 117.857 148.117 132.517 145.038C142.289 142.985 149.29 134.378 149.29 124.393C149.29 120.984 145.987 118.534 142.734 119.553C128.103 124.136 103.498 127.146 75.5976 127.146C47.6976 127.146 23.0926 124.136 8.46116 119.553C5.20821 118.534 1.90527 120.984 1.90527 124.393Z" fill="url(#burger_paint0_linear)"/>
<path d="M60.2056 126.834L83.3091 149.937C102.404 149.553 119.577 147.755 132.517 145.037C136.209 144.262 139.504 142.55 142.176 140.183L125.474 123.481C111.708 125.777 94.4041 127.146 75.5976 127.146C70.3347 127.146 65.1894 127.039 60.2056 126.834Z" fill="url(#burger_paint1_linear)"/>
<path d="M142.734 119.553C136.735 121.432 129.056 123.046 120.163 124.298L138.602 142.737C145.066 139.07 149.29 132.148 149.29 124.393C149.29 120.984 145.987 118.534 142.734 119.553Z" fill="url(#burger_paint2_linear)"/>
<g opacity="0.6">
<g opacity="0.6">
<path opacity="0.6" d="M22.1174 133.633C23.4866 133.633 24.5965 132.523 24.5965 131.154C24.5965 129.785 23.4866 128.675 22.1174 128.675C20.7482 128.675 19.6383 129.785 19.6383 131.154C19.6383 132.523 20.7482 133.633 22.1174 133.633Z" fill="url(#burger_paint3_linear)"/>
<path opacity="0.6" d="M17.5144 139.523C18.5954 139.523 19.4717 138.646 19.4717 137.565C19.4717 136.484 18.5954 135.608 17.5144 135.608C16.4333 135.608 15.557 136.484 15.557 137.565C15.557 138.646 16.4333 139.523 17.5144 139.523Z" fill="url(#burger_paint4_linear)"/>
<path opacity="0.6" d="M26.0454 140.388C26.6971 140.388 27.2254 139.859 27.2254 139.208C27.2254 138.556 26.6971 138.028 26.0454 138.028C25.3937 138.028 24.8654 138.556 24.8654 139.208C24.8654 139.859 25.3937 140.388 26.0454 140.388Z" fill="url(#burger_paint5_linear)"/>
</g>
<g opacity="0.6">
<path opacity="0.6" d="M35.2265 134.855C36.2383 134.855 37.0585 134.034 37.0585 133.022C37.0585 132.011 36.2383 131.19 35.2265 131.19C34.2146 131.19 33.3944 132.011 33.3944 133.022C33.3944 134.034 34.2146 134.855 35.2265 134.855Z" fill="url(#burger_paint6_linear)"/>
<path opacity="0.6" d="M29.4282 135.092C30.2269 135.092 30.8744 134.444 30.8744 133.646C30.8744 132.847 30.2269 132.2 29.4282 132.2C28.6295 132.2 27.9821 132.847 27.9821 133.646C27.9821 134.444 28.6295 135.092 29.4282 135.092Z" fill="url(#burger_paint7_linear)"/>
<path opacity="0.6" d="M32.7267 140.025C33.2083 140.025 33.5987 139.635 33.5987 139.153C33.5987 138.672 33.2083 138.281 32.7267 138.281C32.245 138.281 31.8546 138.672 31.8546 139.153C31.8546 139.635 32.245 140.025 32.7267 140.025Z" fill="url(#burger_paint8_linear)"/>
</g>
</g>
<path d="M3.58997 132.647C6.22761 138.839 11.7556 143.584 18.6776 145.038C33.3382 148.117 53.4303 150.016 75.5973 150.016C97.7644 150.016 117.856 148.117 132.517 145.038C139.439 143.584 144.967 138.839 147.605 132.647H3.58997Z" fill="url(#burger_paint9_linear)"/>
<path d="M1.90527 104.363V109.115C1.90527 115.991 6.5391 122.031 13.2003 123.738C28.107 127.556 50.525 129.986 75.5976 129.986C100.67 129.986 123.088 127.556 137.995 123.738C144.656 122.031 149.29 115.992 149.29 109.115V104.363C149.29 100.954 145.987 98.5039 142.734 99.523C128.103 104.107 103.498 107.116 75.5976 107.116C47.6976 107.116 23.0926 104.107 8.46116 99.523C5.20821 98.5039 1.90527 100.954 1.90527 104.363Z" fill="url(#burger_paint10_linear)"/>
<path d="M142.734 99.5229C128.103 104.106 103.498 107.116 75.598 107.116C47.698 107.116 23.093 104.106 8.46152 99.5229C6.66417 98.9599 4.85476 99.459 3.59241 100.591L29.9912 126.989C42.9948 128.88 58.6906 129.986 75.5977 129.986C100.67 129.986 123.088 127.556 137.995 123.738C144.656 122.031 149.29 115.991 149.29 109.115V104.363C149.29 100.954 145.987 98.5037 142.734 99.5229Z" fill="url(#burger_paint11_linear)"/>
<path d="M149.29 109.115V105.776L142.977 99.4629C142.896 99.4841 142.815 99.4976 142.734 99.5232C134.919 101.971 124.256 103.97 111.767 105.301V113.471C111.767 115.303 112.596 116.94 113.897 118.032L122.641 126.776C128.349 125.907 133.514 124.886 137.995 123.738C144.657 122.031 149.29 115.991 149.29 109.115Z" fill="url(#burger_paint12_linear)"/>
<path d="M107.698 105.705C97.8517 106.613 87.0005 107.116 75.5976 107.116C64.2476 107.116 53.4434 106.618 43.6337 105.718C42.7317 107.347 42.874 109.503 44.3658 110.994L63.1529 129.782C67.2108 129.915 71.3649 129.986 75.5976 129.986C95.5208 129.986 113.763 128.451 127.897 125.904L107.698 105.705Z" fill="url(#burger_paint13_linear)"/>
<path d="M104.987 103.644C85.8241 97.8383 65.3711 97.8383 46.2082 103.644C43.015 104.612 42.0064 108.635 44.3658 110.994L67.1555 133.784C71.8179 138.446 79.3773 138.446 84.0397 133.784L106.829 110.994C109.189 108.635 108.18 104.612 104.987 103.644Z" fill="url(#burger_paint14_linear)"/>
<path d="M149.29 96.5497C149.29 75.7038 1.90527 75.7038 1.90527 96.5497C1.90527 100.144 6.2891 103.118 13.5417 105.473C16.1765 106.328 18.6065 107.716 20.6382 109.599L20.8562 109.801C25.2738 113.895 31.6697 115.044 37.2356 112.743L37.2397 112.741C41.9944 110.776 47.4156 111.304 51.7012 114.151L52.1088 114.422C56.8344 117.561 62.9115 117.819 67.8856 115.091L68.2656 114.882C72.8341 112.377 78.3653 112.376 82.9341 114.881L83.317 115.091C88.2917 117.818 94.3691 117.559 99.0944 114.42L99.5888 114.091C103.85 111.26 109.247 110.754 113.961 112.741C119.486 115.071 125.864 113.949 130.262 109.873L130.558 109.599C132.589 107.716 135.019 106.328 137.654 105.472C144.906 103.118 149.29 100.144 149.29 96.5497Z" fill="url(#burger_paint15_linear)"/>
<path d="M149.29 96.5491C149.29 100.144 144.905 103.114 137.652 105.469C135.019 106.327 132.588 107.715 130.557 109.598L130.261 109.872C127.39 112.537 123.664 113.939 119.89 113.939C117.89 113.939 115.873 113.548 113.963 112.739C109.25 110.753 103.853 111.261 99.5888 114.091L99.0943 114.419C94.3717 117.556 88.292 117.816 83.3179 115.089L82.9358 114.878C78.3661 112.375 72.8346 112.375 68.2646 114.882L67.8873 115.089C62.9132 117.816 56.8335 117.56 52.1108 114.419L51.702 114.15C47.4152 111.301 41.9961 110.775 37.242 112.739H37.2376C33.9799 114.082 30.4435 114.253 27.1814 113.336L8.21463 94.3697C7.20374 93.4394 6.34992 92.3477 5.68933 91.1435C14.1729 85.5312 35.8673 82.2285 59.8982 81.2356C70.2196 80.8088 80.977 80.8088 91.2982 81.2356C122.231 82.5118 149.29 87.6162 149.29 96.5491Z" fill="url(#burger_paint16_linear)"/>
<path d="M52.4921 81.6206C36.3297 82.6368 21.8162 84.7515 12.5244 87.9665C12.8274 89.3968 13.6388 90.6385 14.7676 91.4885L36.3509 113.072C36.6476 112.97 36.9435 112.864 37.2359 112.743L37.24 112.741C41.9947 110.776 47.4159 111.304 51.7015 114.151L52.1091 114.422C56.8347 117.561 62.9118 117.819 67.8859 115.091L68.2659 114.882C72.8344 112.377 78.3656 112.377 82.9344 114.881L83.3174 115.091C84.65 115.821 86.0624 116.331 87.5059 116.635L52.4921 81.6206Z" fill="url(#burger_paint17_linear)"/>
<path d="M136.932 93.4178H111.767V112.014C112.51 112.201 113.244 112.439 113.962 112.741C119.487 115.071 125.864 113.949 130.262 109.873L130.558 109.599C132.59 107.716 135.02 106.328 137.654 105.472C140.874 104.427 143.527 103.259 145.484 101.969L136.932 93.4178Z" fill="url(#burger_paint18_linear)"/>
<path d="M111.767 93.4178V113.471C111.767 116.759 114.432 119.424 117.72 119.424C121.008 119.424 123.674 116.759 123.674 113.471V109.408C123.674 108.269 124.597 107.346 125.736 107.346C126.875 107.346 127.798 108.269 127.798 109.408V109.739C127.798 112.261 129.843 114.306 132.365 114.306C134.888 114.306 136.932 112.261 136.932 109.739V93.4178H111.767Z" fill="url(#burger_paint19_linear)"/>
<path d="M4.08911 84.6317V84.9617C4.08911 90.7108 7.91852 95.7699 13.4641 97.2861C27.8979 101.232 50.3621 103.769 75.5976 103.769C100.833 103.769 123.297 101.232 137.731 97.2861C143.277 95.7699 147.106 90.7111 147.106 84.9617C147.106 84.8523 147.106 84.7429 147.106 84.6329C147.106 78.6014 141.438 74.1841 135.588 75.6511C121.127 79.277 99.6215 81.5764 75.5976 81.5764C51.5738 81.5764 30.0679 79.277 15.6076 75.6514C9.75705 74.1844 4.08911 78.6002 4.08911 84.6317Z" fill="url(#burger_paint20_linear)"/>
<path d="M51.655 80.7835C37.4785 79.8174 25.0429 78.0171 15.6076 75.6512C14.5162 75.3774 13.4312 75.3091 12.3879 75.4171V86.735C12.3879 88.68 13.3247 90.4018 14.7674 91.4883L22.6832 99.4041C36.4541 102.073 54.6497 103.714 74.6371 103.765L51.655 80.7835Z" fill="url(#burger_paint21_linear)"/>
<path d="M135.304 75.7206C120.847 79.3059 99.4668 81.5765 75.5979 81.5765C74.5679 81.5765 73.5447 81.5706 72.5244 81.5623L94.255 103.293C111.756 102.384 126.974 100.227 137.731 97.2865C142.509 95.9803 146.006 92.0426 146.885 87.3018L135.304 75.7206Z" fill="url(#burger_paint22_linear)"/>
<path d="M1.90527 67.0782V71.8303C1.90527 78.7064 6.5391 84.7464 13.2003 86.4529C28.107 90.2714 50.525 92.7012 75.5976 92.7012C100.67 92.7012 123.088 90.2714 137.995 86.4529C144.656 84.7464 149.29 78.7067 149.29 71.8303V67.0782C149.29 63.6691 145.987 61.2191 142.734 62.2382C128.103 66.8217 103.498 69.8311 75.5976 69.8311C47.6976 69.8311 23.0926 66.8217 8.46116 62.2382C5.20821 61.2191 1.90527 63.6694 1.90527 67.0782Z" fill="url(#burger_paint23_linear)"/>
<path d="M142.734 62.2382C128.103 66.8217 103.498 69.8311 75.598 69.8311C47.698 69.8311 23.093 66.8217 8.46153 62.2382C6.66417 61.6752 4.85476 62.1744 3.59241 63.3058L29.9912 89.7047C42.9951 91.5952 58.6909 92.7011 75.598 92.7011C100.671 92.7011 123.089 90.2714 137.995 86.4529C144.657 84.7464 149.29 78.7067 149.29 71.8303V67.0782C149.29 63.6694 145.987 61.2191 142.734 62.2382Z" fill="url(#burger_paint24_linear)"/>
<path d="M143.4 83.8167L125.711 66.1279C111.907 68.4468 94.5118 69.8312 75.5977 69.8312C71.4809 69.8312 67.4386 69.7641 63.4868 69.6376C63.1786 71.0273 63.5256 72.5638 64.6715 73.7097L83.4586 92.4967C84.2309 92.5223 85.0101 92.5432 85.7895 92.5638C106.7 92.0038 125.141 89.7456 137.995 86.4526C140.006 85.9376 141.83 85.0256 143.4 83.8167Z" fill="url(#burger_paint25_linear)"/>
<path d="M125.293 66.3598C106.13 60.5536 85.6769 60.5536 66.514 66.3598C63.3207 67.3274 62.3122 71.3503 64.6716 73.7098L87.4613 96.4995C92.1237 101.162 99.6831 101.162 104.345 96.4995L127.135 73.7098C129.495 71.3503 128.486 67.3274 125.293 66.3598Z" fill="url(#burger_paint26_linear)"/>
<path d="M13.2005 86.453C25.637 89.6389 43.3035 91.8565 63.3758 92.5045L38.822 67.9507C35.3879 67.5768 32.0935 67.1527 28.9626 66.6821H12.3882V86.2171C12.6558 86.3021 12.9258 86.3827 13.2005 86.453Z" fill="url(#burger_paint27_linear)"/>
<path d="M12.3882 66.6821V86.7354C12.3882 90.0233 15.0535 92.6886 18.3414 92.6886C21.6294 92.6886 24.2947 90.0233 24.2947 86.7354V82.6727C24.2947 81.5336 25.2179 80.6104 26.357 80.6104C27.4961 80.6104 28.4194 81.5336 28.4194 82.6727V83.0033C28.4194 85.5257 30.4641 87.5704 32.9864 87.5704C35.5088 87.5704 37.5535 85.5257 37.5535 83.0033V66.6821H12.3882Z" fill="url(#burger_paint28_linear)"/>
<path d="M149.29 59.2649C149.29 38.419 1.90527 38.419 1.90527 59.2649C1.90527 62.859 6.2891 65.8331 13.5417 68.1879C16.1765 69.0431 18.6065 70.4317 20.6382 72.3143L20.8562 72.5161C25.2738 76.6099 31.6697 77.7587 37.2356 75.4581L37.2397 75.4564C41.9944 73.4911 47.4156 74.0196 51.7012 76.8664L52.1088 77.1373C56.8344 80.2761 62.9115 80.5337 67.8856 77.8061L68.2656 77.5976C72.8341 75.0923 78.3653 75.0917 82.9341 77.5964L83.317 77.8061C88.2917 80.5331 94.3691 80.2746 99.0944 77.1352L99.5888 76.8067C103.85 73.9755 109.247 73.4687 113.961 75.4567C119.486 77.787 125.864 76.6646 130.262 72.5881L130.558 72.314C132.589 70.4311 135.019 69.0429 137.654 68.1876C144.906 65.8331 149.29 62.859 149.29 59.2649Z" fill="url(#burger_paint29_linear)"/>
<path d="M149.29 59.2662C149.29 62.8609 144.905 65.8312 137.652 68.1856C135.019 69.0438 132.588 70.4324 130.557 72.315L130.261 72.5891C127.39 75.2538 123.664 76.6556 119.89 76.6556C117.89 76.6556 115.873 76.2647 113.963 75.4559C109.25 73.4697 103.853 73.9777 99.5888 76.8085L99.0943 77.1365C94.3717 80.2729 88.292 80.5335 83.3179 77.8059L82.9358 77.5947C78.3661 75.0918 72.8346 75.0918 68.2646 77.5991L67.8873 77.8059C62.9132 80.5332 56.8335 80.2774 52.1108 77.1365L51.702 76.8668C47.4152 74.0179 41.9961 73.4921 37.242 75.4559H37.2376C33.9799 76.7994 30.4435 76.9703 27.1814 76.0535L8.21463 57.0868C7.20374 56.1565 6.34992 55.0647 5.68933 53.8606C14.1729 48.2482 35.8673 44.9456 59.8982 43.9526C70.2196 43.5259 80.977 43.5259 91.2982 43.9526C122.231 45.2288 149.29 50.3332 149.29 59.2662Z" fill="url(#burger_paint30_linear)"/>
<path d="M4.08911 47.347V47.677C4.08911 53.4261 7.91852 58.4852 13.4641 60.0014C27.8979 63.9476 50.3621 66.484 75.5976 66.484C100.833 66.484 123.297 63.9476 137.731 60.0014C143.277 58.4852 147.106 53.4264 147.106 47.677C147.106 47.5676 147.106 47.4581 147.106 47.3481C147.106 41.3167 141.438 36.8996 135.588 38.3664C121.127 41.9923 99.6215 44.2917 75.5976 44.2917C51.5738 44.2917 30.0679 41.9923 15.6076 38.3667C9.75705 36.8996 4.08911 41.3155 4.08911 47.347Z" fill="url(#burger_paint31_linear)"/>
<path d="M147.106 47.3497V47.6776C147.106 53.4247 143.278 58.4844 137.733 60.0032C123.296 63.9485 100.833 66.4826 75.5976 66.4826C55.3276 66.4826 36.8462 64.8471 22.8762 62.16L4.70911 43.9929C6.33587 39.8006 10.91 37.19 15.6056 38.3671C30.0656 41.9932 51.5756 44.2894 75.5973 44.2894C99.6191 44.2894 121.129 41.9932 135.589 38.3671C141.44 36.8979 147.106 41.315 147.106 47.3497Z" fill="url(#burger_paint32_linear)"/>
<path d="M150.598 39.2271C150.598 60.073 0.5979 60.073 0.5979 39.2271C0.5979 18.3812 34.1764 1.48242 75.5979 1.48242C117.019 1.48242 150.598 18.3812 150.598 39.2271Z" fill="url(#burger_paint33_linear)"/>
<g opacity="0.6">
<g opacity="0.6">
<path opacity="0.6" d="M126.339 34.8451C127.708 34.8451 128.818 33.7351 128.818 32.366C128.818 30.9968 127.708 29.8868 126.339 29.8868C124.969 29.8868 123.859 30.9968 123.859 32.366C123.859 33.7351 124.969 34.8451 126.339 34.8451Z" fill="url(#burger_paint34_linear)"/>
<path opacity="0.6" d="M121.735 40.7345C122.816 40.7345 123.693 39.8582 123.693 38.7772C123.693 37.6962 122.816 36.8198 121.735 36.8198C120.654 36.8198 119.778 37.6962 119.778 38.7772C119.778 39.8582 120.654 40.7345 121.735 40.7345Z" fill="url(#burger_paint35_linear)"/>
<path opacity="0.6" d="M130.266 41.5995C130.918 41.5995 131.446 41.0712 131.446 40.4195C131.446 39.7678 130.918 39.2395 130.266 39.2395C129.615 39.2395 129.086 39.7678 129.086 40.4195C129.086 41.0712 129.615 41.5995 130.266 41.5995Z" fill="url(#burger_paint36_linear)"/>
</g>
<g opacity="0.6">
<path opacity="0.6" d="M139.448 36.0666C140.459 36.0666 141.28 35.2463 141.28 34.2345C141.28 33.2227 140.459 32.4025 139.448 32.4025C138.436 32.4025 137.615 33.2227 137.615 34.2345C137.615 35.2463 138.436 36.0666 139.448 36.0666Z" fill="url(#burger_paint37_linear)"/>
<path opacity="0.6" d="M133.649 36.3042C134.448 36.3042 135.095 35.6567 135.095 34.858C135.095 34.0593 134.448 33.4119 133.649 33.4119C132.851 33.4119 132.203 34.0593 132.203 34.858C132.203 35.6567 132.851 36.3042 133.649 36.3042Z" fill="url(#burger_paint38_linear)"/>
<path opacity="0.6" d="M136.948 41.2375C137.429 41.2375 137.82 40.8471 137.82 40.3655C137.82 39.8838 137.429 39.4934 136.948 39.4934C136.466 39.4934 136.076 39.8838 136.076 40.3655C136.076 40.8471 136.466 41.2375 136.948 41.2375Z" fill="url(#burger_paint39_linear)"/>
</g>
</g>
<path d="M0.5979 39.2274C0.5979 60.0733 150.598 60.0733 150.598 39.2274C150.598 35.3806 149.451 31.6689 147.326 28.1721H3.86996C1.74467 31.6686 0.5979 35.3804 0.5979 39.2274Z" fill="url(#burger_paint40_linear)"/>
<path d="M42.1126 34.6153C44.3794 34.6153 46.217 33.8106 46.217 32.818C46.217 31.8253 44.3794 31.0206 42.1126 31.0206C39.8458 31.0206 38.0082 31.8253 38.0082 32.818C38.0082 33.8106 39.8458 34.6153 42.1126 34.6153Z" fill="url(#burger_paint41_linear)"/>
<path d="M64.4367 34.6153C66.7035 34.6153 68.5411 33.8106 68.5411 32.818C68.5411 31.8253 66.7035 31.0206 64.4367 31.0206C62.1699 31.0206 60.3323 31.8253 60.3323 32.818C60.3323 33.8106 62.1699 34.6153 64.4367 34.6153Z" fill="url(#burger_paint42_linear)"/>
<path d="M86.7597 34.6153C89.0265 34.6153 90.8641 33.8106 90.8641 32.818C90.8641 31.8253 89.0265 31.0206 86.7597 31.0206C84.4929 31.0206 82.6553 31.8253 82.6553 32.818C82.6553 33.8106 84.4929 34.6153 86.7597 34.6153Z" fill="url(#burger_paint43_linear)"/>
<path d="M109.084 34.6153C111.351 34.6153 113.188 33.8106 113.188 32.818C113.188 31.8253 111.351 31.0206 109.084 31.0206C106.817 31.0206 104.979 31.8253 104.979 32.818C104.979 33.8106 106.817 34.6153 109.084 34.6153Z" fill="url(#burger_paint44_linear)"/>
<path d="M30.9507 24.2803C33.2175 24.2803 35.0551 23.4756 35.0551 22.4829C35.0551 21.4902 33.2175 20.6855 30.9507 20.6855C28.6839 20.6855 26.8463 21.4902 26.8463 22.4829C26.8463 23.4756 28.6839 24.2803 30.9507 24.2803Z" fill="url(#burger_paint45_linear)"/>
<path d="M53.2748 24.2803C55.5416 24.2803 57.3792 23.4756 57.3792 22.4829C57.3792 21.4902 55.5416 20.6855 53.2748 20.6855C51.008 20.6855 49.1704 21.4902 49.1704 22.4829C49.1704 23.4756 51.008 24.2803 53.2748 24.2803Z" fill="url(#burger_paint46_linear)"/>
<path d="M75.5981 24.2803C77.8649 24.2803 79.7025 23.4756 79.7025 22.4829C79.7025 21.4902 77.8649 20.6855 75.5981 20.6855C73.3313 20.6855 71.4937 21.4902 71.4937 22.4829C71.4937 23.4756 73.3313 24.2803 75.5981 24.2803Z" fill="url(#burger_paint47_linear)"/>
<path d="M97.9218 24.2803C100.189 24.2803 102.026 23.4756 102.026 22.4829C102.026 21.4902 100.189 20.6855 97.9218 20.6855C95.655 20.6855 93.8174 21.4902 93.8174 22.4829C93.8174 23.4756 95.655 24.2803 97.9218 24.2803Z" fill="url(#burger_paint48_linear)"/>
<path d="M120.245 24.2803C122.512 24.2803 124.35 23.4756 124.35 22.4829C124.35 21.4902 122.512 20.6855 120.245 20.6855C117.978 20.6855 116.141 21.4902 116.141 22.4829C116.141 23.4756 117.978 24.2803 120.245 24.2803Z" fill="url(#burger_paint49_linear)"/>
<path d="M42.1126 13.9455C44.3794 13.9455 46.217 13.1408 46.217 12.1482C46.217 11.1555 44.3794 10.3508 42.1126 10.3508C39.8458 10.3508 38.0082 11.1555 38.0082 12.1482C38.0082 13.1408 39.8458 13.9455 42.1126 13.9455Z" fill="url(#burger_paint50_linear)"/>
<path d="M64.4367 13.9455C66.7035 13.9455 68.5411 13.1408 68.5411 12.1482C68.5411 11.1555 66.7035 10.3508 64.4367 10.3508C62.1699 10.3508 60.3323 11.1555 60.3323 12.1482C60.3323 13.1408 62.1699 13.9455 64.4367 13.9455Z" fill="url(#burger_paint51_linear)"/>
<path d="M86.7597 13.9455C89.0265 13.9455 90.8641 13.1408 90.8641 12.1482C90.8641 11.1555 89.0265 10.3508 86.7597 10.3508C84.4929 10.3508 82.6553 11.1555 82.6553 12.1482C82.6553 13.1408 84.4929 13.9455 86.7597 13.9455Z" fill="url(#burger_paint52_linear)"/>
<path d="M109.084 13.9455C111.351 13.9455 113.188 13.1408 113.188 12.1482C113.188 11.1555 111.351 10.3508 109.084 10.3508C106.817 10.3508 104.979 11.1555 104.979 12.1482C104.979 13.1408 106.817 13.9455 109.084 13.9455Z" fill="url(#burger_paint53_linear)"/>
<path d="M75.5981 3.61058C77.8649 3.61058 79.7025 2.80587 79.7025 1.81322C79.7025 0.820571 77.8649 0.0158691 75.5981 0.0158691C73.3313 0.0158691 71.4937 0.820571 71.4937 1.81322C71.4937 2.80587 73.3313 3.61058 75.5981 3.61058Z" fill="url(#burger_paint54_linear)"/>
<path d="M101.528 3.82036C101.334 4.79389 99.3741 5.22271 97.1514 4.77859C94.9285 4.33447 93.2841 3.18506 93.4788 2.21153C93.6732 1.238 95.6332 0.80918 97.8558 1.2533C100.078 1.69741 101.723 2.84683 101.528 3.82036Z" fill="url(#burger_paint55_linear)"/>
<path d="M49.6679 3.82036C49.8623 4.79389 51.8223 5.22271 54.0449 4.77859C56.2679 4.33447 57.9123 3.18506 57.7176 2.21153C57.5229 1.238 55.5632 0.80918 53.3405 1.2533C51.1176 1.69771 49.4732 2.84683 49.6679 3.82036Z" fill="url(#burger_paint56_linear)"/>
<defs>
<linearGradient id="burger_paint0_linear" x1="74.962" y1="122.876" x2="84.8476" y2="161.968" gradientUnits="userSpaceOnUse">
<stop stop-color="#FAA68E"/>
<stop offset="0.2061" stop-color="#FBA682"/>
<stop offset="0.5808" stop-color="#FDA861"/>
<stop offset="1" stop-color="#FFA936"/>
</linearGradient>
<linearGradient id="burger_paint1_linear" x1="108.339" y1="152.286" x2="88.2688" y2="99.5635" gradientUnits="userSpaceOnUse">
<stop stop-color="#F82814" stop-opacity="0"/>
<stop offset="0.2454" stop-color="#F12817" stop-opacity="0.245"/>
<stop offset="0.6052" stop-color="#DD2820" stop-opacity="0.605"/>
<stop offset="1" stop-color="#C0272D"/>
</linearGradient>
<linearGradient id="burger_paint2_linear" x1="138.065" y1="132.497" x2="130.764" y2="113.625" gradientUnits="userSpaceOnUse">
<stop stop-color="#F82814" stop-opacity="0"/>
<stop offset="0.2454" stop-color="#F12817" stop-opacity="0.245"/>
<stop offset="0.6052" stop-color="#DD2820" stop-opacity="0.605"/>
<stop offset="1" stop-color="#C0272D"/>
</linearGradient>
<linearGradient id="burger_paint3_linear" x1="24.1377" y1="134.429" x2="17.8031" y2="124.543" gradientUnits="userSpaceOnUse">
<stop stop-color="#F82814" stop-opacity="0"/>
<stop offset="0.2454" stop-color="#F12817" stop-opacity="0.245"/>
<stop offset="0.6052" stop-color="#DD2820" stop-opacity="0.605"/>
<stop offset="1" stop-color="#C0272D"/>
</linearGradient>
<linearGradient id="burger_paint4_linear" x1="19.1041" y1="140.174" x2="14.1031" y2="132.37" gradientUnits="userSpaceOnUse">
<stop stop-color="#F82814" stop-opacity="0"/>
<stop offset="0.2454" stop-color="#F12817" stop-opacity="0.245"/>
<stop offset="0.6052" stop-color="#DD2820" stop-opacity="0.605"/>
<stop offset="1" stop-color="#C0272D"/>
</linearGradient>
<linearGradient id="burger_paint5_linear" x1="27.0009" y1="140.82" x2="23.986" y2="136.115" gradientUnits="userSpaceOnUse">
<stop stop-color="#F82814" stop-opacity="0"/>
<stop offset="0.2454" stop-color="#F12817" stop-opacity="0.245"/>
<stop offset="0.6052" stop-color="#DD2820" stop-opacity="0.605"/>
<stop offset="1" stop-color="#C0272D"/>
</linearGradient>
<linearGradient id="burger_paint6_linear" x1="34.4888" y1="135.761" x2="36.8109" y2="127.404" gradientUnits="userSpaceOnUse">
<stop stop-color="#F82814" stop-opacity="0"/>
<stop offset="0.2454" stop-color="#F12817" stop-opacity="0.245"/>
<stop offset="0.6052" stop-color="#DD2820" stop-opacity="0.605"/>
<stop offset="1" stop-color="#C0272D"/>
</linearGradient>
<linearGradient id="burger_paint7_linear" x1="28.8462" y1="135.82" x2="30.6792" y2="129.222" gradientUnits="userSpaceOnUse">
<stop stop-color="#F82814" stop-opacity="0"/>
<stop offset="0.2454" stop-color="#F12817" stop-opacity="0.245"/>
<stop offset="0.6052" stop-color="#DD2820" stop-opacity="0.605"/>
<stop offset="1" stop-color="#C0272D"/>
</linearGradient>
<linearGradient id="burger_paint8_linear" x1="32.3807" y1="140.486" x2="33.4861" y2="136.508" gradientUnits="userSpaceOnUse">
<stop stop-color="#F82814" stop-opacity="0"/>
<stop offset="0.2454" stop-color="#F12817" stop-opacity="0.245"/>
<stop offset="0.6052" stop-color="#DD2820" stop-opacity="0.605"/>
<stop offset="1" stop-color="#C0272D"/>
</linearGradient>
<linearGradient id="burger_paint9_linear" x1="75.5973" y1="138.039" x2="75.5973" y2="156.401" gradientUnits="userSpaceOnUse">
<stop stop-color="#F82814" stop-opacity="0"/>
<stop offset="0.2454" stop-color="#F12817" stop-opacity="0.245"/>
<stop offset="0.6052" stop-color="#DD2820" stop-opacity="0.605"/>
<stop offset="1" stop-color="#C0272D"/>
</linearGradient>
<linearGradient id="burger_paint10_linear" x1="75.5976" y1="102.242" x2="75.5976" y2="134.373" gradientUnits="userSpaceOnUse">
<stop stop-color="#A57C52"/>
<stop offset="0.1339" stop-color="#A26C4A"/>
<stop offset="0.5155" stop-color="#994336"/>
<stop offset="0.8174" stop-color="#942A2A"/>
<stop offset="1" stop-color="#922125"/>
</linearGradient>
<linearGradient id="burger_paint11_linear" x1="77.1851" y1="116.95" x2="75.8371" y2="90.5887" gradientUnits="userSpaceOnUse">
<stop stop-color="#42210B" stop-opacity="0"/>
<stop offset="1" stop-color="#42210B"/>
</linearGradient>
<linearGradient id="burger_paint12_linear" x1="142.059" y1="125.063" x2="123.974" y2="102.483" gradientUnits="userSpaceOnUse">
<stop stop-color="#42210B" stop-opacity="0"/>
<stop offset="1" stop-color="#42210B"/>
</linearGradient>
<linearGradient id="burger_paint13_linear" x1="89.3661" y1="133.364" x2="84.8726" y2="114.604" gradientUnits="userSpaceOnUse">
<stop stop-color="#42210B" stop-opacity="0"/>
<stop offset="1" stop-color="#42210B"/>
</linearGradient>
<linearGradient id="burger_paint14_linear" x1="70.3544" y1="102.624" x2="96.7091" y2="128.979" gradientUnits="userSpaceOnUse">
<stop stop-color="#FFD945"/>
<stop offset="0.3043" stop-color="#FFCD3E"/>
<stop offset="0.8558" stop-color="#FFAD2B"/>
<stop offset="1" stop-color="#FFA325"/>
</linearGradient>
<linearGradient id="burger_paint15_linear" x1="75.5976" y1="93.7041" x2="75.5976" y2="120.991" gradientUnits="userSpaceOnUse">
<stop stop-color="#BADA00"/>
<stop offset="0.2269" stop-color="#B0CE00"/>
<stop offset="0.6378" stop-color="#95AE00"/>
<stop offset="1" stop-color="#798C00"/>
</linearGradient>
<linearGradient id="burger_paint16_linear" x1="77.2767" y1="111.954" x2="77.5764" y2="86.4918" gradientUnits="userSpaceOnUse">
<stop stop-color="#798C00" stop-opacity="0"/>
<stop offset="0.6542" stop-color="#556100" stop-opacity="0.654"/>
<stop offset="1" stop-color="#464F00"/>
</linearGradient>
<linearGradient id="burger_paint17_linear" x1="55.825" y1="113.067" x2="30.2124" y2="66.785" gradientUnits="userSpaceOnUse">
<stop stop-color="#798C00" stop-opacity="0"/>
<stop offset="0.6542" stop-color="#556100" stop-opacity="0.654"/>
<stop offset="1" stop-color="#464F00"/>
</linearGradient>
<linearGradient id="burger_paint18_linear" x1="133.169" y1="115.138" x2="123.396" y2="97.6137" gradientUnits="userSpaceOnUse">
<stop stop-color="#798C00" stop-opacity="0"/>
<stop offset="0.6542" stop-color="#556100" stop-opacity="0.654"/>
<stop offset="1" stop-color="#464F00"/>
</linearGradient>
<linearGradient id="burger_paint19_linear" x1="120.599" y1="99.637" x2="131.679" y2="113.9" gradientUnits="userSpaceOnUse">
<stop stop-color="#FFDECF"/>
<stop offset="0.3791" stop-color="#FDC4B0"/>
<stop offset="0.7655" stop-color="#FBAE97"/>
<stop offset="1" stop-color="#FAA68E"/>
</linearGradient>
<linearGradient id="burger_paint20_linear" x1="75.5976" y1="89.8847" x2="75.5976" y2="103.382" gradientUnits="userSpaceOnUse">
<stop stop-color="#FF6359"/>
<stop offset="0.2243" stop-color="#FE5B50"/>
<stop offset="0.5952" stop-color="#FC4637"/>
<stop offset="1" stop-color="#F82814"/>
</linearGradient>
<linearGradient id="burger_paint21_linear" x1="47.4603" y1="108.867" x2="38.1738" y2="77.8627" gradientUnits="userSpaceOnUse">
<stop stop-color="#F82814" stop-opacity="0"/>
<stop offset="1" stop-color="#C0272D"/>
</linearGradient>
<linearGradient id="burger_paint22_linear" x1="117.666" y1="105.803" x2="111.974" y2="90.525" gradientUnits="userSpaceOnUse">
<stop stop-color="#F82814" stop-opacity="0"/>
<stop offset="1" stop-color="#C0272D"/>
</linearGradient>
<linearGradient id="burger_paint23_linear" x1="75.5976" y1="64.9567" x2="75.5976" y2="97.0879" gradientUnits="userSpaceOnUse">
<stop stop-color="#A57C52"/>
<stop offset="0.1339" stop-color="#A26C4A"/>
<stop offset="0.5155" stop-color="#994336"/>
<stop offset="0.8174" stop-color="#942A2A"/>
<stop offset="1" stop-color="#922125"/>
</linearGradient>
<linearGradient id="burger_paint24_linear" x1="77.1851" y1="79.6655" x2="75.8371" y2="53.3041" gradientUnits="userSpaceOnUse">
<stop stop-color="#42210B" stop-opacity="0"/>
<stop offset="1" stop-color="#42210B"/>
</linearGradient>
<linearGradient id="burger_paint25_linear" x1="114.363" y1="97.9432" x2="99.5351" y2="70.6832" gradientUnits="userSpaceOnUse">
<stop stop-color="#42210B" stop-opacity="0"/>
<stop offset="1" stop-color="#42210B"/>
</linearGradient>
<linearGradient id="burger_paint26_linear" x1="90.6602" y1="65.3392" x2="117.015" y2="91.6939" gradientUnits="userSpaceOnUse">
<stop stop-color="#FFD945"/>
<stop offset="0.3043" stop-color="#FFCD3E"/>
<stop offset="0.8558" stop-color="#FFAD2B"/>
<stop offset="1" stop-color="#FFA325"/>
</linearGradient>
<linearGradient id="burger_paint27_linear" x1="39.3179" y1="93.6362" x2="32.7276" y2="74.0148" gradientUnits="userSpaceOnUse">
<stop stop-color="#42210B" stop-opacity="0"/>
<stop offset="1" stop-color="#42210B"/>
</linearGradient>
<linearGradient id="burger_paint28_linear" x1="21.2199" y1="72.9013" x2="32.3" y2="87.1636" gradientUnits="userSpaceOnUse">
<stop stop-color="#FFDECF"/>
<stop offset="0.3791" stop-color="#FDC4B0"/>
<stop offset="0.7655" stop-color="#FBAE97"/>
<stop offset="1" stop-color="#FAA68E"/>
</linearGradient>
<linearGradient id="burger_paint29_linear" x1="75.5976" y1="56.419" x2="75.5976" y2="83.7058" gradientUnits="userSpaceOnUse">
<stop stop-color="#BADA00"/>
<stop offset="0.2269" stop-color="#B0CE00"/>
<stop offset="0.6378" stop-color="#95AE00"/>
<stop offset="1" stop-color="#798C00"/>
</linearGradient>
<linearGradient id="burger_paint30_linear" x1="77.2767" y1="74.6715" x2="77.5764" y2="49.2088" gradientUnits="userSpaceOnUse">
<stop stop-color="#798C00" stop-opacity="0"/>
<stop offset="0.6542" stop-color="#556100" stop-opacity="0.654"/>
<stop offset="1" stop-color="#464F00"/>
</linearGradient>
<linearGradient id="burger_paint31_linear" x1="75.5976" y1="52.5996" x2="75.5976" y2="66.097" gradientUnits="userSpaceOnUse">
<stop stop-color="#FF6359"/>
<stop offset="0.2243" stop-color="#FE5B50"/>
<stop offset="0.5952" stop-color="#FC4637"/>
<stop offset="1" stop-color="#F82814"/>
</linearGradient>
<linearGradient id="burger_paint32_linear" x1="75.6985" y1="66.7938" x2="75.9232" y2="44.3268" gradientUnits="userSpaceOnUse">
<stop stop-color="#F82814" stop-opacity="0"/>
<stop offset="1" stop-color="#C0272D"/>
</linearGradient>
<linearGradient id="burger_paint33_linear" x1="67.77" y1="8.69507" x2="81.7888" y2="61.6048" gradientUnits="userSpaceOnUse">
<stop stop-color="#FAA68E"/>
<stop offset="0.2061" stop-color="#FBA682"/>
<stop offset="0.5808" stop-color="#FDA861"/>
<stop offset="1" stop-color="#FFA936"/>
</linearGradient>
<linearGradient id="burger_paint34_linear" x1="128.401" y1="35.5783" x2="122.067" y2="25.6929" gradientUnits="userSpaceOnUse">
<stop stop-color="#F82814" stop-opacity="0"/>
<stop offset="0.2454" stop-color="#F12817" stop-opacity="0.245"/>
<stop offset="0.6052" stop-color="#DD2820" stop-opacity="0.605"/>
<stop offset="1" stop-color="#C0272D"/>
</linearGradient>
<linearGradient id="burger_paint35_linear" x1="123.368" y1="41.324" x2="118.367" y2="33.5199" gradientUnits="userSpaceOnUse">
<stop stop-color="#F82814" stop-opacity="0"/>
<stop offset="0.2454" stop-color="#F12817" stop-opacity="0.245"/>
<stop offset="0.6052" stop-color="#DD2820" stop-opacity="0.605"/>
<stop offset="1" stop-color="#C0272D"/>
</linearGradient>
<linearGradient id="burger_paint36_linear" x1="131.265" y1="41.9694" x2="128.25" y2="37.2643" gradientUnits="userSpaceOnUse">
<stop stop-color="#F82814" stop-opacity="0"/>
<stop offset="0.2454" stop-color="#F12817" stop-opacity="0.245"/>
<stop offset="0.6052" stop-color="#DD2820" stop-opacity="0.605"/>
<stop offset="1" stop-color="#C0272D"/>
</linearGradient>
<linearGradient id="burger_paint37_linear" x1="138.722" y1="36.9244" x2="141.044" y2="28.5672" gradientUnits="userSpaceOnUse">
<stop stop-color="#F82814" stop-opacity="0"/>
<stop offset="0.2454" stop-color="#F12817" stop-opacity="0.245"/>
<stop offset="0.6052" stop-color="#DD2820" stop-opacity="0.605"/>
<stop offset="1" stop-color="#C0272D"/>
</linearGradient>
<linearGradient id="burger_paint38_linear" x1="133.079" y1="36.9833" x2="134.912" y2="30.3856" gradientUnits="userSpaceOnUse">
<stop stop-color="#F82814" stop-opacity="0"/>
<stop offset="0.2454" stop-color="#F12817" stop-opacity="0.245"/>
<stop offset="0.6052" stop-color="#DD2820" stop-opacity="0.605"/>
<stop offset="1" stop-color="#C0272D"/>
</linearGradient>
<linearGradient id="burger_paint39_linear" x1="136.614" y1="41.649" x2="137.719" y2="37.6717" gradientUnits="userSpaceOnUse">
<stop stop-color="#F82814" stop-opacity="0"/>
<stop offset="0.2454" stop-color="#F12817" stop-opacity="0.245"/>
<stop offset="0.6052" stop-color="#DD2820" stop-opacity="0.605"/>
<stop offset="1" stop-color="#C0272D"/>
</linearGradient>
<linearGradient id="burger_paint40_linear" x1="75.5979" y1="35.0718" x2="75.5979" y2="61.7615" gradientUnits="userSpaceOnUse">
<stop stop-color="#F82814" stop-opacity="0"/>
<stop offset="0.2497" stop-color="#F32816" stop-opacity="0.25"/>
<stop offset="0.5421" stop-color="#E5281D" stop-opacity="0.542"/>
<stop offset="0.8547" stop-color="#CE2727" stop-opacity="0.855"/>
<stop offset="1" stop-color="#C0272D"/>
</linearGradient>
<linearGradient id="burger_paint41_linear" x1="41.7155" y1="31.6665" x2="43.2135" y2="36.01" gradientUnits="userSpaceOnUse">
<stop stop-color="#FFDECF"/>
<stop offset="0.3791" stop-color="#FDC4B0"/>
<stop offset="0.7655" stop-color="#FBAE97"/>
<stop offset="1" stop-color="#FAA68E"/>
</linearGradient>
<linearGradient id="burger_paint42_linear" x1="64.0396" y1="31.6665" x2="65.5373" y2="36.01" gradientUnits="userSpaceOnUse">
<stop stop-color="#FFDECF"/>
<stop offset="0.3791" stop-color="#FDC4B0"/>
<stop offset="0.7655" stop-color="#FBAE97"/>
<stop offset="1" stop-color="#FAA68E"/>
</linearGradient>
<linearGradient id="burger_paint43_linear" x1="86.3626" y1="31.6665" x2="87.8606" y2="36.01" gradientUnits="userSpaceOnUse">
<stop stop-color="#FFDECF"/>
<stop offset="0.3791" stop-color="#FDC4B0"/>
<stop offset="0.7655" stop-color="#FBAE97"/>
<stop offset="1" stop-color="#FAA68E"/>
</linearGradient>
<linearGradient id="burger_paint44_linear" x1="108.687" y1="31.6665" x2="110.184" y2="36.01" gradientUnits="userSpaceOnUse">
<stop stop-color="#FFDECF"/>
<stop offset="0.3791" stop-color="#FDC4B0"/>
<stop offset="0.7655" stop-color="#FBAE97"/>
<stop offset="1" stop-color="#FAA68E"/>
</linearGradient>
<linearGradient id="burger_paint45_linear" x1="30.5537" y1="21.3314" x2="32.0516" y2="25.6753" gradientUnits="userSpaceOnUse">
<stop stop-color="#FFDECF"/>
<stop offset="0.3791" stop-color="#FDC4B0"/>
<stop offset="0.7655" stop-color="#FBAE97"/>
<stop offset="1" stop-color="#FAA68E"/>
</linearGradient>
<linearGradient id="burger_paint46_linear" x1="52.8778" y1="21.3314" x2="54.3754" y2="25.6753" gradientUnits="userSpaceOnUse">
<stop stop-color="#FFDECF"/>
<stop offset="0.3791" stop-color="#FDC4B0"/>
<stop offset="0.7655" stop-color="#FBAE97"/>
<stop offset="1" stop-color="#FAA68E"/>
</linearGradient>
<linearGradient id="burger_paint47_linear" x1="75.201" y1="21.3314" x2="76.6989" y2="25.6753" gradientUnits="userSpaceOnUse">
<stop stop-color="#FFDECF"/>
<stop offset="0.3791" stop-color="#FDC4B0"/>
<stop offset="0.7655" stop-color="#FBAE97"/>
<stop offset="1" stop-color="#FAA68E"/>
</linearGradient>
<linearGradient id="burger_paint48_linear" x1="97.5247" y1="21.3314" x2="99.0227" y2="25.6753" gradientUnits="userSpaceOnUse">
<stop stop-color="#FFDECF"/>
<stop offset="0.3791" stop-color="#FDC4B0"/>
<stop offset="0.7655" stop-color="#FBAE97"/>
<stop offset="1" stop-color="#FAA68E"/>
</linearGradient>
<linearGradient id="burger_paint49_linear" x1="119.848" y1="21.3314" x2="121.346" y2="25.6753" gradientUnits="userSpaceOnUse">
<stop stop-color="#FFDECF"/>
<stop offset="0.3791" stop-color="#FDC4B0"/>
<stop offset="0.7655" stop-color="#FBAE97"/>
<stop offset="1" stop-color="#FAA68E"/>
</linearGradient>
<linearGradient id="burger_paint50_linear" x1="41.7155" y1="10.9967" x2="43.2135" y2="15.3402" gradientUnits="userSpaceOnUse">
<stop stop-color="#FFDECF"/>
<stop offset="0.3791" stop-color="#FDC4B0"/>
<stop offset="0.7655" stop-color="#FBAE97"/>
<stop offset="1" stop-color="#FAA68E"/>
</linearGradient>
<linearGradient id="burger_paint51_linear" x1="64.0396" y1="10.9967" x2="65.5373" y2="15.3402" gradientUnits="userSpaceOnUse">
<stop stop-color="#FFDECF"/>
<stop offset="0.3791" stop-color="#FDC4B0"/>
<stop offset="0.7655" stop-color="#FBAE97"/>
<stop offset="1" stop-color="#FAA68E"/>
</linearGradient>
<linearGradient id="burger_paint52_linear" x1="86.3626" y1="10.9967" x2="87.8606" y2="15.3402" gradientUnits="userSpaceOnUse">
<stop stop-color="#FFDECF"/>
<stop offset="0.3791" stop-color="#FDC4B0"/>
<stop offset="0.7655" stop-color="#FBAE97"/>
<stop offset="1" stop-color="#FAA68E"/>
</linearGradient>
<linearGradient id="burger_paint53_linear" x1="108.687" y1="10.9967" x2="110.184" y2="15.3402" gradientUnits="userSpaceOnUse">
<stop stop-color="#FFDECF"/>
<stop offset="0.3791" stop-color="#FDC4B0"/>
<stop offset="0.7655" stop-color="#FBAE97"/>
<stop offset="1" stop-color="#FAA68E"/>
</linearGradient>
<linearGradient id="burger_paint54_linear" x1="75.201" y1="0.661752" x2="76.6989" y2="5.00528" gradientUnits="userSpaceOnUse">
<stop stop-color="#FFDECF"/>
<stop offset="0.3791" stop-color="#FDC4B0"/>
<stop offset="0.7655" stop-color="#FBAE97"/>
<stop offset="1" stop-color="#FAA68E"/>
</linearGradient>
<linearGradient id="burger_paint55_linear" x1="97.388" y1="1.78608" x2="98.0062" y2="6.34068" gradientUnits="userSpaceOnUse">
<stop stop-color="#FFDECF"/>
<stop offset="0.3791" stop-color="#FDC4B0"/>
<stop offset="0.7655" stop-color="#FBAE97"/>
<stop offset="1" stop-color="#FAA68E"/>
</linearGradient>
<linearGradient id="burger_paint56_linear" x1="54.0401" y1="1.82093" x2="53.422" y2="6.37582" gradientUnits="userSpaceOnUse">
<stop stop-color="#FFDECF"/>
<stop offset="0.3791" stop-color="#FDC4B0"/>
<stop offset="0.7655" stop-color="#FBAE97"/>
<stop offset="1" stop-color="#FAA68E"/>
</linearGradient>
</defs>
</svg>
