<svg width="151" height="138" viewBox="0 0 151 138" fill="none" xmlns="http://www.w3.org/2000/svg">
<path d="M69.8803 40.7809C68.1782 39.0788 68.1782 36.3194 69.8803 34.6176L102.381 2.11675C104.083 0.414695 106.843 0.414695 108.544 2.11675C110.246 3.81881 110.246 6.57823 108.544 8.27999L76.0435 40.7809C74.3415 42.4829 71.5821 42.4829 69.8803 40.7809Z" fill="url(#grill_paint0_linear)"/>
<path d="M104.152 9.31291C103.844 9.0382 103.498 8.80879 103.122 8.63438C100.172 7.26497 85.8787 1.11821 79.9125 7.57673C76.1966 11.5994 81.7481 18.3923 87.3946 23.6209C92.5507 28.3953 99.7172 29.2344 103.345 25.4988C107.453 21.2682 110.712 15.1561 104.152 9.31291Z" fill="url(#grill_paint1_linear)"/>
<path d="M104.152 9.31291C103.844 9.0382 103.498 8.80879 103.122 8.63438C100.172 7.26497 85.8787 1.1182 79.9125 7.57673C76.1966 11.5994 81.7481 18.3923 87.3946 23.6209C92.5507 28.3956 110.712 15.1561 104.152 9.31291Z" fill="url(#grill_paint2_linear)"/>
<path d="M91.2437 16.7006L85.824 22.1203C86.3416 22.6317 86.8675 23.1332 87.3943 23.6209C91.7584 27.6617 97.5616 28.8826 101.441 26.8979L91.2437 16.7006Z" fill="url(#grill_paint3_linear)"/>
<path d="M59.8509 15.7239C66.3115 18.6421 73.5212 23.706 80.2383 30.423C86.9553 37.1401 92.0192 44.3501 94.9374 50.8104C96.5051 54.2807 101.801 53.8727 105.678 49.9951C108.268 47.4057 109.447 43.9883 108.579 41.5495C106.017 34.3533 100.438 25.8645 92.6171 18.0442C84.7965 10.2236 76.3077 4.64419 69.1115 2.08272C66.6727 1.21448 63.255 2.3936 60.6659 4.98301C56.7886 8.86036 56.3803 14.1562 59.8509 15.7239Z" fill="url(#grill_paint4_linear)"/>
<path d="M91.0601 28.3703C90.8607 28.153 90.6486 27.9409 90.4239 27.7338C85.8772 22.7782 74.4045 20.515 69.0239 21.0015C72.7745 23.5997 76.5795 26.7635 80.2383 30.4224C86.9554 37.1394 92.0192 44.3494 94.9375 50.8097C96.5051 54.28 101.801 53.8721 105.678 49.9944C106.969 48.7038 107.909 47.2077 108.42 45.7294L91.0601 28.3703Z" fill="url(#grill_paint5_linear)"/>
<path d="M66.547 21.6818C66.547 21.6818 51.2162 32.2018 46.3465 43.6612C41.4767 55.1206 70.155 64.7024 76.4979 61.6956C82.8409 58.6888 92.3388 41.5947 92.3388 32.2021C92.3388 22.8094 69.8117 19.2409 66.547 21.6818Z" fill="url(#grill_paint6_linear)"/>
<path d="M66.5469 21.6819C66.5469 21.6819 52.474 31.3401 47.0122 42.2283C54.5884 46.0821 64.1613 48.0042 67.5099 46.4169C72.6316 43.9889 79.8093 32.3769 82.3837 23.0504C75.9043 20.811 68.3354 20.3448 66.5469 21.6819Z" fill="url(#grill_paint7_linear)"/>
<g opacity="0.5">
<g opacity="0.5">
<path opacity="0.5" d="M67.1347 27.2924C68.031 27.2924 68.7576 26.5658 68.7576 25.6695C68.7576 24.7731 68.031 24.0465 67.1347 24.0465C66.2383 24.0465 65.5117 24.7731 65.5117 25.6695C65.5117 26.5658 66.2383 27.2924 67.1347 27.2924Z" fill="url(#grill_paint8_linear)"/>
<path opacity="0.5" d="M64.9882 31.6506C65.6958 31.6506 66.2694 31.077 66.2694 30.3694C66.2694 29.6619 65.6958 29.0883 64.9882 29.0883C64.2806 29.0883 63.707 29.6619 63.707 30.3694C63.707 31.077 64.2806 31.6506 64.9882 31.6506Z" fill="url(#grill_paint9_linear)"/>
<path opacity="0.5" d="M70.6759 31.1186C71.1025 31.1186 71.4483 30.7728 71.4483 30.3462C71.4483 29.9196 71.1025 29.5739 70.6759 29.5739C70.2494 29.5739 69.9036 29.9196 69.9036 30.3462C69.9036 30.7728 70.2494 31.1186 70.6759 31.1186Z" fill="url(#grill_paint10_linear)"/>
</g>
<g opacity="0.5">
<path opacity="0.5" d="M75.791 26.4124C76.4534 26.4124 76.9904 25.8754 76.9904 25.213C76.9904 24.5505 76.4534 24.0135 75.791 24.0135C75.1285 24.0135 74.5916 24.5505 74.5916 25.213C74.5916 25.8754 75.1285 26.4124 75.791 26.4124Z" fill="url(#grill_paint11_linear)"/>
<path opacity="0.5" d="M72.145 27.2929C72.6679 27.2929 73.0918 26.8691 73.0918 26.3462C73.0918 25.8233 72.6679 25.3994 72.145 25.3994C71.6221 25.3994 71.1982 25.8233 71.1982 26.3462C71.1982 26.8691 71.6221 27.2929 72.145 27.2929Z" fill="url(#grill_paint12_linear)"/>
<path opacity="0.5" d="M74.96 30.038C75.2753 30.038 75.5309 29.7824 75.5309 29.4671C75.5309 29.1518 75.2753 28.8962 74.96 28.8962C74.6448 28.8962 74.3892 29.1518 74.3892 29.4671C74.3892 29.7824 74.6448 30.038 74.96 30.038Z" fill="url(#grill_paint13_linear)"/>
</g>
</g>
<path d="M64.6982 31.4236C60.555 31.4236 56.6317 32.1898 53.1276 33.5556C50.3741 36.6433 47.8567 40.1068 46.3465 43.6612C41.4767 55.1206 70.155 64.7024 76.4979 61.6956C80.5479 59.7759 85.8832 52.1136 89.212 44.3795C85.0194 36.7453 75.6244 31.4236 64.6982 31.4236Z" fill="url(#grill_paint14_linear)"/>
<path d="M86.6854 49.5464C80.9389 41.6714 70.403 36.3903 58.3451 36.3903C55.5071 36.3903 52.7536 36.6838 50.1265 37.2338C48.603 39.2964 47.2821 41.4611 46.3474 43.6611C41.4777 55.1206 70.156 64.7023 76.4989 61.6956C79.6333 60.2097 83.5371 55.2832 86.6854 49.5464Z" fill="url(#grill_paint15_linear)"/>
<path d="M66.4793 48.6903L57.1157 58.0538C64.4904 61.5388 73.3122 63.2056 76.4984 61.6953C77.081 61.4191 77.6901 61.0238 78.316 60.5268L66.4793 48.6903Z" fill="url(#grill_paint16_linear)"/>
<path d="M31.4982 44.0764C37.9588 46.9947 45.1685 52.0585 51.8856 58.7756C58.6026 65.4926 63.6665 72.7026 66.5847 79.1629C68.1524 82.6332 73.4482 82.2253 77.3256 78.3476C79.915 75.7582 81.0941 72.3409 80.2259 69.902C77.6644 62.7058 72.085 54.217 64.2644 46.3967C56.4438 38.5761 47.955 32.9967 40.7591 30.4353C38.3203 29.567 34.9027 30.7461 32.3135 33.3355C28.4359 37.2129 28.0279 42.5088 31.4982 44.0764Z" fill="url(#grill_paint17_linear)"/>
<path d="M77.326 78.3477C79.9155 75.7582 81.0946 72.3409 80.2263 69.9021C80.2061 69.8447 80.1837 69.7868 80.1631 69.7294L65.1149 54.6812C64.694 54.2485 64.2434 53.8162 63.7593 53.3847C63.2484 52.9297 62.676 52.5497 62.0537 52.2609C58.5828 50.65 45.6375 45.0503 34.8843 45.7697C40.4193 48.7853 46.321 53.2106 51.886 58.7756C58.6031 65.4927 63.6669 72.7027 66.5852 79.1629C68.1525 82.6332 73.4484 82.225 77.326 78.3477Z" fill="url(#grill_paint18_linear)"/>
<path d="M63.7592 53.3847C63.2483 52.9297 62.676 52.5497 62.0536 52.2609C57.166 49.9923 33.4889 39.81 23.6057 50.5088C17.4501 57.1723 26.6463 68.4253 35.9998 77.0864C44.5413 84.9956 56.4128 86.3853 62.4219 80.1976C69.2283 73.1888 74.6257 63.0641 63.7592 53.3847Z" fill="url(#grill_paint19_linear)"/>
<path d="M63.7592 53.3847C63.2483 52.9297 62.676 52.5497 62.0536 52.2609C57.166 49.9923 33.4889 39.81 23.6057 50.5088C17.4501 57.1723 26.6463 68.4253 35.9998 77.0864C44.5416 84.9956 74.6257 63.0641 63.7592 53.3847Z" fill="url(#grill_paint20_linear)"/>
<g opacity="0.5">
<g opacity="0.5">
<path opacity="0.5" d="M53.4877 70.8926C53.9142 70.8926 54.26 70.5468 54.26 70.1203C54.26 69.6937 53.9142 69.3479 53.4877 69.3479C53.0611 69.3479 52.7153 69.6937 52.7153 70.1203C52.7153 70.5468 53.0611 70.8926 53.4877 70.8926Z" fill="url(#grill_paint21_linear)"/>
</g>
<g opacity="0.5">
<path opacity="0.5" d="M58.6037 66.1864C59.2661 66.1864 59.8031 65.6494 59.8031 64.987C59.8031 64.3246 59.2661 63.7876 58.6037 63.7876C57.9413 63.7876 57.4043 64.3246 57.4043 64.987C57.4043 65.6494 57.9413 66.1864 58.6037 66.1864Z" fill="url(#grill_paint22_linear)"/>
<path opacity="0.5" d="M54.9577 67.0674C55.4806 67.0674 55.9045 66.6435 55.9045 66.1206C55.9045 65.5977 55.4806 65.1738 54.9577 65.1738C54.4349 65.1738 54.011 65.5977 54.011 66.1206C54.011 66.6435 54.4349 67.0674 54.9577 67.0674Z" fill="url(#grill_paint23_linear)"/>
<path opacity="0.5" d="M57.7723 69.8123C58.0876 69.8123 58.3432 69.5567 58.3432 69.2414C58.3432 68.9261 58.0876 68.6705 57.7723 68.6705C57.457 68.6705 57.2014 68.9261 57.2014 69.2414C57.2014 69.5567 57.457 69.8123 57.7723 69.8123Z" fill="url(#grill_paint24_linear)"/>
</g>
</g>
<path d="M36 77.0865C41.66 82.3274 48.7806 84.7024 54.6903 83.91L40.7209 69.9406L34.75 75.9115C35.1653 76.308 35.5824 76.7 36 77.0865Z" fill="url(#grill_paint25_linear)"/>
<path d="M5.48747 65.1541C12.6072 68.7317 20.6801 74.6582 28.3413 82.3197C36.0025 89.9811 41.9292 98.0538 45.5069 105.173C47.4286 108.998 53.0681 108.933 56.9457 105.056C59.5351 102.467 60.5569 98.892 59.4563 96.2205C56.2086 88.3385 49.6404 78.8608 40.7204 69.9405C31.8004 61.0205 22.3228 54.452 14.4404 51.2047C11.7689 50.1041 8.19423 51.1258 5.60482 53.7153C1.72747 57.5926 1.66276 63.232 5.48747 65.1541Z" fill="url(#grill_paint26_radial)"/>
<path d="M28.3415 82.3197C36.0029 89.9812 41.9294 98.0538 45.5071 105.174C47.4288 108.998 53.0682 108.934 56.9459 105.056C58.5212 103.481 59.5118 101.541 59.8018 99.6623L35.4003 75.2609C33.6982 73.5588 30.9388 73.5588 29.2371 75.2609L25.1997 79.2982C26.2521 80.2732 27.3009 81.2788 28.3415 82.3197Z" fill="url(#grill_paint27_linear)"/>
<path d="M1.97772 108.684C0.275657 106.981 0.275657 104.222 1.97772 102.52L29.2371 75.2609C30.9392 73.5588 33.6986 73.5588 35.4004 75.2609C37.1024 76.9629 37.1024 79.7223 35.4004 81.4241L8.14095 108.684C6.43919 110.386 3.67977 110.386 1.97772 108.684Z" fill="url(#grill_paint28_linear)"/>
<path d="M108.557 68.0126C106.855 66.3105 106.855 63.5511 108.557 61.8494L141.058 29.3482C142.76 27.6461 145.519 27.6461 147.221 29.3482C148.923 31.0503 148.923 33.8097 147.221 35.5114L114.72 68.0126C113.018 69.7144 110.259 69.7144 108.557 68.0126Z" fill="url(#grill_paint29_linear)"/>
<path d="M107.434 37.3097C113.096 40.1547 119.516 44.8679 125.608 50.9609C131.701 57.0538 136.414 63.4735 139.26 69.1356C140.788 72.177 145.273 72.1259 148.356 69.042C150.416 66.9829 151.228 64.14 150.353 62.0156C147.77 55.7473 142.547 48.21 135.453 41.1165C128.359 34.0226 120.822 28.7991 114.554 26.2165C112.429 25.3412 109.586 26.1538 107.527 28.2129C104.444 31.2967 104.392 35.7815 107.434 37.3097Z" fill="url(#grill_paint30_radial)"/>
<path d="M109.875 38.6285C114.903 41.5168 120.376 45.728 125.609 50.9609C131.702 57.0535 136.415 63.4735 139.26 69.1356C140.788 72.1771 145.273 72.1259 148.357 69.0421C150.416 66.983 151.229 64.14 150.353 62.0156C149.803 60.6806 149.127 59.2856 148.345 57.8521L138.234 47.7418C137.776 47.263 137.281 46.7844 136.745 46.3074C136.235 45.8524 135.662 45.4724 135.04 45.1835C131.782 43.6718 120.178 38.6462 109.875 38.6285Z" fill="url(#grill_paint31_linear)"/>
<path d="M136.744 46.3073C136.233 45.8523 135.661 45.4723 135.039 45.1835C130.151 42.9149 106.474 32.7326 96.5908 43.4314C90.4352 50.0949 99.6314 61.3479 108.985 70.0091C117.526 77.9182 129.398 79.3079 135.407 73.1202C142.213 66.1114 147.611 55.9867 136.744 46.3073Z" fill="url(#grill_paint32_linear)"/>
<path d="M136.744 46.3073C136.233 45.8523 135.661 45.4723 135.039 45.1835C130.151 42.9149 106.474 32.7326 96.5908 43.4314C90.4352 50.0949 99.6314 61.3479 108.985 70.0091C117.527 77.9182 147.611 55.9867 136.744 46.3073Z" fill="url(#grill_paint33_linear)"/>
<g opacity="0.5">
<g opacity="0.5">
<path opacity="0.5" d="M126.473 63.8152C126.899 63.8152 127.245 63.4694 127.245 63.0429C127.245 62.6163 126.899 62.2705 126.473 62.2705C126.046 62.2705 125.7 62.6163 125.7 63.0429C125.7 63.4694 126.046 63.8152 126.473 63.8152Z" fill="url(#grill_paint34_linear)"/>
</g>
<g opacity="0.5">
<path opacity="0.5" d="M131.589 59.109C132.251 59.109 132.788 58.572 132.788 57.9096C132.788 57.2472 132.251 56.7102 131.589 56.7102C130.926 56.7102 130.389 57.2472 130.389 57.9096C130.389 58.572 130.926 59.109 131.589 59.109Z" fill="url(#grill_paint35_linear)"/>
<path opacity="0.5" d="M127.942 59.9897C128.465 59.9897 128.889 59.5658 128.889 59.0429C128.889 58.52 128.465 58.0961 127.942 58.0961C127.419 58.0961 126.996 58.52 126.996 59.0429C126.996 59.5658 127.419 59.9897 127.942 59.9897Z" fill="url(#grill_paint36_linear)"/>
<path opacity="0.5" d="M130.757 62.7346C131.073 62.7346 131.328 62.479 131.328 62.1637C131.328 61.8484 131.073 61.5928 130.757 61.5928C130.442 61.5928 130.187 61.8484 130.187 62.1637C130.187 62.479 130.442 62.7346 130.757 62.7346Z" fill="url(#grill_paint37_linear)"/>
</g>
</g>
<path d="M129.196 76.5547L116.838 64.197L110.074 70.9611C116.05 75.9591 123.38 77.9358 129.196 76.5547Z" fill="url(#grill_paint38_linear)"/>
<path d="M81.8792 59.6038C88.3398 62.5221 95.5495 67.5859 102.267 74.303C108.984 81.02 114.047 88.23 116.966 94.6903C118.533 98.1606 123.829 97.7527 127.707 93.875C130.296 91.2856 131.475 87.8683 130.607 85.4294C128.045 78.2333 122.466 69.7444 114.645 61.9241C106.825 54.1035 98.336 48.5241 91.1401 45.9627C88.7013 45.0944 85.2836 46.2735 82.6945 48.863C78.8169 52.7403 78.4086 58.0362 81.8792 59.6038Z" fill="url(#grill_paint39_linear)"/>
<path d="M114.183 72.0076C113.911 71.7053 113.606 71.4194 113.258 71.1565C104.558 64.5818 88.9847 63.1891 88.9847 63.1891C88.8433 63.1706 88.6818 63.1759 88.5056 63.2C93.0656 66.0656 97.7756 69.8123 102.266 74.3029C108.983 81.02 114.047 88.23 116.965 94.6903C118.533 98.1606 123.829 97.7526 127.706 93.875C129.304 92.2773 130.362 90.3647 130.737 88.5609L114.183 72.0076Z" fill="url(#grill_paint40_linear)"/>
<path d="M88.9849 63.1892C88.9849 63.1892 104.558 64.5818 113.258 71.1565C121.958 77.7312 106.354 97.2301 100.533 97.6706C94.7119 98.1112 80.174 89.2586 75.8313 82.163C71.4887 75.0674 85.5758 62.7412 88.9849 63.1892Z" fill="url(#grill_paint41_linear)"/>
<path d="M88.9848 63.1891C88.9848 63.1891 103.281 64.4686 112.13 70.3586C108.619 76.5088 102.821 82.0533 99.7474 82.2859C95.0471 82.6415 84.6648 76.9383 78.5542 70.9933C82.0454 66.5318 87.1171 62.9436 88.9848 63.1891Z" fill="url(#grill_paint42_linear)"/>
<g opacity="0.5">
<g opacity="0.5">
<path opacity="0.5" d="M86.2265 68.6233C87.1228 68.6233 87.8494 67.8967 87.8494 67.0004C87.8494 66.1041 87.1228 65.3774 86.2265 65.3774C85.3301 65.3774 84.6035 66.1041 84.6035 67.0004C84.6035 67.8967 85.3301 68.6233 86.2265 68.6233Z" fill="url(#grill_paint43_linear)"/>
<path opacity="0.5" d="M84.08 72.9816C84.7876 72.9816 85.3612 72.408 85.3612 71.7004C85.3612 70.9928 84.7876 70.4192 84.08 70.4192C83.3724 70.4192 82.7988 70.9928 82.7988 71.7004C82.7988 72.408 83.3724 72.9816 84.08 72.9816Z" fill="url(#grill_paint44_linear)"/>
<path opacity="0.5" d="M89.7677 72.4495C90.1943 72.4495 90.5401 72.1037 90.5401 71.6771C90.5401 71.2506 90.1943 70.9048 89.7677 70.9048C89.3412 70.9048 88.9954 71.2506 88.9954 71.6771C88.9954 72.1037 89.3412 72.4495 89.7677 72.4495Z" fill="url(#grill_paint45_linear)"/>
</g>
<g opacity="0.5">
<path opacity="0.5" d="M94.8828 67.7433C95.5452 67.7433 96.0822 67.2063 96.0822 66.5439C96.0822 65.8815 95.5452 65.3445 94.8828 65.3445C94.2203 65.3445 93.6833 65.8815 93.6833 66.5439C93.6833 67.2063 94.2203 67.7433 94.8828 67.7433Z" fill="url(#grill_paint46_linear)"/>
<path opacity="0.5" d="M91.2368 68.6239C91.7597 68.6239 92.1836 68.2 92.1836 67.6771C92.1836 67.1542 91.7597 66.7303 91.2368 66.7303C90.7139 66.7303 90.29 67.1542 90.29 67.6771C90.29 68.2 90.7139 68.6239 91.2368 68.6239Z" fill="url(#grill_paint47_linear)"/>
<path opacity="0.5" d="M94.0518 71.3689C94.3671 71.3689 94.6227 71.1133 94.6227 70.798C94.6227 70.4827 94.3671 70.2271 94.0518 70.2271C93.7366 70.2271 93.481 70.4827 93.481 70.798C93.481 71.1133 93.7366 71.3689 94.0518 71.3689Z" fill="url(#grill_paint48_linear)"/>
</g>
</g>
<path d="M94.7802 69.7577C97.6746 67.9862 100.769 66.8877 103.848 66.4215C107.2 67.5768 110.559 69.1171 113.258 71.1562C121.957 77.7309 106.353 97.2297 100.533 97.6703C96.8158 97.9515 89.5461 94.4445 83.6452 90.025C83.0449 82.4659 87.1475 74.4292 94.7802 69.7577Z" fill="url(#grill_paint49_linear)"/>
<path d="M87.7996 92.8482C88.1728 84.4426 93.0913 75.9485 101.515 70.7935C103.497 69.5803 105.556 68.6247 107.646 67.9171C109.664 68.8238 111.587 69.8944 113.257 71.1565C121.957 77.7312 106.353 97.23 100.533 97.6706C97.6557 97.8882 92.651 95.8356 87.7996 92.8482Z" fill="url(#grill_paint50_linear)"/>
<path d="M95.5396 87.1088C95.2258 86.7858 94.8896 86.4635 94.5285 86.1417C94.1488 85.8035 93.7232 85.5208 93.2605 85.3064C90.9008 84.2114 82.6511 80.6364 75.144 80.4417C75.2732 81.0408 75.4973 81.6176 75.8311 82.1632C80.1737 89.2588 94.7114 98.1111 100.533 97.6708C101.549 97.5941 102.864 96.9344 104.296 95.8655L95.5396 87.1088Z" fill="url(#grill_paint51_linear)"/>
<path d="M94.5285 86.1418C94.1488 85.8035 93.7233 85.5209 93.2606 85.3062C89.6271 83.6197 72.025 76.05 64.6777 84.0038C60.1015 88.9576 66.938 97.3232 73.8918 103.762C80.2418 109.642 89.0671 110.675 93.5344 106.075C98.5944 100.865 102.607 93.3376 94.5285 86.1418Z" fill="url(#grill_paint52_linear)"/>
<path d="M94.5285 86.1418C94.1488 85.8035 93.7232 85.5209 93.2606 85.3062C89.6271 83.6197 72.025 76.05 64.6777 84.0038C60.1015 88.9576 66.938 97.3232 73.8918 103.762C80.2418 109.642 102.607 93.3376 94.5285 86.1418Z" fill="url(#grill_paint53_linear)"/>
<path d="M73.892 103.762C79.7811 109.215 87.7967 110.496 92.4932 106.984L81.0394 95.5306L73.332 103.238C73.5185 103.414 73.7053 103.589 73.892 103.762Z" fill="url(#grill_paint54_linear)"/>
<path d="M50.2834 95.2212C56.2063 97.602 62.7128 101.962 68.6599 107.909C74.6069 113.856 78.9672 120.363 81.3481 126.286C82.6269 129.468 87.6428 128.779 91.5202 124.902C94.1096 122.312 95.4169 119.023 94.7384 116.774C92.7361 110.137 87.9628 102.454 81.0387 95.5303C74.1146 88.6062 66.4322 83.8329 59.7952 81.8306C57.5458 81.152 54.2566 82.4594 51.6672 85.0488C47.7902 88.9265 47.1016 93.9423 50.2834 95.2212Z" fill="url(#grill_paint55_linear)"/>
<path d="M74.0772 102.492C72.3751 100.79 69.6157 100.79 67.914 102.492L65.4792 104.927C66.5525 105.872 67.6151 106.865 68.6601 107.909C74.6072 113.856 78.9675 120.363 81.3484 126.286C82.6272 129.468 87.6431 128.779 91.5204 124.902C92.3981 124.024 93.1242 123.066 93.6798 122.095L74.0772 102.492Z" fill="url(#grill_paint56_linear)"/>
<path d="M40.6542 135.915C38.9522 134.213 38.9522 131.453 40.6542 129.752L67.9136 102.492C69.6157 100.79 72.3751 100.79 74.0769 102.492C75.7789 104.194 75.7789 106.954 74.0769 108.656L46.8175 135.915C45.1154 137.617 42.3563 137.617 40.6542 135.915Z" fill="url(#grill_paint57_linear)"/>
<defs>
<linearGradient id="grill_paint0_linear" x1="87.3486" y1="19.6477" x2="99.2015" y2="31.5005" gradientUnits="userSpaceOnUse">
<stop stop-color="#A57C52"/>
<stop offset="0.1339" stop-color="#A26C4A"/>
<stop offset="0.5155" stop-color="#994336"/>
<stop offset="0.8174" stop-color="#942A2A"/>
<stop offset="1" stop-color="#922125"/>
</linearGradient>
<linearGradient id="grill_paint1_linear" x1="94.4133" y1="11.2567" x2="89.2459" y2="24.2312" gradientUnits="userSpaceOnUse">
<stop stop-color="#FFDECF"/>
<stop offset="0.3791" stop-color="#FDC4B0"/>
<stop offset="0.7655" stop-color="#FBAE97"/>
<stop offset="1" stop-color="#FAA68E"/>
</linearGradient>
<linearGradient id="grill_paint2_linear" x1="92.1014" y1="13.1014" x2="91.092" y2="39.2261" gradientUnits="userSpaceOnUse">
<stop stop-color="#FFDECF"/>
<stop offset="0.3791" stop-color="#FDC4B0"/>
<stop offset="0.7655" stop-color="#FBAE97"/>
<stop offset="1" stop-color="#FAA68E"/>
</linearGradient>
<linearGradient id="grill_paint3_linear" x1="103.085" y1="33.962" x2="88.564" y2="19.4406" gradientUnits="userSpaceOnUse">
<stop stop-color="#F82814" stop-opacity="0"/>
<stop offset="0.2454" stop-color="#F12817" stop-opacity="0.245"/>
<stop offset="0.6052" stop-color="#DD2820" stop-opacity="0.605"/>
<stop offset="1" stop-color="#C0272D"/>
</linearGradient>
<linearGradient id="grill_paint4_linear" x1="91.7883" y1="18.873" x2="78.5212" y2="32.1401" gradientUnits="userSpaceOnUse">
<stop stop-color="#BADA00"/>
<stop offset="0.2269" stop-color="#B0CE00"/>
<stop offset="0.6378" stop-color="#95AE00"/>
<stop offset="1" stop-color="#798C00"/>
</linearGradient>
<linearGradient id="grill_paint5_linear" x1="104.297" y1="51.0662" x2="75.3795" y2="22.1486" gradientUnits="userSpaceOnUse">
<stop stop-color="#798C00" stop-opacity="0"/>
<stop offset="0.6542" stop-color="#556100" stop-opacity="0.654"/>
<stop offset="1" stop-color="#464F00"/>
</linearGradient>
<linearGradient id="grill_paint6_linear" x1="65.6026" y1="29.1556" x2="76.6541" y2="61.5612" gradientUnits="userSpaceOnUse">
<stop stop-color="#A57C52"/>
<stop offset="0.1339" stop-color="#A26C4A"/>
<stop offset="0.5155" stop-color="#994336"/>
<stop offset="0.8174" stop-color="#942A2A"/>
<stop offset="1" stop-color="#922125"/>
</linearGradient>
<linearGradient id="grill_paint7_linear" x1="64.126" y1="25.2766" x2="66.4543" y2="55.233" gradientUnits="userSpaceOnUse">
<stop stop-color="#A57C52"/>
<stop offset="0.1339" stop-color="#A26C4A"/>
<stop offset="0.5155" stop-color="#994336"/>
<stop offset="0.8174" stop-color="#942A2A"/>
<stop offset="1" stop-color="#922125"/>
</linearGradient>
<linearGradient id="grill_paint8_linear" x1="69.0475" y1="26.9789" x2="63.7323" y2="21.4353" gradientUnits="userSpaceOnUse">
<stop stop-color="#42210B" stop-opacity="0"/>
<stop offset="1" stop-color="#42210B"/>
</linearGradient>
<linearGradient id="grill_paint9_linear" x1="66.5432" y1="31.3027" x2="62.3474" y2="26.9264" gradientUnits="userSpaceOnUse">
<stop stop-color="#42210B" stop-opacity="0"/>
<stop offset="1" stop-color="#42210B"/>
</linearGradient>
<linearGradient id="grill_paint10_linear" x1="71.6932" y1="30.7186" x2="69.1636" y2="28.0802" gradientUnits="userSpaceOnUse">
<stop stop-color="#42210B" stop-opacity="0"/>
<stop offset="1" stop-color="#42210B"/>
</linearGradient>
<linearGradient id="grill_paint11_linear" x1="75.6198" y1="27.5622" x2="76.0567" y2="21.8996" gradientUnits="userSpaceOnUse">
<stop stop-color="#42210B" stop-opacity="0"/>
<stop offset="1" stop-color="#42210B"/>
</linearGradient>
<linearGradient id="grill_paint12_linear" x1="72.0015" y1="28.3125" x2="72.3465" y2="23.8419" gradientUnits="userSpaceOnUse">
<stop stop-color="#42210B" stop-opacity="0"/>
<stop offset="1" stop-color="#42210B"/>
</linearGradient>
<linearGradient id="grill_paint13_linear" x1="74.8617" y1="30.8643" x2="75.0696" y2="28.1692" gradientUnits="userSpaceOnUse">
<stop stop-color="#42210B" stop-opacity="0"/>
<stop offset="1" stop-color="#42210B"/>
</linearGradient>
<linearGradient id="grill_paint14_linear" x1="78.4832" y1="38.7389" x2="103.835" y2="22.1827" gradientUnits="userSpaceOnUse">
<stop stop-color="#42210B" stop-opacity="0"/>
<stop offset="1" stop-color="#42210B"/>
</linearGradient>
<linearGradient id="grill_paint15_linear" x1="75.3365" y1="41.6532" x2="97.4039" y2="27.242" gradientUnits="userSpaceOnUse">
<stop stop-color="#42210B" stop-opacity="0"/>
<stop offset="1" stop-color="#42210B"/>
</linearGradient>
<linearGradient id="grill_paint16_linear" x1="79.9281" y1="71.5029" x2="63.4116" y2="54.9865" gradientUnits="userSpaceOnUse">
<stop stop-color="#42210B" stop-opacity="0"/>
<stop offset="1" stop-color="#42210B"/>
</linearGradient>
<linearGradient id="grill_paint17_linear" x1="63.4356" y1="47.2256" x2="50.1688" y2="60.4923" gradientUnits="userSpaceOnUse">
<stop stop-color="#FFD945"/>
<stop offset="0.3043" stop-color="#FFCD3E"/>
<stop offset="0.8558" stop-color="#FFAD2B"/>
<stop offset="1" stop-color="#FFA325"/>
</linearGradient>
<linearGradient id="grill_paint18_linear" x1="83.2628" y1="84.5177" x2="29.7531" y2="31.0079" gradientUnits="userSpaceOnUse">
<stop stop-color="#F82814" stop-opacity="0"/>
<stop offset="1" stop-color="#C0272D"/>
</linearGradient>
<linearGradient id="grill_paint19_linear" x1="52.8642" y1="48.5847" x2="38.5845" y2="74.4538" gradientUnits="userSpaceOnUse">
<stop stop-color="#A57C52"/>
<stop offset="0.1339" stop-color="#A26C4A"/>
<stop offset="0.5155" stop-color="#994336"/>
<stop offset="0.8174" stop-color="#942A2A"/>
<stop offset="1" stop-color="#922125"/>
</linearGradient>
<linearGradient id="grill_paint20_linear" x1="44.5939" y1="50.9844" x2="39.4201" y2="92.9959" gradientUnits="userSpaceOnUse">
<stop stop-color="#A57C52"/>
<stop offset="0.1339" stop-color="#A26C4A"/>
<stop offset="0.5155" stop-color="#994336"/>
<stop offset="0.8174" stop-color="#942A2A"/>
<stop offset="1" stop-color="#922125"/>
</linearGradient>
<linearGradient id="grill_paint21_linear" x1="54.5236" y1="70.487" x2="51.9937" y2="67.8487" gradientUnits="userSpaceOnUse">
<stop stop-color="#42210B" stop-opacity="0"/>
<stop offset="1" stop-color="#42210B"/>
</linearGradient>
<linearGradient id="grill_paint22_linear" x1="58.4203" y1="67.3554" x2="58.8574" y2="61.6926" gradientUnits="userSpaceOnUse">
<stop stop-color="#42210B" stop-opacity="0"/>
<stop offset="1" stop-color="#42210B"/>
</linearGradient>
<linearGradient id="grill_paint23_linear" x1="54.802" y1="68.1053" x2="55.1472" y2="63.6349" gradientUnits="userSpaceOnUse">
<stop stop-color="#42210B" stop-opacity="0"/>
<stop offset="1" stop-color="#42210B"/>
</linearGradient>
<linearGradient id="grill_paint24_linear" x1="57.662" y1="70.657" x2="57.8699" y2="67.9619" gradientUnits="userSpaceOnUse">
<stop stop-color="#42210B" stop-opacity="0"/>
<stop offset="1" stop-color="#42210B"/>
</linearGradient>
<linearGradient id="grill_paint25_linear" x1="61.1727" y1="96.3638" x2="39.2518" y2="74.4427" gradientUnits="userSpaceOnUse">
<stop stop-color="#42210B" stop-opacity="0"/>
<stop offset="1" stop-color="#42210B"/>
</linearGradient>
<radialGradient id="grill_paint26_radial" cx="0" cy="0" r="1" gradientUnits="userSpaceOnUse" gradientTransform="translate(23.9034 87.7091) rotate(-135) scale(43.5634 20.7034)">
<stop stop-color="#FF6359"/>
<stop offset="0.4845" stop-color="#FF6157"/>
<stop offset="0.6591" stop-color="#FE5C50"/>
<stop offset="0.7835" stop-color="#FD5145"/>
<stop offset="0.884" stop-color="#FB4334"/>
<stop offset="0.9692" stop-color="#F9311E"/>
<stop offset="1" stop-color="#F82814"/>
</radialGradient>
<linearGradient id="grill_paint27_linear" x1="52.8629" y1="102.811" x2="27.8715" y2="77.8191" gradientUnits="userSpaceOnUse">
<stop stop-color="#F82814" stop-opacity="0"/>
<stop offset="1" stop-color="#C0272D"/>
</linearGradient>
<linearGradient id="grill_paint28_linear" x1="16.8361" y1="90.1603" x2="28.6889" y2="102.013" gradientUnits="userSpaceOnUse">
<stop stop-color="#A57C52"/>
<stop offset="0.1339" stop-color="#A26C4A"/>
<stop offset="0.5155" stop-color="#994336"/>
<stop offset="0.8174" stop-color="#942A2A"/>
<stop offset="1" stop-color="#922125"/>
</linearGradient>
<linearGradient id="grill_paint29_linear" x1="126.019" y1="46.8748" x2="137.872" y2="58.7279" gradientUnits="userSpaceOnUse">
<stop stop-color="#A57C52"/>
<stop offset="0.1339" stop-color="#A26C4A"/>
<stop offset="0.5155" stop-color="#994336"/>
<stop offset="0.8174" stop-color="#942A2A"/>
<stop offset="1" stop-color="#922125"/>
</linearGradient>
<radialGradient id="grill_paint30_radial" cx="0" cy="0" r="1" gradientUnits="userSpaceOnUse" gradientTransform="translate(122.034 55.2631) rotate(-135) scale(34.6442 16.4646)">
<stop stop-color="#FF6359"/>
<stop offset="0.4845" stop-color="#FF6157"/>
<stop offset="0.6591" stop-color="#FE5C50"/>
<stop offset="0.7835" stop-color="#FD5145"/>
<stop offset="0.884" stop-color="#FB4334"/>
<stop offset="0.9692" stop-color="#F9311E"/>
<stop offset="1" stop-color="#F82814"/>
</radialGradient>
<linearGradient id="grill_paint31_linear" x1="150.74" y1="61.2853" x2="141.117" y2="58.4915" gradientUnits="userSpaceOnUse">
<stop stop-color="#F82814" stop-opacity="0"/>
<stop offset="1" stop-color="#C0272D"/>
</linearGradient>
<linearGradient id="grill_paint32_linear" x1="125.849" y1="41.507" x2="111.57" y2="67.3761" gradientUnits="userSpaceOnUse">
<stop stop-color="#A57C52"/>
<stop offset="0.1339" stop-color="#A26C4A"/>
<stop offset="0.5155" stop-color="#994336"/>
<stop offset="0.8174" stop-color="#942A2A"/>
<stop offset="1" stop-color="#922125"/>
</linearGradient>
<linearGradient id="grill_paint33_linear" x1="117.579" y1="43.907" x2="112.405" y2="85.9185" gradientUnits="userSpaceOnUse">
<stop stop-color="#A57C52"/>
<stop offset="0.1339" stop-color="#A26C4A"/>
<stop offset="0.5155" stop-color="#994336"/>
<stop offset="0.8174" stop-color="#942A2A"/>
<stop offset="1" stop-color="#922125"/>
</linearGradient>
<linearGradient id="grill_paint34_linear" x1="127.485" y1="63.3872" x2="124.955" y2="60.7488" gradientUnits="userSpaceOnUse">
<stop stop-color="#42210B" stop-opacity="0"/>
<stop offset="1" stop-color="#42210B"/>
</linearGradient>
<linearGradient id="grill_paint35_linear" x1="131.443" y1="60.2804" x2="131.88" y2="54.6175" gradientUnits="userSpaceOnUse">
<stop stop-color="#42210B" stop-opacity="0"/>
<stop offset="1" stop-color="#42210B"/>
</linearGradient>
<linearGradient id="grill_paint36_linear" x1="127.824" y1="61.0303" x2="128.169" y2="56.5601" gradientUnits="userSpaceOnUse">
<stop stop-color="#42210B" stop-opacity="0"/>
<stop offset="1" stop-color="#42210B"/>
</linearGradient>
<linearGradient id="grill_paint37_linear" x1="130.684" y1="63.582" x2="130.892" y2="60.8868" gradientUnits="userSpaceOnUse">
<stop stop-color="#42210B" stop-opacity="0"/>
<stop offset="1" stop-color="#42210B"/>
</linearGradient>
<linearGradient id="grill_paint38_linear" x1="132.973" y1="87.0958" x2="113.837" y2="67.9606" gradientUnits="userSpaceOnUse">
<stop stop-color="#42210B" stop-opacity="0"/>
<stop offset="1" stop-color="#42210B"/>
</linearGradient>
<linearGradient id="grill_paint39_linear" x1="113.817" y1="62.753" x2="100.55" y2="76.02" gradientUnits="userSpaceOnUse">
<stop stop-color="#BADA00"/>
<stop offset="0.2269" stop-color="#B0CE00"/>
<stop offset="0.6378" stop-color="#95AE00"/>
<stop offset="1" stop-color="#798C00"/>
</linearGradient>
<linearGradient id="grill_paint40_linear" x1="126.472" y1="94.4244" x2="93.6627" y2="61.6153" gradientUnits="userSpaceOnUse">
<stop stop-color="#798C00" stop-opacity="0"/>
<stop offset="0.6542" stop-color="#556100" stop-opacity="0.654"/>
<stop offset="1" stop-color="#464F00"/>
</linearGradient>
<linearGradient id="grill_paint41_linear" x1="93.3268" y1="68.3351" x2="99.9253" y2="97.7741" gradientUnits="userSpaceOnUse">
<stop stop-color="#A57C52"/>
<stop offset="0.1339" stop-color="#A26C4A"/>
<stop offset="0.5155" stop-color="#994336"/>
<stop offset="0.8174" stop-color="#942A2A"/>
<stop offset="1" stop-color="#922125"/>
</linearGradient>
<linearGradient id="grill_paint42_linear" x1="92.388" y1="64.8498" x2="104.489" y2="88.5794" gradientUnits="userSpaceOnUse">
<stop stop-color="#A57C52"/>
<stop offset="0.1339" stop-color="#A26C4A"/>
<stop offset="0.5155" stop-color="#994336"/>
<stop offset="0.8174" stop-color="#942A2A"/>
<stop offset="1" stop-color="#922125"/>
</linearGradient>
<linearGradient id="grill_paint43_linear" x1="88.1478" y1="68.2914" x2="82.8326" y2="62.748" gradientUnits="userSpaceOnUse">
<stop stop-color="#42210B" stop-opacity="0"/>
<stop offset="1" stop-color="#42210B"/>
</linearGradient>
<linearGradient id="grill_paint44_linear" x1="85.6434" y1="72.6151" x2="81.4473" y2="68.239" gradientUnits="userSpaceOnUse">
<stop stop-color="#42210B" stop-opacity="0"/>
<stop offset="1" stop-color="#42210B"/>
</linearGradient>
<linearGradient id="grill_paint45_linear" x1="90.7935" y1="72.031" x2="88.2635" y2="69.3927" gradientUnits="userSpaceOnUse">
<stop stop-color="#42210B" stop-opacity="0"/>
<stop offset="1" stop-color="#42210B"/>
</linearGradient>
<linearGradient id="grill_paint46_linear" x1="94.7179" y1="68.9157" x2="95.1548" y2="63.253" gradientUnits="userSpaceOnUse">
<stop stop-color="#42210B" stop-opacity="0"/>
<stop offset="1" stop-color="#42210B"/>
</linearGradient>
<linearGradient id="grill_paint47_linear" x1="91.0994" y1="69.6657" x2="91.4446" y2="65.1953" gradientUnits="userSpaceOnUse">
<stop stop-color="#42210B" stop-opacity="0"/>
<stop offset="1" stop-color="#42210B"/>
</linearGradient>
<linearGradient id="grill_paint48_linear" x1="93.9596" y1="72.2175" x2="94.1675" y2="69.5223" gradientUnits="userSpaceOnUse">
<stop stop-color="#42210B" stop-opacity="0"/>
<stop offset="1" stop-color="#42210B"/>
</linearGradient>
<linearGradient id="grill_paint49_linear" x1="88.7337" y1="81.6851" x2="63.718" y2="80.9505" gradientUnits="userSpaceOnUse">
<stop stop-color="#42210B" stop-opacity="0"/>
<stop offset="1" stop-color="#42210B"/>
</linearGradient>
<linearGradient id="grill_paint50_linear" x1="92.3856" y1="82.4843" x2="70.7765" y2="81.8498" gradientUnits="userSpaceOnUse">
<stop stop-color="#42210B" stop-opacity="0"/>
<stop offset="1" stop-color="#42210B"/>
</linearGradient>
<linearGradient id="grill_paint51_linear" x1="105.855" y1="105.16" x2="89.0135" y2="88.3185" gradientUnits="userSpaceOnUse">
<stop stop-color="#42210B" stop-opacity="0"/>
<stop offset="1" stop-color="#42210B"/>
</linearGradient>
<linearGradient id="grill_paint52_linear" x1="82.5137" y1="88.5251" x2="76.15" y2="104.503" gradientUnits="userSpaceOnUse">
<stop stop-color="#FFDECF"/>
<stop offset="0.3791" stop-color="#FDC4B0"/>
<stop offset="0.7655" stop-color="#FBAE97"/>
<stop offset="1" stop-color="#FAA68E"/>
</linearGradient>
<linearGradient id="grill_paint53_linear" x1="79.6664" y1="90.7966" x2="78.4235" y2="122.969" gradientUnits="userSpaceOnUse">
<stop stop-color="#FFDECF"/>
<stop offset="0.3791" stop-color="#FDC4B0"/>
<stop offset="0.7655" stop-color="#FBAE97"/>
<stop offset="1" stop-color="#FAA68E"/>
</linearGradient>
<linearGradient id="grill_paint54_linear" x1="88.6394" y1="110.838" x2="77.1856" y2="99.3844" gradientUnits="userSpaceOnUse">
<stop stop-color="#F82814" stop-opacity="0"/>
<stop offset="0.2454" stop-color="#F12817" stop-opacity="0.245"/>
<stop offset="0.6052" stop-color="#DD2820" stop-opacity="0.605"/>
<stop offset="1" stop-color="#C0272D"/>
</linearGradient>
<linearGradient id="grill_paint55_linear" x1="80.2786" y1="96.4281" x2="67.0116" y2="109.695" gradientUnits="userSpaceOnUse">
<stop stop-color="#FFD945"/>
<stop offset="0.3043" stop-color="#FFCD3E"/>
<stop offset="0.8558" stop-color="#FFAD2B"/>
<stop offset="1" stop-color="#FFA325"/>
</linearGradient>
<linearGradient id="grill_paint56_linear" x1="86.689" y1="123.549" x2="55.4151" y2="92.2755" gradientUnits="userSpaceOnUse">
<stop stop-color="#F82814" stop-opacity="0"/>
<stop offset="1" stop-color="#C0272D"/>
</linearGradient>
<linearGradient id="grill_paint57_linear" x1="55.5067" y1="117.387" x2="67.3598" y2="129.241" gradientUnits="userSpaceOnUse">
<stop stop-color="#A57C52"/>
<stop offset="0.1339" stop-color="#A26C4A"/>
<stop offset="0.5155" stop-color="#994336"/>
<stop offset="0.8174" stop-color="#942A2A"/>
<stop offset="1" stop-color="#922125"/>
</linearGradient>
</defs>
</svg>
