<svg width="151" height="132" viewBox="0 0 151 132" fill="none" xmlns="http://www.w3.org/2000/svg">
<path d="M75.2545 121.483C56.658 121.483 39.5916 119.649 26.2236 116.593C28.1469 121.658 31.7601 125.488 36.2154 126.714C46.2707 129.481 60.051 131.188 75.2545 131.188C90.458 131.188 104.238 129.481 114.294 126.714C118.749 125.488 122.362 121.658 124.285 116.593C110.917 119.649 93.851 121.483 75.2545 121.483Z" fill="url(#pancakes_paint0_linear)"/>
<path d="M150.254 107.119C150.254 132.831 0.254395 132.831 0.254395 107.119C0.254395 81.4065 150.254 81.4065 150.254 107.119Z" fill="url(#pancakes_paint1_linear)"/>
<path d="M139.96 105.233C139.96 123.565 10.5486 123.565 10.5486 105.233C10.5486 86.9016 139.96 86.9016 139.96 105.233Z" fill="url(#pancakes_paint2_linear)"/>
<path d="M150.254 107.119C150.254 86.81 56.6774 82.5424 17.3456 94.3153C17.4459 94.4321 17.5468 94.5486 17.6556 94.6633C15.5953 96.2906 14.4495 98.1127 14.4495 100.131C14.4495 102.018 15.4506 103.733 17.2633 105.279L35.783 123.799C80.1392 130.258 150.254 124.699 150.254 107.119Z" fill="url(#pancakes_paint3_linear)"/>
<path d="M136.06 100.131C136.06 120.977 14.4504 120.977 14.4504 100.131C14.4504 79.2854 136.06 79.2854 136.06 100.131Z" fill="url(#pancakes_paint4_linear)"/>
<g opacity="0.6">
<g opacity="0.6">
<path opacity="0.6" d="M116.391 95.7491C117.501 95.7491 118.401 94.6392 118.401 93.27C118.401 91.9008 117.501 90.7909 116.391 90.7909C115.281 90.7909 114.381 91.9008 114.381 93.27C114.381 94.6392 115.281 95.7491 116.391 95.7491Z" fill="url(#pancakes_paint5_linear)"/>
<path opacity="0.6" d="M112.66 101.639C113.536 101.639 114.246 100.762 114.246 99.6812C114.246 98.6002 113.536 97.7239 112.66 97.7239C111.783 97.7239 111.073 98.6002 111.073 99.6812C111.073 100.762 111.783 101.639 112.66 101.639Z" fill="url(#pancakes_paint6_linear)"/>
<path opacity="0.6" d="M119.576 102.504C120.104 102.504 120.533 101.975 120.533 101.324C120.533 100.672 120.104 100.144 119.576 100.144C119.047 100.144 118.619 100.672 118.619 101.324C118.619 101.975 119.047 102.504 119.576 102.504Z" fill="url(#pancakes_paint7_linear)"/>
</g>
<g opacity="0.6">
<path opacity="0.6" d="M127.019 96.9706C127.84 96.9706 128.505 96.1504 128.505 95.1386C128.505 94.1268 127.84 93.3065 127.019 93.3065C126.199 93.3065 125.534 94.1268 125.534 95.1386C125.534 96.1504 126.199 96.9706 127.019 96.9706Z" fill="url(#pancakes_paint8_linear)"/>
<path opacity="0.6" d="M122.318 97.208C122.966 97.208 123.491 96.5605 123.491 95.7618C123.491 94.9631 122.966 94.3157 122.318 94.3157C121.67 94.3157 121.145 94.9631 121.145 95.7618C121.145 96.5605 121.67 97.208 122.318 97.208Z" fill="url(#pancakes_paint9_linear)"/>
<path opacity="0.6" d="M124.992 102.142C125.383 102.142 125.699 101.751 125.699 101.27C125.699 100.788 125.383 100.397 124.992 100.397C124.602 100.397 124.286 100.788 124.286 101.27C124.286 101.751 124.602 102.142 124.992 102.142Z" fill="url(#pancakes_paint10_linear)"/>
</g>
</g>
<path d="M136.059 100.131C136.059 95.3486 129.655 91.6642 119.79 89.0759H30.7186C20.8536 91.6639 14.4495 95.3486 14.4495 100.131C14.4498 120.977 136.059 120.977 136.059 100.131Z" fill="url(#pancakes_paint11_linear)"/>
<path d="M136.06 89.0763C136.06 109.922 14.4504 109.922 14.4504 89.0763C14.4504 68.2304 136.06 68.2304 136.06 89.0763Z" fill="url(#pancakes_paint12_linear)"/>
<path d="M136.059 89.0763C136.059 84.2936 129.655 80.6092 119.79 78.021H30.7186C20.8536 80.6089 14.4495 84.2936 14.4495 89.076C14.4498 109.922 136.059 109.922 136.059 89.0763Z" fill="url(#pancakes_paint13_linear)"/>
<g opacity="0.6">
<g opacity="0.6">
<path opacity="0.6" d="M35.6811 92.9581C36.7912 92.9581 37.6911 92.096 37.6911 91.0325C37.6911 89.969 36.7912 89.1069 35.6811 89.1069C34.571 89.1069 33.6711 89.969 33.6711 91.0325C33.6711 92.096 34.571 92.9581 35.6811 92.9581Z" fill="url(#pancakes_paint14_linear)"/>
<path opacity="0.6" d="M31.9491 97.5319C32.8254 97.5319 33.5358 96.8514 33.5358 96.0119C33.5358 95.1725 32.8254 94.4919 31.9491 94.4919C31.0727 94.4919 30.3623 95.1725 30.3623 96.0119C30.3623 96.8514 31.0727 97.5319 31.9491 97.5319Z" fill="url(#pancakes_paint15_linear)"/>
<path opacity="0.6" d="M38.8657 98.204C39.3941 98.204 39.8225 97.7937 39.8225 97.2876C39.8225 96.7814 39.3941 96.3711 38.8657 96.3711C38.3373 96.3711 37.9089 96.7814 37.9089 97.2876C37.9089 97.7937 38.3373 98.204 38.8657 98.204Z" fill="url(#pancakes_paint16_linear)"/>
</g>
<g opacity="0.6">
<path opacity="0.6" d="M46.3085 93.9067C47.1288 93.9067 47.7938 93.2696 47.7938 92.4837C47.7938 91.6979 47.1288 91.0608 46.3085 91.0608C45.4882 91.0608 44.8232 91.6979 44.8232 92.4837C44.8232 93.2696 45.4882 93.9067 46.3085 93.9067Z" fill="url(#pancakes_paint17_linear)"/>
<path opacity="0.6" d="M41.6075 94.0911C42.2551 94.0911 42.7801 93.5882 42.7801 92.9678C42.7801 92.3475 42.2551 91.8446 41.6075 91.8446C40.9598 91.8446 40.4348 92.3475 40.4348 92.9678C40.4348 93.5882 40.9598 94.0911 41.6075 94.0911Z" fill="url(#pancakes_paint18_linear)"/>
<path opacity="0.6" d="M44.282 97.9226C44.6723 97.9226 44.9887 97.6195 44.9887 97.2455C44.9887 96.8716 44.6723 96.5685 44.282 96.5685C43.8916 96.5685 43.5752 96.8716 43.5752 97.2455C43.5752 97.6195 43.8916 97.9226 44.282 97.9226Z" fill="url(#pancakes_paint19_linear)"/>
</g>
</g>
<path d="M136.06 78.0209C136.06 98.8668 14.4504 98.8668 14.4504 78.0209C14.4504 57.175 136.06 57.175 136.06 78.0209Z" fill="url(#pancakes_paint20_linear)"/>
<path d="M136.059 78.0209C136.059 73.2382 129.655 69.5538 119.79 66.9656H30.7186C20.8536 69.5535 14.4495 73.2382 14.4495 78.0206C14.4498 98.8668 136.059 98.8668 136.059 78.0209Z" fill="url(#pancakes_paint21_linear)"/>
<g opacity="0.6">
<g opacity="0.6">
<path opacity="0.6" d="M78.698 85.2512C79.8081 85.2512 80.708 84.3891 80.708 83.3256C80.708 82.2621 79.8081 81.4 78.698 81.4C77.5879 81.4 76.688 82.2621 76.688 83.3256C76.688 84.3891 77.5879 85.2512 78.698 85.2512Z" fill="url(#pancakes_paint22_linear)"/>
<path opacity="0.6" d="M74.9659 89.8247C75.8423 89.8247 76.5527 89.1441 76.5527 88.3047C76.5527 87.4652 75.8423 86.7847 74.9659 86.7847C74.0896 86.7847 73.3792 87.4652 73.3792 88.3047C73.3792 89.1441 74.0896 89.8247 74.9659 89.8247Z" fill="url(#pancakes_paint23_linear)"/>
<path opacity="0.6" d="M81.8825 90.4968C82.4109 90.4968 82.8393 90.0864 82.8393 89.5803C82.8393 89.0741 82.4109 88.6638 81.8825 88.6638C81.3541 88.6638 80.9258 89.0741 80.9258 89.5803C80.9258 90.0864 81.3541 90.4968 81.8825 90.4968Z" fill="url(#pancakes_paint24_linear)"/>
</g>
</g>
<path d="M136.06 66.966C136.06 87.8118 14.4504 87.8118 14.4504 66.966C14.4504 46.1201 136.06 46.1201 136.06 66.966Z" fill="url(#pancakes_paint25_linear)"/>
<path d="M136.059 66.9659C136.059 62.1833 129.655 58.4989 119.79 55.9106H30.7186C20.8536 58.4986 14.4495 62.1833 14.4495 66.9656C14.4498 87.8118 136.059 87.8118 136.059 66.9659Z" fill="url(#pancakes_paint26_linear)"/>
<g opacity="0.6">
<g opacity="0.6">
<path opacity="0.6" d="M127.019 64.6759C127.84 64.6759 128.505 63.9847 128.505 63.1321C128.505 62.2794 127.84 61.5883 127.019 61.5883C126.199 61.5883 125.534 62.2794 125.534 63.1321C125.534 63.9847 126.199 64.6759 127.019 64.6759Z" fill="url(#pancakes_paint27_linear)"/>
<path opacity="0.6" d="M122.318 64.8759C122.966 64.8759 123.491 64.3303 123.491 63.6574C123.491 62.9844 122.966 62.4388 122.318 62.4388C121.671 62.4388 121.146 62.9844 121.146 63.6574C121.146 64.3303 121.671 64.8759 122.318 64.8759Z" fill="url(#pancakes_paint28_linear)"/>
<path opacity="0.6" d="M124.993 69.0329C125.383 69.0329 125.699 68.7039 125.699 68.2982C125.699 67.8924 125.383 67.5635 124.993 67.5635C124.602 67.5635 124.286 67.8924 124.286 68.2982C124.286 68.7039 124.602 69.0329 124.993 69.0329Z" fill="url(#pancakes_paint29_linear)"/>
</g>
</g>
<path d="M136.06 55.9105C136.06 76.7564 14.4504 76.7564 14.4504 55.9105C14.4504 35.0647 136.06 35.0647 136.06 55.9105Z" fill="url(#pancakes_paint30_linear)"/>
<path d="M136.059 55.9105C136.059 51.1279 129.655 47.4435 119.79 44.8552H30.7186C20.8536 47.4432 14.4495 51.1279 14.4495 55.9102C14.4498 76.7564 136.059 76.7564 136.059 55.9105Z" fill="url(#pancakes_paint31_linear)"/>
<path d="M136.06 44.8556C136.06 65.7015 14.4504 65.7015 14.4504 44.8556C14.4504 24.0097 136.06 24.0094 136.06 44.8556Z" fill="url(#pancakes_paint32_linear)"/>
<g opacity="0.6">
<g opacity="0.6">
<path opacity="0.6" d="M116.391 40.4731C117.501 40.4731 118.401 39.3632 118.401 37.994C118.401 36.6248 117.501 35.5149 116.391 35.5149C115.281 35.5149 114.381 36.6248 114.381 37.994C114.381 39.3632 115.281 40.4731 116.391 40.4731Z" fill="url(#pancakes_paint33_linear)"/>
<path opacity="0.6" d="M112.66 46.3625C113.536 46.3625 114.246 45.4861 114.246 44.4051C114.246 43.3241 113.536 42.4478 112.66 42.4478C111.783 42.4478 111.073 43.3241 111.073 44.4051C111.073 45.4861 111.783 46.3625 112.66 46.3625Z" fill="url(#pancakes_paint34_linear)"/>
<path opacity="0.6" d="M119.576 47.2277C120.104 47.2277 120.533 46.6994 120.533 46.0477C120.533 45.396 120.104 44.8677 119.576 44.8677C119.047 44.8677 118.619 45.396 118.619 46.0477C118.619 46.6994 119.047 47.2277 119.576 47.2277Z" fill="url(#pancakes_paint35_linear)"/>
</g>
<g opacity="0.6">
<path opacity="0.6" d="M127.019 41.6945C127.84 41.6945 128.505 40.8743 128.505 39.8625C128.505 38.8506 127.84 38.0304 127.019 38.0304C126.199 38.0304 125.534 38.8506 125.534 39.8625C125.534 40.8743 126.199 41.6945 127.019 41.6945Z" fill="url(#pancakes_paint36_linear)"/>
<path opacity="0.6" d="M122.318 41.932C122.966 41.932 123.491 41.2846 123.491 40.4859C123.491 39.6872 122.966 39.0397 122.318 39.0397C121.67 39.0397 121.145 39.6872 121.145 40.4859C121.145 41.2846 121.67 41.932 122.318 41.932Z" fill="url(#pancakes_paint37_linear)"/>
<path opacity="0.6" d="M124.992 46.8653C125.383 46.8653 125.699 46.4749 125.699 45.9933C125.699 45.5116 125.383 45.1212 124.992 45.1212C124.602 45.1212 124.286 45.5116 124.286 45.9933C124.286 46.4749 124.602 46.8653 124.992 46.8653Z" fill="url(#pancakes_paint38_linear)"/>
</g>
</g>
<path d="M136.059 44.8556C136.059 40.0729 129.655 36.3885 119.79 33.8003H30.7186C20.8536 36.3882 14.4495 40.0729 14.4495 44.8553C14.4498 65.7015 136.059 65.7015 136.059 44.8556Z" fill="url(#pancakes_paint39_linear)"/>
<path d="M136.059 100.131C136.059 98.0879 134.887 96.2462 132.779 94.6035C134.886 92.9609 136.059 91.1191 136.059 89.0759C136.059 87.0326 134.887 85.1909 132.779 83.5485C134.886 81.9059 136.059 80.0641 136.059 78.0209C136.059 75.9776 134.887 74.1359 132.779 72.4935C134.886 70.8509 136.059 69.0091 136.059 66.9659C136.059 64.9229 134.887 63.0809 132.779 61.4385C134.886 59.7959 136.059 57.9541 136.059 55.9109C136.059 53.8676 134.887 52.0259 132.779 50.3835C134.886 48.7409 136.059 46.8991 136.059 44.8559C136.059 27.6679 53.386 24.6526 24.3718 35.8088V66.9118C24.3718 68.6965 25.2577 70.2715 26.6112 71.2306L71.1142 115.734C102.832 116.228 136.059 111.028 136.059 100.131Z" fill="url(#pancakes_paint40_linear)"/>
<path d="M136.059 44.8557C136.059 33.2169 98.1519 28.0774 64.666 29.4354V94.3116C64.666 96.076 65.5313 97.633 66.8563 98.5948L83.8854 115.624C111.154 114.729 136.059 109.565 136.059 100.132C136.059 98.0886 134.887 96.2466 132.779 94.6042C134.886 92.9616 136.059 91.1198 136.059 89.0766C136.059 87.0333 134.887 85.1916 132.779 83.5492C134.886 81.9066 136.059 80.0648 136.059 78.0216C136.059 75.9783 134.887 74.1366 132.779 72.4942C134.886 70.8516 136.059 69.0098 136.059 66.9666C136.059 64.9236 134.887 63.0816 132.779 61.4392C134.886 59.7966 136.059 57.9548 136.059 55.9116C136.059 53.8683 134.887 52.0266 132.779 50.3842C134.886 48.7407 136.059 46.8986 136.059 44.8557Z" fill="url(#pancakes_paint41_linear)"/>
<path d="M136.059 100.131C136.059 98.088 134.887 96.2462 132.779 94.6036C134.887 92.9609 136.059 91.1192 136.059 89.0759C136.059 87.0327 134.887 85.1909 132.779 83.5486C134.887 81.9059 136.059 80.0642 136.059 78.0209C136.059 75.9777 134.887 74.1359 132.779 72.4936C134.887 70.8509 136.059 69.0092 136.059 66.9659C136.059 64.923 134.887 63.0809 132.779 61.4386C134.887 59.7959 136.059 57.9542 136.059 55.9109C136.059 53.8677 134.887 52.0259 132.779 50.3836C134.887 48.7409 136.059 46.8992 136.059 44.8559C136.059 35.2159 110.055 30.0347 82.0957 29.3109V63.0059C82.0957 64.7042 82.8986 66.2118 84.1422 67.1806L126.14 109.178C132.314 106.804 136.059 103.789 136.059 100.131Z" fill="url(#pancakes_paint42_linear)"/>
<path d="M136.059 66.9657C136.059 64.9228 134.887 63.0807 132.779 61.4384C134.887 59.7957 136.059 57.954 136.059 55.9107C136.059 53.8675 134.887 52.0257 132.779 50.3834C134.887 48.7407 136.059 46.899 136.059 44.8557C136.059 39.6392 128.442 35.7292 117.024 33.1237V49.7666C117.024 51.3663 117.737 52.7969 118.858 53.7678L135.116 70.0257C135.731 69.061 136.059 68.0416 136.059 66.9657Z" fill="url(#pancakes_paint43_linear)"/>
<path d="M136.059 33.8004C136.059 12.9545 14.4497 12.9545 14.4497 33.8004C14.4497 36.821 17.0056 39.4034 21.3732 41.5484C23.1988 42.4448 24.3721 44.2843 24.3721 46.3184V66.9113C24.3721 69.8351 26.7424 72.2054 29.6662 72.2054C32.59 72.2054 34.9603 69.8351 34.9603 66.9113V58.7728C34.9603 52.1713 40.7344 47.0672 47.2882 47.8598C49.6597 48.1466 52.1038 48.3943 54.6006 48.6028C60.2921 49.0781 64.6662 53.8457 64.6662 59.5572V94.3128C64.6662 97.2366 67.0365 99.6069 69.9603 99.6069C72.8841 99.6069 75.2544 97.2366 75.2544 94.3128V61.3351C75.2544 59.4463 76.7856 57.9148 78.6747 57.9148C80.5635 57.9148 82.095 59.446 82.095 61.3351V63.0043C82.095 65.9281 84.4653 68.2984 87.3891 68.2984C90.313 68.2984 92.6832 65.9281 92.6832 63.0043V60.7093C92.6832 54.1104 97.6082 48.5719 104.155 47.7451C107.224 47.3575 110.165 46.9034 112.934 46.3822C115.059 45.9822 117.024 47.6043 117.024 49.7666C117.024 52.6904 119.394 55.0607 122.318 55.0607C125.242 55.0607 127.612 52.6904 127.612 49.7666V49.7354C127.612 45.6416 129.571 41.836 132.797 39.3157C134.896 37.6766 136.059 35.8384 136.059 33.8004Z" fill="url(#pancakes_paint44_radial)"/>
<path d="M136.06 33.7998C136.06 35.8381 134.895 37.6763 132.798 39.3175C129.572 41.8351 127.613 45.641 127.613 49.7351V49.7675C127.613 49.9322 127.604 50.0969 127.589 50.2586C127.475 51.5234 126.91 52.6616 126.063 53.5116C125.104 54.4704 123.781 55.0616 122.319 55.0616C120.854 55.0616 119.531 54.4704 118.575 53.5116C117.616 52.5528 117.025 51.2292 117.025 49.7675C117.025 47.6028 115.057 45.9822 112.934 46.3822C110.163 46.9028 107.225 47.3586 104.154 47.7439C100.107 48.2557 96.6777 50.5675 94.6512 53.8204L63.3101 22.4792C62.1983 21.5822 61.5659 20.4586 61.6454 19.0469C61.6542 18.8704 61.6718 18.6939 61.6983 18.5204C73.1601 17.9145 85.2983 18.0881 96.3689 19.0381C118.307 20.9145 136.06 25.8351 136.06 33.7998Z" fill="url(#pancakes_paint45_linear)"/>
<path d="M68.409 11.9957C70.5755 14.1622 70.5755 17.6745 68.409 19.8407C66.2425 22.0072 62.7302 22.0072 60.564 19.8407C58.3975 17.6742 55.2075 10.9719 57.3737 8.80541C59.5399 6.63894 66.2428 9.82953 68.409 11.9957Z" fill="url(#pancakes_paint46_linear)"/>
<path d="M72.3372 11.983C72.4346 15.4171 70.851 18.2483 68.8002 18.3065C66.7493 18.3648 65.0075 15.628 64.9102 12.1936C64.8128 8.75917 66.2528 0.870935 68.3037 0.812699C70.3546 0.754758 72.2399 8.54858 72.3372 11.983Z" fill="url(#pancakes_paint47_linear)"/>
<path d="M79.8601 6.65052C79.4801 6.63758 79.1001 6.67581 78.7313 6.76846C75.8339 7.49464 62.0836 11.3417 61.646 19.0476C61.3734 23.847 69.3022 25.3311 76.3792 25.704C82.8419 26.0446 88.4184 22.5996 88.7969 18.0438C89.2257 12.8835 87.946 6.92758 79.8601 6.65052Z" fill="url(#pancakes_paint48_linear)"/>
<path d="M79.8601 6.65052C79.4801 6.63758 79.1001 6.67581 78.7313 6.76846C75.8339 7.49464 62.0836 11.3417 61.646 19.0476C61.3734 23.847 69.3022 25.3311 76.3792 25.704C82.8416 26.0446 87.946 6.92758 79.8601 6.65052Z" fill="url(#pancakes_paint49_linear)"/>
<path d="M16.1335 29.7544C15.0394 31.0024 14.4497 32.3509 14.4497 33.8003C14.4497 36.8209 17.0056 39.4033 21.3729 41.5483C23.1985 42.4447 24.3721 44.2842 24.3721 46.3183V66.9112C24.3721 69.835 26.7424 72.2053 29.6662 72.2053C32.59 72.2053 34.9603 69.835 34.9603 66.9112V58.7727C34.9603 52.1712 40.7344 47.0671 47.2882 47.8597C49.6597 48.1465 52.1038 48.3942 54.6006 48.6027C60.2921 49.078 64.6662 53.8456 64.6662 59.5571V94.3127C64.6662 97.2365 67.0365 99.6068 69.9603 99.6068C72.8841 99.6068 75.2544 97.2365 75.2544 94.3127V61.335C75.2544 59.4462 76.7856 57.9147 78.6747 57.9147C80.5638 57.9147 82.095 59.4459 82.095 61.335V63.0042C82.095 65.928 84.4653 68.2983 87.3891 68.2983C90.313 68.2983 92.6832 65.928 92.6832 63.0042V60.7092C92.6832 54.1103 97.6082 48.5718 104.155 47.745C107.224 47.3574 110.165 46.9033 112.934 46.3821C115.059 45.9821 117.024 47.6042 117.024 49.7665C117.024 52.6903 119.394 55.0606 122.318 55.0606C125.242 55.0606 127.612 52.6903 127.612 49.7665V49.7353C127.612 45.6415 129.571 41.8359 132.797 39.3156C134.896 37.6765 136.059 35.838 136.059 33.8C136.059 32.3506 135.469 31.0021 134.375 29.7542C120.827 45.2053 29.6815 45.2053 16.1335 29.7544Z" fill="url(#pancakes_paint50_linear)"/>
<defs>
<linearGradient id="pancakes_paint0_linear" x1="75.5339" y1="121.202" x2="76.1222" y2="130.908" gradientUnits="userSpaceOnUse">
<stop stop-color="#F8F6FB"/>
<stop offset="1" stop-color="#EFDCFB"/>
</linearGradient>
<linearGradient id="pancakes_paint1_linear" x1="70.327" y1="88.5221" x2="81.882" y2="132.132" gradientUnits="userSpaceOnUse">
<stop stop-color="#F8F6FB"/>
<stop offset="1" stop-color="#EFDCFB"/>
</linearGradient>
<linearGradient id="pancakes_paint2_linear" x1="78.4806" y1="131.042" x2="72.8924" y2="86.3363" gradientUnits="userSpaceOnUse">
<stop stop-color="#F8F6FB"/>
<stop offset="1" stop-color="#EFDCFB"/>
</linearGradient>
<linearGradient id="pancakes_paint3_linear" x1="84.7115" y1="121.358" x2="75.888" y2="54.8871" gradientUnits="userSpaceOnUse">
<stop stop-color="#EFDCFB" stop-opacity="0"/>
<stop offset="0.0287" stop-color="#E9D6F7" stop-opacity="0.029"/>
<stop offset="0.2203" stop-color="#C5B5DE" stop-opacity="0.22"/>
<stop offset="0.4138" stop-color="#AA9BCB" stop-opacity="0.414"/>
<stop offset="0.6078" stop-color="#9688BD" stop-opacity="0.608"/>
<stop offset="0.8028" stop-color="#8A7DB5" stop-opacity="0.803"/>
<stop offset="1" stop-color="#8679B2"/>
</linearGradient>
<linearGradient id="pancakes_paint4_linear" x1="71.2604" y1="85.0542" x2="80.6284" y2="120.411" gradientUnits="userSpaceOnUse">
<stop stop-color="#FFDECF"/>
<stop offset="0.3791" stop-color="#FDC4B0"/>
<stop offset="0.7655" stop-color="#FBAE97"/>
<stop offset="1" stop-color="#FAA68E"/>
</linearGradient>
<linearGradient id="pancakes_paint5_linear" x1="118.676" y1="96.2962" x2="112.665" y2="86.9161" gradientUnits="userSpaceOnUse">
<stop stop-color="#F82814" stop-opacity="0"/>
<stop offset="0.2454" stop-color="#F12817" stop-opacity="0.245"/>
<stop offset="0.6052" stop-color="#DD2820" stop-opacity="0.605"/>
<stop offset="1" stop-color="#C0272D"/>
</linearGradient>
<linearGradient id="pancakes_paint6_linear" x1="114.535" y1="102.076" x2="109.79" y2="94.6706" gradientUnits="userSpaceOnUse">
<stop stop-color="#F82814" stop-opacity="0"/>
<stop offset="0.2454" stop-color="#F12817" stop-opacity="0.245"/>
<stop offset="0.6052" stop-color="#DD2820" stop-opacity="0.605"/>
<stop offset="1" stop-color="#C0272D"/>
</linearGradient>
<linearGradient id="pancakes_paint7_linear" x1="120.849" y1="102.772" x2="117.989" y2="98.3078" gradientUnits="userSpaceOnUse">
<stop stop-color="#F82814" stop-opacity="0"/>
<stop offset="0.2454" stop-color="#F12817" stop-opacity="0.245"/>
<stop offset="0.6052" stop-color="#DD2820" stop-opacity="0.605"/>
<stop offset="1" stop-color="#C0272D"/>
</linearGradient>
<linearGradient id="pancakes_paint8_linear" x1="126.508" y1="97.7926" x2="128.801" y2="89.5392" gradientUnits="userSpaceOnUse">
<stop stop-color="#F82814" stop-opacity="0"/>
<stop offset="0.2454" stop-color="#F12817" stop-opacity="0.245"/>
<stop offset="0.6052" stop-color="#DD2820" stop-opacity="0.605"/>
<stop offset="1" stop-color="#C0272D"/>
</linearGradient>
<linearGradient id="pancakes_paint9_linear" x1="121.96" y1="97.8583" x2="123.771" y2="91.3428" gradientUnits="userSpaceOnUse">
<stop stop-color="#F82814" stop-opacity="0"/>
<stop offset="0.2454" stop-color="#F12817" stop-opacity="0.245"/>
<stop offset="0.6052" stop-color="#DD2820" stop-opacity="0.605"/>
<stop offset="1" stop-color="#C0272D"/>
</linearGradient>
<linearGradient id="pancakes_paint10_linear" x1="124.868" y1="102.535" x2="125.959" y2="98.6068" gradientUnits="userSpaceOnUse">
<stop stop-color="#F82814" stop-opacity="0"/>
<stop offset="0.2454" stop-color="#F12817" stop-opacity="0.245"/>
<stop offset="0.6052" stop-color="#DD2820" stop-opacity="0.605"/>
<stop offset="1" stop-color="#C0272D"/>
</linearGradient>
<linearGradient id="pancakes_paint11_linear" x1="75.2545" y1="109.824" x2="75.2545" y2="122.572" gradientUnits="userSpaceOnUse">
<stop stop-color="#F82814" stop-opacity="0"/>
<stop offset="0.2458" stop-color="#F32816" stop-opacity="0.246"/>
<stop offset="0.5506" stop-color="#E3281D" stop-opacity="0.551"/>
<stop offset="0.8853" stop-color="#CA2728" stop-opacity="0.885"/>
<stop offset="1" stop-color="#C0272D"/>
</linearGradient>
<linearGradient id="pancakes_paint12_linear" x1="71.2604" y1="73.9992" x2="80.6284" y2="109.355" gradientUnits="userSpaceOnUse">
<stop stop-color="#FFDECF"/>
<stop offset="0.3791" stop-color="#FDC4B0"/>
<stop offset="0.7655" stop-color="#FBAE97"/>
<stop offset="1" stop-color="#FAA68E"/>
</linearGradient>
<linearGradient id="pancakes_paint13_linear" x1="75.2545" y1="99.4316" x2="75.2545" y2="110.412" gradientUnits="userSpaceOnUse">
<stop stop-color="#F82814" stop-opacity="0"/>
<stop offset="0.2458" stop-color="#F32816" stop-opacity="0.246"/>
<stop offset="0.5506" stop-color="#E3281D" stop-opacity="0.551"/>
<stop offset="0.8853" stop-color="#CA2728" stop-opacity="0.885"/>
<stop offset="1" stop-color="#C0272D"/>
</linearGradient>
<linearGradient id="pancakes_paint14_linear" x1="37.5931" y1="93.5508" x2="32.6097" y2="85.7739" gradientUnits="userSpaceOnUse">
<stop stop-color="#F82814" stop-opacity="0"/>
<stop offset="0.2454" stop-color="#F12817" stop-opacity="0.245"/>
<stop offset="0.6052" stop-color="#DD2820" stop-opacity="0.605"/>
<stop offset="1" stop-color="#C0272D"/>
</linearGradient>
<linearGradient id="pancakes_paint15_linear" x1="33.5224" y1="98.0065" x2="29.588" y2="91.867" gradientUnits="userSpaceOnUse">
<stop stop-color="#F82814" stop-opacity="0"/>
<stop offset="0.2454" stop-color="#F12817" stop-opacity="0.245"/>
<stop offset="0.6052" stop-color="#DD2820" stop-opacity="0.605"/>
<stop offset="1" stop-color="#C0272D"/>
</linearGradient>
<linearGradient id="pancakes_paint16_linear" x1="39.94" y1="98.4978" x2="37.568" y2="94.7964" gradientUnits="userSpaceOnUse">
<stop stop-color="#F82814" stop-opacity="0"/>
<stop offset="0.2454" stop-color="#F12817" stop-opacity="0.245"/>
<stop offset="0.6052" stop-color="#DD2820" stop-opacity="0.605"/>
<stop offset="1" stop-color="#C0272D"/>
</linearGradient>
<linearGradient id="pancakes_paint17_linear" x1="45.9286" y1="94.5924" x2="47.7376" y2="88.0808" gradientUnits="userSpaceOnUse">
<stop stop-color="#F82814" stop-opacity="0"/>
<stop offset="0.2454" stop-color="#F12817" stop-opacity="0.245"/>
<stop offset="0.6052" stop-color="#DD2820" stop-opacity="0.605"/>
<stop offset="1" stop-color="#C0272D"/>
</linearGradient>
<linearGradient id="pancakes_paint18_linear" x1="41.3485" y1="94.6366" x2="42.777" y2="89.4962" gradientUnits="userSpaceOnUse">
<stop stop-color="#F82814" stop-opacity="0"/>
<stop offset="0.2454" stop-color="#F12817" stop-opacity="0.245"/>
<stop offset="0.6052" stop-color="#DD2820" stop-opacity="0.605"/>
<stop offset="1" stop-color="#C0272D"/>
</linearGradient>
<linearGradient id="pancakes_paint19_linear" x1="44.2069" y1="98.2584" x2="45.0682" y2="95.159" gradientUnits="userSpaceOnUse">
<stop stop-color="#F82814" stop-opacity="0"/>
<stop offset="0.2454" stop-color="#F12817" stop-opacity="0.245"/>
<stop offset="0.6052" stop-color="#DD2820" stop-opacity="0.605"/>
<stop offset="1" stop-color="#C0272D"/>
</linearGradient>
<linearGradient id="pancakes_paint20_linear" x1="71.2604" y1="62.9438" x2="80.6284" y2="98.3" gradientUnits="userSpaceOnUse">
<stop stop-color="#FFDECF"/>
<stop offset="0.3791" stop-color="#FDC4B0"/>
<stop offset="0.7655" stop-color="#FBAE97"/>
<stop offset="1" stop-color="#FAA68E"/>
</linearGradient>
<linearGradient id="pancakes_paint21_linear" x1="75.2545" y1="87.8626" x2="75.2545" y2="101.59" gradientUnits="userSpaceOnUse">
<stop stop-color="#F82814" stop-opacity="0"/>
<stop offset="0.2458" stop-color="#F32816" stop-opacity="0.246"/>
<stop offset="0.5506" stop-color="#E3281D" stop-opacity="0.551"/>
<stop offset="0.8853" stop-color="#CA2728" stop-opacity="0.885"/>
<stop offset="1" stop-color="#C0272D"/>
</linearGradient>
<linearGradient id="pancakes_paint22_linear" x1="80.6313" y1="85.835" x2="75.6479" y2="78.0581" gradientUnits="userSpaceOnUse">
<stop stop-color="#F82814" stop-opacity="0"/>
<stop offset="0.2454" stop-color="#F12817" stop-opacity="0.245"/>
<stop offset="0.6052" stop-color="#DD2820" stop-opacity="0.605"/>
<stop offset="1" stop-color="#C0272D"/>
</linearGradient>
<linearGradient id="pancakes_paint23_linear" x1="76.5606" y1="90.2906" x2="72.6261" y2="84.1511" gradientUnits="userSpaceOnUse">
<stop stop-color="#F82814" stop-opacity="0"/>
<stop offset="0.2454" stop-color="#F12817" stop-opacity="0.245"/>
<stop offset="0.6052" stop-color="#DD2820" stop-opacity="0.605"/>
<stop offset="1" stop-color="#C0272D"/>
</linearGradient>
<linearGradient id="pancakes_paint24_linear" x1="82.9782" y1="90.7819" x2="80.6065" y2="87.0806" gradientUnits="userSpaceOnUse">
<stop stop-color="#F82814" stop-opacity="0"/>
<stop offset="0.2454" stop-color="#F12817" stop-opacity="0.245"/>
<stop offset="0.6052" stop-color="#DD2820" stop-opacity="0.605"/>
<stop offset="1" stop-color="#C0272D"/>
</linearGradient>
<linearGradient id="pancakes_paint25_linear" x1="71.2604" y1="51.8889" x2="80.6284" y2="87.2451" gradientUnits="userSpaceOnUse">
<stop stop-color="#FFDECF"/>
<stop offset="0.3791" stop-color="#FDC4B0"/>
<stop offset="0.7655" stop-color="#FBAE97"/>
<stop offset="1" stop-color="#FAA68E"/>
</linearGradient>
<linearGradient id="pancakes_paint26_linear" x1="75.2545" y1="75.7059" x2="75.2545" y2="89.8292" gradientUnits="userSpaceOnUse">
<stop stop-color="#F82814" stop-opacity="0"/>
<stop offset="0.2458" stop-color="#F32816" stop-opacity="0.246"/>
<stop offset="0.5506" stop-color="#E3281D" stop-opacity="0.551"/>
<stop offset="0.8853" stop-color="#CA2728" stop-opacity="0.885"/>
<stop offset="1" stop-color="#C0272D"/>
</linearGradient>
<linearGradient id="pancakes_paint27_linear" x1="126.612" y1="65.3813" x2="128.563" y2="58.3582" gradientUnits="userSpaceOnUse">
<stop stop-color="#F82814" stop-opacity="0"/>
<stop offset="0.2454" stop-color="#F12817" stop-opacity="0.245"/>
<stop offset="0.6052" stop-color="#DD2820" stop-opacity="0.605"/>
<stop offset="1" stop-color="#C0272D"/>
</linearGradient>
<linearGradient id="pancakes_paint28_linear" x1="122.041" y1="65.4319" x2="123.582" y2="59.8876" gradientUnits="userSpaceOnUse">
<stop stop-color="#F82814" stop-opacity="0"/>
<stop offset="0.2454" stop-color="#F12817" stop-opacity="0.245"/>
<stop offset="0.6052" stop-color="#DD2820" stop-opacity="0.605"/>
<stop offset="1" stop-color="#C0272D"/>
</linearGradient>
<linearGradient id="pancakes_paint29_linear" x1="124.914" y1="69.3653" x2="125.843" y2="66.0227" gradientUnits="userSpaceOnUse">
<stop stop-color="#F82814" stop-opacity="0"/>
<stop offset="0.2454" stop-color="#F12817" stop-opacity="0.245"/>
<stop offset="0.6052" stop-color="#DD2820" stop-opacity="0.605"/>
<stop offset="1" stop-color="#C0272D"/>
</linearGradient>
<linearGradient id="pancakes_paint30_linear" x1="71.2604" y1="40.8335" x2="80.6284" y2="76.1897" gradientUnits="userSpaceOnUse">
<stop stop-color="#FFDECF"/>
<stop offset="0.3791" stop-color="#FDC4B0"/>
<stop offset="0.7655" stop-color="#FBAE97"/>
<stop offset="1" stop-color="#FAA68E"/>
</linearGradient>
<linearGradient id="pancakes_paint31_linear" x1="75.2545" y1="66.0979" x2="75.2545" y2="77.8632" gradientUnits="userSpaceOnUse">
<stop stop-color="#F82814" stop-opacity="0"/>
<stop offset="0.2458" stop-color="#F32816" stop-opacity="0.246"/>
<stop offset="0.5506" stop-color="#E3281D" stop-opacity="0.551"/>
<stop offset="0.8853" stop-color="#CA2728" stop-opacity="0.885"/>
<stop offset="1" stop-color="#C0272D"/>
</linearGradient>
<linearGradient id="pancakes_paint32_linear" x1="71.2604" y1="29.7782" x2="80.6284" y2="65.1347" gradientUnits="userSpaceOnUse">
<stop stop-color="#FFDECF"/>
<stop offset="0.3791" stop-color="#FDC4B0"/>
<stop offset="0.7655" stop-color="#FBAE97"/>
<stop offset="1" stop-color="#FAA68E"/>
</linearGradient>
<linearGradient id="pancakes_paint33_linear" x1="118.67" y1="40.9921" x2="112.659" y2="31.6116" gradientUnits="userSpaceOnUse">
<stop stop-color="#F82814" stop-opacity="0"/>
<stop offset="0.2454" stop-color="#F12817" stop-opacity="0.245"/>
<stop offset="0.6052" stop-color="#DD2820" stop-opacity="0.605"/>
<stop offset="1" stop-color="#C0272D"/>
</linearGradient>
<linearGradient id="pancakes_paint34_linear" x1="114.529" y1="46.7715" x2="109.784" y2="39.3664" gradientUnits="userSpaceOnUse">
<stop stop-color="#F82814" stop-opacity="0"/>
<stop offset="0.2454" stop-color="#F12817" stop-opacity="0.245"/>
<stop offset="0.6052" stop-color="#DD2820" stop-opacity="0.605"/>
<stop offset="1" stop-color="#C0272D"/>
</linearGradient>
<linearGradient id="pancakes_paint35_linear" x1="120.843" y1="47.4683" x2="117.982" y2="43.0038" gradientUnits="userSpaceOnUse">
<stop stop-color="#F82814" stop-opacity="0"/>
<stop offset="0.2454" stop-color="#F12817" stop-opacity="0.245"/>
<stop offset="0.6052" stop-color="#DD2820" stop-opacity="0.605"/>
<stop offset="1" stop-color="#C0272D"/>
</linearGradient>
<linearGradient id="pancakes_paint36_linear" x1="126.497" y1="42.5005" x2="128.79" y2="34.2469" gradientUnits="userSpaceOnUse">
<stop stop-color="#F82814" stop-opacity="0"/>
<stop offset="0.2454" stop-color="#F12817" stop-opacity="0.245"/>
<stop offset="0.6052" stop-color="#DD2820" stop-opacity="0.605"/>
<stop offset="1" stop-color="#C0272D"/>
</linearGradient>
<linearGradient id="pancakes_paint37_linear" x1="121.95" y1="42.566" x2="123.76" y2="36.0503" gradientUnits="userSpaceOnUse">
<stop stop-color="#F82814" stop-opacity="0"/>
<stop offset="0.2454" stop-color="#F12817" stop-opacity="0.245"/>
<stop offset="0.6052" stop-color="#DD2820" stop-opacity="0.605"/>
<stop offset="1" stop-color="#C0272D"/>
</linearGradient>
<linearGradient id="pancakes_paint38_linear" x1="124.857" y1="47.2425" x2="125.949" y2="43.3143" gradientUnits="userSpaceOnUse">
<stop stop-color="#F82814" stop-opacity="0"/>
<stop offset="0.2454" stop-color="#F12817" stop-opacity="0.245"/>
<stop offset="0.6052" stop-color="#DD2820" stop-opacity="0.605"/>
<stop offset="1" stop-color="#C0272D"/>
</linearGradient>
<linearGradient id="pancakes_paint39_linear" x1="75.2545" y1="52.9609" x2="75.2545" y2="68.4512" gradientUnits="userSpaceOnUse">
<stop stop-color="#F82814" stop-opacity="0"/>
<stop offset="0.2458" stop-color="#F32816" stop-opacity="0.246"/>
<stop offset="0.5506" stop-color="#E3281D" stop-opacity="0.551"/>
<stop offset="0.8853" stop-color="#CA2728" stop-opacity="0.885"/>
<stop offset="1" stop-color="#C0272D"/>
</linearGradient>
<linearGradient id="pancakes_paint40_linear" x1="90.9515" y1="69.0726" x2="11.2548" y2="7.78556" gradientUnits="userSpaceOnUse">
<stop stop-color="#F82814" stop-opacity="0"/>
<stop offset="0.2461" stop-color="#F12817" stop-opacity="0.246"/>
<stop offset="0.6105" stop-color="#DD2820" stop-opacity="0.611"/>
<stop offset="1" stop-color="#C0272D"/>
</linearGradient>
<linearGradient id="pancakes_paint41_linear" x1="111.523" y1="78.8863" x2="51.9148" y2="48.8863" gradientUnits="userSpaceOnUse">
<stop stop-color="#F82814" stop-opacity="0"/>
<stop offset="0.2461" stop-color="#F12817" stop-opacity="0.246"/>
<stop offset="0.6105" stop-color="#DD2820" stop-opacity="0.611"/>
<stop offset="1" stop-color="#C0272D"/>
</linearGradient>
<linearGradient id="pancakes_paint42_linear" x1="115.572" y1="65.2997" x2="68.5128" y2="35.1036" gradientUnits="userSpaceOnUse">
<stop stop-color="#F82814" stop-opacity="0"/>
<stop offset="0.2461" stop-color="#F12817" stop-opacity="0.246"/>
<stop offset="0.6105" stop-color="#DD2820" stop-opacity="0.611"/>
<stop offset="1" stop-color="#C0272D"/>
</linearGradient>
<linearGradient id="pancakes_paint43_linear" x1="136.277" y1="56.8031" x2="118.433" y2="40.2343" gradientUnits="userSpaceOnUse">
<stop stop-color="#F82814" stop-opacity="0"/>
<stop offset="0.2461" stop-color="#F12817" stop-opacity="0.246"/>
<stop offset="0.6105" stop-color="#DD2820" stop-opacity="0.611"/>
<stop offset="1" stop-color="#C0272D"/>
</linearGradient>
<radialGradient id="pancakes_paint44_radial" cx="0" cy="0" r="1" gradientUnits="userSpaceOnUse" gradientTransform="translate(59.6662 18.0919) scale(77.6521 54.7447)">
<stop stop-color="#FFD945"/>
<stop offset="0.3126" stop-color="#FFD643"/>
<stop offset="0.5593" stop-color="#FFCC3D"/>
<stop offset="0.7826" stop-color="#FFBB33"/>
<stop offset="0.9922" stop-color="#FFA426"/>
<stop offset="1" stop-color="#FFA325"/>
</radialGradient>
<linearGradient id="pancakes_paint45_linear" x1="103.948" y1="37.4375" x2="66.1045" y2="-44.7193" gradientUnits="userSpaceOnUse">
<stop stop-color="#F82814" stop-opacity="0"/>
<stop offset="1" stop-color="#C0272D"/>
</linearGradient>
<linearGradient id="pancakes_paint46_linear" x1="58.3184" y1="15.7419" x2="68.4191" y2="13.0838" gradientUnits="userSpaceOnUse">
<stop stop-color="#BADA00"/>
<stop offset="0.2269" stop-color="#B0CE00"/>
<stop offset="0.6378" stop-color="#95AE00"/>
<stop offset="1" stop-color="#798C00"/>
</linearGradient>
<linearGradient id="pancakes_paint47_linear" x1="65.5941" y1="7.15749" x2="72.8822" y2="9.46381" gradientUnits="userSpaceOnUse">
<stop stop-color="#BADA00"/>
<stop offset="0.2269" stop-color="#B0CE00"/>
<stop offset="0.6378" stop-color="#95AE00"/>
<stop offset="1" stop-color="#798C00"/>
</linearGradient>
<linearGradient id="pancakes_paint48_linear" x1="74.1178" y1="13.4505" x2="77.9086" y2="25.1679" gradientUnits="userSpaceOnUse">
<stop stop-color="#FFA936"/>
<stop offset="0.4112" stop-color="#FF8548"/>
<stop offset="0.7781" stop-color="#FF6C54"/>
<stop offset="1" stop-color="#FF6359"/>
</linearGradient>
<linearGradient id="pancakes_paint49_linear" x1="73.4407" y1="15.9279" x2="87.686" y2="34.5388" gradientUnits="userSpaceOnUse">
<stop stop-color="#F82814" stop-opacity="0"/>
<stop offset="1" stop-color="#C0272D"/>
</linearGradient>
<linearGradient id="pancakes_paint50_linear" x1="67.5312" y1="48.5206" x2="167.531" y2="-142.068" gradientUnits="userSpaceOnUse">
<stop stop-color="#F82814" stop-opacity="0"/>
<stop offset="1" stop-color="#C0272D"/>
</linearGradient>
</defs>
</svg>
