<svg width="151" height="132" viewBox="0 0 151 132" fill="none" xmlns="http://www.w3.org/2000/svg">
<path d="M66.375 19.7948C66.375 19.7948 20.8059 47.6736 3.95766 123.438C2.70384 129.076 9.14943 133.24 13.765 129.768C33.965 114.575 76.9074 87.4413 136.326 77.6874C143.099 76.5757 146.518 68.9339 142.834 63.143C133.859 49.0354 112.842 27.3177 66.375 19.7948Z" fill="url(#pizza_paint0_linear)"/>
<path d="M142.723 62.9709C77.4351 70.9062 30.2995 100.522 8.838 116.664C7.708 117.514 6.46859 117.905 5.25918 117.931C4.80947 119.744 4.37124 121.577 3.95535 123.447C2.70271 129.082 9.15212 133.238 13.7651 129.768C33.9686 114.572 76.9227 87.4315 136.358 77.6824C143.091 76.578 146.524 68.9565 142.867 63.1965C142.819 63.1215 142.771 63.0462 142.723 62.9709Z" fill="url(#pizza_paint1_linear)"/>
<path d="M145.23 68.5877C145.23 68.5877 133.362 25.9838 62.3425 16.1379C62.3425 16.1379 16.9828 43.6294 0.641002 116.57C-0.575469 122 5.89306 125.877 10.4854 122.469C12.2387 121.169 14.1642 119.778 16.2587 118.316C18.8804 116.485 22.4801 118.364 22.4801 121.561V121.789C22.4801 125.169 25.2204 127.91 28.601 127.91C31.9816 127.91 34.7219 125.169 34.7219 121.789V115.377C34.7219 109.809 37.7604 104.686 42.6492 102.021C54.6139 95.4988 68.7854 88.8521 84.9445 83.0853C87.5204 82.1662 90.2322 84.0788 90.2322 86.8141C90.2322 90.1947 92.9725 92.935 96.3531 92.935C99.7337 92.935 102.474 90.1947 102.474 86.8141V78.9359C102.474 78.0497 103.063 77.2718 103.916 77.0318L103.956 77.0206C105.225 76.6635 106.484 77.6174 106.484 78.9353V98.8806C106.484 102.261 109.224 105.001 112.605 105.001C115.985 105.001 118.726 102.261 118.726 98.8806V81.8588C118.726 76.8106 122.291 72.4485 127.247 71.4868C133.076 70.3559 139.072 69.38 145.23 68.5877Z" fill="url(#pizza_paint2_linear)"/>
<path d="M62.3426 16.1383C62.3426 16.1383 53.6817 21.388 42.5658 33.3842L100.494 91.3127C101.709 90.1942 102.474 88.5957 102.474 86.8145V78.9362C102.474 78.0501 103.064 77.2721 103.917 77.0321L103.957 77.021C105.226 76.6639 106.484 77.6177 106.484 78.9357V97.303L114.014 104.832C116.714 104.195 118.726 101.776 118.726 98.881V81.8589C118.726 76.8107 122.291 72.4486 127.247 71.4868C133.076 70.3557 139.072 69.3798 145.23 68.5877C145.23 68.5877 133.362 25.9839 62.3426 16.1383Z" fill="url(#pizza_paint3_linear)"/>
<path d="M77.1451 30.4403C76.5446 29.76 75.8475 29.1135 75.0516 28.5132C68.5616 23.6191 58.039 23.6191 51.549 28.5132C45.3966 33.1527 45.0807 40.523 50.5928 45.4468L97.881 92.735C100.521 92.0553 102.474 89.6659 102.474 86.8141V78.9359C102.474 78.0497 103.063 77.2718 103.916 77.0318L103.956 77.0206C105.225 76.6635 106.484 77.6174 106.484 78.9353V98.8806C106.484 100.345 107 101.688 107.857 102.741C108.274 103.174 108.734 103.589 109.234 103.988C110.201 104.627 111.359 105.002 112.605 105.002C115.985 105.002 118.725 102.261 118.725 98.8809V81.8588C118.725 79.155 119.749 76.6488 121.46 74.7556L77.1451 30.4403Z" fill="url(#pizza_paint4_linear)"/>
<path d="M54.2452 50.1101C51.9946 47.508 47.9296 45.7704 43.2884 45.7704C36.2069 45.7704 30.4661 49.8151 30.4661 54.8048C30.4661 56.9345 31.5146 58.8907 33.2643 60.4351L64.1437 91.4116C70.6534 88.5174 77.5908 85.7098 84.9446 83.0854C85.6202 82.8442 86.304 82.8022 86.947 82.9145L54.2452 50.1101Z" fill="url(#pizza_paint5_linear)"/>
<path d="M106.822 57.4472C104.543 54.9413 100.559 53.2789 96.0212 53.2789C88.9398 53.2789 83.1989 57.3236 83.1989 62.3133C83.1989 62.5172 83.2118 62.7186 83.2306 62.9189C77.6971 59.9925 70.0136 60.3904 65.0697 64.1186C59.865 68.0436 59.5512 74.2592 64.1268 78.4613L73.2189 87.5534C77.0012 86.0198 80.9109 84.5254 84.9445 83.086C87.5203 82.1669 90.2321 84.0795 90.2321 86.8148C90.2321 90.1954 92.9724 92.9357 96.353 92.9357C99.7336 92.9357 102.474 90.1954 102.474 86.8148V78.9366C102.474 78.0504 103.063 77.2725 103.916 77.0325L103.956 77.0213C105.225 76.6642 106.484 77.6181 106.484 78.936V98.8813C106.484 102.262 109.224 105.002 112.605 105.002C115.985 105.002 118.726 102.262 118.726 98.8813V81.8589C118.726 78.4881 120.317 75.4248 122.849 73.4739L106.822 57.4472Z" fill="url(#pizza_paint6_linear)"/>
<path d="M63.2484 91.8118L52.7287 81.2921C50.4499 78.7859 46.4655 77.1233 41.9272 77.1233C36.3722 77.1233 31.6434 79.6127 29.8625 83.0942C24.6731 81.3898 18.4087 82.1351 14.1643 85.3359C8.95929 89.2609 8.64576 95.4768 13.2216 99.6786L34.7219 121.179V115.377C34.7219 109.809 37.7605 104.686 42.6493 102.022C48.9181 98.6036 55.799 95.1533 63.2484 91.8118Z" fill="url(#pizza_paint7_linear)"/>
<path d="M29.2499 66.2551C29.5319 65.7234 29.3296 65.0637 28.7981 64.7816C28.2663 64.4995 27.6066 64.7019 27.3246 65.2334C27.0425 65.7651 27.2449 66.4248 27.7763 66.7069C28.3078 66.9893 28.9675 66.7869 29.2499 66.2551Z" fill="#FFEAA2"/>
<path d="M25.6719 66.6944C25.2522 66.4717 24.7313 66.6314 24.5087 67.0511C24.286 67.4708 24.4458 67.9917 24.8655 68.2144C25.2852 68.437 25.806 68.2773 26.0287 67.8576C26.2513 67.4376 26.0916 66.917 25.6719 66.6944Z" fill="#FFEAA2"/>
<path d="M26.6173 71.18C26.3644 71.0459 26.0502 71.1421 25.9161 71.395C25.782 71.648 25.8782 71.9621 26.1311 72.0962C26.3841 72.2306 26.6982 72.1342 26.8323 71.8812C26.9667 71.6283 26.8705 71.3145 26.6173 71.18Z" fill="#FFEAA2"/>
<path d="M34.0554 72.6126C33.4536 72.5956 32.9521 73.0697 32.9354 73.6712C32.9183 74.2729 33.3924 74.7744 33.9939 74.7912C34.5957 74.8082 35.0971 74.3341 35.1139 73.7326C35.131 73.1309 34.6571 72.6294 34.0554 72.6126Z" fill="#FFEAA2"/>
<path d="M39.7257 64.9036C39.2507 64.89 38.8548 65.2644 38.8415 65.7391C38.828 66.2142 39.2024 66.61 39.6771 66.6236C40.1521 66.6371 40.548 66.2627 40.5615 65.7877C40.5748 65.3127 40.2007 64.9168 39.7257 64.9036Z" fill="#FFEAA2"/>
<path d="M31.7324 65.2304C31.4459 65.2225 31.2074 65.4481 31.1992 65.7343C31.1912 66.0207 31.4168 66.2593 31.703 66.2675C31.9895 66.2754 32.228 66.0498 32.2362 65.7637C32.2445 65.4772 32.0189 65.2387 31.7324 65.2304Z" fill="#FFEAA2"/>
<path d="M30.0213 69.6987C29.5878 69.7975 29.3163 70.229 29.4149 70.6628C29.5137 71.0963 29.9451 71.3678 30.379 71.2693C30.8125 71.1704 31.084 70.739 30.9854 70.3051C30.8863 69.8716 30.4549 69.6001 30.0213 69.6987Z" fill="#FFEAA2"/>
<path d="M30.9226 67.4502C30.5802 67.5281 30.3658 67.869 30.4437 68.2114C30.5217 68.5537 30.8626 68.7681 31.2049 68.6902C31.5473 68.6123 31.7617 68.2714 31.6837 67.929C31.6055 67.5867 31.2649 67.3723 30.9226 67.4502Z" fill="#FFEAA2"/>
<path d="M28.3384 68.6942C28.5448 68.6471 28.674 68.4418 28.6269 68.2353C28.5798 68.0289 28.3746 67.8998 28.1681 67.9468C27.9616 67.9939 27.8325 68.1992 27.8796 68.4056C27.9266 68.6121 28.1319 68.7412 28.3384 68.6942Z" fill="#FFEAA2"/>
<path d="M49.454 63.0359C49.736 62.5041 49.5337 61.8444 49.0022 61.5624C48.4704 61.2803 47.8107 61.4827 47.5287 62.0141C47.2466 62.5459 47.449 63.2056 47.9804 63.4877C48.5122 63.7697 49.1719 63.5674 49.454 63.0359Z" fill="#FFEAA2"/>
<path d="M44.1779 72.4082C43.7582 72.1856 43.2373 72.3453 43.0147 72.765C42.792 73.1847 42.9517 73.7056 43.3714 73.9282C43.7911 74.1509 44.312 73.9912 44.5347 73.5715C44.7573 73.1518 44.5976 72.6309 44.1779 72.4082Z" fill="#FFEAA2"/>
<path d="M42.8171 67.6748C42.5642 67.5404 42.2501 67.6369 42.116 67.8898C41.9818 68.1427 42.078 68.4569 42.331 68.591C42.5839 68.7254 42.898 68.6289 43.0321 68.376C43.1662 68.123 43.0701 67.8092 42.8171 67.6748Z" fill="#FFEAA2"/>
<path d="M55.3892 64.5062C54.7875 64.4891 54.286 64.9632 54.2692 65.5647C54.2522 66.1665 54.7263 66.6679 55.3278 66.6847C55.9295 66.7018 56.431 66.2277 56.4478 65.6262C56.4648 65.0247 55.991 64.5232 55.3892 64.5062Z" fill="#FFEAA2"/>
<path d="M55.2692 63.0513C55.2827 62.5763 54.9083 62.1804 54.4333 62.1672C53.9583 62.154 53.5624 62.5281 53.5492 63.0028C53.5357 63.4778 53.9101 63.8737 54.3848 63.8872C54.8598 63.9005 55.2557 63.5263 55.2692 63.0513Z" fill="#FFEAA2"/>
<path d="M51.9369 62.0108C51.6504 62.0029 51.4119 62.2282 51.4036 62.5146C51.3957 62.8011 51.6213 63.0396 51.9075 63.0479C52.1939 63.0558 52.4325 62.8302 52.4407 62.5441C52.4486 62.2576 52.2231 62.0191 51.9369 62.0108Z" fill="#FFEAA2"/>
<path d="M47.2371 69.5391C46.8036 69.6379 46.5321 70.0694 46.6307 70.5032C46.7295 70.9368 47.161 71.2082 47.5948 71.1097C48.0283 71.0109 48.2998 70.5794 48.2013 70.1456C48.1024 69.7118 47.671 69.4403 47.2371 69.5391Z" fill="#FFEAA2"/>
<path d="M51.1268 64.2308C50.7844 64.3088 50.57 64.6497 50.648 64.9917C50.7259 65.3341 51.0668 65.5485 51.4088 65.4706C51.7512 65.3926 51.9656 65.0517 51.8877 64.7097C51.81 64.3673 51.4691 64.1529 51.1268 64.2308Z" fill="#FFEAA2"/>
<path d="M48.5422 65.4749C48.7487 65.4279 48.8778 65.2226 48.8308 65.0161C48.7837 64.8096 48.5784 64.6805 48.3719 64.7276C48.1655 64.7746 48.0363 64.9799 48.0834 65.1864C48.1302 65.3926 48.3358 65.522 48.5422 65.4749Z" fill="#FFEAA2"/>
<path d="M60.7533 80.5208C61.0353 79.989 60.833 79.3293 60.3015 79.0472C59.7698 78.7652 59.11 78.9675 58.828 79.499C58.5459 80.0308 58.7483 80.6905 59.2798 80.9725C59.8115 81.2549 60.4712 81.0525 60.7533 80.5208Z" fill="#FFEAA2"/>
<path d="M57.1753 80.9601C56.7556 80.7375 56.2348 80.8972 56.0121 81.3169C55.7895 81.7366 55.9492 82.2575 56.3689 82.4801C56.7886 82.7028 57.3095 82.543 57.5321 82.1233C57.755 81.7033 57.595 81.1828 57.1753 80.9601Z" fill="#FFEAA2"/>
<path d="M58.1211 85.4457C57.8681 85.3115 57.554 85.4077 57.4199 85.6607C57.2858 85.9136 57.382 86.2277 57.6349 86.3619C57.8878 86.496 58.202 86.3998 58.3361 86.1468C58.4702 85.8939 58.374 85.5801 58.1211 85.4457Z" fill="#FFEAA2"/>
<path d="M65.5592 86.8783C64.9574 86.8612 64.4559 87.3353 64.4392 87.9368C64.4221 88.5385 64.8962 89.04 65.4977 89.0568C66.0995 89.0738 66.6009 88.5997 66.6177 87.9983C66.6345 87.3968 66.1606 86.895 65.5592 86.8783Z" fill="#FFEAA2"/>
<path d="M114.29 62.3134C114.087 61.884 113.574 61.7007 113.144 61.904C112.715 62.1072 112.532 62.6204 112.735 63.0498C112.938 63.4793 113.451 63.6625 113.881 63.4592C114.31 63.256 114.494 62.7428 114.29 62.3134Z" fill="#FFEAA2"/>
<path d="M63.2361 79.4961C62.9496 79.4881 62.7111 79.7137 62.7028 79.9999C62.6949 80.2864 62.9205 80.5249 63.2067 80.5331C63.4931 80.5411 63.7317 80.3155 63.7399 80.0293C63.7478 79.7428 63.5223 79.5043 63.2361 79.4961Z" fill="#FFEAA2"/>
<path d="M61.5246 83.9642C61.0911 84.063 60.8196 84.4945 60.9181 84.9283C61.017 85.3618 61.4484 85.6333 61.8823 85.5348C62.3158 85.4359 62.5873 85.0045 62.4887 84.5707C62.3902 84.1368 61.9581 83.8657 61.5246 83.9642Z" fill="#FFEAA2"/>
<path d="M62.426 81.7161C62.0836 81.794 61.8692 82.1349 61.9471 82.4773C62.0251 82.8196 62.366 83.034 62.708 82.9561C63.0504 82.8781 63.2648 82.5373 63.1869 82.1949C63.1089 81.8525 62.7683 81.6381 62.426 81.7161Z" fill="#FFEAA2"/>
<path d="M59.8418 82.9598C60.0483 82.9127 60.1774 82.7074 60.1303 82.501C60.0833 82.2945 59.878 82.1654 59.6715 82.2124C59.465 82.2595 59.3359 82.4648 59.383 82.6713C59.43 82.8777 59.6356 83.0068 59.8418 82.9598Z" fill="#FFEAA2"/>
<path d="M60.8297 32.978C61.1117 32.4463 60.9094 31.7866 60.3779 31.5045C59.8462 31.2224 59.1865 31.4248 58.9044 31.9563C58.6223 32.488 58.8247 33.1477 59.3562 33.4298C59.8879 33.7122 60.5476 33.5098 60.8297 32.978Z" fill="#FFEAA2"/>
<path d="M109.619 69.6843C109.627 69.2093 109.249 68.8176 108.774 68.8093C108.299 68.8011 107.907 69.1796 107.899 69.6546C107.89 70.1296 108.269 70.5214 108.744 70.5296C109.219 70.5379 109.611 70.1596 109.619 69.6843Z" fill="#FFEAA2"/>
<path d="M113.221 66.3253C113.226 66.0389 112.998 65.8027 112.712 65.7977C112.425 65.7927 112.189 66.0209 112.184 66.3074C112.179 66.5939 112.407 66.83 112.694 66.835C112.98 66.84 113.216 66.6118 113.221 66.3253Z" fill="#FFEAA2"/>
<path d="M66.7655 34.4483C66.1637 34.4313 65.6622 34.9054 65.6455 35.5069C65.6284 36.1086 66.1025 36.6101 66.704 36.6269C67.3058 36.6439 67.8072 36.1698 67.824 35.5683C67.8411 34.9669 67.3669 34.4654 66.7655 34.4483Z" fill="#FFEAA2"/>
<path d="M66.6447 32.9937C66.6582 32.5187 66.2838 32.1228 65.8088 32.1096C65.3338 32.0961 64.9379 32.4705 64.9247 32.9452C64.9111 33.4202 65.2856 33.8161 65.7603 33.8296C66.2353 33.8428 66.6311 33.4687 66.6447 32.9937Z" fill="#FFEAA2"/>
<path d="M63.3122 31.9533C63.0258 31.9454 62.7872 32.1707 62.779 32.4572C62.7711 32.7436 62.9967 32.9822 63.2828 32.9904C63.5693 32.9983 63.8078 32.7727 63.8161 32.4866C63.8243 32.2001 63.5987 31.9613 63.3122 31.9533Z" fill="#FFEAA2"/>
<path d="M113.563 71.1106C113.278 70.7688 112.77 70.7227 112.429 71.0071C112.087 71.2918 112.041 71.7994 112.325 72.1412C112.61 72.483 113.117 72.5291 113.459 72.2447C113.801 71.96 113.847 71.4524 113.563 71.1106Z" fill="#FFEAA2"/>
<path d="M62.5024 34.1732C62.16 34.2512 61.9456 34.5921 62.0236 34.9341C62.1015 35.2765 62.4424 35.4909 62.7847 35.4129C63.1271 35.335 63.3415 34.9941 63.2636 34.6521C63.1853 34.3094 62.8447 34.0953 62.5024 34.1732Z" fill="#FFEAA2"/>
<path d="M59.9175 35.4171C60.1239 35.37 60.2531 35.1647 60.206 34.9582C60.1589 34.7518 59.9536 34.6227 59.7472 34.6697C59.5407 34.7168 59.4116 34.9221 59.4587 35.1285C59.5057 35.335 59.711 35.4641 59.9175 35.4171Z" fill="#FFEAA2"/>
<path d="M90.5634 55.561C90.2437 56.071 90.3978 56.7437 90.9078 57.0634C91.4178 57.3831 92.0904 57.229 92.4101 56.719C92.7298 56.209 92.5757 55.5363 92.0657 55.2169C91.5557 54.8969 90.8831 55.051 90.5634 55.561Z" fill="#FFEAA2"/>
<path d="M94.1638 55.3808C94.5665 55.6332 95.0973 55.5114 95.3497 55.1088C95.602 54.7061 95.4803 54.1752 95.0776 53.9229C94.675 53.6705 94.1441 53.7923 93.8917 54.1949C93.6394 54.5976 93.7612 55.1285 94.1638 55.3808Z" fill="#FFEAA2"/>
<path d="M93.5438 50.8386C93.7864 50.9907 94.1067 50.9175 94.2588 50.6745C94.4108 50.4319 94.3376 50.1116 94.0949 49.9595C93.8523 49.8075 93.532 49.8807 93.3799 50.1233C93.2276 50.3663 93.3011 50.6866 93.5438 50.8386Z" fill="#FFEAA2"/>
<path d="M86.2287 48.8736C86.8275 48.9339 87.3619 48.4974 87.4222 47.8986C87.4825 47.2997 87.046 46.7653 86.4472 46.705C85.8484 46.6447 85.314 47.0812 85.2537 47.68C85.1931 48.2791 85.6298 48.8133 86.2287 48.8736Z" fill="#FFEAA2"/>
<path d="M80.0173 56.1538C80.4899 56.2015 80.912 55.8568 80.9596 55.3841C81.0073 54.9115 80.6626 54.4894 80.1899 54.4418C79.7173 54.3941 79.2952 54.7388 79.2476 55.2115C79.1999 55.6844 79.5446 56.1062 80.0173 56.1538Z" fill="#FFEAA2"/>
<path d="M88.0137 56.4041C88.2987 56.4329 88.5531 56.225 88.5816 55.94C88.6104 55.655 88.4025 55.4006 88.1175 55.3721C87.8325 55.3432 87.5781 55.5512 87.5495 55.8362C87.5207 56.1209 87.7287 56.3753 88.0137 56.4041Z" fill="#FFEAA2"/>
<path d="M90.0422 52.0706C90.4819 52.0033 90.7837 51.5924 90.7166 51.153C90.6493 50.7133 90.2384 50.4115 89.799 50.4786C89.3593 50.5459 89.0575 50.9568 89.1246 51.3962C89.1919 51.8362 89.6028 52.138 90.0422 52.0706Z" fill="#FFEAA2"/>
<path d="M88.9813 54.2483C89.3284 54.195 89.5666 53.8709 89.5136 53.5238C89.4607 53.1768 89.1363 52.9386 88.7892 52.9915C88.4422 53.0444 88.2039 53.3688 88.2569 53.7159C88.3098 54.063 88.6342 54.3012 88.9813 54.2483Z" fill="#FFEAA2"/>
<path d="M91.6486 53.1938C91.4395 53.2259 91.2957 53.4214 91.3277 53.6306C91.3598 53.8397 91.5554 53.9835 91.7645 53.9515C91.9736 53.9194 92.1174 53.7238 92.0854 53.5147C92.0533 53.3056 91.8577 53.1617 91.6486 53.1938Z" fill="#FFEAA2"/>
<path d="M70.1796 57.3152C69.8599 57.8252 70.014 58.4979 70.524 58.8176C71.034 59.1373 71.7066 58.9832 72.026 58.4732C72.3457 57.9632 72.1916 57.2905 71.6816 56.9708C71.1716 56.6508 70.4993 56.8052 70.1796 57.3152Z" fill="#FFEAA2"/>
<path d="M76.1179 48.3476C76.5205 48.6 77.0514 48.4782 77.3038 48.0756C77.5561 47.6729 77.4344 47.142 77.0317 46.8897C76.6291 46.6373 76.0982 46.7591 75.8458 47.1617C75.5935 47.5641 75.7153 48.095 76.1179 48.3476Z" fill="#FFEAA2"/>
<path d="M77.1333 53.1668C77.376 53.3188 77.6963 53.2456 77.8483 53.0026C78.0004 52.76 77.9271 52.4397 77.6842 52.2876C77.4415 52.1356 77.1212 52.2088 76.9692 52.4515C76.8174 52.6944 76.8907 53.0147 77.1333 53.1668Z" fill="#FFEAA2"/>
<path d="M64.3656 55.4208C64.9644 55.4811 65.4989 55.0446 65.5592 54.4458C65.6194 53.847 65.183 53.3126 64.5842 53.2523C63.9853 53.192 63.4509 53.6284 63.3906 54.2273C63.33 54.8261 63.7668 55.3605 64.3656 55.4208Z" fill="#FFEAA2"/>
<path d="M64.3806 56.8802C64.333 57.3528 64.6777 57.7749 65.1503 57.8222C65.623 57.8699 66.045 57.5252 66.0924 57.0525C66.14 56.5799 65.7953 56.1578 65.3227 56.1102C64.85 56.0628 64.4283 56.4075 64.3806 56.8802Z" fill="#FFEAA2"/>
<path d="M67.6296 58.1583C67.9146 58.1871 68.169 57.9791 68.1976 57.6941C68.2264 57.4091 68.0184 57.1547 67.7334 57.1262C67.4485 57.0974 67.194 57.3053 67.1655 57.5903C67.1367 57.8753 67.3446 58.1297 67.6296 58.1583Z" fill="#FFEAA2"/>
<path d="M72.8591 50.9886C73.2988 50.9212 73.6006 50.5104 73.5335 50.0709C73.4662 49.6312 73.0553 49.3295 72.6159 49.3965C72.1762 49.4639 71.8744 49.8748 71.9415 50.3142C72.0085 50.7539 72.4194 51.0559 72.8591 50.9886Z" fill="#FFEAA2"/>
<path d="M68.5973 56.0028C68.9443 55.9495 69.1825 55.6254 69.1296 55.2784C69.0767 54.9313 68.7523 54.6931 68.4052 54.746C68.0581 54.7992 67.8199 55.1234 67.8728 55.4704C67.9258 55.8175 68.2502 56.0557 68.5973 56.0028Z" fill="#FFEAA2"/>
<path d="M71.2653 54.9483C71.0562 54.9804 70.9124 55.176 70.9444 55.3851C70.9765 55.5945 71.1721 55.738 71.3812 55.706C71.5903 55.6739 71.7341 55.4783 71.7021 55.2692C71.67 55.0601 71.4744 54.9163 71.2653 54.9483Z" fill="#FFEAA2"/>
<path d="M28.744 107.234C28.6588 107.83 29.0726 108.382 29.6685 108.467C30.2643 108.552 30.8164 108.139 30.9017 107.543C30.987 106.947 30.5732 106.395 29.9773 106.31C29.3814 106.225 28.8293 106.638 28.744 107.234Z" fill="#FFEAA2"/>
<path d="M31.9619 105.609C32.4322 105.676 32.8681 105.349 32.9354 104.879C33.0028 104.409 32.676 103.973 32.2057 103.906C31.7354 103.838 31.2995 104.165 31.2322 104.635C31.1648 105.105 31.4916 105.542 31.9619 105.609Z" fill="#FFEAA2"/>
<path d="M29.5528 101.709C29.8363 101.749 30.0992 101.552 30.1398 101.269C30.1804 100.985 29.9834 100.722 29.6998 100.682C29.4163 100.641 29.1534 100.838 29.1128 101.122C29.0725 101.405 29.2692 101.668 29.5528 101.709Z" fill="#FFEAA2"/>
<path d="M22.0699 102.88C22.6416 102.692 22.9531 102.077 22.7652 101.505C22.5772 100.933 21.9616 100.622 21.3896 100.81C20.8178 100.997 20.5063 101.613 20.6943 102.185C20.8822 102.757 21.4978 103.068 22.0699 102.88Z" fill="#FFEAA2"/>
<path d="M19.346 112.055C19.7975 111.906 20.0431 111.42 19.8948 110.969C19.7466 110.517 19.2604 110.272 18.8089 110.42C18.3575 110.568 18.1119 111.054 18.2601 111.506C18.4083 111.957 18.8945 112.203 19.346 112.055Z" fill="#FFEAA2"/>
<path d="M26.7553 109.039C27.0274 108.95 27.1756 108.657 27.0862 108.385C26.9968 108.112 26.7036 107.964 26.4315 108.054C26.1595 108.143 26.0112 108.436 26.1006 108.708C26.19 108.98 26.4833 109.129 26.7553 109.039Z" fill="#FFEAA2"/>
<path d="M26.8516 104.255C27.226 104.016 27.3354 103.517 27.0954 103.143C26.8557 102.769 26.3575 102.659 25.983 102.899C25.6086 103.139 25.4992 103.637 25.7392 104.012C25.9792 104.386 26.4772 104.495 26.8516 104.255Z" fill="#FFEAA2"/>
<path d="M26.7652 106.676C27.0607 106.487 27.1472 106.094 26.9578 105.798C26.7684 105.502 26.3752 105.416 26.0796 105.605C25.784 105.795 25.6975 106.188 25.8869 106.484C26.0763 106.779 26.4696 106.865 26.7652 106.676Z" fill="#FFEAA2"/>
<path d="M28.7758 104.63C28.5976 104.744 28.5455 104.981 28.6596 105.159C28.7737 105.338 29.0108 105.39 29.189 105.276C29.3673 105.162 29.4193 104.924 29.3052 104.746C29.1914 104.568 28.9543 104.516 28.7758 104.63Z" fill="#FFEAA2"/>
<path d="M10.8251 117.107C10.7398 117.703 11.1536 118.255 11.7495 118.34C12.3454 118.426 12.8975 118.012 12.9828 117.416C13.068 116.82 12.6542 116.268 12.0583 116.183C11.4628 116.097 10.9107 116.511 10.8251 117.107Z" fill="#FFEAA2"/>
<path d="M12.6142 106.502C13.0845 106.569 13.5204 106.242 13.5878 105.772C13.6551 105.302 13.3284 104.866 12.8581 104.798C12.3878 104.731 11.9519 105.058 11.8845 105.528C11.8172 105.998 12.1439 106.434 12.6142 106.502Z" fill="#FFEAA2"/>
<path d="M15.498 110.494C15.7816 110.535 16.0445 110.338 16.0851 110.054C16.1257 109.771 15.9286 109.508 15.6451 109.467C15.3616 109.427 15.0986 109.624 15.058 109.907C15.0174 110.191 15.2145 110.454 15.498 110.494Z" fill="#FFEAA2"/>
<path d="M4.74248 117.735C5.31424 117.547 5.62542 116.931 5.43777 116.359C5.24983 115.787 4.63424 115.476 4.06218 115.664C3.49042 115.852 3.17895 116.467 3.36689 117.039C3.55483 117.611 4.17071 117.922 4.74248 117.735Z" fill="#FFEAA2"/>
<path d="M5.34883 119.062C5.49706 119.514 5.98324 119.759 6.43471 119.611C6.88618 119.463 7.13177 118.977 6.98354 118.525C6.8353 118.074 6.34912 117.828 5.89765 117.977C5.44648 118.125 5.20059 118.611 5.34883 119.062Z" fill="#FFEAA2"/>
<path d="M8.83663 118.913C9.10869 118.823 9.25693 118.53 9.16752 118.258C9.0781 117.986 8.78487 117.838 8.51281 117.927C8.24075 118.016 8.09252 118.31 8.18193 118.582C8.27134 118.854 8.56457 119.002 8.83663 118.913Z" fill="#FFEAA2"/>
<path d="M10.7077 110.238C11.0821 109.998 11.1915 109.5 10.9515 109.125C10.7118 108.751 10.2135 108.641 9.83913 108.881C9.46472 109.121 9.35531 109.619 9.59531 109.994C9.83501 110.368 10.3332 110.477 10.7077 110.238Z" fill="#FFEAA2"/>
<path d="M8.84645 116.549C9.14204 116.36 9.22851 115.967 9.0391 115.671C8.84969 115.375 8.45645 115.289 8.16086 115.478C7.86527 115.668 7.7788 116.061 7.96822 116.357C8.15763 116.652 8.55086 116.739 8.84645 116.549Z" fill="#FFEAA2"/>
<path d="M10.8571 114.503C10.6789 114.617 10.6268 114.855 10.7409 115.033C10.855 115.211 11.0921 115.263 11.2703 115.149C11.4486 115.035 11.5006 114.798 11.3865 114.62C11.2724 114.441 11.0353 114.389 10.8571 114.503Z" fill="#FFEAA2"/>
<path d="M64.4744 56.1525C68.2041 56.1525 71.2277 54.0221 71.2277 51.3942C71.2277 48.7663 68.2041 46.636 64.4744 46.636C60.7447 46.636 57.7212 48.7663 57.7212 51.3942C57.7212 54.0221 60.7447 56.1525 64.4744 56.1525Z" fill="url(#pizza_paint8_linear)"/>
<path d="M63.7573 49.5978C64.3533 49.5978 64.8365 49.1147 64.8365 48.5187C64.8365 47.9227 64.3533 47.4396 63.7573 47.4396C63.1614 47.4396 62.6782 47.9227 62.6782 48.5187C62.6782 49.1147 63.1614 49.5978 63.7573 49.5978Z" fill="url(#pizza_paint9_linear)"/>
<path d="M61.7541 52.1607C62.2245 52.1607 62.6059 51.7793 62.6059 51.3089C62.6059 50.8385 62.2245 50.4572 61.7541 50.4572C61.2837 50.4572 60.9023 50.8385 60.9023 51.3089C60.9023 51.7793 61.2837 52.1607 61.7541 52.1607Z" fill="url(#pizza_paint10_linear)"/>
<path d="M65.4669 52.5372C65.7505 52.5372 65.9804 52.3073 65.9804 52.0237C65.9804 51.74 65.7505 51.5101 65.4669 51.5101C65.1833 51.5101 64.9534 51.74 64.9534 52.0237C64.9534 52.3073 65.1833 52.5372 65.4669 52.5372Z" fill="url(#pizza_paint11_linear)"/>
<path d="M36.5062 80.3782C40.2359 80.3782 43.2594 78.2478 43.2594 75.6199C43.2594 72.992 40.2359 70.8617 36.5062 70.8617C32.7765 70.8617 29.7529 72.992 29.7529 75.6199C29.7529 78.2478 32.7765 80.3782 36.5062 80.3782Z" fill="url(#pizza_paint12_linear)"/>
<path d="M35.7896 73.8235C36.3855 73.8235 36.8687 73.3404 36.8687 72.7444C36.8687 72.1484 36.3855 71.6653 35.7896 71.6653C35.1936 71.6653 34.7104 72.1484 34.7104 72.7444C34.7104 73.3404 35.1936 73.8235 35.7896 73.8235Z" fill="url(#pizza_paint13_linear)"/>
<path d="M33.7858 76.3864C34.2563 76.3864 34.6376 76.005 34.6376 75.5346C34.6376 75.0642 34.2563 74.6829 33.7858 74.6829C33.3154 74.6829 32.9341 75.0642 32.9341 75.5346C32.9341 76.005 33.3154 76.3864 33.7858 76.3864Z" fill="url(#pizza_paint14_linear)"/>
<path d="M37.499 76.7629C37.7826 76.7629 38.0125 76.533 38.0125 76.2494C38.0125 75.9658 37.7826 75.7358 37.499 75.7358C37.2154 75.7358 36.9855 75.9658 36.9855 76.2494C36.9855 76.533 37.2154 76.7629 37.499 76.7629Z" fill="url(#pizza_paint15_linear)"/>
<path d="M71.3228 87.3443C75.0525 87.3443 78.076 85.214 78.076 82.5861C78.076 79.9582 75.0525 77.8279 71.3228 77.8279C67.5931 77.8279 64.5696 79.9582 64.5696 82.5861C64.5696 85.214 67.5931 87.3443 71.3228 87.3443Z" fill="url(#pizza_paint16_linear)"/>
<path d="M70.6062 80.7897C71.2022 80.7897 71.6853 80.3066 71.6853 79.7106C71.6853 79.1146 71.2022 78.6315 70.6062 78.6315C70.0102 78.6315 69.5271 79.1146 69.5271 79.7106C69.5271 80.3066 70.0102 80.7897 70.6062 80.7897Z" fill="url(#pizza_paint17_linear)"/>
<path d="M68.6025 83.3526C69.0729 83.3526 69.4543 82.9712 69.4543 82.5008C69.4543 82.0304 69.0729 81.649 68.6025 81.649C68.1321 81.649 67.7507 82.0304 67.7507 82.5008C67.7507 82.9712 68.1321 83.3526 68.6025 83.3526Z" fill="url(#pizza_paint18_linear)"/>
<path d="M72.3153 83.7291C72.5989 83.7291 72.8288 83.4992 72.8288 83.2156C72.8288 82.9319 72.5989 82.702 72.3153 82.702C72.0317 82.702 71.8018 82.9319 71.8018 83.2156C71.8018 83.4992 72.0317 83.7291 72.3153 83.7291Z" fill="url(#pizza_paint19_linear)"/>
<path d="M121.126 71.5931C124.856 71.5931 127.88 69.4628 127.88 66.8349C127.88 64.207 124.856 62.0767 121.126 62.0767C117.397 62.0767 114.373 64.207 114.373 66.8349C114.373 69.4628 117.397 71.5931 121.126 71.5931Z" fill="url(#pizza_paint20_linear)"/>
<path d="M120.409 65.0387C121.005 65.0387 121.488 64.5556 121.488 63.9596C121.488 63.3636 121.005 62.8805 120.409 62.8805C119.813 62.8805 119.33 63.3636 119.33 63.9596C119.33 64.5556 119.813 65.0387 120.409 65.0387Z" fill="url(#pizza_paint21_linear)"/>
<path d="M118.406 67.6016C118.876 67.6016 119.258 67.2202 119.258 66.7498C119.258 66.2794 118.876 65.8981 118.406 65.8981C117.936 65.8981 117.554 66.2794 117.554 66.7498C117.554 67.2202 117.936 67.6016 118.406 67.6016Z" fill="url(#pizza_paint22_linear)"/>
<path d="M122.119 67.9781C122.402 67.9781 122.632 67.7482 122.632 67.4646C122.632 67.181 122.402 66.951 122.119 66.951C121.835 66.951 121.605 67.181 121.605 67.4646C121.605 67.7482 121.835 67.9781 122.119 67.9781Z" fill="url(#pizza_paint23_linear)"/>
<path d="M64.8367 27.8556C68.5664 27.8556 71.59 25.7252 71.59 23.0973C71.59 20.4694 68.5664 18.3391 64.8367 18.3391C61.107 18.3391 58.0835 20.4694 58.0835 23.0973C58.0835 25.7252 61.107 27.8556 64.8367 27.8556Z" fill="url(#pizza_paint24_linear)"/>
<path d="M64.1201 21.3009C64.7161 21.3009 65.1992 20.8178 65.1992 20.2218C65.1992 19.6258 64.7161 19.1427 64.1201 19.1427C63.5242 19.1427 63.041 19.6258 63.041 20.2218C63.041 20.8178 63.5242 21.3009 64.1201 21.3009Z" fill="url(#pizza_paint25_linear)"/>
<path d="M62.1164 23.8638C62.5868 23.8638 62.9682 23.4825 62.9682 23.012C62.9682 22.5416 62.5868 22.1603 62.1164 22.1603C61.646 22.1603 61.2646 22.5416 61.2646 23.012C61.2646 23.4825 61.646 23.8638 62.1164 23.8638Z" fill="url(#pizza_paint26_linear)"/>
<path d="M65.8292 24.2403C66.1128 24.2403 66.3427 24.0104 66.3427 23.7268C66.3427 23.4432 66.1128 23.2133 65.8292 23.2133C65.5456 23.2133 65.3157 23.4432 65.3157 23.7268C65.3157 24.0104 65.5456 24.2403 65.8292 24.2403Z" fill="url(#pizza_paint27_linear)"/>
<path d="M75.052 28.5132C68.562 23.6191 58.0394 23.6191 51.5494 28.5132C45.0594 33.4074 45.0594 41.3424 51.5494 46.2365C58.0394 51.1306 68.562 51.1306 75.052 46.2365C81.542 41.3424 81.542 33.4074 75.052 28.5132ZM55.8382 40.5612C51.7173 37.8468 51.7173 33.4447 55.8382 30.7306C59.9591 28.0162 66.6406 28.0174 70.7614 30.7318C74.8823 33.4462 74.8838 37.8471 70.7632 40.5612C66.642 43.2756 59.9588 43.2756 55.8382 40.5612Z" fill="url(#pizza_paint28_linear)"/>
<path d="M53.5253 43.4714C58.9233 47.3952 67.6777 47.3952 73.0753 43.4714C78.4747 39.5464 78.4733 33.1841 73.0753 29.2605C67.6759 25.3355 58.9247 25.3355 53.5253 29.2605C48.1274 33.1841 48.1256 39.5464 53.5253 43.4714ZM70.7627 30.7305C74.8836 33.4449 74.8836 37.847 70.7627 40.5611C66.6418 43.2755 59.9603 43.2743 55.8394 40.5599C51.7186 37.8455 51.7171 33.4446 55.8377 30.7305C59.9588 28.0164 66.6418 28.0164 70.7627 30.7305Z" fill="url(#pizza_paint29_linear)"/>
<path d="M9.88543 104.155C12.3166 105.093 15.4169 104.398 16.8104 102.601C17.0845 102.248 16.9631 101.832 16.5813 101.407C16.1592 100.936 16.3107 100.315 16.8901 99.9365L16.9881 99.8727C17.7366 99.3833 17.5651 98.5192 16.6542 98.1927L13.0292 96.8936C12.1184 96.5671 11.0234 96.9771 10.9001 97.6906C10.8051 98.2406 10.1651 98.6665 9.37866 98.6986C8.74954 98.7242 8.25748 98.8783 8.0066 99.2018C6.61278 100.999 7.45425 103.216 9.88543 104.155Z" fill="url(#pizza_paint30_linear)"/>
<path d="M34.2253 85.3359C28.6856 81.1585 19.7041 81.1585 14.1644 85.3359C8.62472 89.5132 8.62472 96.2862 14.1644 100.464C19.7041 104.641 28.6856 104.641 34.2253 100.464C39.7647 96.2862 39.7647 89.5132 34.2253 85.3359ZM17.825 95.6194C14.3077 93.3027 14.3077 89.5453 17.825 87.2285C21.3424 84.9118 27.0453 84.9127 30.5627 87.2294C34.08 89.5462 34.0815 93.3027 30.5641 95.6194C27.0471 97.9362 21.3424 97.9362 17.825 95.6194Z" fill="url(#pizza_paint31_linear)"/>
<path d="M15.8511 98.1033C20.4584 101.452 27.9308 101.452 32.5381 98.1033C37.147 94.7533 37.1455 89.3224 32.5381 85.9733C27.9293 82.6233 20.4599 82.6233 15.8511 85.9733C11.2437 89.3227 11.2423 94.7533 15.8511 98.1033ZM30.5643 87.2283C34.0817 89.5451 34.0817 93.3024 30.5643 95.6192C27.047 97.936 21.344 97.9351 17.8267 95.6183C14.3093 93.3015 14.3079 89.5451 17.8252 87.2283C21.3423 84.9116 27.047 84.9116 30.5643 87.2283Z" fill="url(#pizza_paint32_linear)"/>
<path d="M100.417 70.3451C97.9854 69.4066 94.8851 70.1022 93.4916 71.8987C93.2175 72.2522 93.3389 72.6675 93.7207 73.0931C94.1428 73.5637 93.9913 74.1845 93.4119 74.5634L93.314 74.6272C92.5654 75.1166 92.7369 75.9807 93.6478 76.3072L97.2728 77.6063C98.1837 77.9328 99.2787 77.5228 99.4019 76.8092C99.4969 76.2592 100.137 75.8334 100.923 75.8013C101.552 75.7757 102.045 75.6216 102.295 75.2981C103.689 73.501 102.848 71.2837 100.417 70.3451Z" fill="url(#pizza_paint33_linear)"/>
<path d="M96.0211 71.3474C103.103 71.3474 108.843 67.3026 108.843 62.313C108.843 57.3234 103.103 53.2786 96.0211 53.2786C88.9395 53.2786 83.1987 57.3234 83.1987 62.313C83.1987 67.3026 88.9395 71.3474 96.0211 71.3474Z" fill="url(#pizza_paint34_linear)"/>
<path d="M94.6603 58.902C95.7917 58.902 96.7089 57.9848 96.7089 56.8535C96.7089 55.7221 95.7917 54.8049 94.6603 54.8049C93.529 54.8049 92.6118 55.7221 92.6118 56.8535C92.6118 57.9848 93.529 58.902 94.6603 58.902Z" fill="url(#pizza_paint35_linear)"/>
<path d="M90.8564 63.7684C91.7496 63.7684 92.4737 63.0443 92.4737 62.151C92.4737 61.2578 91.7496 60.5337 90.8564 60.5337C89.9631 60.5337 89.239 61.2578 89.239 62.151C89.239 63.0443 89.9631 63.7684 90.8564 63.7684Z" fill="url(#pizza_paint36_linear)"/>
<path d="M97.9059 64.4831C98.4444 64.4831 98.8809 64.0466 98.8809 63.5081C98.8809 62.9696 98.4444 62.5331 97.9059 62.5331C97.3674 62.5331 96.9309 62.9696 96.9309 63.5081C96.9309 64.0466 97.3674 64.4831 97.9059 64.4831Z" fill="url(#pizza_paint37_linear)"/>
<path d="M41.9275 95.1921C49.009 95.1921 54.7498 91.1473 54.7498 86.1577C54.7498 81.1681 49.009 77.1233 41.9275 77.1233C34.8459 77.1233 29.1051 81.1681 29.1051 86.1577C29.1051 91.1473 34.8459 95.1921 41.9275 95.1921Z" fill="url(#pizza_paint38_linear)"/>
<path d="M40.5667 82.7467C41.6981 82.7467 42.6152 81.8296 42.6152 80.6982C42.6152 79.5668 41.6981 78.6497 40.5667 78.6497C39.4353 78.6497 38.5182 79.5668 38.5182 80.6982C38.5182 81.8296 39.4353 82.7467 40.5667 82.7467Z" fill="url(#pizza_paint39_linear)"/>
<path d="M36.763 87.6131C37.6562 87.6131 38.3803 86.889 38.3803 85.9958C38.3803 85.1025 37.6562 84.3784 36.763 84.3784C35.8697 84.3784 35.1456 85.1025 35.1456 85.9958C35.1456 86.889 35.8697 87.6131 36.763 87.6131Z" fill="url(#pizza_paint40_linear)"/>
<path d="M43.8125 88.3279C44.351 88.3279 44.7875 87.8914 44.7875 87.3529C44.7875 86.8145 44.351 86.3779 43.8125 86.3779C43.274 86.3779 42.8375 86.8145 42.8375 87.3529C42.8375 87.8914 43.274 88.3279 43.8125 88.3279Z" fill="url(#pizza_paint41_linear)"/>
<path d="M69.245 58.8344C66.8138 57.8959 63.7135 58.5914 62.32 60.3879C62.0459 60.7414 62.1673 61.1567 62.5491 61.5823C62.9711 62.0529 62.8197 62.6738 62.2403 63.0526L62.1423 63.1164C61.3938 63.6059 61.5653 64.47 62.4761 64.7964L66.1011 66.0956C67.012 66.422 68.107 66.012 68.2303 65.2985C68.3253 64.7485 68.9653 64.3226 69.7517 64.2906C70.3808 64.265 70.8729 64.1109 71.1238 63.7873C72.5173 61.9906 71.6761 59.7732 69.245 58.8344Z" fill="url(#pizza_paint42_linear)"/>
<path d="M72.8791 87.2124C75.8573 86.7165 78.0764 84.8359 78.0764 82.5859C78.0764 79.9579 75.0529 77.8276 71.3232 77.8276C68.9502 77.8276 66.8673 78.6918 65.6626 79.9959L72.8791 87.2124Z" fill="url(#pizza_paint43_linear)"/>
<path d="M85.1305 64.1181C79.5908 59.9408 70.6093 59.9408 65.0696 64.1181C59.5299 68.2955 59.5299 75.0684 65.0696 79.2458C70.6093 83.4231 79.5908 83.4231 85.1305 79.2458C90.6702 75.0684 90.6702 68.2955 85.1305 64.1181ZM68.7305 74.4017C65.2131 72.0849 65.2131 68.3275 68.7305 66.0108C72.2478 63.694 77.9508 63.6949 81.4681 66.0117C84.9855 68.3284 84.9869 72.0849 81.4696 74.4017C77.9522 76.7184 72.2478 76.7184 68.7305 74.4017Z" fill="url(#pizza_paint44_linear)"/>
<path d="M66.7566 76.8856C71.364 80.2347 78.8363 80.2347 83.4437 76.8856C88.0525 73.5355 88.051 68.1047 83.4437 64.7555C78.8348 61.4055 71.3654 61.4055 66.7566 64.7555C62.1493 68.105 62.1478 73.5355 66.7566 76.8856ZM81.4695 66.0108C84.9869 68.3276 84.9869 72.085 81.4695 74.4017C77.9522 76.7185 72.2493 76.7176 68.7319 74.4008C65.2145 72.0841 65.2131 68.3276 68.7304 66.0108C72.2478 63.6938 77.9522 63.6938 81.4695 66.0108Z" fill="url(#pizza_paint45_linear)"/>
<path d="M22.8717 72.9547C19.6393 72.9547 17.019 74.8209 17.019 77.1232C17.019 79.4256 19.6393 81.2918 22.8717 81.2918C26.104 81.2918 28.7243 79.4256 28.7243 77.1232C28.7243 74.8209 26.104 72.9547 22.8717 72.9547ZM22.8717 78.8927C21.4996 78.8927 20.3876 78.1006 20.3876 77.1232C20.3876 76.1462 21.4996 75.3538 22.8717 75.3538C24.2437 75.3538 25.3558 76.1459 25.3558 77.1232C25.3561 78.1006 24.2437 78.8927 22.8717 78.8927Z" fill="url(#pizza_paint46_linear)"/>
<path d="M52.5347 64.8302C49.3023 64.8302 46.682 66.6964 46.682 68.9987C46.682 71.3011 49.3023 73.1673 52.5347 73.1673C55.767 73.1673 58.3873 71.3011 58.3873 68.9987C58.3873 66.6964 55.7667 64.8302 52.5347 64.8302ZM52.5347 70.7679C51.1626 70.7679 50.0505 69.9758 50.0505 68.9984C50.0505 68.0214 51.1626 67.229 52.5347 67.229C53.9067 67.229 55.0188 68.0211 55.0188 68.9984C55.0188 69.9758 53.9064 70.7679 52.5347 70.7679Z" fill="url(#pizza_paint47_linear)"/>
<path d="M90.3102 43.8546C87.0778 43.8546 84.4575 45.7208 84.4575 48.0231C84.4575 50.3255 87.0778 52.1917 90.3102 52.1917C93.5425 52.1917 96.1628 50.3255 96.1628 48.0231C96.1628 45.7208 93.5425 43.8546 90.3102 43.8546ZM90.3102 49.7926C88.9381 49.7926 87.8261 49.0005 87.8261 48.0231C87.8261 47.0458 88.9381 46.2537 90.3102 46.2537C91.6822 46.2537 92.7943 47.0458 92.7943 48.0231C92.7943 49.0005 91.6822 49.7926 90.3102 49.7926Z" fill="url(#pizza_paint48_linear)"/>
<path d="M11.2936 105.34C8.06121 105.34 5.44092 107.206 5.44092 109.509C5.44092 111.811 8.06121 113.677 11.2936 113.677C14.5259 113.677 17.1462 111.811 17.1462 109.509C17.1462 107.206 14.5259 105.34 11.2936 105.34ZM11.2936 111.278C9.92151 111.278 8.80945 110.486 8.80945 109.508C8.80945 108.531 9.92151 107.739 11.2936 107.739C12.6656 107.739 13.7777 108.531 13.7777 109.508C13.7777 110.486 12.6656 111.278 11.2936 111.278Z" fill="url(#pizza_paint49_linear)"/>
<path d="M43.2884 63.8392C50.37 63.8392 56.1108 59.7944 56.1108 54.8048C56.1108 49.8152 50.37 45.7704 43.2884 45.7704C36.2068 45.7704 30.4661 49.8152 30.4661 54.8048C30.4661 59.7944 36.2068 63.8392 43.2884 63.8392Z" fill="url(#pizza_paint50_linear)"/>
<path d="M41.9277 51.3938C43.0591 51.3938 43.9762 50.4767 43.9762 49.3453C43.9762 48.2139 43.0591 47.2968 41.9277 47.2968C40.7963 47.2968 39.8792 48.2139 39.8792 49.3453C39.8792 50.4767 40.7963 51.3938 41.9277 51.3938Z" fill="url(#pizza_paint51_linear)"/>
<path d="M38.1237 56.2602C39.0169 56.2602 39.741 55.5361 39.741 54.6429C39.741 53.7496 39.0169 53.0255 38.1237 53.0255C37.2305 53.0255 36.5063 53.7496 36.5063 54.6429C36.5063 55.5361 37.2305 56.2602 38.1237 56.2602Z" fill="url(#pizza_paint52_linear)"/>
<path d="M45.1732 56.9749C45.7117 56.9749 46.1482 56.5384 46.1482 55.9999C46.1482 55.4614 45.7117 55.0249 45.1732 55.0249C44.6348 55.0249 44.1982 55.4614 44.1982 55.9999C44.1982 56.5384 44.6348 56.9749 45.1732 56.9749Z" fill="url(#pizza_paint53_linear)"/>
<path d="M88.8485 31.565C86.4173 30.6264 83.317 31.322 81.9235 33.1185C81.6494 33.472 81.7708 33.8873 82.1526 34.3129C82.5747 34.7835 82.4232 35.4044 81.8438 35.7832L81.7458 35.847C80.9973 36.3364 81.1688 37.2006 82.0797 37.527L85.7047 38.8261C86.6155 39.1526 87.7105 38.7426 87.8338 38.0291C87.9288 37.4791 88.5688 37.0532 89.3552 37.0211C89.9844 36.9956 90.4764 36.8414 90.7273 36.5179C92.1208 34.7209 91.2797 32.5035 88.8485 31.565Z" fill="url(#pizza_paint54_linear)"/>
<path d="M63.6653 21.6835C74.6659 25.8656 85.0692 32.0735 98.3956 41.8621C111.722 51.6506 121.974 66.3059 129.581 75.7915C133.667 80.8868 144.918 79.9606 148.633 74.1553C151.114 70.2785 151.122 62.4462 148.593 58.8606C141.134 48.2812 128.572 35.8529 113.057 24.4562C97.5406 13.0594 82.1915 4.98706 70.2918 1.34676C66.2589 0.112938 61.8362 1.92323 59.3553 5.8C55.6403 11.6056 57.7562 19.4371 63.6653 21.6835Z" fill="url(#pizza_paint55_linear)"/>
<defs>
<linearGradient id="pizza_paint0_linear" x1="66.1838" y1="78.9051" x2="74.0985" y2="96.2566" gradientUnits="userSpaceOnUse">
<stop stop-color="#FAA68E"/>
<stop offset="0.2061" stop-color="#FBA682"/>
<stop offset="0.5808" stop-color="#FDA861"/>
<stop offset="1" stop-color="#FFA936"/>
</linearGradient>
<linearGradient id="pizza_paint1_linear" x1="74.463" y1="97.4074" x2="67.7824" y2="78.0842" gradientUnits="userSpaceOnUse">
<stop stop-color="#F82814" stop-opacity="0"/>
<stop offset="0.2454" stop-color="#F12817" stop-opacity="0.245"/>
<stop offset="0.6052" stop-color="#DD2820" stop-opacity="0.605"/>
<stop offset="1" stop-color="#C0272D"/>
</linearGradient>
<linearGradient id="pizza_paint2_linear" x1="43.1578" y1="56.0515" x2="78.4057" y2="98.2647" gradientUnits="userSpaceOnUse">
<stop stop-color="#FFD945"/>
<stop offset="0.3043" stop-color="#FFCD3E"/>
<stop offset="0.8558" stop-color="#FFAD2B"/>
<stop offset="1" stop-color="#FFA325"/>
</linearGradient>
<linearGradient id="pizza_paint3_linear" x1="91.9567" y1="53.7386" x2="104.462" y2="36.0089" gradientUnits="userSpaceOnUse">
<stop stop-color="#F82814" stop-opacity="0"/>
<stop offset="1" stop-color="#C0272D"/>
</linearGradient>
<linearGradient id="pizza_paint4_linear" x1="86.1528" y1="60.7312" x2="29.7981" y2="-26.4391" gradientUnits="userSpaceOnUse">
<stop stop-color="#F82814" stop-opacity="0"/>
<stop offset="1" stop-color="#C0272D"/>
</linearGradient>
<linearGradient id="pizza_paint5_linear" x1="57.312" y1="67.0707" x2="33.5673" y2="22.5886" gradientUnits="userSpaceOnUse">
<stop stop-color="#F82814" stop-opacity="0"/>
<stop offset="1" stop-color="#C0272D"/>
</linearGradient>
<linearGradient id="pizza_paint6_linear" x1="95.0415" y1="79.5639" x2="71.4021" y2="35.0289" gradientUnits="userSpaceOnUse">
<stop stop-color="#F82814" stop-opacity="0"/>
<stop offset="1" stop-color="#C0272D"/>
</linearGradient>
<linearGradient id="pizza_paint7_linear" x1="42.7587" y1="103.912" x2="23.7628" y2="71.6189" gradientUnits="userSpaceOnUse">
<stop stop-color="#F82814" stop-opacity="0"/>
<stop offset="1" stop-color="#C0272D"/>
</linearGradient>
<linearGradient id="pizza_paint8_linear" x1="63.033" y1="47.9013" x2="65.9233" y2="54.9048" gradientUnits="userSpaceOnUse">
<stop stop-color="#BADA00"/>
<stop offset="0.2269" stop-color="#B0CE00"/>
<stop offset="0.6378" stop-color="#95AE00"/>
<stop offset="1" stop-color="#798C00"/>
</linearGradient>
<linearGradient id="pizza_paint9_linear" x1="64.3885" y1="50.3577" x2="61.6316" y2="46.0555" gradientUnits="userSpaceOnUse">
<stop stop-color="#798C00" stop-opacity="0"/>
<stop offset="0.6542" stop-color="#556100" stop-opacity="0.654"/>
<stop offset="1" stop-color="#464F00"/>
</linearGradient>
<linearGradient id="pizza_paint10_linear" x1="62.1978" y1="52.8583" x2="60.0212" y2="49.4618" gradientUnits="userSpaceOnUse">
<stop stop-color="#798C00" stop-opacity="0"/>
<stop offset="0.6542" stop-color="#556100" stop-opacity="0.654"/>
<stop offset="1" stop-color="#464F00"/>
</linearGradient>
<linearGradient id="pizza_paint11_linear" x1="65.6345" y1="53.1392" x2="64.3225" y2="51.0915" gradientUnits="userSpaceOnUse">
<stop stop-color="#798C00" stop-opacity="0"/>
<stop offset="0.6542" stop-color="#556100" stop-opacity="0.654"/>
<stop offset="1" stop-color="#464F00"/>
</linearGradient>
<linearGradient id="pizza_paint12_linear" x1="35.0647" y1="72.127" x2="37.955" y2="79.1305" gradientUnits="userSpaceOnUse">
<stop stop-color="#BADA00"/>
<stop offset="0.2269" stop-color="#B0CE00"/>
<stop offset="0.6378" stop-color="#95AE00"/>
<stop offset="1" stop-color="#798C00"/>
</linearGradient>
<linearGradient id="pizza_paint13_linear" x1="36.4089" y1="74.599" x2="33.6521" y2="70.2968" gradientUnits="userSpaceOnUse">
<stop stop-color="#798C00" stop-opacity="0"/>
<stop offset="0.6542" stop-color="#556100" stop-opacity="0.654"/>
<stop offset="1" stop-color="#464F00"/>
</linearGradient>
<linearGradient id="pizza_paint14_linear" x1="34.2178" y1="77.0995" x2="32.0415" y2="73.7031" gradientUnits="userSpaceOnUse">
<stop stop-color="#798C00" stop-opacity="0"/>
<stop offset="0.6542" stop-color="#556100" stop-opacity="0.654"/>
<stop offset="1" stop-color="#464F00"/>
</linearGradient>
<linearGradient id="pizza_paint15_linear" x1="37.6548" y1="77.3804" x2="36.3426" y2="75.3327" gradientUnits="userSpaceOnUse">
<stop stop-color="#798C00" stop-opacity="0"/>
<stop offset="0.6542" stop-color="#556100" stop-opacity="0.654"/>
<stop offset="1" stop-color="#464F00"/>
</linearGradient>
<linearGradient id="pizza_paint16_linear" x1="69.8813" y1="79.0932" x2="72.7716" y2="86.0967" gradientUnits="userSpaceOnUse">
<stop stop-color="#BADA00"/>
<stop offset="0.2269" stop-color="#B0CE00"/>
<stop offset="0.6378" stop-color="#95AE00"/>
<stop offset="1" stop-color="#798C00"/>
</linearGradient>
<linearGradient id="pizza_paint17_linear" x1="71.2442" y1="81.5651" x2="68.4873" y2="77.2628" gradientUnits="userSpaceOnUse">
<stop stop-color="#798C00" stop-opacity="0"/>
<stop offset="0.6542" stop-color="#556100" stop-opacity="0.654"/>
<stop offset="1" stop-color="#464F00"/>
</linearGradient>
<linearGradient id="pizza_paint18_linear" x1="69.0531" y1="84.0652" x2="66.8768" y2="80.6691" gradientUnits="userSpaceOnUse">
<stop stop-color="#798C00" stop-opacity="0"/>
<stop offset="0.6542" stop-color="#556100" stop-opacity="0.654"/>
<stop offset="1" stop-color="#464F00"/>
</linearGradient>
<linearGradient id="pizza_paint19_linear" x1="72.49" y1="84.3465" x2="71.1778" y2="82.2987" gradientUnits="userSpaceOnUse">
<stop stop-color="#798C00" stop-opacity="0"/>
<stop offset="0.6542" stop-color="#556100" stop-opacity="0.654"/>
<stop offset="1" stop-color="#464F00"/>
</linearGradient>
<linearGradient id="pizza_paint20_linear" x1="119.685" y1="63.3422" x2="122.575" y2="70.3455" gradientUnits="userSpaceOnUse">
<stop stop-color="#BADA00"/>
<stop offset="0.2269" stop-color="#B0CE00"/>
<stop offset="0.6378" stop-color="#95AE00"/>
<stop offset="1" stop-color="#798C00"/>
</linearGradient>
<linearGradient id="pizza_paint21_linear" x1="121.071" y1="65.8001" x2="118.314" y2="61.4979" gradientUnits="userSpaceOnUse">
<stop stop-color="#798C00" stop-opacity="0"/>
<stop offset="0.6542" stop-color="#556100" stop-opacity="0.654"/>
<stop offset="1" stop-color="#464F00"/>
</linearGradient>
<linearGradient id="pizza_paint22_linear" x1="118.88" y1="68.3006" x2="116.704" y2="64.9042" gradientUnits="userSpaceOnUse">
<stop stop-color="#798C00" stop-opacity="0"/>
<stop offset="0.6542" stop-color="#556100" stop-opacity="0.654"/>
<stop offset="1" stop-color="#464F00"/>
</linearGradient>
<linearGradient id="pizza_paint23_linear" x1="122.317" y1="68.5816" x2="121.005" y2="66.5339" gradientUnits="userSpaceOnUse">
<stop stop-color="#798C00" stop-opacity="0"/>
<stop offset="0.6542" stop-color="#556100" stop-opacity="0.654"/>
<stop offset="1" stop-color="#464F00"/>
</linearGradient>
<linearGradient id="pizza_paint24_linear" x1="63.3953" y1="19.6044" x2="66.2856" y2="26.6079" gradientUnits="userSpaceOnUse">
<stop stop-color="#BADA00"/>
<stop offset="0.2269" stop-color="#B0CE00"/>
<stop offset="0.6378" stop-color="#95AE00"/>
<stop offset="1" stop-color="#798C00"/>
</linearGradient>
<linearGradient id="pizza_paint25_linear" x1="64.7481" y1="22.0462" x2="61.9912" y2="17.744" gradientUnits="userSpaceOnUse">
<stop stop-color="#798C00" stop-opacity="0"/>
<stop offset="0.6542" stop-color="#556100" stop-opacity="0.654"/>
<stop offset="1" stop-color="#464F00"/>
</linearGradient>
<linearGradient id="pizza_paint26_linear" x1="62.5572" y1="24.5468" x2="60.3806" y2="21.1503" gradientUnits="userSpaceOnUse">
<stop stop-color="#798C00" stop-opacity="0"/>
<stop offset="0.6542" stop-color="#556100" stop-opacity="0.654"/>
<stop offset="1" stop-color="#464F00"/>
</linearGradient>
<linearGradient id="pizza_paint27_linear" x1="65.9942" y1="24.8277" x2="64.682" y2="22.7803" gradientUnits="userSpaceOnUse">
<stop stop-color="#798C00" stop-opacity="0"/>
<stop offset="0.6542" stop-color="#556100" stop-opacity="0.654"/>
<stop offset="1" stop-color="#464F00"/>
</linearGradient>
<linearGradient id="pizza_paint28_linear" x1="67.1209" y1="26.1151" x2="61.9344" y2="41.2508" gradientUnits="userSpaceOnUse">
<stop stop-color="#FFDECF"/>
<stop offset="0.3791" stop-color="#FDC4B0"/>
<stop offset="0.7655" stop-color="#FBAE97"/>
<stop offset="1" stop-color="#FAA68E"/>
</linearGradient>
<linearGradient id="pizza_paint29_linear" x1="60.2857" y1="45.364" x2="64.4713" y2="33.149" gradientUnits="userSpaceOnUse">
<stop stop-color="#FFDECF"/>
<stop offset="0.3791" stop-color="#FDC4B0"/>
<stop offset="0.7655" stop-color="#FBAE97"/>
<stop offset="1" stop-color="#FAA68E"/>
</linearGradient>
<linearGradient id="pizza_paint30_linear" x1="11.5363" y1="98.9503" x2="16.2851" y2="106.707" gradientUnits="userSpaceOnUse">
<stop stop-color="#A57C52"/>
<stop offset="0.1339" stop-color="#A26C4A"/>
<stop offset="0.5155" stop-color="#994336"/>
<stop offset="0.8174" stop-color="#942A2A"/>
<stop offset="1" stop-color="#922125"/>
</linearGradient>
<linearGradient id="pizza_paint31_linear" x1="27.458" y1="83.2742" x2="23.0311" y2="96.1934" gradientUnits="userSpaceOnUse">
<stop stop-color="#FFDECF"/>
<stop offset="0.3791" stop-color="#FDC4B0"/>
<stop offset="0.7655" stop-color="#FBAE97"/>
<stop offset="1" stop-color="#FAA68E"/>
</linearGradient>
<linearGradient id="pizza_paint32_linear" x1="21.6402" y1="99.7023" x2="25.2128" y2="89.276" gradientUnits="userSpaceOnUse">
<stop stop-color="#FFDECF"/>
<stop offset="0.3791" stop-color="#FDC4B0"/>
<stop offset="0.7655" stop-color="#FBAE97"/>
<stop offset="1" stop-color="#FAA68E"/>
</linearGradient>
<linearGradient id="pizza_paint33_linear" x1="96.321" y1="71.5172" x2="102.612" y2="81.9651" gradientUnits="userSpaceOnUse">
<stop stop-color="#A57C52"/>
<stop offset="0.1339" stop-color="#A26C4A"/>
<stop offset="0.5155" stop-color="#994336"/>
<stop offset="0.8174" stop-color="#942A2A"/>
<stop offset="1" stop-color="#922125"/>
</linearGradient>
<linearGradient id="pizza_paint34_linear" x1="93.284" y1="55.6812" x2="98.772" y2="68.9786" gradientUnits="userSpaceOnUse">
<stop stop-color="#FF6359"/>
<stop offset="0.2243" stop-color="#FE5B50"/>
<stop offset="0.5952" stop-color="#FC4637"/>
<stop offset="1" stop-color="#F82814"/>
</linearGradient>
<linearGradient id="pizza_paint35_linear" x1="96.1052" y1="59.9369" x2="90.8705" y2="51.7683" gradientUnits="userSpaceOnUse">
<stop stop-color="#F82814" stop-opacity="0"/>
<stop offset="0.2454" stop-color="#F12817" stop-opacity="0.245"/>
<stop offset="0.6052" stop-color="#DD2820" stop-opacity="0.605"/>
<stop offset="1" stop-color="#C0272D"/>
</linearGradient>
<linearGradient id="pizza_paint36_linear" x1="91.9452" y1="64.6843" x2="87.8129" y2="58.2357" gradientUnits="userSpaceOnUse">
<stop stop-color="#F82814" stop-opacity="0"/>
<stop offset="0.2454" stop-color="#F12817" stop-opacity="0.245"/>
<stop offset="0.6052" stop-color="#DD2820" stop-opacity="0.605"/>
<stop offset="1" stop-color="#C0272D"/>
</linearGradient>
<linearGradient id="pizza_paint37_linear" x1="98.4707" y1="65.2178" x2="95.9795" y2="61.3301" gradientUnits="userSpaceOnUse">
<stop stop-color="#F82814" stop-opacity="0"/>
<stop offset="0.2454" stop-color="#F12817" stop-opacity="0.245"/>
<stop offset="0.6052" stop-color="#DD2820" stop-opacity="0.605"/>
<stop offset="1" stop-color="#C0272D"/>
</linearGradient>
<linearGradient id="pizza_paint38_linear" x1="39.1907" y1="79.5259" x2="44.6783" y2="92.8233" gradientUnits="userSpaceOnUse">
<stop stop-color="#FF6359"/>
<stop offset="0.2243" stop-color="#FE5B50"/>
<stop offset="0.5952" stop-color="#FC4637"/>
<stop offset="1" stop-color="#F82814"/>
</linearGradient>
<linearGradient id="pizza_paint39_linear" x1="41.9865" y1="83.7996" x2="36.7521" y2="75.6311" gradientUnits="userSpaceOnUse">
<stop stop-color="#F82814" stop-opacity="0"/>
<stop offset="0.2454" stop-color="#F12817" stop-opacity="0.245"/>
<stop offset="0.6052" stop-color="#DD2820" stop-opacity="0.605"/>
<stop offset="1" stop-color="#C0272D"/>
</linearGradient>
<linearGradient id="pizza_paint40_linear" x1="37.8265" y1="88.5474" x2="33.6942" y2="82.0988" gradientUnits="userSpaceOnUse">
<stop stop-color="#F82814" stop-opacity="0"/>
<stop offset="0.2454" stop-color="#F12817" stop-opacity="0.245"/>
<stop offset="0.6052" stop-color="#DD2820" stop-opacity="0.605"/>
<stop offset="1" stop-color="#C0272D"/>
</linearGradient>
<linearGradient id="pizza_paint41_linear" x1="44.3523" y1="89.0807" x2="41.8608" y2="85.193" gradientUnits="userSpaceOnUse">
<stop stop-color="#F82814" stop-opacity="0"/>
<stop offset="0.2454" stop-color="#F12817" stop-opacity="0.245"/>
<stop offset="0.6052" stop-color="#DD2820" stop-opacity="0.605"/>
<stop offset="1" stop-color="#C0272D"/>
</linearGradient>
<linearGradient id="pizza_paint42_linear" x1="65.1491" y1="60.0064" x2="71.4406" y2="70.4544" gradientUnits="userSpaceOnUse">
<stop stop-color="#A57C52"/>
<stop offset="0.1339" stop-color="#A26C4A"/>
<stop offset="0.5155" stop-color="#994336"/>
<stop offset="0.8174" stop-color="#942A2A"/>
<stop offset="1" stop-color="#922125"/>
</linearGradient>
<linearGradient id="pizza_paint43_linear" x1="76.4497" y1="89.5206" x2="63.8911" y2="65.7756" gradientUnits="userSpaceOnUse">
<stop stop-color="#798C00" stop-opacity="0"/>
<stop offset="0.6542" stop-color="#556100" stop-opacity="0.654"/>
<stop offset="1" stop-color="#464F00"/>
</linearGradient>
<linearGradient id="pizza_paint44_linear" x1="78.3554" y1="62.0597" x2="73.9285" y2="74.9789" gradientUnits="userSpaceOnUse">
<stop stop-color="#FFDECF"/>
<stop offset="0.3791" stop-color="#FDC4B0"/>
<stop offset="0.7655" stop-color="#FBAE97"/>
<stop offset="1" stop-color="#FAA68E"/>
</linearGradient>
<linearGradient id="pizza_paint45_linear" x1="72.5379" y1="78.4876" x2="76.1105" y2="68.0617" gradientUnits="userSpaceOnUse">
<stop stop-color="#FFDECF"/>
<stop offset="0.3791" stop-color="#FDC4B0"/>
<stop offset="0.7655" stop-color="#FBAE97"/>
<stop offset="1" stop-color="#FAA68E"/>
</linearGradient>
<linearGradient id="pizza_paint46_linear" x1="20.4961" y1="72.3721" x2="23.2064" y2="77.7927" gradientUnits="userSpaceOnUse">
<stop stop-color="#8A7889"/>
<stop offset="0.3344" stop-color="#867385"/>
<stop offset="0.7039" stop-color="#7B667B"/>
<stop offset="1" stop-color="#6E566E"/>
</linearGradient>
<linearGradient id="pizza_paint47_linear" x1="50.1591" y1="64.2476" x2="52.8694" y2="69.6681" gradientUnits="userSpaceOnUse">
<stop stop-color="#8A7889"/>
<stop offset="0.3344" stop-color="#867385"/>
<stop offset="0.7039" stop-color="#7B667B"/>
<stop offset="1" stop-color="#6E566E"/>
</linearGradient>
<linearGradient id="pizza_paint48_linear" x1="87.9346" y1="43.272" x2="90.6449" y2="48.6926" gradientUnits="userSpaceOnUse">
<stop stop-color="#8A7889"/>
<stop offset="0.3344" stop-color="#867385"/>
<stop offset="0.7039" stop-color="#7B667B"/>
<stop offset="1" stop-color="#6E566E"/>
</linearGradient>
<linearGradient id="pizza_paint49_linear" x1="8.91798" y1="104.758" x2="11.6283" y2="110.178" gradientUnits="userSpaceOnUse">
<stop stop-color="#8A7889"/>
<stop offset="0.3344" stop-color="#867385"/>
<stop offset="0.7039" stop-color="#7B667B"/>
<stop offset="1" stop-color="#6E566E"/>
</linearGradient>
<linearGradient id="pizza_paint50_linear" x1="40.5517" y1="48.173" x2="46.0393" y2="61.4704" gradientUnits="userSpaceOnUse">
<stop stop-color="#FF6359"/>
<stop offset="0.2243" stop-color="#FE5B50"/>
<stop offset="0.5952" stop-color="#FC4637"/>
<stop offset="1" stop-color="#F82814"/>
</linearGradient>
<linearGradient id="pizza_paint51_linear" x1="43.3446" y1="52.4308" x2="38.1102" y2="44.262" gradientUnits="userSpaceOnUse">
<stop stop-color="#F82814" stop-opacity="0"/>
<stop offset="0.2454" stop-color="#F12817" stop-opacity="0.245"/>
<stop offset="0.6052" stop-color="#DD2820" stop-opacity="0.605"/>
<stop offset="1" stop-color="#C0272D"/>
</linearGradient>
<linearGradient id="pizza_paint52_linear" x1="39.1846" y1="57.1783" x2="35.0523" y2="50.7297" gradientUnits="userSpaceOnUse">
<stop stop-color="#F82814" stop-opacity="0"/>
<stop offset="0.2454" stop-color="#F12817" stop-opacity="0.245"/>
<stop offset="0.6052" stop-color="#DD2820" stop-opacity="0.605"/>
<stop offset="1" stop-color="#C0272D"/>
</linearGradient>
<linearGradient id="pizza_paint53_linear" x1="45.7101" y1="57.7117" x2="43.219" y2="53.8237" gradientUnits="userSpaceOnUse">
<stop stop-color="#F82814" stop-opacity="0"/>
<stop offset="0.2454" stop-color="#F12817" stop-opacity="0.245"/>
<stop offset="0.6052" stop-color="#DD2820" stop-opacity="0.605"/>
<stop offset="1" stop-color="#C0272D"/>
</linearGradient>
<linearGradient id="pizza_paint54_linear" x1="84.7526" y1="32.7367" x2="91.0438" y2="43.1847" gradientUnits="userSpaceOnUse">
<stop stop-color="#A57C52"/>
<stop offset="0.1339" stop-color="#A26C4A"/>
<stop offset="0.5155" stop-color="#994336"/>
<stop offset="0.8174" stop-color="#942A2A"/>
<stop offset="1" stop-color="#922125"/>
</linearGradient>
<linearGradient id="pizza_paint55_linear" x1="110.139" y1="29.9326" x2="99.1633" y2="47.8732" gradientUnits="userSpaceOnUse">
<stop stop-color="#FAA68E"/>
<stop offset="0.2061" stop-color="#FBA682"/>
<stop offset="0.5808" stop-color="#FDA861"/>
<stop offset="1" stop-color="#FFA936"/>
</linearGradient>
</defs>
</svg>
