<svg width="150" height="138" viewBox="0 0 150 138" fill="none" xmlns="http://www.w3.org/2000/svg">
<path d="M75 127.327C62.6176 127.327 51.2538 125.493 42.3529 122.437C43.6335 127.502 46.0394 131.333 49.0058 132.558C55.7011 135.326 64.8767 137.032 75 137.032C85.1232 137.032 94.2988 135.326 100.994 132.558C103.961 131.333 106.366 127.502 107.647 122.437C98.7461 125.493 87.3823 127.327 75 127.327Z" fill="url(#ramen_paint0_linear)"/>
<path d="M150 64.8927C150 44.0468 0 44.0468 0 64.8927C0 85.7386 17.6256 130.902 75 130.902C132.374 130.902 150 85.7386 150 64.8927Z" fill="url(#ramen_paint1_linear)"/>
<path d="M150 64.8927C150 85.7386 0 85.7386 0 64.8927C0 44.0468 150 44.0468 150 64.8927Z" fill="url(#ramen_paint2_linear)"/>
<path d="M143.806 64.8927C143.806 80.2554 6.19348 80.2554 6.19348 64.8927C6.19348 49.5301 143.806 49.5301 143.806 64.8927Z" fill="url(#ramen_paint3_linear)"/>
<path d="M8.95239 68.4415C16.1459 72.7785 36.5236 75.3462 59.3271 76.1441C61.618 76.2244 63.933 74.2276 66.2618 74.2723C68.3392 74.312 70.4274 76.3962 72.5186 76.4076C101.945 76.5659 131.977 73.9103 141.047 68.4418C123.416 57.8115 26.5839 57.8115 8.95239 68.4415Z" fill="url(#ramen_paint4_linear)"/>
<path d="M1.3147 75.8995C1.92587 78.6604 2.76382 81.5677 3.85029 84.5454C24.8215 98.1854 125.179 98.1854 146.15 84.5454C147.236 81.5677 148.074 78.6604 148.685 75.8995C148.599 75.7968 148.514 75.6942 148.419 75.593C133.449 91.7063 16.5515 91.7063 1.58087 75.593C1.48676 75.6942 1.40087 75.7968 1.3147 75.8995Z" fill="url(#ramen_paint5_linear)"/>
<path d="M6.19348 90.2053C7.10025 92.1577 8.11495 94.1183 9.2476 96.068C36.0973 106.218 113.902 106.218 140.752 96.068C141.885 94.1183 142.9 92.1577 143.806 90.2053C119.474 102.096 30.5255 102.096 6.19348 90.2053Z" fill="url(#ramen_paint6_linear)"/>
<path d="M123.144 73.4077C109.556 75.5047 90.943 76.5047 72.5627 76.408C70.6624 76.398 68.7645 74.3174 66.8748 74.2838C64.3457 74.2391 61.8313 76.2321 59.346 76.1453C47.3151 75.725 35.9583 74.8127 26.856 73.408C30.5854 65.7727 36.7501 59.2168 44.5207 54.4403C53.0913 49.1697 63.6207 46.0638 75.0001 46.0638C86.3795 46.0638 96.9089 49.1697 105.479 54.4403C113.25 59.2165 119.415 65.7724 123.144 73.4077Z" fill="url(#ramen_paint7_linear)"/>
<path d="M115.569 74.4083C111.289 67.1198 104.985 60.8433 97.2871 56.1112C92.3718 53.0886 86.8868 50.6962 80.9954 49.0721C70.4848 46.1748 59.2436 47.0471 49.4168 51.7695C47.7236 52.5833 46.0892 53.4754 44.5207 54.4398C36.7501 59.2162 30.5854 65.7721 26.856 73.4074C50.4524 77.0492 89.1966 77.3824 115.569 74.4083Z" fill="url(#ramen_paint8_linear)"/>
<path d="M105.575 75.3368C101.305 68.3138 95.1501 62.2565 87.6724 57.66C82.7951 54.6606 77.3565 52.2821 71.5168 50.6588C62.4401 48.1359 52.6848 49.4503 44.6463 54.3629C44.6042 54.3885 44.5624 54.4141 44.5207 54.44C36.7501 59.2165 30.5854 65.7723 26.856 73.4076C47.6171 76.6115 80.1048 77.2544 105.575 75.3368Z" fill="url(#ramen_paint9_linear)"/>
<path d="M95.2786 75.9568C91.0215 69.125 84.97 63.2279 77.6527 58.73C73.1209 55.9432 68.1044 53.6923 62.7318 52.0853C56.6374 50.2623 50.0291 51.0665 44.6044 54.3885C44.5765 54.4056 44.5486 54.4226 44.5209 54.44C36.7503 59.2165 30.5856 65.7723 26.8562 73.4076C35.9591 74.8123 47.3162 75.7247 59.3477 76.145C61.6283 76.2247 63.9333 74.8159 66.2515 74.8603C68.365 74.9006 70.4894 76.3968 72.6171 76.4079C80.2571 76.4468 87.9371 76.2965 95.2786 75.9568Z" fill="url(#ramen_paint10_linear)"/>
<path d="M84.3806 76.3179C80.2685 70.5485 74.8332 65.5388 68.4277 61.6015C63.5124 58.5788 58.0274 56.1865 52.1359 54.5623C51.8382 54.4803 51.4477 54.4209 51.0003 54.3791C46.9247 53.9979 42.8832 55.2912 39.6641 57.8194C34.1715 62.1335 29.77 67.4412 26.8556 73.4076C35.9541 74.8117 47.3047 75.7238 59.33 76.1441C61.5371 76.2212 63.7671 74.517 66.0097 74.5612C68.1988 74.6041 70.4006 76.3962 72.6053 76.4073C76.5374 76.4276 80.4794 76.3979 84.3806 76.3179Z" fill="url(#ramen_paint11_linear)"/>
<path d="M74.3854 76.413C70.6533 71.9754 66.096 68.0754 60.8998 64.8812C55.9845 61.8586 50.4995 59.4662 44.608 57.8421C44.5954 57.8386 44.5827 57.8351 44.5701 57.8318C42.1613 57.1701 39.5865 57.8086 37.7036 59.4498C33.1207 63.4442 29.4139 68.1704 26.856 73.4074C39.6927 75.3886 57.013 76.3901 74.3854 76.413Z" fill="url(#ramen_paint12_linear)"/>
<path d="M38.1383 54.99C30.15 57.6165 23.5795 63.3724 20.0383 71.0488C19.8824 71.3871 19.7295 71.7282 19.5824 72.0694C21.6068 72.5138 23.823 72.925 26.1965 73.3035C26.8783 71.1412 27.6965 69.0232 28.6518 66.9518C30.5548 62.8253 33.2871 59.2282 36.6253 56.3253C37.185 55.8382 37.7618 55.3712 38.3545 54.9238C38.283 54.9465 38.2097 54.9665 38.1383 54.99Z" fill="url(#ramen_paint13_linear)"/>
<path d="M52.5383 47.6194C46.3294 48.5782 40.6736 51.243 36.1353 55.193C32.7971 58.0959 30.0647 61.693 28.1618 65.8194C27.0588 68.2106 26.1383 70.6635 25.4 73.1753C25.9412 73.2635 26.4883 73.3518 27.0471 73.4371C28.8706 73.7165 30.7824 73.9753 32.7706 74.2165C32.93 73.7191 33.0991 73.2253 33.275 72.7332C34.128 69.5697 35.2686 66.4883 36.703 63.505C38.0588 60.6815 39.8147 58.1021 41.8971 55.8168C45.1562 52.2385 49.2141 49.3841 53.7836 47.4532C53.3686 47.5015 52.9536 47.5553 52.5383 47.6194Z" fill="url(#ramen_paint14_linear)"/>
<path d="M61.2472 44.3771C53.2648 45.6142 46.1501 49.4151 41.0148 54.9818C38.9324 57.238 37.1766 59.7848 35.8207 62.5724C34.0177 66.2748 32.6707 70.128 31.7883 74.1062C32.1119 74.1468 32.4413 74.1848 32.7707 74.2254C34.8207 74.4692 36.9501 74.693 39.1501 74.8933C39.9119 71.7339 41.0148 68.6674 42.4501 65.7174C43.2683 64.0374 48.1342 56.6942 49.0586 55.5524C53.6972 49.8042 60.0751 45.7515 67.2383 43.9436C65.2536 43.9268 63.2504 44.0671 61.2472 44.3771Z" fill="url(#ramen_paint15_linear)"/>
<path d="M71.5441 42.49C62.3147 42.7988 53.8441 47.0988 48.1971 54.1871C47.353 55.243 46.5735 56.3636 45.8618 57.543C42.6412 62.8783 40.3941 68.6988 39.153 74.893C41.5882 75.1224 44.1088 75.3224 46.6912 75.4988C47.2274 73.0583 47.9465 70.6891 48.8435 68.3994C49.3968 66.7985 50.02 65.2203 50.7206 63.6694C52.4382 59.8753 54.8265 56.5194 57.7235 53.7253C62.4441 49.1753 68.5206 46.1165 75.2412 45.0871C78.6035 44.5703 81.9647 44.588 85.2227 45.095C80.9868 43.2474 76.3303 42.3283 71.5441 42.49Z" fill="url(#ramen_paint16_linear)"/>
<path d="M74.653 44.333C67.9324 45.3877 61.856 48.5212 57.1354 53.1827C54.2383 56.0453 51.8501 59.4832 50.1324 63.3703C48.4207 67.2512 47.1471 71.2921 46.3207 75.4624C46.4442 75.4715 46.5677 75.4803 46.6913 75.4894C48.8533 75.6424 51.0633 75.773 53.3066 75.8882C54.0839 73.0682 55.0954 70.3153 56.3357 67.6385C56.4963 67.2485 56.6619 66.8603 56.8324 66.4738C58.6324 62.3912 61.3974 58.9512 64.8069 56.4C65.866 55.4941 66.9824 54.6503 68.153 53.8777C72.2913 51.1527 77.0824 49.2897 82.2383 48.5027C87.4122 47.7135 92.5875 48.0468 97.4313 49.3909C90.793 44.9253 82.7251 43.0621 74.653 44.333Z" fill="url(#ramen_paint17_linear)"/>
<path d="M113.344 58.5518C112.047 57.1547 110.644 55.8812 109.159 54.74C101.644 48.9459 91.9383 46.4342 82.2383 47.943C77.0824 48.7459 72.2912 50.6459 68.153 53.4253C63.2236 56.743 59.2236 61.3106 56.6559 66.7606C55.2647 69.7136 54.1471 72.7606 53.303 75.8871C53.45 75.8959 53.5971 75.9047 53.7442 75.9106C55.3712 75.9903 57.0218 76.0565 58.6809 76.1162C63.988 62.3018 76.7203 52.5694 91.5865 52.5694C100.23 52.5694 108.152 55.86 114.313 61.3289C114.387 60.3433 114.07 59.3318 113.344 58.5518Z" fill="url(#ramen_paint18_linear)"/>
<path d="M54.8636 50.1336C55.2736 49.0133 54.6977 47.7724 53.5774 47.3624C52.4571 46.9524 51.2162 47.5283 50.8062 48.6486C50.3962 49.7688 50.9721 51.0094 52.0924 51.4197C53.213 51.8297 54.4536 51.2538 54.8636 50.1336Z" fill="url(#ramen_paint19_linear)"/>
<path d="M47.9562 51.9644C47.0718 51.6409 46.0924 52.0953 45.7686 52.98C45.4448 53.8644 45.8995 54.8438 46.7842 55.1676C47.6689 55.4914 48.648 55.0367 48.9718 54.152C49.2953 53.2676 48.8406 52.2882 47.9562 51.9644Z" fill="url(#ramen_paint20_linear)"/>
<path d="M54.4174 56.1356C53.8842 55.9406 53.2936 56.2147 53.0986 56.7479C52.9033 57.2812 53.1774 57.8718 53.7107 58.0668C54.2439 58.2618 54.8345 57.9879 55.0295 57.4547C55.2248 56.9212 54.9507 56.3309 54.4174 56.1356Z" fill="url(#ramen_paint21_linear)"/>
<path d="M63.8597 52.6885C62.6738 52.8179 61.8174 53.8844 61.9468 55.0705C62.0762 56.2564 63.1427 57.1129 64.3288 56.9835C65.5147 56.8541 66.3712 55.7876 66.2418 54.6014C66.1124 53.4152 65.0459 52.5591 63.8597 52.6885Z" fill="url(#ramen_paint22_linear)"/>
<path d="M66.9551 46.975C66.0189 47.0773 65.3427 47.9191 65.4448 48.8556C65.5471 49.7917 66.3889 50.4679 67.3253 50.3658C68.2615 50.2635 68.9377 49.4217 68.8356 48.4853C68.7333 47.5488 67.8912 46.8726 66.9551 46.975Z" fill="url(#ramen_paint23_linear)"/>
<path d="M59.4609 47.4492C58.8965 47.5109 58.4889 48.0183 58.5503 48.583C58.6121 49.1474 59.1194 49.5551 59.6841 49.4936C60.2486 49.4318 60.6562 48.9245 60.5947 48.3598C60.5333 47.7951 60.0253 47.3874 59.4609 47.4492Z" fill="url(#ramen_paint24_linear)"/>
<path d="M57.31 56.6868C56.4853 56.998 56.0688 57.9192 56.3803 58.7439C56.6915 59.5686 57.6127 59.9851 58.4374 59.6736C59.2621 59.3624 59.6785 58.4412 59.3671 57.6165C59.0556 56.7918 58.1347 56.3754 57.31 56.6868Z" fill="url(#ramen_paint25_linear)"/>
<path d="M58.4716 52.0276C57.8204 52.2735 57.4919 53.0005 57.7374 53.6517C57.9833 54.3029 58.7104 54.6314 59.3616 54.3858C60.0127 54.14 60.3413 53.4129 60.0957 52.7617C59.8498 52.1105 59.1227 51.7817 58.4716 52.0276Z" fill="url(#ramen_paint26_linear)"/>
<path d="M53.733 55.17C54.1256 55.0218 54.3236 54.5836 54.1756 54.1909C54.0274 53.7983 53.5892 53.6003 53.1965 53.7483C52.8039 53.8965 52.6059 54.3347 52.7539 54.7274C52.9021 55.12 53.3406 55.3183 53.733 55.17Z" fill="url(#ramen_paint27_linear)"/>
<path d="M78.5892 49.4382C78.9992 48.318 78.4233 47.0771 77.303 46.6671C76.1827 46.2571 74.9418 46.833 74.5318 47.9532C74.1218 49.0735 74.6977 50.3144 75.818 50.7244C76.9383 51.1347 78.1789 50.5588 78.5892 49.4382Z" fill="url(#ramen_paint28_linear)"/>
<path d="M71.6818 51.2691C70.7974 50.9455 69.818 51.4 69.4942 52.2847C69.1703 53.1694 69.6251 54.1485 70.5095 54.4723C71.3939 54.7961 72.3733 54.3414 72.6971 53.4567C73.0209 52.5723 72.5662 51.5929 71.6818 51.2691Z" fill="url(#ramen_paint29_linear)"/>
<path d="M78.143 55.4405C77.6098 55.2452 77.0192 55.5194 76.8242 56.0529C76.6289 56.5861 76.903 57.1767 77.4363 57.3717C77.9695 57.567 78.5601 57.2929 78.7551 56.7597C78.9504 56.2261 78.6763 55.6355 78.143 55.4405Z" fill="url(#ramen_paint30_linear)"/>
<path d="M90.6424 50.7189C89.4565 50.8483 88.6001 51.9147 88.7295 53.1009C88.8589 54.2868 89.9254 55.1433 91.1116 55.0139C92.2974 54.8845 93.1539 53.818 93.0245 52.6318C92.8951 51.4459 91.8286 50.5895 90.6424 50.7189Z" fill="url(#ramen_paint31_linear)"/>
<path d="M90.0118 47.895C89.9095 46.9588 89.0677 46.2826 88.1312 46.385C87.1947 46.4874 86.5189 47.3291 86.6209 48.2653C86.7233 49.2018 87.565 49.8776 88.5015 49.7756C89.438 49.6732 90.1142 48.8312 90.0118 47.895Z" fill="url(#ramen_paint32_linear)"/>
<path d="M83.1865 46.7538C82.6221 46.8156 82.2144 47.3229 82.2759 47.8876C82.3377 48.452 82.845 48.8597 83.4097 48.7979C83.9741 48.7362 84.3818 48.2285 84.3203 47.6641C84.2585 47.1 83.7509 46.6923 83.1865 46.7538Z" fill="url(#ramen_paint33_linear)"/>
<path d="M81.0356 55.9915C80.2109 56.3027 79.7944 57.2239 80.1059 58.0486C80.4171 58.8733 81.3382 59.2898 82.163 58.9783C82.9877 58.6671 83.4041 57.7459 83.0927 56.9212C82.7812 56.0965 81.8603 55.6803 81.0356 55.9915Z" fill="url(#ramen_paint34_linear)"/>
<path d="M82.1972 51.3323C81.546 51.5782 81.2174 52.3052 81.463 52.9561C81.7089 53.6073 82.436 53.9358 83.0872 53.6902C83.7383 53.4444 84.0669 52.7173 83.8213 52.0664C83.5754 51.4152 82.8483 51.0867 82.1972 51.3323Z" fill="url(#ramen_paint35_linear)"/>
<path d="M77.4586 54.4747C77.8512 54.3265 78.0492 53.8883 77.9012 53.4956C77.753 53.103 77.3148 52.905 76.9221 53.053C76.5295 53.2012 76.3315 53.6394 76.4795 54.0321C76.6277 54.425 77.0659 54.623 77.4586 54.4747Z" fill="url(#ramen_paint36_linear)"/>
<path d="M71.898 45.765C72.6282 46.0324 73.4368 45.6568 73.7041 44.9268C73.9715 44.1965 73.5962 43.388 72.8659 43.1206C72.1356 42.8533 71.3271 43.2286 71.0597 43.9589C70.7924 44.6895 71.1677 45.498 71.898 45.765Z" fill="url(#ramen_paint37_linear)"/>
<path d="M64.8488 45.7683C64.9758 45.4207 64.7973 45.036 64.4497 44.9086C64.102 44.7816 63.7173 44.9601 63.5903 45.3077C63.4632 45.6554 63.6417 46.0401 63.9894 46.1674C64.3367 46.2945 64.7214 46.116 64.8488 45.7683Z" fill="url(#ramen_paint38_linear)"/>
<path d="M73.0215 48.6777C72.9812 48.3098 72.6506 48.0442 72.2827 48.0842C71.9148 48.1245 71.6492 48.4551 71.6895 48.823C71.7298 49.191 72.0603 49.4565 72.4283 49.4165C72.7959 49.3763 73.0618 49.0457 73.0215 48.6777Z" fill="url(#ramen_paint39_linear)"/>
<path d="M81.3388 45.3207C81.2985 44.9527 80.9679 44.6871 80.6 44.7271C80.232 44.7674 79.9664 45.098 80.0067 45.466C80.047 45.8339 80.3779 46.0995 80.7455 46.0595C81.1132 46.0192 81.3788 45.6886 81.3388 45.3207Z" fill="url(#ramen_paint40_linear)"/>
<path d="M64.4897 47.6536C64.2868 47.1159 63.6865 46.8447 63.1488 47.0477C62.6112 47.2506 62.34 47.8509 62.5429 48.3883C62.7459 48.9259 63.3462 49.1971 63.8835 48.9942C64.4212 48.7915 64.6926 48.1912 64.4897 47.6536Z" fill="url(#ramen_paint41_linear)"/>
<path d="M69.3364 44.7397C69.1762 44.3153 68.7023 44.1012 68.2779 44.2612C67.8535 44.4215 67.6394 44.8953 67.7994 45.3197C67.9597 45.7441 68.4335 45.9582 68.8579 45.7979C69.2826 45.6379 69.4967 45.1641 69.3364 44.7397Z" fill="url(#ramen_paint42_linear)"/>
<path d="M77.1989 44.7397C77.0386 44.3153 76.5647 44.1012 76.1403 44.2612C75.7159 44.4215 75.5018 44.8953 75.6621 45.3197C75.8224 45.7441 76.2962 45.9582 76.7206 45.7979C77.1447 45.6379 77.3588 45.1641 77.1989 44.7397Z" fill="url(#ramen_paint43_linear)"/>
<path d="M69.6061 47.1395C69.7026 47.3953 69.9885 47.5245 70.2444 47.428C70.5002 47.3315 70.6294 47.0456 70.5329 46.7898C70.4364 46.5339 70.1505 46.4047 69.8946 46.5012C69.6385 46.598 69.5093 46.8839 69.6061 47.1395Z" fill="url(#ramen_paint44_linear)"/>
<path d="M72.1341 66.14C71.6474 65.5265 70.8565 65.1639 69.9971 65.2897H69.9941C69.8824 65.3074 69.7706 65.3133 69.6588 65.3133C69.2062 65.3133 68.7656 65.1783 68.3918 64.9312C68.3138 64.8492 67.9035 64.438 67.7668 64.33C67.3059 63.7521 66.6391 63.4603 65.9706 63.4603C65.2765 63.4603 64.5824 63.7692 64.1235 64.3868C63.6176 65.0662 62.7794 65.4133 61.9441 65.2897H61.9412C60.4147 65.0662 59.1059 66.378 59.3294 67.9015V67.9044C59.3471 68.0162 59.3529 68.128 59.3529 68.2397C59.3529 68.9574 59.0147 69.6456 58.4265 70.0839C57.8088 70.5456 57.5 71.2368 57.5 71.928C57.5 72.5986 57.7912 73.2674 58.3679 73.7259C58.4206 73.793 58.7094 73.8074 58.8315 73.9324C58.9591 74.0633 58.9194 74.3041 58.9597 74.3424C59.2732 74.8097 59.4144 75.3815 59.3294 75.9544V75.9574C59.3206 76.0212 59.315 76.0821 59.3121 76.1433C61.47 76.2188 63.6497 74.808 65.8418 74.8518C68.0806 74.8965 70.3324 76.3956 72.5877 76.4071C75.8438 76.4241 79.1077 76.4065 82.3491 76.3547L72.1341 66.14Z" fill="url(#ramen_paint45_linear)"/>
<path d="M74.4382 71.9282C74.4382 72.6223 74.1294 73.3165 73.5118 73.7753C72.8324 74.2812 72.4853 75.1194 72.6088 75.9547V75.9576C72.6324 76.1106 72.6382 76.2606 72.6294 76.4076C70.35 76.3988 68.0735 76.3694 65.8118 76.3253C64.5618 76.2988 63.3176 76.2694 62.0794 76.2341C61.1529 76.2076 60.2294 76.1782 59.3118 76.1459C59.3147 76.0841 59.3206 76.0223 59.3294 75.9576V75.9547C59.4529 75.1194 59.1059 74.2812 58.4265 73.7753C57.8088 73.3165 57.5 72.6223 57.5 71.9282C57.5 71.237 57.8088 70.5459 58.4265 70.0841C59.0147 69.6459 59.3529 68.9576 59.3529 68.24C59.3529 68.1282 59.3471 68.0165 59.3294 67.9047V67.9018C59.1059 66.3782 60.4147 65.0665 61.9412 65.29H61.9441C62.7794 65.4135 63.6176 65.0665 64.1235 64.387C64.5824 63.7694 65.2765 63.4606 65.9706 63.4606C66.6618 63.4606 67.3529 63.7694 67.8147 64.387C68.2529 64.9753 68.9412 65.3135 69.6588 65.3135C69.7706 65.3135 69.8824 65.3076 69.9941 65.29H69.9971C71.5206 65.0665 72.8294 66.3782 72.6088 67.9018V67.9047C72.4853 68.74 72.8324 69.5782 73.5118 70.0841C74.1294 70.5459 74.4382 71.237 74.4382 71.9282Z" fill="url(#ramen_paint46_linear)"/>
<path d="M70.9559 71.2664C70.8206 72.3341 70.2765 73.2812 69.4294 73.94C68.5794 74.5959 67.5265 74.8841 66.4618 74.7488C65.5529 74.6341 64.7471 74.1723 64.1882 73.4488C63.6265 72.7253 63.3823 71.8282 63.497 70.9223C63.5706 70.3576 64.0853 69.9606 64.65 70.0312C65.2118 70.1017 65.6118 70.6194 65.5412 71.1812C65.4941 71.5429 65.5912 71.8988 65.8147 72.187C66.0382 72.4753 66.3588 72.6606 66.7206 72.7047C67.2412 72.7723 67.7529 72.6312 68.1676 72.3106C68.5823 71.99 68.847 71.5282 68.9118 71.0076C69.1 69.5282 68.05 68.1694 66.5676 67.9812C65.6029 67.8576 64.6471 68.1194 63.8794 68.7135C63.1088 69.3106 62.6176 70.1694 62.4941 71.1341C62.2 73.4723 63.6412 75.637 65.8118 76.3253C64.5618 76.2988 63.3176 76.2694 62.0794 76.2341C61.4706 75.5341 61.0059 74.7106 60.7206 73.8194C60.4265 72.8988 60.3235 71.8988 60.4529 70.8753C60.85 67.7547 63.7088 65.54 66.8265 65.937C69.4353 66.2694 71.2853 68.6606 70.9559 71.2664Z" fill="url(#ramen_paint47_linear)"/>
<path d="M109.284 75.0348L86.9597 52.71C86.5391 52.0489 85.5988 51.6147 84.557 51.7321L84.555 51.7324C83.7179 51.8268 82.8809 51.5594 82.3756 51.0365C81.455 50.0839 79.6032 50.0839 78.6826 51.0365C78.1773 51.5594 77.3403 51.8265 76.5032 51.7324L76.5012 51.7321C74.9765 51.5603 73.6673 52.5692 73.89 53.7442L73.8903 53.7456C74.0126 54.3906 73.6659 55.0356 72.9873 55.425C71.8015 56.1056 71.7565 57.4444 72.8456 58.1789L73.5512 58.9121C73.815 59.1862 73.9603 59.5683 73.8917 59.9424C73.8912 59.945 73.8909 59.9477 73.8903 59.9503L73.89 59.9518C73.7703 60.5824 74.0944 61.163 74.6535 61.5412L89.3021 76.1898C96.2691 75.9683 103.03 75.5833 109.284 75.0348Z" fill="url(#ramen_paint48_linear)"/>
<path d="M88.0705 58.2706C87.392 58.66 87.0453 59.305 87.1676 59.95L87.1679 59.9515C87.3908 61.1265 86.0817 62.1353 84.5567 61.9636L84.5547 61.9633C83.7176 61.8689 82.8805 62.1362 82.3753 62.6592C81.4547 63.6118 79.6029 63.6118 78.6823 62.6592C78.177 62.1362 77.34 61.8692 76.5029 61.9633L76.5008 61.9636C74.9761 62.1353 73.667 61.1265 73.89 59.9515L73.8903 59.95C74.0126 59.305 73.6658 58.66 72.9873 58.2706C71.7511 57.5612 71.7511 56.1344 72.9873 55.425C73.6658 55.0356 74.0126 54.3906 73.8903 53.7456L73.89 53.7442C73.667 52.5692 74.9761 51.5603 76.5011 51.7321L76.5032 51.7324C77.3403 51.8268 78.1773 51.5594 78.6826 51.0365C79.6032 50.0839 81.455 50.0839 82.3755 51.0365C82.8808 51.5594 83.7179 51.8265 84.555 51.7324L84.557 51.7321C86.0817 51.5603 87.3908 52.5692 87.1679 53.7442L87.1676 53.7456C87.0453 54.3906 87.392 55.0356 88.0705 55.425C89.3067 56.1344 89.3067 57.5612 88.0705 58.2706Z" fill="url(#ramen_paint49_linear)"/>
<path d="M75.2806 58.3048C74.9856 57.5933 74.8826 56.823 75.0126 56.0345C75.4091 53.6315 78.2688 51.9248 81.387 52.2303C83.9944 52.4859 85.8458 54.3283 85.5147 56.3374C85.3794 57.158 84.8373 57.8889 83.9885 58.3953C83.1397 58.9018 82.0858 59.1236 81.0206 59.0192C80.1141 58.9304 79.3064 58.5748 78.747 58.018C78.1873 57.4612 77.9426 56.7698 78.0582 56.0712C78.13 55.6365 78.6453 55.3292 79.2091 55.3845C79.7732 55.4398 80.172 55.8368 80.1003 56.2715C80.0544 56.5498 80.1517 56.8248 80.3747 57.0468C80.5973 57.2686 80.9191 57.4101 81.2803 57.4454C81.7997 57.4962 82.3138 57.3883 82.7279 57.1412C83.1417 56.8942 83.4061 56.5377 83.4723 56.1374C83.6608 54.9959 82.6088 53.9489 81.1276 53.8042C80.1626 53.7095 79.2073 53.9103 78.4382 54.3695C77.6691 54.8286 77.1779 55.4909 77.0553 56.2348C76.7206 58.2621 78.5894 60.1215 81.2206 60.3792C81.7844 60.4345 82.1838 60.8309 82.112 61.2662C82.0403 61.7009 81.525 62.0083 80.9608 61.953C78.2264 61.6853 76.0688 60.2062 75.2806 58.3048Z" fill="url(#ramen_paint50_linear)"/>
<path d="M70.1089 75.4691C66.4809 75.4309 62.8718 76.2676 59.3215 76.1435C55.5236 76.0106 51.793 75.8285 48.1795 75.5959L39.6383 67.0547C39.0795 66.6782 38.7559 66.0959 38.8765 65.4665V65.4635C38.8765 65.4635 38.8765 65.4606 38.8765 65.4576C38.9471 65.0841 38.8001 64.7017 38.5354 64.4253L37.8295 63.6929C37.3089 63.34 37.0471 62.8488 37.0471 62.3606C37.0471 61.8282 37.3559 61.2929 37.9736 60.94C38.6501 60.5488 38.9971 59.9047 38.8765 59.2606V59.2576C38.8148 58.9282 38.8706 58.6106 39.0236 58.3312C39.2501 57.9017 39.6912 57.5576 40.2412 57.3753C40.6177 57.2459 41.0412 57.1959 41.4854 57.2459H41.4883C42.3265 57.34 43.1618 57.0753 43.6677 56.5517C44.1295 56.0753 44.8206 55.837 45.5148 55.837C46.2089 55.837 46.9001 56.0753 47.3618 56.5517C47.7971 57.0047 48.4854 57.2635 49.2059 57.2635C49.3177 57.2635 49.4295 57.2576 49.5412 57.2459C50.5854 57.1282 51.5236 57.5635 51.9442 58.2253L70.1089 75.4691Z" fill="url(#ramen_paint51_linear)"/>
<path d="M53.0559 63.7853C52.3774 64.1747 52.0306 64.8197 52.153 65.4647L52.1533 65.4661C52.3762 66.6411 51.0671 67.65 49.5421 67.4782L49.54 67.4779C48.703 67.3835 47.8659 67.6509 47.3606 68.1738C46.44 69.1264 44.5883 69.1264 43.6677 68.1738C43.1624 67.6509 42.3253 67.3838 41.4883 67.4779L41.4862 67.4782C39.9615 67.65 38.6524 66.6411 38.8753 65.4661L38.8756 65.4647C38.998 64.8197 38.6512 64.1747 37.9727 63.7853C36.7365 63.0759 36.7365 61.6491 37.9727 60.9397C38.6512 60.5503 38.998 59.9053 38.8756 59.2603L38.8753 59.2588C38.6524 58.0838 39.9615 57.075 41.4865 57.2467L41.4885 57.247C42.3256 57.3414 43.1627 57.0741 43.668 56.5512C44.5885 55.5985 46.4403 55.5985 47.3609 56.5512C47.8662 57.0741 48.703 57.3412 49.5403 57.247L49.5424 57.2467C51.0671 57.075 52.3762 58.0838 52.1533 59.2588L52.153 59.2603C52.0306 59.9053 52.3774 60.5503 53.0559 60.9397C54.2921 61.6491 54.2921 63.0759 53.0559 63.7853Z" fill="url(#ramen_paint52_linear)"/>
<path d="M40.2659 63.8194C39.9709 63.1079 39.868 62.3376 39.998 61.5491C40.3944 59.1462 43.2541 57.4394 46.3724 57.745C48.9797 58.0006 50.8312 59.8429 50.5 61.8521C50.3647 62.6726 49.8227 63.4035 48.9738 63.91C48.125 64.4165 47.0712 64.6382 46.0059 64.5338C45.0994 64.445 44.2918 64.0894 43.7324 63.5326C43.1727 62.9759 42.928 62.2844 43.0436 61.5859C43.1153 61.1512 43.6306 60.8438 44.1944 60.8991C44.7585 60.9544 45.1574 61.3515 45.0856 61.7862C45.0397 62.0644 45.1371 62.3394 45.36 62.5615C45.5827 62.7832 45.9044 62.9247 46.2656 62.96C46.785 63.0109 47.2991 62.9029 47.7133 62.6559C48.1271 62.4088 48.3915 62.0524 48.4577 61.6521C48.6462 60.5106 47.5941 59.4635 46.113 59.3188C45.148 59.2241 44.1927 59.425 43.4235 59.8841C42.6544 60.3432 42.1633 61.0056 42.0406 61.7494C41.7059 63.7768 43.5747 65.6362 46.2059 65.8938C46.7697 65.9491 47.1691 66.3456 47.0974 66.7809C47.0256 67.2156 46.5103 67.5229 45.9462 67.4676C43.2118 67.2 41.0541 65.7209 40.2659 63.8194Z" fill="url(#ramen_paint53_linear)"/>
<path d="M102.935 25.4751C102.582 24.5812 103.553 23.7451 104.389 24.2204C107.341 25.8989 111.674 29.353 111.674 35.1659C111.674 43.9809 101.056 44.8121 101.056 51.3415C101.056 54.6924 101.499 57.0065 101.932 58.4654C102.182 59.3092 101.318 60.0527 100.523 59.6765C97.8771 58.4251 93.808 55.3712 93.808 48.4256C93.808 38.1348 104.338 38.2877 104.338 32.6612C104.338 29.7227 103.621 27.2077 102.935 25.4751Z" fill="url(#ramen_paint54_linear)"/>
<path d="M76.6876 1.53768C76.4571 1.14415 77.0741 0.785322 77.4876 1.0712C80.2924 3.01062 85.0356 7.11121 85.0356 12.6586C85.0356 20.5344 76.0585 22.7641 74.8624 28.9059C73.8947 33.8739 76.1124 38.71 77.1291 40.5886C77.3056 40.9144 76.8994 41.245 76.4788 41.1192C73.3856 40.1927 65.0641 36.76 66.3068 26.87C67.5106 17.2891 76.5156 17.7268 78.1135 11.528C79.2618 7.07738 77.8471 3.51621 76.6876 1.53768Z" fill="url(#ramen_paint55_linear)"/>
<path d="M53.1918 27.5691C52.8765 26.8318 53.5371 26.1418 54.18 26.5338C56.4512 27.9188 59.8471 30.7691 60.2103 35.5656C60.7612 42.8394 53.0206 43.5253 53.4288 48.9132C53.6383 51.6782 54.1086 53.5877 54.5168 54.7918C54.753 55.4879 54.1659 56.1018 53.5586 55.7912C51.5388 54.7585 48.3618 52.2385 47.9277 46.5074C47.2844 38.0156 55.0218 38.1418 54.67 33.4988C54.4865 31.0741 53.803 28.9985 53.1918 27.5691Z" fill="url(#ramen_paint56_linear)"/>
<path d="M150 64.8941C150 73.5941 123.859 78.6647 93.403 80.1L102.297 75.5677C125.529 74.05 143.806 70.4912 143.806 64.8941C143.806 62.5294 140.544 60.5265 135.024 58.8912L139.724 56.4941C146.162 58.7618 150 61.5618 150 64.8941Z" fill="url(#ramen_paint57_linear)"/>
<path d="M140.866 49.5815L78.7603 83.9077C77.9986 84.4342 78.6539 85.6927 79.9447 86.1833C80.5386 86.4089 81.1242 86.4048 81.4862 86.1721L144.981 53.0001C146.445 52.0601 144.679 49.6018 142.332 49.3127C141.742 49.2398 141.222 49.3351 140.866 49.5815Z" fill="url(#ramen_paint58_linear)"/>
<path d="M145.351 50.8263L82.0366 85.1524C81.2748 85.6789 81.9301 86.9374 83.221 87.428C83.8148 87.6536 84.4004 87.6495 84.7624 87.4169L149.467 54.2448C150.93 53.3048 149.164 50.8466 146.817 50.5574C146.227 50.4848 145.707 50.5801 145.351 50.8263Z" fill="url(#ramen_paint59_linear)"/>
<defs>
<linearGradient id="ramen_paint0_linear" x1="75.3088" y1="127.531" x2="75.8579" y2="136.591" gradientUnits="userSpaceOnUse">
<stop stop-color="#F8F6FB"/>
<stop offset="1" stop-color="#EFDCFB"/>
</linearGradient>
<linearGradient id="ramen_paint1_linear" x1="63.6194" y1="56.0877" x2="106.855" y2="120.499" gradientUnits="userSpaceOnUse">
<stop stop-color="#F8F6FB"/>
<stop offset="1" stop-color="#EFDCFB"/>
</linearGradient>
<linearGradient id="ramen_paint2_linear" x1="65.8888" y1="28.1104" x2="76.477" y2="70.8554" gradientUnits="userSpaceOnUse">
<stop stop-color="#F8F6FB"/>
<stop offset="1" stop-color="#EFDCFB"/>
</linearGradient>
<linearGradient id="ramen_paint3_linear" x1="75" y1="94.3342" x2="75" y2="-12.0231" gradientUnits="userSpaceOnUse">
<stop stop-color="#EFDCFB" stop-opacity="0"/>
<stop offset="0.0287" stop-color="#E9D6F7" stop-opacity="0.029"/>
<stop offset="0.2203" stop-color="#C5B5DE" stop-opacity="0.22"/>
<stop offset="0.4138" stop-color="#AA9BCB" stop-opacity="0.414"/>
<stop offset="0.6078" stop-color="#9688BD" stop-opacity="0.608"/>
<stop offset="0.8028" stop-color="#8A7DB5" stop-opacity="0.803"/>
<stop offset="1" stop-color="#8679B2"/>
</linearGradient>
<linearGradient id="ramen_paint4_linear" x1="75.0001" y1="61.0988" x2="75.0001" y2="71.5565" gradientUnits="userSpaceOnUse">
<stop stop-color="#FFDECF"/>
<stop offset="0.3791" stop-color="#FDC4B0"/>
<stop offset="0.7655" stop-color="#FBAE97"/>
<stop offset="1" stop-color="#FAA68E"/>
</linearGradient>
<linearGradient id="ramen_paint5_linear" x1="100.645" y1="96.4095" x2="112.998" y2="104.645" gradientUnits="userSpaceOnUse">
<stop stop-color="#FF6359"/>
<stop offset="0.2243" stop-color="#FE5B50"/>
<stop offset="0.5952" stop-color="#FC4637"/>
<stop offset="1" stop-color="#F82814"/>
</linearGradient>
<linearGradient id="ramen_paint6_linear" x1="98.4129" y1="107.727" x2="109.771" y2="115.299" gradientUnits="userSpaceOnUse">
<stop stop-color="#FF6359"/>
<stop offset="0.2243" stop-color="#FE5B50"/>
<stop offset="0.5952" stop-color="#FC4637"/>
<stop offset="1" stop-color="#F82814"/>
</linearGradient>
<linearGradient id="ramen_paint7_linear" x1="65.5727" y1="50.4474" x2="77.7295" y2="80.0553" gradientUnits="userSpaceOnUse">
<stop stop-color="#FFD945"/>
<stop offset="0.3043" stop-color="#FFCD3E"/>
<stop offset="0.8558" stop-color="#FFAD2B"/>
<stop offset="1" stop-color="#FFA325"/>
</linearGradient>
<linearGradient id="ramen_paint8_linear" x1="72.2674" y1="67.5056" x2="85.2086" y2="-11.0238" gradientUnits="userSpaceOnUse">
<stop stop-color="#F82814" stop-opacity="0"/>
<stop offset="1" stop-color="#C0272D"/>
</linearGradient>
<linearGradient id="ramen_paint9_linear" x1="66.6768" y1="78.3923" x2="58.7619" y2="9.4206" gradientUnits="userSpaceOnUse">
<stop stop-color="#F82814" stop-opacity="0"/>
<stop offset="1" stop-color="#C0272D"/>
</linearGradient>
<linearGradient id="ramen_paint10_linear" x1="61.5103" y1="72.1806" x2="72.6868" y2="9.09233" gradientUnits="userSpaceOnUse">
<stop stop-color="#F82814" stop-opacity="0"/>
<stop offset="1" stop-color="#C0272D"/>
</linearGradient>
<linearGradient id="ramen_paint11_linear" x1="57.7874" y1="68.5126" x2="67.9344" y2="38.8067" gradientUnits="userSpaceOnUse">
<stop stop-color="#F82814" stop-opacity="0"/>
<stop offset="1" stop-color="#C0272D"/>
</linearGradient>
<linearGradient id="ramen_paint12_linear" x1="50.7254" y1="76.6371" x2="49.1568" y2="50.7548" gradientUnits="userSpaceOnUse">
<stop stop-color="#F82814" stop-opacity="0"/>
<stop offset="1" stop-color="#C0272D"/>
</linearGradient>
<linearGradient id="ramen_paint13_linear" x1="27.1742" y1="61.1812" x2="30.2133" y2="65.1026" gradientUnits="userSpaceOnUse">
<stop stop-color="#FFD945"/>
<stop offset="0.3043" stop-color="#FFCD3E"/>
<stop offset="0.8558" stop-color="#FFAD2B"/>
<stop offset="1" stop-color="#FFA325"/>
</linearGradient>
<linearGradient id="ramen_paint14_linear" x1="33.4912" y1="54.7059" x2="39.5697" y2="60.2941" gradientUnits="userSpaceOnUse">
<stop stop-color="#FFD945"/>
<stop offset="0.3043" stop-color="#FFCD3E"/>
<stop offset="0.8558" stop-color="#FFAD2B"/>
<stop offset="1" stop-color="#FFA325"/>
</linearGradient>
<linearGradient id="ramen_paint15_linear" x1="42.3619" y1="51.3695" x2="49.3224" y2="58.8204" gradientUnits="userSpaceOnUse">
<stop stop-color="#FFD945"/>
<stop offset="0.3043" stop-color="#FFCD3E"/>
<stop offset="0.8558" stop-color="#FFAD2B"/>
<stop offset="1" stop-color="#FFA325"/>
</linearGradient>
<linearGradient id="ramen_paint16_linear" x1="51.1374" y1="45.9136" x2="60.255" y2="57.5312" gradientUnits="userSpaceOnUse">
<stop stop-color="#FFD945"/>
<stop offset="0.3043" stop-color="#FFCD3E"/>
<stop offset="0.8558" stop-color="#FFAD2B"/>
<stop offset="1" stop-color="#FFA325"/>
</linearGradient>
<linearGradient id="ramen_paint17_linear" x1="56.098" y1="40.9112" x2="69.0392" y2="58.5582" gradientUnits="userSpaceOnUse">
<stop stop-color="#FFD945"/>
<stop offset="0.3043" stop-color="#FFCD3E"/>
<stop offset="0.8558" stop-color="#FFAD2B"/>
<stop offset="1" stop-color="#FFA325"/>
</linearGradient>
<linearGradient id="ramen_paint18_linear" x1="70.7727" y1="46.2233" x2="78.4197" y2="58.9686" gradientUnits="userSpaceOnUse">
<stop stop-color="#FFD945"/>
<stop offset="0.3043" stop-color="#FFCD3E"/>
<stop offset="0.8558" stop-color="#FFAD2B"/>
<stop offset="1" stop-color="#FFA325"/>
</linearGradient>
<linearGradient id="ramen_paint19_linear" x1="50.9109" y1="46.7239" x2="56.8927" y2="55.0168" gradientUnits="userSpaceOnUse">
<stop stop-color="#BADA00"/>
<stop offset="0.2269" stop-color="#B0CE00"/>
<stop offset="0.6378" stop-color="#95AE00"/>
<stop offset="1" stop-color="#798C00"/>
</linearGradient>
<linearGradient id="ramen_paint20_linear" x1="45.8512" y1="51.4603" x2="50.5736" y2="58.007" gradientUnits="userSpaceOnUse">
<stop stop-color="#BADA00"/>
<stop offset="0.2269" stop-color="#B0CE00"/>
<stop offset="0.6378" stop-color="#95AE00"/>
<stop offset="1" stop-color="#798C00"/>
</linearGradient>
<linearGradient id="ramen_paint21_linear" x1="53.1483" y1="55.8318" x2="55.9954" y2="59.7788" gradientUnits="userSpaceOnUse">
<stop stop-color="#BADA00"/>
<stop offset="0.2269" stop-color="#B0CE00"/>
<stop offset="0.6378" stop-color="#95AE00"/>
<stop offset="1" stop-color="#798C00"/>
</linearGradient>
<linearGradient id="ramen_paint22_linear" x1="62.1703" y1="52.1685" x2="68.1524" y2="60.462" gradientUnits="userSpaceOnUse">
<stop stop-color="#BADA00"/>
<stop offset="0.2269" stop-color="#B0CE00"/>
<stop offset="0.6378" stop-color="#95AE00"/>
<stop offset="1" stop-color="#798C00"/>
</linearGradient>
<linearGradient id="ramen_paint23_linear" x1="65.6212" y1="46.5644" x2="70.3439" y2="53.1117" gradientUnits="userSpaceOnUse">
<stop stop-color="#BADA00"/>
<stop offset="0.2269" stop-color="#B0CE00"/>
<stop offset="0.6378" stop-color="#95AE00"/>
<stop offset="1" stop-color="#798C00"/>
</linearGradient>
<linearGradient id="ramen_paint24_linear" x1="58.6568" y1="47.2018" x2="61.5041" y2="51.1489" gradientUnits="userSpaceOnUse">
<stop stop-color="#BADA00"/>
<stop offset="0.2269" stop-color="#B0CE00"/>
<stop offset="0.6378" stop-color="#95AE00"/>
<stop offset="1" stop-color="#798C00"/>
</linearGradient>
<linearGradient id="ramen_paint25_linear" x1="56.4518" y1="56.2089" x2="60.8727" y2="62.3377" gradientUnits="userSpaceOnUse">
<stop stop-color="#BADA00"/>
<stop offset="0.2269" stop-color="#B0CE00"/>
<stop offset="0.6378" stop-color="#95AE00"/>
<stop offset="1" stop-color="#798C00"/>
</linearGradient>
<linearGradient id="ramen_paint26_linear" x1="57.7942" y1="51.6503" x2="61.2842" y2="56.4888" gradientUnits="userSpaceOnUse">
<stop stop-color="#BADA00"/>
<stop offset="0.2269" stop-color="#B0CE00"/>
<stop offset="0.6378" stop-color="#95AE00"/>
<stop offset="1" stop-color="#798C00"/>
</linearGradient>
<linearGradient id="ramen_paint27_linear" x1="52.788" y1="53.5209" x2="54.8921" y2="56.438" gradientUnits="userSpaceOnUse">
<stop stop-color="#BADA00"/>
<stop offset="0.2269" stop-color="#B0CE00"/>
<stop offset="0.6378" stop-color="#95AE00"/>
<stop offset="1" stop-color="#798C00"/>
</linearGradient>
<linearGradient id="ramen_paint28_linear" x1="74.6365" y1="46.0285" x2="80.6183" y2="54.3215" gradientUnits="userSpaceOnUse">
<stop stop-color="#BADA00"/>
<stop offset="0.2269" stop-color="#B0CE00"/>
<stop offset="0.6378" stop-color="#95AE00"/>
<stop offset="1" stop-color="#798C00"/>
</linearGradient>
<linearGradient id="ramen_paint29_linear" x1="69.5768" y1="50.765" x2="74.2992" y2="57.3117" gradientUnits="userSpaceOnUse">
<stop stop-color="#BADA00"/>
<stop offset="0.2269" stop-color="#B0CE00"/>
<stop offset="0.6378" stop-color="#95AE00"/>
<stop offset="1" stop-color="#798C00"/>
</linearGradient>
<linearGradient id="ramen_paint30_linear" x1="76.8739" y1="55.1364" x2="79.721" y2="59.0835" gradientUnits="userSpaceOnUse">
<stop stop-color="#BADA00"/>
<stop offset="0.2269" stop-color="#B0CE00"/>
<stop offset="0.6378" stop-color="#95AE00"/>
<stop offset="1" stop-color="#798C00"/>
</linearGradient>
<linearGradient id="ramen_paint31_linear" x1="88.953" y1="50.1989" x2="94.9351" y2="58.4924" gradientUnits="userSpaceOnUse">
<stop stop-color="#BADA00"/>
<stop offset="0.2269" stop-color="#B0CE00"/>
<stop offset="0.6378" stop-color="#95AE00"/>
<stop offset="1" stop-color="#798C00"/>
</linearGradient>
<linearGradient id="ramen_paint32_linear" x1="86.7977" y1="45.9744" x2="91.5203" y2="52.5215" gradientUnits="userSpaceOnUse">
<stop stop-color="#BADA00"/>
<stop offset="0.2269" stop-color="#B0CE00"/>
<stop offset="0.6378" stop-color="#95AE00"/>
<stop offset="1" stop-color="#798C00"/>
</linearGradient>
<linearGradient id="ramen_paint33_linear" x1="82.3824" y1="46.5065" x2="85.2294" y2="50.4538" gradientUnits="userSpaceOnUse">
<stop stop-color="#BADA00"/>
<stop offset="0.2269" stop-color="#B0CE00"/>
<stop offset="0.6378" stop-color="#95AE00"/>
<stop offset="1" stop-color="#798C00"/>
</linearGradient>
<linearGradient id="ramen_paint34_linear" x1="80.1774" y1="55.5136" x2="84.5979" y2="61.6424" gradientUnits="userSpaceOnUse">
<stop stop-color="#BADA00"/>
<stop offset="0.2269" stop-color="#B0CE00"/>
<stop offset="0.6378" stop-color="#95AE00"/>
<stop offset="1" stop-color="#798C00"/>
</linearGradient>
<linearGradient id="ramen_paint35_linear" x1="81.5198" y1="50.9552" x2="85.0095" y2="55.7935" gradientUnits="userSpaceOnUse">
<stop stop-color="#BADA00"/>
<stop offset="0.2269" stop-color="#B0CE00"/>
<stop offset="0.6378" stop-color="#95AE00"/>
<stop offset="1" stop-color="#798C00"/>
</linearGradient>
<linearGradient id="ramen_paint36_linear" x1="76.5136" y1="52.8259" x2="78.6177" y2="55.7427" gradientUnits="userSpaceOnUse">
<stop stop-color="#BADA00"/>
<stop offset="0.2269" stop-color="#B0CE00"/>
<stop offset="0.6378" stop-color="#95AE00"/>
<stop offset="1" stop-color="#798C00"/>
</linearGradient>
<linearGradient id="ramen_paint37_linear" x1="74.1203" y1="43.1892" x2="68.7156" y2="47.0877" gradientUnits="userSpaceOnUse">
<stop stop-color="#FF6359"/>
<stop offset="0.2243" stop-color="#FE5B50"/>
<stop offset="0.5952" stop-color="#FC4637"/>
<stop offset="1" stop-color="#F82814"/>
</linearGradient>
<linearGradient id="ramen_paint38_linear" x1="65.047" y1="44.9413" x2="62.4747" y2="46.7968" gradientUnits="userSpaceOnUse">
<stop stop-color="#FF6359"/>
<stop offset="0.2243" stop-color="#FE5B50"/>
<stop offset="0.5952" stop-color="#FC4637"/>
<stop offset="1" stop-color="#F82814"/>
</linearGradient>
<linearGradient id="ramen_paint39_linear" x1="73.183" y1="48.1536" x2="70.6103" y2="50.0092" gradientUnits="userSpaceOnUse">
<stop stop-color="#FF6359"/>
<stop offset="0.2243" stop-color="#FE5B50"/>
<stop offset="0.5952" stop-color="#FC4637"/>
<stop offset="1" stop-color="#F82814"/>
</linearGradient>
<linearGradient id="ramen_paint40_linear" x1="81.5002" y1="44.7965" x2="78.9276" y2="46.6521" gradientUnits="userSpaceOnUse">
<stop stop-color="#FF6359"/>
<stop offset="0.2243" stop-color="#FE5B50"/>
<stop offset="0.5952" stop-color="#FC4637"/>
<stop offset="1" stop-color="#F82814"/>
</linearGradient>
<linearGradient id="ramen_paint41_linear" x1="64.8012" y1="47.0942" x2="60.8068" y2="49.9756" gradientUnits="userSpaceOnUse">
<stop stop-color="#FF6359"/>
<stop offset="0.2243" stop-color="#FE5B50"/>
<stop offset="0.5952" stop-color="#FC4637"/>
<stop offset="1" stop-color="#F82814"/>
</linearGradient>
<linearGradient id="ramen_paint42_linear" x1="69.5826" y1="44.2982" x2="66.4291" y2="46.5727" gradientUnits="userSpaceOnUse">
<stop stop-color="#FF6359"/>
<stop offset="0.2243" stop-color="#FE5B50"/>
<stop offset="0.5952" stop-color="#FC4637"/>
<stop offset="1" stop-color="#F82814"/>
</linearGradient>
<linearGradient id="ramen_paint43_linear" x1="77.4447" y1="44.2982" x2="74.2915" y2="46.5726" gradientUnits="userSpaceOnUse">
<stop stop-color="#FF6359"/>
<stop offset="0.2243" stop-color="#FE5B50"/>
<stop offset="0.5952" stop-color="#FC4637"/>
<stop offset="1" stop-color="#F82814"/>
</linearGradient>
<linearGradient id="ramen_paint44_linear" x1="70.6808" y1="46.5239" x2="68.7796" y2="47.8951" gradientUnits="userSpaceOnUse">
<stop stop-color="#FF6359"/>
<stop offset="0.2243" stop-color="#FE5B50"/>
<stop offset="0.5952" stop-color="#FC4637"/>
<stop offset="1" stop-color="#F82814"/>
</linearGradient>
<linearGradient id="ramen_paint45_linear" x1="82.265" y1="80.9983" x2="55.3532" y2="64.8218" gradientUnits="userSpaceOnUse">
<stop stop-color="#F82814" stop-opacity="0"/>
<stop offset="1" stop-color="#C0272D"/>
</linearGradient>
<linearGradient id="ramen_paint46_linear" x1="61.2103" y1="66.2929" x2="69.5285" y2="75.2226" gradientUnits="userSpaceOnUse">
<stop stop-color="#F8F6FB"/>
<stop offset="1" stop-color="#EFDCFB"/>
</linearGradient>
<linearGradient id="ramen_paint47_linear" x1="60.3979" y1="71.1079" x2="70.9938" y2="71.1079" gradientUnits="userSpaceOnUse">
<stop stop-color="#FAA68E"/>
<stop offset="0.3566" stop-color="#FB9D92"/>
<stop offset="0.9447" stop-color="#FF849B"/>
<stop offset="1" stop-color="#FF819C"/>
</linearGradient>
<linearGradient id="ramen_paint48_linear" x1="93.0665" y1="69.8383" x2="69.6841" y2="38.8089" gradientUnits="userSpaceOnUse">
<stop stop-color="#F82814" stop-opacity="0"/>
<stop offset="1" stop-color="#C0272D"/>
</linearGradient>
<linearGradient id="ramen_paint49_linear" x1="76.1255" y1="52.1206" x2="83.7555" y2="60.3118" gradientUnits="userSpaceOnUse">
<stop stop-color="#F8F6FB"/>
<stop offset="1" stop-color="#EFDCFB"/>
</linearGradient>
<linearGradient id="ramen_paint50_linear" x1="77.662" y1="52.8645" x2="83.5917" y2="60.5286" gradientUnits="userSpaceOnUse">
<stop stop-color="#FAA68E"/>
<stop offset="0.3566" stop-color="#FB9D92"/>
<stop offset="0.9447" stop-color="#FF849B"/>
<stop offset="1" stop-color="#FF819C"/>
</linearGradient>
<linearGradient id="ramen_paint51_linear" x1="55.4015" y1="72.0565" x2="35.9418" y2="46.2326" gradientUnits="userSpaceOnUse">
<stop stop-color="#F82814" stop-opacity="0"/>
<stop offset="1" stop-color="#C0272D"/>
</linearGradient>
<linearGradient id="ramen_paint52_linear" x1="41.1109" y1="57.6353" x2="48.7409" y2="65.8264" gradientUnits="userSpaceOnUse">
<stop stop-color="#F8F6FB"/>
<stop offset="1" stop-color="#EFDCFB"/>
</linearGradient>
<linearGradient id="ramen_paint53_linear" x1="42.6409" y1="58.3637" x2="48.5707" y2="66.0278" gradientUnits="userSpaceOnUse">
<stop stop-color="#FAA68E"/>
<stop offset="0.3566" stop-color="#FB9D92"/>
<stop offset="0.9447" stop-color="#FF849B"/>
<stop offset="1" stop-color="#FF819C"/>
</linearGradient>
<linearGradient id="ramen_paint54_linear" x1="97.3365" y1="39.5104" x2="121.748" y2="51.128" gradientUnits="userSpaceOnUse">
<stop stop-color="#E87264" stop-opacity="0"/>
<stop offset="1" stop-color="#F8DFBE"/>
</linearGradient>
<linearGradient id="ramen_paint55_linear" x1="68.4997" y1="19.0794" x2="86.8503" y2="23.3971" gradientUnits="userSpaceOnUse">
<stop stop-color="#E87264" stop-opacity="0"/>
<stop offset="0.1575" stop-color="#E97869" stop-opacity="0.158"/>
<stop offset="0.3778" stop-color="#EC8B78" stop-opacity="0.378"/>
<stop offset="0.6353" stop-color="#F0A991" stop-opacity="0.635"/>
<stop offset="0.9188" stop-color="#F6D2B3" stop-opacity="0.919"/>
<stop offset="1" stop-color="#F8DFBE"/>
</linearGradient>
<linearGradient id="ramen_paint56_linear" x1="48.3797" y1="39.0182" x2="61.713" y2="44.2141" gradientUnits="userSpaceOnUse">
<stop stop-color="#E87264" stop-opacity="0"/>
<stop offset="1" stop-color="#F8DFBE"/>
</linearGradient>
<linearGradient id="ramen_paint57_linear" x1="123.92" y1="76.4809" x2="118.332" y2="65.1574" gradientUnits="userSpaceOnUse">
<stop stop-color="#EFDCFB" stop-opacity="0"/>
<stop offset="0.0287" stop-color="#E9D6F7" stop-opacity="0.029"/>
<stop offset="0.2203" stop-color="#C5B5DE" stop-opacity="0.22"/>
<stop offset="0.4138" stop-color="#AA9BCB" stop-opacity="0.414"/>
<stop offset="0.6078" stop-color="#9688BD" stop-opacity="0.608"/>
<stop offset="0.8028" stop-color="#8A7DB5" stop-opacity="0.803"/>
<stop offset="1" stop-color="#8679B2"/>
</linearGradient>
<linearGradient id="ramen_paint58_linear" x1="110.967" y1="66.5874" x2="112.732" y2="69.4307" gradientUnits="userSpaceOnUse">
<stop stop-color="#FF6359"/>
<stop offset="0.2243" stop-color="#FE5B50"/>
<stop offset="0.5952" stop-color="#FC4637"/>
<stop offset="1" stop-color="#F82814"/>
</linearGradient>
<linearGradient id="ramen_paint59_linear" x1="114.387" y1="67.1042" x2="117.328" y2="71.8101" gradientUnits="userSpaceOnUse">
<stop stop-color="#FF6359"/>
<stop offset="0.2243" stop-color="#FE5B50"/>
<stop offset="0.5952" stop-color="#FC4637"/>
<stop offset="1" stop-color="#F82814"/>
</linearGradient>
</defs>
</svg>
