<svg width="151" height="96" viewBox="0 0 151 96" fill="none" xmlns="http://www.w3.org/2000/svg">
<path d="M75.6266 85.5442C63.2442 85.5442 51.8804 83.7106 42.9795 80.6542C44.2601 85.7192 46.666 89.5498 49.6324 90.7756C56.3277 93.5427 65.5033 95.2492 75.6266 95.2492C85.7498 95.2492 94.9254 93.5427 101.621 90.7756C104.587 89.5498 106.993 85.7192 108.274 80.6542C99.3727 83.7106 88.0089 85.5442 75.6266 85.5442Z" fill="url(#salads_paint0_linear)"/>
<path d="M150.626 37.7047C150.626 16.8588 0.626465 16.8588 0.626465 37.7047C0.626465 58.5506 18.2521 89.1188 75.6265 89.1188C133.001 89.1188 150.626 58.5509 150.626 37.7047Z" fill="url(#salads_paint1_linear)"/>
<path d="M150.626 37.7047C150.626 58.5506 0.626465 58.5506 0.626465 37.7047C0.626465 16.8588 150.626 16.8588 150.626 37.7047Z" fill="url(#salads_paint2_linear)"/>
<path d="M129.744 22.5989C129.744 44.8698 25.5132 44.8698 25.5132 22.5989C25.5132 18.7589 28.6135 15.5818 33.7426 13.0662C35.6058 12.1524 37.3244 10.6692 38.7611 8.65769L38.9152 8.4421C42.0394 4.06857 46.5626 2.84122 50.4988 5.29887L50.5017 5.30063C53.8644 7.40034 57.6982 6.83564 60.7288 3.79446L61.017 3.50505C64.3591 0.151517 68.6567 -0.123483 72.1744 2.79063L72.4432 3.01328C75.6741 5.68975 79.5858 5.69034 82.817 3.01446L83.0876 2.79034C86.6058 -0.123189 90.9035 0.152986 94.2455 3.5071L94.5953 3.85799C97.6091 6.88269 101.426 7.42416 104.759 5.30034C108.667 2.81093 113.177 4.01005 116.288 8.36475L116.497 8.65769C117.933 10.6692 119.652 12.1527 121.515 13.0662C126.644 15.5818 129.744 18.7592 129.744 22.5989Z" fill="url(#salads_paint3_linear)"/>
<path d="M113.425 14.7529C110.422 14.7529 107.988 17.187 107.988 20.19C107.988 23.1929 110.422 25.627 113.425 25.627C116.427 25.627 118.862 23.1929 118.862 20.19C118.862 17.187 116.427 14.7529 113.425 14.7529ZM113.425 22.4979C112.15 22.4979 111.117 21.4647 111.117 20.19C111.117 18.9153 112.15 17.882 113.425 17.882C114.7 17.882 115.733 18.9153 115.733 20.19C115.733 21.4647 114.699 22.4979 113.425 22.4979Z" fill="url(#salads_paint4_linear)"/>
<path d="M71.565 4.31531C68.562 4.31531 66.1279 6.74943 66.1279 9.75237C66.1279 12.7553 68.562 15.1894 71.565 15.1894C74.5676 15.1894 77.002 12.7553 77.002 9.75237C77.002 6.74943 74.5679 4.31531 71.565 4.31531ZM71.565 12.06C70.2903 12.06 69.257 11.0268 69.257 9.75207C69.257 8.47737 70.2903 7.44413 71.565 7.44413C72.8397 7.44413 73.8729 8.47737 73.8729 9.75207C73.8729 11.0268 72.8397 12.06 71.565 12.06Z" fill="url(#salads_paint5_linear)"/>
<path d="M103.264 34.6219C108.876 34.6219 113.425 30.0729 113.425 24.4616C113.425 18.8502 108.876 14.3013 103.264 14.3013C97.6529 14.3013 93.104 18.8502 93.104 24.4616C93.104 30.0729 97.6529 34.6219 103.264 34.6219Z" fill="url(#salads_paint6_linear)"/>
<path d="M100.404 37.7941L69.154 6.52737C67.1981 4.57149 64.8732 3.80002 62.4308 2.92737C61.9337 3.27443 61.482 3.03855 61.0173 3.50502L60.729 3.79443C57.6982 6.83561 53.8643 7.40031 50.502 5.3006L50.499 5.29884C49.2558 4.52266 48.2481 4.56649 46.9505 4.50854C45.8581 5.20472 44.874 5.86031 43.9202 6.81413C36.8567 13.8777 36.5105 25.0438 43.574 32.1077L48.112 36.6456C63.4334 39.7494 83.8302 40.1327 100.404 37.7941Z" fill="url(#salads_paint7_linear)"/>
<path d="M144.433 37.7047C144.433 53.0674 6.81982 53.0674 6.81982 37.7047C6.81982 22.3421 144.433 22.3424 144.433 37.7047Z" fill="url(#salads_paint8_linear)"/>
<path d="M2.50635 49.7827C3.46841 52.8924 4.82429 56.0448 6.62841 59.143C32.4287 70.4021 118.824 70.4021 144.624 59.143C146.428 56.0448 147.784 52.8924 148.746 49.7827C128.836 64.0583 22.4172 64.0583 2.50635 49.7827Z" fill="url(#salads_paint9_linear)"/>
<path d="M144.359 37.1062C144.214 38.1238 143.841 39.1121 143.264 40.068C141.04 42.2283 135.764 44.0065 128.516 45.4024C124.563 46.1638 120.022 45.3409 115.071 45.8747C110.581 46.3588 105.753 48.22 100.717 48.5171C92.9862 48.973 84.7662 49.2088 76.5291 49.2238C69.235 49.2415 53.4997 46.3768 53.3527 44.9886C52.9733 41.415 55.3703 38.1709 59.6027 35.3562C60.0703 35.0474 60.5233 34.6886 60.9527 34.2827C61.938 33.3562 62.8203 32.1856 63.5556 30.7915L63.6674 30.5768C64.8056 28.4209 66.3174 26.9503 68.0027 26.2444C69.4527 25.6385 71.0291 25.6033 72.6056 26.1915C72.8968 26.3003 73.188 26.4297 73.4762 26.5827L73.4791 26.5856C75.8056 27.8033 78.2174 27.6356 80.2644 26.2062C80.9821 25.7062 81.6556 25.0474 82.2644 24.2415L82.488 23.9444C85.0791 20.515 88.8056 19.8621 92.1644 22.2503L92.4203 22.4327C95.5056 24.6268 98.9233 24.268 101.482 21.4797L101.697 21.2444C104.482 18.2091 108.264 18.0709 111.512 20.8856L111.853 21.1797C114.782 23.718 118.167 23.8709 120.873 21.5856C122.153 20.5062 123.576 19.9738 125.026 19.9738C127.167 19.9738 129.367 21.1297 131.244 23.3768L131.453 23.6297C132.906 25.368 134.553 26.5915 136.27 27.2709C140.997 29.1385 144.017 31.8121 144.394 35.3856C144.456 35.968 144.444 36.5444 144.359 37.1062Z" fill="url(#salads_paint10_linear)"/>
<path d="M69.1536 6.52738C62.0901 -0.536146 50.6375 -0.536146 43.5736 6.52738C36.5098 13.5909 36.5101 25.0436 43.5736 32.1074C50.6372 39.1709 62.0898 39.1709 69.1536 32.1074C76.2175 25.0439 76.2175 13.5912 69.1536 6.52738ZM48.2419 27.4394C43.7569 22.9544 43.7569 15.6806 48.2419 11.1956C52.7269 6.71062 59.9989 6.71238 64.4839 11.1974C68.9689 15.6824 68.9707 22.9544 64.4857 27.4394C60.0007 31.9244 52.7269 31.9244 48.2419 27.4394Z" fill="url(#salads_paint11_linear)"/>
<path d="M45.7248 29.9565C51.5998 35.8315 61.1277 35.8315 67.0027 29.9565C72.8795 24.0797 72.8777 14.5536 67.0027 8.67857C61.126 2.8018 51.6015 2.8018 45.7248 8.67857C39.8498 14.5533 39.848 24.0797 45.7248 29.9565ZM64.4857 11.1953C68.9707 15.6803 68.9707 22.9542 64.4857 27.4392C60.0007 31.9242 52.7286 31.9224 48.2436 27.4374C43.7586 22.9524 43.7568 15.6803 48.2418 11.1953C52.7268 6.71033 60.0007 6.71033 64.4857 11.1953Z" fill="url(#salads_paint12_linear)"/>
<path d="M138.261 15.0065C132.611 9.35654 123.45 9.35654 117.8 15.0065C112.15 20.6565 112.15 29.8171 117.8 35.4671C123.45 41.1171 132.611 41.1171 138.261 35.4671C143.911 29.8171 143.911 20.6565 138.261 15.0065ZM121.534 31.7333C117.947 28.146 117.947 22.3277 121.534 18.7404C125.122 15.153 130.938 15.1545 134.526 18.7418C138.113 22.3292 138.115 28.146 134.527 31.7333C130.94 35.3207 125.122 35.3207 121.534 31.7333Z" fill="url(#salads_paint13_linear)"/>
<path d="M119.521 33.7465C124.22 38.4456 131.841 38.4456 136.54 33.7465C141.241 29.0459 141.24 21.4262 136.54 16.7271C131.84 12.0265 124.222 12.0265 119.521 16.7271C114.822 21.4262 114.82 29.0459 119.521 33.7465ZM134.527 18.7403C138.115 22.3277 138.115 28.1459 134.527 31.7333C130.94 35.3206 125.123 35.3192 121.536 31.7318C117.948 28.1445 117.947 22.3277 121.534 18.7403C125.122 15.153 130.94 15.153 134.527 18.7403Z" fill="url(#salads_paint14_linear)"/>
<path d="M86.8252 9.75155C87.6022 9.72655 88.2122 9.07655 88.1872 8.2992C88.1622 7.52214 87.5122 6.91214 86.7349 6.93714C85.9578 6.96214 85.3478 7.61214 85.3728 8.38949C85.3978 9.16655 86.0481 9.77655 86.8252 9.75155Z" fill="url(#salads_paint15_linear)"/>
<path d="M80.287 12.3881C80.2753 12.0181 79.9658 11.7278 79.5958 11.7399C79.2258 11.7516 78.9358 12.061 78.9476 12.431C78.9594 12.801 79.2691 13.091 79.6388 13.0793C80.0088 13.0672 80.2991 12.7578 80.287 12.3881Z" fill="url(#salads_paint16_linear)"/>
<path d="M88.9553 12.0333C88.7806 11.7072 88.3744 11.5842 88.0482 11.7589C87.722 11.9336 87.5991 12.3398 87.7738 12.666C87.9485 12.9922 88.3547 13.1151 88.6809 12.9404C89.0071 12.766 89.13 12.3598 88.9553 12.0333Z" fill="url(#salads_paint17_linear)"/>
<path d="M94.365 9.43592C94.1903 9.10975 93.7841 8.9868 93.4579 9.16151C93.1317 9.33622 93.0088 9.74239 93.1835 10.0686C93.3582 10.3947 93.7644 10.5177 94.0905 10.343C94.4167 10.1683 94.5397 9.7621 94.365 9.43592Z" fill="url(#salads_paint18_linear)"/>
<path d="M80.6586 14.2709C80.2694 13.848 79.6115 13.8207 79.1886 14.2098C78.7656 14.5989 78.7383 15.2568 79.1274 15.6798C79.5165 16.1027 80.1744 16.1301 80.5974 15.7409C81.0203 15.3518 81.0477 14.6936 80.6586 14.2709Z" fill="url(#salads_paint19_linear)"/>
<path d="M84.066 9.75722C83.759 9.4234 83.2392 9.40163 82.9054 9.70898C82.5716 10.016 82.5498 10.5357 82.8572 10.8696C83.1642 11.2034 83.684 11.2252 84.0178 10.9178C84.3513 10.6107 84.3731 10.091 84.066 9.75722Z" fill="url(#salads_paint20_linear)"/>
<path d="M91.359 6.82009C91.0519 6.48626 90.5322 6.4645 90.1984 6.77185C89.8646 7.07891 89.8428 7.59862 90.1501 7.93244C90.4572 8.26627 90.9769 8.28803 91.3107 7.98067C91.6443 7.67362 91.666 7.15391 91.359 6.82009Z" fill="url(#salads_paint21_linear)"/>
<path d="M85.2129 11.8828C85.3979 12.0839 85.7115 12.0972 85.9126 11.9119C86.1138 11.7266 86.1271 11.4133 85.9418 11.2122C85.7565 11.011 85.4432 10.9978 85.2421 11.183C85.0406 11.3683 85.0276 11.6816 85.2129 11.8828Z" fill="url(#salads_paint22_linear)"/>
<path d="M90.323 13.4306C84.2901 7.39765 74.5083 7.39765 68.4754 13.4306C62.4424 19.4635 62.4424 29.2453 68.4754 35.2782C74.5083 41.3112 84.2901 41.3112 90.323 35.2782C96.356 29.2453 96.356 19.4635 90.323 13.4306ZM72.4622 31.2912C68.6316 27.4606 68.6316 21.2479 72.4622 17.4174C76.2927 13.5868 82.5039 13.5882 86.3345 17.4188C90.1651 21.2494 90.1666 27.4606 86.336 31.2912C82.5054 35.1218 76.2927 35.1218 72.4622 31.2912Z" fill="url(#salads_paint23_linear)"/>
<path d="M70.3127 33.4408C75.3304 38.4585 83.4683 38.4585 88.486 33.4408C93.5051 28.4217 93.5036 20.2853 88.486 15.2676C83.4666 10.2482 75.3318 10.2482 70.3127 15.2676C65.2951 20.2853 65.2933 28.4217 70.3127 33.4408ZM86.3363 17.4173C90.1668 21.2479 90.1668 27.4605 86.3363 31.2911C82.5057 35.1217 76.2945 35.1203 72.4639 31.2897C68.6333 27.4591 68.6318 21.2479 72.4624 17.4173C76.293 13.5867 82.5057 13.5867 86.3363 17.4173Z" fill="url(#salads_paint24_linear)"/>
<path d="M63.0505 35.6615C60.3772 45.2865 25.522 35.6056 28.1955 25.9806C30.869 16.3556 40.8384 10.7203 50.4634 13.3935C60.0884 16.0668 65.724 26.0365 63.0505 35.6615Z" fill="url(#salads_paint25_linear)"/>
<path d="M126.348 10.9762C119.284 3.91271 107.832 3.91271 100.768 10.9762C93.7041 18.0398 93.7044 29.4924 100.768 36.5562C107.832 43.6198 119.284 43.6198 126.348 36.5562C133.412 29.4927 133.412 18.0398 126.348 10.9762ZM105.436 31.888C100.951 27.403 100.951 20.1292 105.436 15.6442C109.921 11.1592 117.193 11.1609 121.678 15.6459C126.163 20.1309 126.165 27.403 121.68 31.888C117.195 36.373 109.921 36.373 105.436 31.888Z" fill="url(#salads_paint26_linear)"/>
<path d="M102.919 34.4051C108.794 40.2801 118.322 40.2801 124.197 34.4051C130.074 28.5284 130.072 19.0022 124.197 13.1272C118.32 7.25041 108.796 7.25041 102.919 13.1272C97.0441 19.0022 97.0424 28.5284 102.919 34.4051ZM121.68 15.6442C126.165 20.1292 126.165 27.4031 121.68 31.8881C117.195 36.3731 109.923 36.3713 105.438 31.8863C100.953 27.4013 100.951 20.1292 105.436 15.6442C109.921 11.1592 117.195 11.1592 121.68 15.6442Z" fill="url(#salads_paint27_linear)"/>
<path d="M36.0627 15.4974C30.0336 9.46831 20.258 9.46831 14.2289 15.4974C8.19975 21.5265 8.19975 31.3021 14.2289 37.3312C20.258 43.3604 30.0336 43.3604 36.0627 37.3312C42.0918 31.3021 42.0918 21.5265 36.0627 15.4974ZM18.2133 33.3468C14.385 29.5186 14.385 23.3101 18.2133 19.4818C22.0415 15.6536 28.2486 15.6551 32.0768 19.4833C35.9051 23.3115 35.9065 29.5186 32.0783 33.3468C28.25 37.1751 22.0412 37.1751 18.2133 33.3468Z" fill="url(#salads_paint28_linear)"/>
<path d="M16.0647 35.4954C21.0791 40.5098 29.212 40.5098 34.2265 35.4954C39.2426 30.4793 39.2409 22.3481 34.2265 17.3337C29.2103 12.3175 21.0806 12.3175 16.0647 17.3337C11.0503 22.3481 11.0485 30.4793 16.0647 35.4954ZM32.0782 19.4819C35.9065 23.3101 35.9065 29.5187 32.0782 33.3469C28.25 37.1751 22.0429 37.1737 18.2147 33.3454C14.3865 29.5172 14.385 23.3101 18.2132 19.4819C22.0415 15.6537 28.25 15.6537 32.0782 19.4819Z" fill="url(#salads_paint29_linear)"/>
<path d="M144.359 37.1062C144.214 38.1238 143.841 39.1121 143.264 40.068C141.038 42.2306 135.752 44.0103 128.492 45.4068C124.309 46.2115 119.47 45.1241 114.183 45.6744C109.945 46.1156 105.418 48.2397 100.71 48.5174C92.9815 48.9733 84.7638 49.2085 76.5291 49.2238C69.235 49.2415 53.4997 46.3768 53.3527 44.9886C52.9733 41.415 55.3703 38.1709 59.6027 35.3562C60.0703 35.0474 60.5233 34.6886 60.9527 34.2827C61.938 33.3562 62.8203 32.1856 63.5556 30.7915L63.6674 30.5768C64.8056 28.4209 66.3174 26.9503 68.0027 26.2444C69.4527 25.6385 71.0291 25.6033 72.6056 26.1915C72.8968 26.3003 73.188 26.4297 73.4762 26.5827L73.4791 26.5856C75.8056 27.8033 78.2174 27.6356 80.2644 26.2062C80.9821 25.7062 81.6556 25.0474 82.2644 24.2415L82.488 23.9444C85.0791 20.515 88.8056 19.8621 92.1644 22.2503L92.4203 22.4327C95.5056 24.6268 98.9233 24.268 101.482 21.4797L101.697 21.2444C104.482 18.2091 108.264 18.0709 111.512 20.8856L111.853 21.1797C114.782 23.718 118.167 23.8709 120.873 21.5856C122.153 20.5062 123.576 19.9738 125.026 19.9738C127.167 19.9738 129.367 21.1297 131.244 23.3768L131.453 23.6297C132.906 25.368 134.553 26.5915 136.27 27.2709C140.997 29.1385 144.017 31.8121 144.394 35.3856C144.456 35.968 144.444 36.5444 144.359 37.1062Z" fill="url(#salads_paint30_linear)"/>
<path d="M75.8545 48.8836C75.9745 49.0345 76.0057 49.0739 76.1257 49.2245C84.4827 49.2165 92.8298 48.9815 100.674 48.5198C105.583 48.2306 110.296 46.6765 114.69 46.2098C119.78 45.6692 124.444 46.1859 128.494 45.4068C135.753 44.0104 141.038 42.2306 143.265 40.0683C143.841 39.1124 144.215 38.1242 144.359 37.1065C144.444 36.5448 144.456 35.9683 144.394 35.3859C144.38 35.2533 144.362 35.1221 144.341 34.9921C143.855 32.0112 141.298 29.8812 138.299 29.5198C136.898 29.3509 135.485 28.6933 134.165 27.5495L133.824 27.2554C130.577 24.4407 126.795 24.5789 124.01 27.6142L123.795 27.8495C121.236 30.6377 117.818 30.9965 114.733 28.8024L114.477 28.6201C111.118 26.2318 107.392 26.8848 104.801 30.3142L104.577 30.6112C103.968 31.4171 103.295 32.0759 102.577 32.5759C100.53 34.0054 98.1183 34.173 95.7918 32.9554L95.7889 32.9524C95.5007 32.7995 95.2095 32.6701 94.9183 32.5612C93.3418 31.973 91.7654 32.0083 90.3154 32.6142C88.6301 33.3201 87.1183 34.7906 85.9801 36.9465L85.8683 37.1612C85.133 38.5554 84.2507 39.7259 83.2654 40.6524C82.836 41.0583 82.383 41.4171 81.9154 41.7259C78.6827 43.8756 76.5257 46.2768 75.8545 48.8836Z" fill="url(#salads_paint31_linear)"/>
<path d="M117.407 46.6895C112.17 47.3183 106.915 47.7477 100.687 48.5177C92.9653 48.9724 84.7559 49.2074 76.5291 49.2239C69.235 49.2415 53.4997 46.3768 53.3527 44.9886C52.9733 41.415 55.3703 38.1709 59.6027 35.3562C60.0703 35.0474 60.5233 34.6886 60.9527 34.2827C61.938 33.3562 62.8203 32.1856 63.5556 30.7915L63.6674 30.5768C64.8056 28.4209 66.3174 26.9503 68.0027 26.2445C69.4527 25.6386 71.0291 25.6033 72.6056 26.1915C72.8968 26.3003 73.188 26.4297 73.4762 26.5827L73.4791 26.5856C75.8056 27.8033 78.2174 27.6356 80.2644 26.2062C80.9821 25.7062 81.6556 25.0474 82.2644 24.2415L82.488 23.9444C85.0791 20.515 88.8056 19.8621 92.1644 22.2503L92.4203 22.4327C92.9615 22.818 93.5115 23.1239 94.0674 23.3503L117.407 46.6895Z" fill="url(#salads_paint32_linear)"/>
<path d="M94.5181 31.3365C91.5152 31.3365 89.0811 33.7707 89.0811 36.7736C89.0811 39.7765 91.5152 42.2107 94.5181 42.2107C97.5208 42.2107 99.9552 39.7765 99.9552 36.7736C99.9552 33.7707 97.5211 31.3365 94.5181 31.3365ZM94.5181 39.0815C93.2434 39.0815 92.2102 38.0483 92.2102 36.7736C92.2102 35.4989 93.2434 34.4657 94.5181 34.4657C95.7928 34.4657 96.8261 35.4989 96.8261 36.7736C96.8261 38.0483 95.7928 39.0815 94.5181 39.0815Z" fill="url(#salads_paint33_linear)"/>
<path d="M123.193 33.3741C120.19 33.3741 117.756 35.8083 117.756 38.8112C117.756 41.8141 120.19 44.2483 123.193 44.2483C126.196 44.2483 128.63 41.8141 128.63 38.8112C128.63 35.8083 126.196 33.3741 123.193 33.3741ZM123.193 41.1191C121.918 41.1191 120.885 40.0859 120.885 38.8112C120.885 37.5365 121.918 36.5033 123.193 36.5033C124.468 36.5033 125.501 37.5365 125.501 38.8112C125.501 40.0859 124.468 41.1191 123.193 41.1191Z" fill="url(#salads_paint34_linear)"/>
<path d="M93.1874 18.6168C93.6806 18.3535 93.8671 17.7403 93.6038 17.2471C93.3406 16.7538 92.7274 16.5674 92.2341 16.8306C91.7409 17.0938 91.5544 17.7071 91.8177 18.2003C92.0809 18.6935 92.6941 18.88 93.1874 18.6168Z" fill="url(#salads_paint35_linear)"/>
<path d="M90.2029 17.0982C89.9949 16.7088 89.5108 16.5614 89.1214 16.7694C88.732 16.9773 88.5846 17.4614 88.7926 17.8509C89.0005 18.2403 89.4846 18.3876 89.874 18.1797C90.2635 17.9717 90.4105 17.4876 90.2029 17.0982Z" fill="url(#salads_paint36_linear)"/>
<path d="M88.603 21.0452C88.4777 20.8105 88.1859 20.7217 87.9509 20.847C87.7159 20.9723 87.6274 21.264 87.7527 21.499C87.878 21.734 88.1697 21.8226 88.4047 21.6973C88.6394 21.5717 88.7283 21.2799 88.603 21.0452Z" fill="url(#salads_paint37_linear)"/>
<path d="M93.5906 26.0091C93.1359 25.6838 92.5036 25.7888 92.1783 26.2435C91.853 26.6982 91.958 27.3306 92.4127 27.6559C92.8674 27.9812 93.4998 27.8762 93.8251 27.4215C94.1503 26.9668 94.0453 26.3344 93.5906 26.0091Z" fill="url(#salads_paint38_linear)"/>
<path d="M101.961 23.0123C101.601 22.7556 101.102 22.8382 100.846 23.1973C100.589 23.5564 100.671 24.0556 101.031 24.3123C101.39 24.5691 101.889 24.4864 102.146 24.1273C102.402 23.7682 102.319 23.2691 101.961 23.0123Z" fill="url(#salads_paint39_linear)"/>
<path d="M95.632 19.1156C95.4155 18.9606 95.1146 19.0106 94.9596 19.2271C94.8049 19.4436 94.8546 19.7444 95.0711 19.8994C95.2875 20.0541 95.5884 20.0044 95.7434 19.788C95.8984 19.5715 95.8484 19.2706 95.632 19.1156Z" fill="url(#salads_paint40_linear)"/>
<path d="M91.9943 21.6702C91.609 21.5211 91.1758 21.7129 91.0267 22.0982C90.8775 22.4834 91.0693 22.9167 91.4546 23.0658C91.8399 23.2149 92.2731 23.0232 92.4222 22.6379C92.5714 22.2523 92.3796 21.819 91.9943 21.6702Z" fill="url(#salads_paint41_linear)"/>
<path d="M93.856 20.4059C93.5518 20.2882 93.2098 20.4397 93.0921 20.7438C92.9745 21.0479 93.126 21.39 93.4301 21.5076C93.7342 21.6253 94.0763 21.4738 94.1939 21.1697C94.3116 20.8653 94.1601 20.5235 93.856 20.4059Z" fill="url(#salads_paint42_linear)"/>
<path d="M91.219 20.0229C91.4026 20.0938 91.6087 20.0026 91.6796 19.8191C91.7505 19.6356 91.6593 19.4294 91.4758 19.3585C91.2923 19.2876 91.0861 19.3788 91.0152 19.5623C90.9443 19.7459 91.0358 19.952 91.219 20.0229Z" fill="url(#salads_paint43_linear)"/>
<path d="M110.425 26.6223C110.918 26.359 111.105 25.7458 110.842 25.2526C110.578 24.7593 109.965 24.5729 109.472 24.8361C108.979 25.0993 108.792 25.7126 109.055 26.2058C109.318 26.699 109.932 26.8855 110.425 26.6223Z" fill="url(#salads_paint44_linear)"/>
<path d="M101.495 31.1055C101.287 30.7161 100.803 30.5688 100.414 30.7767C100.024 30.9846 99.8771 31.4688 100.085 31.8582C100.293 32.2476 100.777 32.3949 101.167 32.187C101.556 31.9791 101.703 31.4949 101.495 31.1055Z" fill="url(#salads_paint45_linear)"/>
<path d="M102.904 26.752C102.778 26.5173 102.487 26.4285 102.252 26.5538C102.017 26.6791 101.928 26.9708 102.053 27.2058C102.179 27.4405 102.47 27.5294 102.705 27.4041C102.94 27.2788 103.029 26.987 102.904 26.752Z" fill="url(#salads_paint46_linear)"/>
<path d="M114.235 30.8358C113.78 30.5105 113.148 30.6155 112.823 31.0702C112.498 31.5249 112.603 32.1572 113.057 32.4825C113.512 32.8078 114.144 32.7028 114.47 32.2481C114.795 31.7934 114.69 31.1611 114.235 30.8358Z" fill="url(#salads_paint47_linear)"/>
<path d="M114.898 29.6526C115.154 29.2935 115.072 28.7944 114.713 28.5376C114.353 28.2808 113.854 28.3635 113.598 28.7226C113.341 29.0817 113.423 29.5808 113.783 29.8376C114.141 30.0944 114.64 30.0114 114.898 29.6526Z" fill="url(#salads_paint48_linear)"/>
<path d="M112.87 27.1212C112.653 26.9665 112.352 27.0162 112.197 27.2327C112.043 27.4492 112.092 27.75 112.309 27.905C112.525 28.0598 112.826 28.01 112.981 27.7936C113.136 27.5771 113.086 27.2762 112.87 27.1212Z" fill="url(#salads_paint49_linear)"/>
<path d="M105.342 30.4826C104.957 30.3335 104.523 30.5252 104.374 30.9105C104.225 31.2958 104.417 31.7291 104.802 31.8782C105.188 32.0273 105.621 31.8355 105.77 31.4502C105.919 31.0649 105.727 30.6317 105.342 30.4826Z" fill="url(#salads_paint50_linear)"/>
<path d="M111.094 28.4114C110.79 28.2937 110.448 28.4449 110.33 28.7493C110.212 29.0534 110.364 29.3955 110.668 29.5131C110.972 29.6308 111.314 29.4793 111.432 29.1752C111.549 28.8711 111.398 28.529 111.094 28.4114Z" fill="url(#salads_paint51_linear)"/>
<path d="M108.457 28.0285C108.64 28.0994 108.847 28.0082 108.917 27.8247C108.988 27.6412 108.897 27.435 108.714 27.3641C108.53 27.2932 108.324 27.3844 108.253 27.568C108.182 27.7515 108.273 27.9577 108.457 28.0285Z" fill="url(#salads_paint52_linear)"/>
<path d="M87.4641 44.4112C81.747 50.1283 72.4891 50.1392 66.7856 44.4356C61.082 38.7321 61.0932 29.4742 66.81 23.7571C72.5267 18.04 86.1467 13.6674 91.8503 19.3709C97.5538 25.0744 93.1812 38.6942 87.4641 44.4112Z" fill="url(#salads_paint53_linear)"/>
<path d="M66.2207 43.8359C71.376 48.3856 79.7383 47.7273 85.2592 42.2062C90.6957 36.7697 95.3607 24.6344 91.4242 19.0762C91.3027 18.9044 91.1527 18.7535 90.9839 18.6279C84.8692 14.0882 72.2557 18.3118 66.8104 23.7571C61.2892 29.2779 61.0913 38.1006 66.2207 43.8359Z" fill="url(#salads_paint54_linear)"/>
<path d="M74.3432 41.6286C78.8739 41.6286 82.5467 37.9558 82.5467 33.4251C82.5467 28.8944 78.8739 25.2216 74.3432 25.2216C69.8125 25.2216 66.1396 28.8944 66.1396 33.4251C66.1396 37.9558 69.8125 41.6286 74.3432 41.6286Z" fill="url(#salads_paint55_linear)"/>
<path d="M76.5291 49.2239C72.2147 49.2345 67.8959 49.183 63.6403 49.0713C62.5903 49.0436 61.5444 46.9536 60.503 46.9186C59.2641 46.8771 58.0324 48.8892 56.8088 48.8371C56.1818 48.8107 55.5571 48.7827 54.935 48.7533C29.7468 47.5592 8.635 44.1268 6.93206 38.4533C6.88206 38.1239 6.84971 37.7915 6.835 37.4621C6.77324 36.2621 6.935 35.0621 7.34383 33.8739C8.59383 30.2415 11.7203 27.9562 15.9997 26.768C17.5527 26.3357 19.1938 25.3327 20.8203 23.7651L20.9938 23.5945C24.5262 20.1827 27.9762 20.0739 29.8291 23.3121V23.3151C31.4144 26.0827 34.1821 26.4386 37.2174 24.2651L37.5056 24.0592C40.8527 21.6621 43.8409 22.4004 45.2615 25.9739L45.3703 26.2474C45.5085 26.5915 45.6615 26.9121 45.8262 27.2033C47.238 29.6915 49.638 30.2504 52.3674 28.6562L52.6233 28.5062C55.9438 26.568 58.7527 27.8268 59.9144 31.7768L60.035 32.1886C60.2733 33.0004 60.5821 33.7004 60.9527 34.2827C62.2027 36.2533 64.1497 36.868 66.4203 35.9151C67.1262 35.618 67.7997 35.4739 68.4291 35.4739C70.8703 35.4739 72.6556 37.6415 73.1938 41.4915L73.2409 41.8151C73.5527 44.0533 74.2291 45.8533 75.188 47.1504C75.6968 47.8357 76.1439 48.5298 76.5291 49.2239Z" fill="url(#salads_paint56_linear)"/>
<path d="M125.906 40.398C123.514 37.8971 119.911 36.6709 116.286 37.4765C111.339 38.5762 108.034 43.0868 108.29 47.9851C108.292 47.9848 108.294 47.9848 108.297 47.9845C108.346 47.9803 115.356 46.5656 118.662 46.1486C122.094 45.7153 125.599 45.9621 128.479 45.4086C129.173 45.2751 129.849 45.1383 130.506 44.9977L125.906 40.398Z" fill="url(#salads_paint57_linear)"/>
<path d="M128.492 45.2432C127.266 39.728 121.801 36.2506 116.286 37.4765C111.339 38.5762 108.034 43.0868 108.29 47.985C115.902 47.36 122.819 46.4988 128.518 45.4012C128.51 45.3485 128.504 45.2962 128.492 45.2432Z" fill="url(#salads_paint58_linear)"/>
<path d="M114.227 46.7051C114.227 42.8954 111.139 39.8069 107.329 39.8069C103.519 39.8069 100.431 42.8954 100.431 46.7051C100.431 47.3328 100.516 47.9404 100.673 48.5184C105.399 48.2401 109.936 47.8781 114.188 47.4354C114.214 47.1951 114.227 46.9519 114.227 46.7051Z" fill="url(#salads_paint59_linear)"/>
<path d="M58.6715 39.6554C55.9774 36.9613 52.6177 35.6907 49.1788 35.0745C43.6009 34.0754 37.7106 35.4133 33.3409 39.783C31.365 41.7589 29.6938 43.9504 28.8232 46.421C29.0365 46.4521 29.2559 46.4816 29.4712 46.5121C29.4709 46.5127 29.4706 46.5133 29.4706 46.5139C36.8885 47.5657 45.6329 48.3121 54.935 48.7533C55.5515 48.7824 56.1706 48.8101 56.7918 48.8366C58.0335 48.8892 59.2841 47.466 60.5418 47.508C61.5677 47.5424 62.5982 49.0436 63.6324 49.0707C65.1394 49.1101 66.6541 49.1421 68.1741 49.1665L58.6715 39.6554Z" fill="url(#salads_paint60_linear)"/>
<path d="M31.4361 31.3365C28.4331 31.3365 25.999 33.7707 25.999 36.7736C25.999 39.7765 28.4331 42.2107 31.4361 42.2107C34.4387 42.2107 36.8731 39.7765 36.8731 36.7736C36.8731 33.7707 34.439 31.3365 31.4361 31.3365ZM31.4361 39.0815C30.1614 39.0815 29.1281 38.0483 29.1281 36.7736C29.1281 35.4989 30.1614 34.4657 31.4361 34.4657C32.7108 34.4657 33.744 35.4989 33.744 36.7736C33.744 38.0483 32.7108 39.0815 31.4361 39.0815Z" fill="url(#salads_paint61_linear)"/>
<path d="M58.6718 39.6553C51.6082 32.5918 40.1556 32.5918 33.0918 39.6553C31.1159 41.6312 29.6938 43.9506 28.8232 46.4209C30.9791 46.735 33.2512 47.023 35.6206 47.2844C36.1577 46.2168 36.8685 45.2144 37.7597 44.3233C42.2447 39.8383 49.5168 39.84 54.0018 44.325C55.313 45.6362 56.3162 46.895 56.8609 48.5433C58.0924 48.5956 59.2538 48.9339 60.5006 48.9756C61.5462 49.0106 62.5968 49.0421 63.6515 49.0697C63 45.6209 61.3412 42.3247 58.6718 39.6553Z" fill="url(#salads_paint62_linear)"/>
<path d="M56.5209 41.8065C50.6442 35.9297 41.1197 35.9297 35.243 41.8065C33.758 43.2915 32.6495 45.0103 31.915 46.8442C33.1203 46.9986 34.3574 47.1453 35.6209 47.2847C36.1577 46.2171 36.8689 45.2147 37.76 44.3236C42.245 39.8386 49.5189 39.8386 54.0039 44.3236C55.3153 45.635 56.2403 47.1856 56.7847 48.8344C58.023 48.8871 59.2683 48.9353 60.5224 48.9774C59.9024 46.3495 58.57 43.8556 56.5209 41.8065Z" fill="url(#salads_paint63_linear)"/>
<path d="M48.6336 17.5901C48.8257 17.0651 48.556 16.4836 48.0307 16.2913C47.5057 16.0992 46.9242 16.3689 46.7318 16.8942C46.5398 17.4192 46.8095 18.0007 47.3348 18.1927C47.8601 18.3851 48.4415 18.1154 48.6336 17.5901Z" fill="url(#salads_paint64_linear)"/>
<path d="M45.3965 18.4483C44.9821 18.2966 44.5229 18.5098 44.3712 18.9242C44.2194 19.3386 44.4327 19.7977 44.8471 19.9495C45.2615 20.1013 45.7206 19.888 45.8724 19.4736C46.0241 19.0589 45.8109 18.5998 45.3965 18.4483Z" fill="url(#salads_paint65_linear)"/>
<path d="M46.8357 22.4566C46.5857 22.3651 46.3089 22.4937 46.2175 22.7437C46.126 22.9937 46.2545 23.2704 46.5042 23.3619C46.7539 23.4534 47.031 23.3248 47.1225 23.0751C47.2139 22.8248 47.0854 22.5481 46.8357 22.4566Z" fill="url(#salads_paint66_linear)"/>
<path d="M53.862 22.8313C53.3062 22.8919 52.9047 23.3919 52.9656 23.9478C53.0262 24.5037 53.5262 24.9051 54.082 24.8442C54.6379 24.7837 55.0394 24.2837 54.9785 23.7278C54.9176 23.1719 54.4179 22.7704 53.862 22.8313Z" fill="url(#salads_paint67_linear)"/>
<path d="M58.1026 15.0171C57.6638 15.0651 57.347 15.4595 57.3949 15.8983C57.4429 16.3371 57.8373 16.6539 58.2761 16.6059C58.7149 16.558 59.0317 16.1633 58.9838 15.7248C58.9358 15.2862 58.5414 14.9692 58.1026 15.0171Z" fill="url(#salads_paint68_linear)"/>
<path d="M50.788 16.3322C50.5233 16.361 50.3325 16.599 50.3613 16.8637C50.3901 17.1281 50.628 17.3193 50.8928 17.2905C51.1572 17.2616 51.3483 17.0237 51.3195 16.759C51.2904 16.4943 51.0525 16.3034 50.788 16.3322Z" fill="url(#salads_paint69_linear)"/>
<path d="M49.7805 20.6613C49.394 20.8072 49.1987 21.2389 49.3449 21.6254C49.4908 22.0119 49.9226 22.2072 50.309 22.0613C50.6955 21.9154 50.8908 21.4836 50.7449 21.0972C50.599 20.7107 50.167 20.5154 49.7805 20.6613Z" fill="url(#salads_paint70_linear)"/>
<path d="M50.3241 18.4778C50.0189 18.5931 49.865 18.9337 49.98 19.239C50.0953 19.5443 50.4359 19.6981 50.7412 19.5831C51.0465 19.4678 51.2003 19.1272 51.0853 18.8219C50.9703 18.5167 50.6294 18.3628 50.3241 18.4778Z" fill="url(#salads_paint71_linear)"/>
<path d="M48.1035 19.9507C48.2876 19.8813 48.3802 19.6757 48.3108 19.4919C48.2414 19.3078 48.0358 19.2151 47.852 19.2845C47.6679 19.3539 47.5752 19.5595 47.6446 19.7433C47.714 19.9272 47.9193 20.0201 48.1035 19.9507Z" fill="url(#salads_paint72_linear)"/>
<path d="M66.8187 12.0642C67.0107 11.5392 66.741 10.9578 66.2157 10.7654C65.6907 10.5733 65.1092 10.843 64.9169 11.3683C64.7248 11.8933 64.9945 12.4748 65.5198 12.6672C66.0451 12.8592 66.6266 12.5895 66.8187 12.0642Z" fill="url(#salads_paint73_linear)"/>
<path d="M63.1523 21.3588C62.7379 21.2071 62.2788 21.4203 62.127 21.8347C61.9753 22.2491 62.1885 22.7083 62.6029 22.86C63.0173 23.0118 63.4764 22.7986 63.6282 22.3841C63.7797 21.9697 63.5667 21.5106 63.1523 21.3588Z" fill="url(#salads_paint74_linear)"/>
<path d="M61.2996 17.1757C61.0496 17.0842 60.7728 17.2128 60.6813 17.4628C60.5899 17.7128 60.7184 17.9895 60.9681 18.0807C61.2181 18.1722 61.4949 18.0437 61.5863 17.7939C61.6778 17.5437 61.5493 17.2669 61.2996 17.1757Z" fill="url(#salads_paint75_linear)"/>
<path d="M72.4675 12.6646C71.9116 12.7251 71.5102 13.2251 71.571 13.781C71.6316 14.3369 72.1316 14.7384 72.6875 14.6775C73.2434 14.6169 73.6449 14.1169 73.584 13.561C73.5231 13.0051 73.0234 12.6037 72.4675 12.6646Z" fill="url(#salads_paint76_linear)"/>
<path d="M72.1722 11.341C72.1243 10.9022 71.7296 10.5854 71.2911 10.6333C70.8522 10.6813 70.5355 11.0757 70.5834 11.5145C70.6314 11.9533 71.0258 12.2701 71.4646 12.2222C71.9034 12.1745 72.2202 11.7798 72.1722 11.341Z" fill="url(#salads_paint77_linear)"/>
<path d="M68.9736 10.8063C68.7092 10.8352 68.518 11.0731 68.5468 11.3378C68.5756 11.6022 68.8136 11.7934 69.0783 11.7646C69.3427 11.7358 69.5339 11.4978 69.5051 11.2331C69.4759 10.9684 69.2383 10.7775 68.9736 10.8063Z" fill="url(#salads_paint78_linear)"/>
<path d="M65.6039 18.3305C65.2174 18.4764 65.0221 18.9081 65.168 19.2946C65.3139 19.6811 65.7456 19.8764 66.1321 19.7305C66.5186 19.5846 66.7139 19.1528 66.5677 18.7663C66.4221 18.3799 65.9904 18.1846 65.6039 18.3305Z" fill="url(#salads_paint79_linear)"/>
<path d="M68.5097 12.9522C68.2044 13.0675 68.0506 13.4081 68.1656 13.7134C68.2809 14.0187 68.6215 14.1725 68.9267 14.0575C69.232 13.9422 69.3859 13.6016 69.2709 13.2963C69.1556 12.991 68.8147 12.8369 68.5097 12.9522Z" fill="url(#salads_paint80_linear)"/>
<path d="M66.289 14.4248C66.4731 14.3554 66.5658 14.1498 66.4963 13.966C66.4269 13.7819 66.2214 13.6892 66.0375 13.7586C65.8534 13.8281 65.7608 14.0336 65.8302 14.2175C65.8996 14.4013 66.1052 14.4942 66.289 14.4248Z" fill="url(#salads_paint81_linear)"/>
<defs>
<linearGradient id="salads_paint0_linear" x1="75.9354" y1="85.7489" x2="76.4845" y2="94.8083" gradientUnits="userSpaceOnUse">
<stop stop-color="#F8F6FB"/>
<stop offset="1" stop-color="#EFDCFB"/>
</linearGradient>
<linearGradient id="salads_paint1_linear" x1="64.1647" y1="26.2797" x2="104.251" y2="86.0006" gradientUnits="userSpaceOnUse">
<stop stop-color="#F8F6FB"/>
<stop offset="1" stop-color="#EFDCFB"/>
</linearGradient>
<linearGradient id="salads_paint2_linear" x1="66.5153" y1="0.922367" x2="77.1035" y2="43.6677" gradientUnits="userSpaceOnUse">
<stop stop-color="#F8F6FB"/>
<stop offset="1" stop-color="#EFDCFB"/>
</linearGradient>
<linearGradient id="salads_paint3_linear" x1="77.6285" y1="1.91034" x2="77.6285" y2="22.8062" gradientUnits="userSpaceOnUse">
<stop stop-color="#BADA00"/>
<stop offset="0.2269" stop-color="#B0CE00"/>
<stop offset="0.6378" stop-color="#95AE00"/>
<stop offset="1" stop-color="#798C00"/>
</linearGradient>
<linearGradient id="salads_paint4_linear" x1="110.589" y1="14.5185" x2="113.824" y2="20.9891" gradientUnits="userSpaceOnUse">
<stop stop-color="#8A7889"/>
<stop offset="0.3344" stop-color="#867385"/>
<stop offset="0.7039" stop-color="#7B667B"/>
<stop offset="1" stop-color="#6E566E"/>
</linearGradient>
<linearGradient id="salads_paint5_linear" x1="68.7294" y1="4.0809" x2="71.9647" y2="10.5515" gradientUnits="userSpaceOnUse">
<stop stop-color="#8A7889"/>
<stop offset="0.3344" stop-color="#867385"/>
<stop offset="0.7039" stop-color="#7B667B"/>
<stop offset="1" stop-color="#6E566E"/>
</linearGradient>
<linearGradient id="salads_paint6_linear" x1="103.264" y1="14.3824" x2="103.264" y2="25.2619" gradientUnits="userSpaceOnUse">
<stop stop-color="#F8F6FB"/>
<stop offset="1" stop-color="#EFDCFB"/>
</linearGradient>
<linearGradient id="salads_paint7_linear" x1="69.677" y1="31.0138" x2="64.154" y2="-1.44499" gradientUnits="userSpaceOnUse">
<stop stop-color="#798C00" stop-opacity="0"/>
<stop offset="0.6542" stop-color="#556100" stop-opacity="0.654"/>
<stop offset="1" stop-color="#464F00"/>
</linearGradient>
<linearGradient id="salads_paint8_linear" x1="75.6263" y1="67.1462" x2="75.6263" y2="-39.2109" gradientUnits="userSpaceOnUse">
<stop stop-color="#EFDCFB" stop-opacity="0"/>
<stop offset="0.0287" stop-color="#E9D6F7" stop-opacity="0.029"/>
<stop offset="0.2203" stop-color="#C5B5DE" stop-opacity="0.22"/>
<stop offset="0.4138" stop-color="#AA9BCB" stop-opacity="0.414"/>
<stop offset="0.6078" stop-color="#9688BD" stop-opacity="0.608"/>
<stop offset="0.8028" stop-color="#8A7DB5" stop-opacity="0.803"/>
<stop offset="1" stop-color="#8679B2"/>
</linearGradient>
<linearGradient id="salads_paint9_linear" x1="100.548" y1="69.7033" x2="112.717" y2="77.8159" gradientUnits="userSpaceOnUse">
<stop stop-color="#FF6359"/>
<stop offset="0.2243" stop-color="#FE5B50"/>
<stop offset="0.5952" stop-color="#FC4637"/>
<stop offset="1" stop-color="#F82814"/>
</linearGradient>
<linearGradient id="salads_paint10_linear" x1="97.7265" y1="26.7685" x2="99.6797" y2="49.6244" gradientUnits="userSpaceOnUse">
<stop stop-color="#BADA00"/>
<stop offset="0.2269" stop-color="#B0CE00"/>
<stop offset="0.6378" stop-color="#95AE00"/>
<stop offset="1" stop-color="#798C00"/>
</linearGradient>
<linearGradient id="salads_paint11_linear" x1="61.7305" y1="3.71496" x2="54.527" y2="24.7374" gradientUnits="userSpaceOnUse">
<stop stop-color="#FFD945"/>
<stop offset="0.3126" stop-color="#FFD643"/>
<stop offset="0.5593" stop-color="#FFCC3D"/>
<stop offset="0.7826" stop-color="#FFBB33"/>
<stop offset="0.9922" stop-color="#FFA426"/>
<stop offset="1" stop-color="#FFA325"/>
</linearGradient>
<linearGradient id="salads_paint12_linear" x1="51.9614" y1="32.3437" x2="57.9534" y2="14.8567" gradientUnits="userSpaceOnUse">
<stop stop-color="#FFD945"/>
<stop offset="0.3126" stop-color="#FFD643"/>
<stop offset="0.5593" stop-color="#FFCC3D"/>
<stop offset="0.7826" stop-color="#FFBB33"/>
<stop offset="0.9922" stop-color="#FFA426"/>
<stop offset="1" stop-color="#FFA325"/>
</linearGradient>
<linearGradient id="salads_paint13_linear" x1="122.237" y1="13.4021" x2="130.054" y2="29.3698" gradientUnits="userSpaceOnUse">
<stop stop-color="#FF6359"/>
<stop offset="0.2243" stop-color="#FE5B50"/>
<stop offset="0.5952" stop-color="#FC4637"/>
<stop offset="1" stop-color="#F82814"/>
</linearGradient>
<linearGradient id="salads_paint14_linear" x1="142.224" y1="39.43" x2="123.689" y2="20.895" gradientUnits="userSpaceOnUse">
<stop stop-color="#FF6359"/>
<stop offset="0.2243" stop-color="#FE5B50"/>
<stop offset="0.5952" stop-color="#FC4637"/>
<stop offset="1" stop-color="#F82814"/>
</linearGradient>
<linearGradient id="salads_paint15_linear" x1="87.7093" y1="6.45741" x2="84.1515" y2="12.0967" gradientUnits="userSpaceOnUse">
<stop stop-color="#FF6359"/>
<stop offset="0.2243" stop-color="#FE5B50"/>
<stop offset="0.5952" stop-color="#FC4637"/>
<stop offset="1" stop-color="#F82814"/>
</linearGradient>
<linearGradient id="salads_paint16_linear" x1="79.9441" y1="11.4768" x2="78.2507" y2="14.1609" gradientUnits="userSpaceOnUse">
<stop stop-color="#FF6359"/>
<stop offset="0.2243" stop-color="#FE5B50"/>
<stop offset="0.5952" stop-color="#FC4637"/>
<stop offset="1" stop-color="#F82814"/>
</linearGradient>
<linearGradient id="salads_paint17_linear" x1="88.6959" y1="11.415" x2="87.0025" y2="14.0991" gradientUnits="userSpaceOnUse">
<stop stop-color="#FF6359"/>
<stop offset="0.2243" stop-color="#FE5B50"/>
<stop offset="0.5952" stop-color="#FC4637"/>
<stop offset="1" stop-color="#F82814"/>
</linearGradient>
<linearGradient id="salads_paint18_linear" x1="94.1075" y1="8.81448" x2="92.4142" y2="11.4989" gradientUnits="userSpaceOnUse">
<stop stop-color="#FF6359"/>
<stop offset="0.2243" stop-color="#FE5B50"/>
<stop offset="0.5952" stop-color="#FC4637"/>
<stop offset="1" stop-color="#F82814"/>
</linearGradient>
<linearGradient id="salads_paint19_linear" x1="80.5215" y1="13.5666" x2="77.8923" y2="17.7345" gradientUnits="userSpaceOnUse">
<stop stop-color="#FF6359"/>
<stop offset="0.2243" stop-color="#FE5B50"/>
<stop offset="0.5952" stop-color="#FC4637"/>
<stop offset="1" stop-color="#F82814"/>
</linearGradient>
<linearGradient id="salads_paint20_linear" x1="83.9125" y1="9.18394" x2="81.837" y2="12.4739" gradientUnits="userSpaceOnUse">
<stop stop-color="#FF6359"/>
<stop offset="0.2243" stop-color="#FE5B50"/>
<stop offset="0.5952" stop-color="#FC4637"/>
<stop offset="1" stop-color="#F82814"/>
</linearGradient>
<linearGradient id="salads_paint21_linear" x1="91.2088" y1="6.24334" x2="89.133" y2="9.53344" gradientUnits="userSpaceOnUse">
<stop stop-color="#FF6359"/>
<stop offset="0.2243" stop-color="#FE5B50"/>
<stop offset="0.5952" stop-color="#FC4637"/>
<stop offset="1" stop-color="#F82814"/>
</linearGradient>
<linearGradient id="salads_paint22_linear" x1="85.7647" y1="10.8381" x2="84.5133" y2="12.8219" gradientUnits="userSpaceOnUse">
<stop stop-color="#FF6359"/>
<stop offset="0.2243" stop-color="#FE5B50"/>
<stop offset="0.5952" stop-color="#FC4637"/>
<stop offset="1" stop-color="#F82814"/>
</linearGradient>
<linearGradient id="salads_paint23_linear" x1="83.9834" y1="11.0245" x2="77.8308" y2="28.9798" gradientUnits="userSpaceOnUse">
<stop stop-color="#FFD945"/>
<stop offset="0.3126" stop-color="#FFD643"/>
<stop offset="0.5593" stop-color="#FFCC3D"/>
<stop offset="0.7826" stop-color="#FFBB33"/>
<stop offset="0.9922" stop-color="#FFA426"/>
<stop offset="1" stop-color="#FFA325"/>
</linearGradient>
<linearGradient id="salads_paint24_linear" x1="75.6417" y1="35.4887" x2="80.7593" y2="20.5534" gradientUnits="userSpaceOnUse">
<stop stop-color="#FFD945"/>
<stop offset="0.3126" stop-color="#FFD643"/>
<stop offset="0.5593" stop-color="#FFCC3D"/>
<stop offset="0.7826" stop-color="#FFBB33"/>
<stop offset="0.9922" stop-color="#FFA426"/>
<stop offset="1" stop-color="#FFA325"/>
</linearGradient>
<linearGradient id="salads_paint25_linear" x1="43.1749" y1="14.0665" x2="46.4042" y2="31.4075" gradientUnits="userSpaceOnUse">
<stop stop-color="#FF6359"/>
<stop offset="0.2243" stop-color="#FE5B50"/>
<stop offset="0.5952" stop-color="#FC4637"/>
<stop offset="1" stop-color="#F82814"/>
</linearGradient>
<linearGradient id="salads_paint26_linear" x1="118.916" y1="8.16306" x2="111.713" y2="29.1855" gradientUnits="userSpaceOnUse">
<stop stop-color="#FFDECF"/>
<stop offset="0.3791" stop-color="#FDC4B0"/>
<stop offset="0.7655" stop-color="#FBAE97"/>
<stop offset="1" stop-color="#FAA68E"/>
</linearGradient>
<linearGradient id="salads_paint27_linear" x1="109.147" y1="36.7917" x2="115.139" y2="19.3046" gradientUnits="userSpaceOnUse">
<stop stop-color="#FFDECF"/>
<stop offset="0.3791" stop-color="#FDC4B0"/>
<stop offset="0.7655" stop-color="#FBAE97"/>
<stop offset="1" stop-color="#FAA68E"/>
</linearGradient>
<linearGradient id="salads_paint28_linear" x1="29.7353" y1="13.0925" x2="23.5867" y2="31.0364" gradientUnits="userSpaceOnUse">
<stop stop-color="#FFDECF"/>
<stop offset="0.3791" stop-color="#FDC4B0"/>
<stop offset="0.7655" stop-color="#FBAE97"/>
<stop offset="1" stop-color="#FAA68E"/>
</linearGradient>
<linearGradient id="salads_paint29_linear" x1="21.3983" y1="37.5415" x2="26.5128" y2="22.6155" gradientUnits="userSpaceOnUse">
<stop stop-color="#FFDECF"/>
<stop offset="0.3791" stop-color="#FDC4B0"/>
<stop offset="0.7655" stop-color="#FBAE97"/>
<stop offset="1" stop-color="#FAA68E"/>
</linearGradient>
<linearGradient id="salads_paint30_linear" x1="97.7262" y1="26.768" x2="99.6797" y2="49.6218" gradientUnits="userSpaceOnUse">
<stop stop-color="#BADA00"/>
<stop offset="0.2269" stop-color="#B0CE00"/>
<stop offset="0.6378" stop-color="#95AE00"/>
<stop offset="1" stop-color="#798C00"/>
</linearGradient>
<linearGradient id="salads_paint31_linear" x1="110.042" y1="38.2748" x2="109.16" y2="2.00036" gradientUnits="userSpaceOnUse">
<stop stop-color="#798C00" stop-opacity="0"/>
<stop offset="0.6542" stop-color="#556100" stop-opacity="0.654"/>
<stop offset="1" stop-color="#464F00"/>
</linearGradient>
<linearGradient id="salads_paint32_linear" x1="96.7047" y1="52.2627" x2="66.9768" y2="28.9468" gradientUnits="userSpaceOnUse">
<stop stop-color="#798C00" stop-opacity="0"/>
<stop offset="0.6542" stop-color="#556100" stop-opacity="0.654"/>
<stop offset="1" stop-color="#464F00"/>
</linearGradient>
<linearGradient id="salads_paint33_linear" x1="91.6825" y1="31.1021" x2="94.9178" y2="37.5727" gradientUnits="userSpaceOnUse">
<stop stop-color="#8A7889"/>
<stop offset="0.3344" stop-color="#867385"/>
<stop offset="0.7039" stop-color="#7B667B"/>
<stop offset="1" stop-color="#6E566E"/>
</linearGradient>
<linearGradient id="salads_paint34_linear" x1="120.357" y1="33.1397" x2="123.593" y2="39.6103" gradientUnits="userSpaceOnUse">
<stop stop-color="#8A7889"/>
<stop offset="0.3344" stop-color="#867385"/>
<stop offset="0.7039" stop-color="#7B667B"/>
<stop offset="1" stop-color="#6E566E"/>
</linearGradient>
<linearGradient id="salads_paint35_linear" x1="92.6583" y1="16.1114" x2="92.1547" y2="20.8768" gradientUnits="userSpaceOnUse">
<stop stop-color="#FFDECF"/>
<stop offset="0.3791" stop-color="#FDC4B0"/>
<stop offset="0.7655" stop-color="#FBAE97"/>
<stop offset="1" stop-color="#FAA68E"/>
</linearGradient>
<linearGradient id="salads_paint36_linear" x1="89.4114" y1="16.1834" x2="89.0136" y2="19.9453" gradientUnits="userSpaceOnUse">
<stop stop-color="#FFDECF"/>
<stop offset="0.3791" stop-color="#FDC4B0"/>
<stop offset="0.7655" stop-color="#FBAE97"/>
<stop offset="1" stop-color="#FAA68E"/>
</linearGradient>
<linearGradient id="salads_paint37_linear" x1="88.0392" y1="20.4606" x2="87.7994" y2="22.7289" gradientUnits="userSpaceOnUse">
<stop stop-color="#FFDECF"/>
<stop offset="0.3791" stop-color="#FDC4B0"/>
<stop offset="0.7655" stop-color="#FBAE97"/>
<stop offset="1" stop-color="#FAA68E"/>
</linearGradient>
<linearGradient id="salads_paint38_linear" x1="92.9452" y1="25.2199" x2="92.4413" y2="29.9855" gradientUnits="userSpaceOnUse">
<stop stop-color="#FFDECF"/>
<stop offset="0.3791" stop-color="#FDC4B0"/>
<stop offset="0.7655" stop-color="#FBAE97"/>
<stop offset="1" stop-color="#FAA68E"/>
</linearGradient>
<linearGradient id="salads_paint39_linear" x1="101.406" y1="22.376" x2="101.008" y2="26.1383" gradientUnits="userSpaceOnUse">
<stop stop-color="#FFDECF"/>
<stop offset="0.3791" stop-color="#FDC4B0"/>
<stop offset="0.7655" stop-color="#FBAE97"/>
<stop offset="1" stop-color="#FAA68E"/>
</linearGradient>
<linearGradient id="salads_paint40_linear" x1="95.2135" y1="18.6995" x2="94.9736" y2="20.9678" gradientUnits="userSpaceOnUse">
<stop stop-color="#FFDECF"/>
<stop offset="0.3791" stop-color="#FDC4B0"/>
<stop offset="0.7655" stop-color="#FBAE97"/>
<stop offset="1" stop-color="#FAA68E"/>
</linearGradient>
<linearGradient id="salads_paint41_linear" x1="91.628" y1="21.1549" x2="91.2556" y2="24.6766" gradientUnits="userSpaceOnUse">
<stop stop-color="#FFDECF"/>
<stop offset="0.3791" stop-color="#FDC4B0"/>
<stop offset="0.7655" stop-color="#FBAE97"/>
<stop offset="1" stop-color="#FAA68E"/>
</linearGradient>
<linearGradient id="salads_paint42_linear" x1="93.5217" y1="19.9831" x2="93.2277" y2="22.7634" gradientUnits="userSpaceOnUse">
<stop stop-color="#FFDECF"/>
<stop offset="0.3791" stop-color="#FDC4B0"/>
<stop offset="0.7655" stop-color="#FBAE97"/>
<stop offset="1" stop-color="#FAA68E"/>
</linearGradient>
<linearGradient id="salads_paint43_linear" x1="91.1891" y1="19.0714" x2="91.012" y2="20.7476" gradientUnits="userSpaceOnUse">
<stop stop-color="#FFDECF"/>
<stop offset="0.3791" stop-color="#FDC4B0"/>
<stop offset="0.7655" stop-color="#FBAE97"/>
<stop offset="1" stop-color="#FAA68E"/>
</linearGradient>
<linearGradient id="salads_paint44_linear" x1="109.892" y1="24.1239" x2="109.388" y2="28.8893" gradientUnits="userSpaceOnUse">
<stop stop-color="#FFDECF"/>
<stop offset="0.3791" stop-color="#FDC4B0"/>
<stop offset="0.7655" stop-color="#FBAE97"/>
<stop offset="1" stop-color="#FAA68E"/>
</linearGradient>
<linearGradient id="salads_paint45_linear" x1="100.697" y1="30.195" x2="100.3" y2="33.9571" gradientUnits="userSpaceOnUse">
<stop stop-color="#FFDECF"/>
<stop offset="0.3791" stop-color="#FDC4B0"/>
<stop offset="0.7655" stop-color="#FBAE97"/>
<stop offset="1" stop-color="#FAA68E"/>
</linearGradient>
<linearGradient id="salads_paint46_linear" x1="102.337" y1="26.1738" x2="102.097" y2="28.4417" gradientUnits="userSpaceOnUse">
<stop stop-color="#FFDECF"/>
<stop offset="0.3791" stop-color="#FDC4B0"/>
<stop offset="0.7655" stop-color="#FBAE97"/>
<stop offset="1" stop-color="#FAA68E"/>
</linearGradient>
<linearGradient id="salads_paint47_linear" x1="113.587" y1="30.0553" x2="113.083" y2="34.8209" gradientUnits="userSpaceOnUse">
<stop stop-color="#FFDECF"/>
<stop offset="0.3791" stop-color="#FDC4B0"/>
<stop offset="0.7655" stop-color="#FBAE97"/>
<stop offset="1" stop-color="#FAA68E"/>
</linearGradient>
<linearGradient id="salads_paint48_linear" x1="114.155" y1="27.9064" x2="113.757" y2="31.6688" gradientUnits="userSpaceOnUse">
<stop stop-color="#FFDECF"/>
<stop offset="0.3791" stop-color="#FDC4B0"/>
<stop offset="0.7655" stop-color="#FBAE97"/>
<stop offset="1" stop-color="#FAA68E"/>
</linearGradient>
<linearGradient id="salads_paint49_linear" x1="112.447" y1="26.7122" x2="112.207" y2="28.9805" gradientUnits="userSpaceOnUse">
<stop stop-color="#FFDECF"/>
<stop offset="0.3791" stop-color="#FDC4B0"/>
<stop offset="0.7655" stop-color="#FBAE97"/>
<stop offset="1" stop-color="#FAA68E"/>
</linearGradient>
<linearGradient id="salads_paint50_linear" x1="104.971" y1="29.9729" x2="104.599" y2="33.4946" gradientUnits="userSpaceOnUse">
<stop stop-color="#FFDECF"/>
<stop offset="0.3791" stop-color="#FDC4B0"/>
<stop offset="0.7655" stop-color="#FBAE97"/>
<stop offset="1" stop-color="#FAA68E"/>
</linearGradient>
<linearGradient id="salads_paint51_linear" x1="110.755" y1="27.9956" x2="110.461" y2="30.776" gradientUnits="userSpaceOnUse">
<stop stop-color="#FFDECF"/>
<stop offset="0.3791" stop-color="#FDC4B0"/>
<stop offset="0.7655" stop-color="#FBAE97"/>
<stop offset="1" stop-color="#FAA68E"/>
</linearGradient>
<linearGradient id="salads_paint52_linear" x1="108.423" y1="27.084" x2="108.245" y2="28.7603" gradientUnits="userSpaceOnUse">
<stop stop-color="#FFDECF"/>
<stop offset="0.3791" stop-color="#FDC4B0"/>
<stop offset="0.7655" stop-color="#FBAE97"/>
<stop offset="1" stop-color="#FAA68E"/>
</linearGradient>
<linearGradient id="salads_paint53_linear" x1="78.9097" y1="31.8094" x2="84.4611" y2="49.3409" gradientUnits="userSpaceOnUse">
<stop stop-color="#F8F6FB"/>
<stop offset="1" stop-color="#EFDCFB"/>
</linearGradient>
<linearGradient id="salads_paint54_linear" x1="78.3501" y1="32.4532" x2="93.6413" y2="104.526" gradientUnits="userSpaceOnUse">
<stop stop-color="#EFDCFB" stop-opacity="0"/>
<stop offset="0.0287" stop-color="#E9D6F7" stop-opacity="0.029"/>
<stop offset="0.2203" stop-color="#C5B5DE" stop-opacity="0.22"/>
<stop offset="0.4138" stop-color="#AA9BCB" stop-opacity="0.414"/>
<stop offset="0.6078" stop-color="#9688BD" stop-opacity="0.608"/>
<stop offset="0.8028" stop-color="#8A7DB5" stop-opacity="0.803"/>
<stop offset="1" stop-color="#8679B2"/>
</linearGradient>
<linearGradient id="salads_paint55_linear" x1="69.3799" y1="28.3116" x2="82.2364" y2="41.5574" gradientUnits="userSpaceOnUse">
<stop stop-color="#FFD945"/>
<stop offset="0.3126" stop-color="#FFD643"/>
<stop offset="0.5593" stop-color="#FFCC3D"/>
<stop offset="0.7826" stop-color="#FFBB33"/>
<stop offset="0.9922" stop-color="#FFA426"/>
<stop offset="1" stop-color="#FFA325"/>
</linearGradient>
<linearGradient id="salads_paint56_linear" x1="41.8385" y1="35.9633" x2="41.4462" y2="53.0221" gradientUnits="userSpaceOnUse">
<stop stop-color="#BADA00"/>
<stop offset="0.2269" stop-color="#B0CE00"/>
<stop offset="0.6378" stop-color="#95AE00"/>
<stop offset="1" stop-color="#798C00"/>
</linearGradient>
<linearGradient id="salads_paint57_linear" x1="128.409" y1="55.5003" x2="113.653" y2="40.7448" gradientUnits="userSpaceOnUse">
<stop stop-color="#798C00" stop-opacity="0"/>
<stop offset="0.6542" stop-color="#556100" stop-opacity="0.654"/>
<stop offset="1" stop-color="#464F00"/>
</linearGradient>
<linearGradient id="salads_paint58_linear" x1="114.629" y1="38.6044" x2="118.082" y2="45.6568" gradientUnits="userSpaceOnUse">
<stop stop-color="#FF6359"/>
<stop offset="0.2243" stop-color="#FE5B50"/>
<stop offset="0.5952" stop-color="#FC4637"/>
<stop offset="1" stop-color="#F82814"/>
</linearGradient>
<linearGradient id="salads_paint59_linear" x1="105.771" y1="42.3434" x2="108.306" y2="49.3839" gradientUnits="userSpaceOnUse">
<stop stop-color="#FFA936"/>
<stop offset="0.4112" stop-color="#FF8548"/>
<stop offset="0.7781" stop-color="#FF6C54"/>
<stop offset="1" stop-color="#FF6359"/>
</linearGradient>
<linearGradient id="salads_paint60_linear" x1="48.4894" y1="49.4121" x2="48.5609" y2="36.8986" gradientUnits="userSpaceOnUse">
<stop stop-color="#798C00" stop-opacity="0"/>
<stop offset="0.6542" stop-color="#556100" stop-opacity="0.654"/>
<stop offset="1" stop-color="#464F00"/>
</linearGradient>
<linearGradient id="salads_paint61_linear" x1="28.6005" y1="31.1021" x2="31.8358" y2="37.5727" gradientUnits="userSpaceOnUse">
<stop stop-color="#8A7889"/>
<stop offset="0.3344" stop-color="#867385"/>
<stop offset="0.7039" stop-color="#7B667B"/>
<stop offset="1" stop-color="#6E566E"/>
</linearGradient>
<linearGradient id="salads_paint62_linear" x1="40.8103" y1="35.923" x2="46.9886" y2="48.5427" gradientUnits="userSpaceOnUse">
<stop stop-color="#FFDECF"/>
<stop offset="0.3791" stop-color="#FDC4B0"/>
<stop offset="0.7655" stop-color="#FBAE97"/>
<stop offset="1" stop-color="#FAA68E"/>
</linearGradient>
<linearGradient id="salads_paint63_linear" x1="50.6265" y1="50.7336" x2="35.0888" y2="35.1962" gradientUnits="userSpaceOnUse">
<stop stop-color="#FFDECF"/>
<stop offset="0.3791" stop-color="#FDC4B0"/>
<stop offset="0.7655" stop-color="#FBAE97"/>
<stop offset="1" stop-color="#FAA68E"/>
</linearGradient>
<linearGradient id="salads_paint64_linear" x1="46.7812" y1="15.9922" x2="49.5848" y2="19.8786" gradientUnits="userSpaceOnUse">
<stop stop-color="#FFDECF"/>
<stop offset="0.3791" stop-color="#FDC4B0"/>
<stop offset="0.7655" stop-color="#FBAE97"/>
<stop offset="1" stop-color="#FAA68E"/>
</linearGradient>
<linearGradient id="salads_paint65_linear" x1="44.41" y1="18.2119" x2="46.6229" y2="21.2801" gradientUnits="userSpaceOnUse">
<stop stop-color="#FFDECF"/>
<stop offset="0.3791" stop-color="#FDC4B0"/>
<stop offset="0.7655" stop-color="#FBAE97"/>
<stop offset="1" stop-color="#FAA68E"/>
</linearGradient>
<linearGradient id="salads_paint66_linear" x1="46.2407" y1="22.3142" x2="47.5751" y2="24.164" gradientUnits="userSpaceOnUse">
<stop stop-color="#FFDECF"/>
<stop offset="0.3791" stop-color="#FDC4B0"/>
<stop offset="0.7655" stop-color="#FBAE97"/>
<stop offset="1" stop-color="#FAA68E"/>
</linearGradient>
<linearGradient id="salads_paint67_linear" x1="53.0703" y1="22.5875" x2="55.8738" y2="26.4742" gradientUnits="userSpaceOnUse">
<stop stop-color="#FFDECF"/>
<stop offset="0.3791" stop-color="#FDC4B0"/>
<stop offset="0.7655" stop-color="#FBAE97"/>
<stop offset="1" stop-color="#FAA68E"/>
</linearGradient>
<linearGradient id="salads_paint68_linear" x1="57.4773" y1="14.8248" x2="59.6908" y2="17.8933" gradientUnits="userSpaceOnUse">
<stop stop-color="#FFDECF"/>
<stop offset="0.3791" stop-color="#FDC4B0"/>
<stop offset="0.7655" stop-color="#FBAE97"/>
<stop offset="1" stop-color="#FAA68E"/>
</linearGradient>
<linearGradient id="salads_paint69_linear" x1="50.4113" y1="16.216" x2="51.7454" y2="18.0661" gradientUnits="userSpaceOnUse">
<stop stop-color="#FFDECF"/>
<stop offset="0.3791" stop-color="#FDC4B0"/>
<stop offset="0.7655" stop-color="#FBAE97"/>
<stop offset="1" stop-color="#FAA68E"/>
</linearGradient>
<linearGradient id="salads_paint70_linear" x1="49.3781" y1="20.4375" x2="51.4499" y2="23.3098" gradientUnits="userSpaceOnUse">
<stop stop-color="#FFDECF"/>
<stop offset="0.3791" stop-color="#FDC4B0"/>
<stop offset="0.7655" stop-color="#FBAE97"/>
<stop offset="1" stop-color="#FAA68E"/>
</linearGradient>
<linearGradient id="salads_paint71_linear" x1="50.0068" y1="18.3011" x2="51.6424" y2="20.5687" gradientUnits="userSpaceOnUse">
<stop stop-color="#FFDECF"/>
<stop offset="0.3791" stop-color="#FDC4B0"/>
<stop offset="0.7655" stop-color="#FBAE97"/>
<stop offset="1" stop-color="#FAA68E"/>
</linearGradient>
<linearGradient id="salads_paint72_linear" x1="47.6605" y1="19.1778" x2="48.6467" y2="20.5448" gradientUnits="userSpaceOnUse">
<stop stop-color="#FFDECF"/>
<stop offset="0.3791" stop-color="#FDC4B0"/>
<stop offset="0.7655" stop-color="#FBAE97"/>
<stop offset="1" stop-color="#FAA68E"/>
</linearGradient>
<linearGradient id="salads_paint73_linear" x1="64.9663" y1="10.4663" x2="67.7698" y2="14.3528" gradientUnits="userSpaceOnUse">
<stop stop-color="#FFDECF"/>
<stop offset="0.3791" stop-color="#FDC4B0"/>
<stop offset="0.7655" stop-color="#FBAE97"/>
<stop offset="1" stop-color="#FAA68E"/>
</linearGradient>
<linearGradient id="salads_paint74_linear" x1="62.1656" y1="21.1227" x2="64.3788" y2="24.1909" gradientUnits="userSpaceOnUse">
<stop stop-color="#FFDECF"/>
<stop offset="0.3791" stop-color="#FDC4B0"/>
<stop offset="0.7655" stop-color="#FBAE97"/>
<stop offset="1" stop-color="#FAA68E"/>
</linearGradient>
<linearGradient id="salads_paint75_linear" x1="60.7049" y1="17.0331" x2="62.039" y2="18.8828" gradientUnits="userSpaceOnUse">
<stop stop-color="#FFDECF"/>
<stop offset="0.3791" stop-color="#FDC4B0"/>
<stop offset="0.7655" stop-color="#FBAE97"/>
<stop offset="1" stop-color="#FAA68E"/>
</linearGradient>
<linearGradient id="salads_paint76_linear" x1="71.6758" y1="12.4207" x2="74.4793" y2="16.3075" gradientUnits="userSpaceOnUse">
<stop stop-color="#FFDECF"/>
<stop offset="0.3791" stop-color="#FDC4B0"/>
<stop offset="0.7655" stop-color="#FBAE97"/>
<stop offset="1" stop-color="#FAA68E"/>
</linearGradient>
<linearGradient id="salads_paint77_linear" x1="70.6658" y1="10.441" x2="72.8793" y2="13.5092" gradientUnits="userSpaceOnUse">
<stop stop-color="#FFDECF"/>
<stop offset="0.3791" stop-color="#FDC4B0"/>
<stop offset="0.7655" stop-color="#FBAE97"/>
<stop offset="1" stop-color="#FAA68E"/>
</linearGradient>
<linearGradient id="salads_paint78_linear" x1="68.5968" y1="10.6905" x2="69.9312" y2="12.5402" gradientUnits="userSpaceOnUse">
<stop stop-color="#FFDECF"/>
<stop offset="0.3791" stop-color="#FDC4B0"/>
<stop offset="0.7655" stop-color="#FBAE97"/>
<stop offset="1" stop-color="#FAA68E"/>
</linearGradient>
<linearGradient id="salads_paint79_linear" x1="65.2015" y1="18.1066" x2="67.2733" y2="20.979" gradientUnits="userSpaceOnUse">
<stop stop-color="#FFDECF"/>
<stop offset="0.3791" stop-color="#FDC4B0"/>
<stop offset="0.7655" stop-color="#FBAE97"/>
<stop offset="1" stop-color="#FAA68E"/>
</linearGradient>
<linearGradient id="salads_paint80_linear" x1="68.192" y1="12.7754" x2="69.8276" y2="15.0428" gradientUnits="userSpaceOnUse">
<stop stop-color="#FFDECF"/>
<stop offset="0.3791" stop-color="#FDC4B0"/>
<stop offset="0.7655" stop-color="#FBAE97"/>
<stop offset="1" stop-color="#FAA68E"/>
</linearGradient>
<linearGradient id="salads_paint81_linear" x1="65.8461" y1="13.6519" x2="66.8322" y2="15.0189" gradientUnits="userSpaceOnUse">
<stop stop-color="#FFDECF"/>
<stop offset="0.3791" stop-color="#FDC4B0"/>
<stop offset="0.7655" stop-color="#FBAE97"/>
<stop offset="1" stop-color="#FAA68E"/>
</linearGradient>
</defs>
</svg>
