<svg width="147" height="150" viewBox="0 0 147 150" fill="none" xmlns="http://www.w3.org/2000/svg">
<path d="M143.9 96.3586C146.24 95.1436 147.023 91.908 145.093 89.7515L65.6847 1.00064C64.1777 -0.683775 61.8197 -0.797893 60.1615 0.295637L41.4894 11.3765C40.5221 11.8815 24.0465 90.9456 23.0082 102.984C22.8156 105.219 24.3915 107.217 26.61 107.551C39.7553 109.531 57.8356 109.103 77.3459 109.103C94.9612 109.103 110.777 109.755 123.426 108.106C124.108 108.017 124.713 107.779 125.228 107.439L143.9 96.3586Z" fill="url(#sandwich_paint0_linear)"/>
<path d="M145.092 89.7511L131.31 74.3467L114.381 91.2752L125.204 107.453C125.211 107.448 125.22 107.444 125.227 107.439L143.899 96.3585C146.239 95.1435 147.022 91.9079 145.092 89.7511Z" fill="url(#sandwich_paint1_linear)"/>
<path d="M51.4022 9.63031C37.0637 22.3309 116.436 111.942 130.775 99.2421C133.248 97.0524 132.932 92.575 130.646 86.7306C129.815 84.6077 129.462 82.2841 129.663 79.9018L129.684 79.6462C130.121 74.4662 127.467 69.8774 122.887 67.8947L122.883 67.8933C118.971 66.1997 116.415 62.5818 116.065 58.2415L116.032 57.8285C115.646 53.043 112.55 49.1912 107.995 47.8285L107.648 47.7244C103.464 46.473 100.485 43.1103 99.7469 38.8065L99.6852 38.4459C98.8816 33.7597 95.4313 30.2221 90.7269 29.2618L90.2349 29.1612C85.9925 28.295 82.7375 25.3227 81.5663 21.2453C80.1934 16.4662 75.9869 13.2724 70.8146 13.0818L70.4666 13.0688C68.0775 12.9809 65.8137 12.3491 63.8066 11.2685C58.2807 8.29413 53.8743 7.4406 51.4022 9.63031Z" fill="url(#sandwich_paint2_linear)"/>
<path d="M130.647 86.7312C129.814 84.6071 129.463 82.283 129.663 79.9018L129.684 79.645C130.119 74.4671 127.466 69.878 122.888 67.8944H122.882C118.972 66.2 116.415 62.5812 116.064 58.2409L116.031 57.83C115.645 53.0438 112.551 49.19 107.994 47.828L107.648 47.7253C103.465 46.4741 100.484 43.1094 99.7458 38.8068L99.6838 38.4474C99.1811 35.5071 97.6353 33.0206 95.3923 31.3397C97.1732 36.3421 96.0626 42.1418 92.06 46.1441L77.4973 60.7068C97.8858 84.4541 123.262 105.898 130.777 99.2412C133.246 97.0524 132.933 92.5741 130.647 86.7312Z" fill="url(#sandwich_paint3_linear)"/>
<path d="M63.5255 36.9255C70.6618 36.9255 76.4469 31.1403 76.4469 24.004C76.4469 16.8677 70.6618 11.0825 63.5255 11.0825C56.3891 11.0825 50.604 16.8677 50.604 24.004C50.604 31.1403 56.3891 36.9255 63.5255 36.9255Z" fill="url(#sandwich_paint4_linear)"/>
<path d="M105.392 81.3302C112.528 81.3302 118.313 75.5451 118.313 68.4088C118.313 61.2724 112.528 55.4873 105.392 55.4873C98.2552 55.4873 92.4701 61.2724 92.4701 68.4088C92.4701 75.5451 98.2552 81.3302 105.392 81.3302Z" fill="url(#sandwich_paint5_linear)"/>
<path d="M128.343 67.7138C122.803 62.1738 113.821 62.1738 108.281 67.7138C102.741 73.2538 102.741 82.2362 108.281 87.7762C113.821 93.3162 122.803 93.3162 128.343 87.7762C133.883 82.2362 133.884 73.2538 128.343 67.7138ZM111.942 84.115C108.425 80.5974 108.425 74.8927 111.942 71.375C115.46 67.8574 121.163 67.8588 124.681 71.3765C128.198 74.8941 128.2 80.5977 124.682 84.115C121.165 87.6327 115.46 87.6327 111.942 84.115Z" fill="url(#sandwich_paint6_linear)"/>
<path d="M109.968 86.089C114.576 90.6967 122.049 90.6967 126.656 86.089C131.265 81.4799 131.264 74.0085 126.656 69.4008C122.047 64.7917 114.577 64.7917 109.968 69.4008C105.36 74.0085 105.359 81.4799 109.968 86.089ZM124.683 71.3749C128.2 74.8926 128.2 80.5973 124.683 84.1149C121.165 87.6326 115.461 87.6311 111.944 84.1135C108.426 80.5958 108.425 74.8923 111.943 71.3749C115.46 67.8573 121.165 67.8573 124.683 71.3749Z" fill="url(#sandwich_paint7_linear)"/>
<path d="M92.0609 26.0809C86.5209 20.5409 77.5385 20.5409 71.9985 26.0809C66.4585 31.6209 66.4585 40.6033 71.9985 46.1433C77.5385 51.6833 86.5209 51.6833 92.0609 46.1433C97.6009 40.6033 97.6009 31.6209 92.0609 26.0809ZM75.6594 42.4821C72.1417 38.9644 72.1417 33.2597 75.6594 29.7421C79.177 26.2244 84.8806 26.2259 88.3979 29.7435C91.9153 33.2612 91.917 38.9647 88.3994 42.4824C84.882 45.9997 79.177 45.9997 75.6594 42.4821Z" fill="url(#sandwich_paint8_linear)"/>
<path d="M73.6852 44.4561C78.2928 49.0638 85.7658 49.0638 90.3734 44.4561C94.9825 39.847 94.9811 32.3755 90.3734 27.7679C85.7643 23.1588 78.2943 23.1588 73.6852 27.7679C69.0775 32.3755 69.0761 39.847 73.6852 44.4561ZM88.3996 29.742C91.9172 33.2596 91.9172 38.9643 88.3996 42.482C84.8819 45.9996 79.1784 45.9982 75.6611 42.4805C72.1434 38.9629 72.1419 33.2593 75.6596 29.742C79.1769 26.2243 84.8819 26.2243 88.3996 29.742Z" fill="url(#sandwich_paint9_linear)"/>
<path d="M121.777 93.9103L123.813 92.0518C126.761 89.3623 127.174 84.6162 124.779 80.5223C119.418 71.3606 109.937 58.8785 98.1676 45.9809C86.3982 33.0832 74.8337 22.5017 66.1999 16.327C62.3417 13.5679 57.5779 13.5465 54.6305 16.2359L52.5938 18.0944C51.1326 19.4276 51.6329 22.085 53.5967 23.36C62.4293 29.0938 75.2687 40.5735 88.3652 54.9256C101.462 69.2776 111.721 83.1115 116.625 92.4309C117.715 94.5029 120.316 95.2438 121.777 93.9103Z" fill="url(#sandwich_paint10_linear)"/>
<path d="M65.1119 31.572C68.5834 38.0614 73.8993 43.3776 80.3887 46.8488C81.4702 47.4273 82.7778 46.6438 82.7778 45.4173V33.5709C82.7778 31.1473 80.8131 29.1826 78.3896 29.1826H66.5434C65.3169 29.1829 64.5334 30.4906 65.1119 31.572Z" fill="url(#sandwich_paint11_linear)"/>
<path d="M49.0417 12.7182C41.7196 19.2038 121.092 108.815 128.415 102.33C129.677 101.211 128.361 97.6208 125.282 92.4785C124.163 90.6105 123.343 88.7008 122.91 86.88L122.863 86.6847C121.922 82.7249 118.881 78.4788 115.076 75.8102L115.073 75.8082C111.822 73.5288 109.088 70.0682 107.78 66.5767L107.655 66.2446C106.213 62.3949 103.031 58.6199 99.3938 56.4441L99.1158 56.2779C95.7755 54.2796 92.7964 50.9167 91.2158 47.3596L91.0835 47.0617C89.3623 43.1885 85.9988 39.5741 82.3511 37.6776L81.9696 37.4791C78.6802 35.7688 75.5958 32.6452 73.7552 29.1605C71.5982 25.0761 67.7691 21.5476 63.969 20.1417L63.7135 20.047C61.9582 19.3976 60.1617 18.352 58.4426 17.0164C53.7096 13.3399 50.3043 11.5999 49.0417 12.7182Z" fill="url(#sandwich_paint12_linear)"/>
<path d="M134.644 101.852L125.228 107.438C124.712 107.779 124.107 108.016 123.426 108.106C110.775 109.754 94.9604 105.29 77.3451 105.29C57.8354 105.29 39.7548 109.53 26.6098 107.552C24.3909 107.217 22.8154 105.219 23.0074 102.984C24.0451 90.9447 40.5227 11.8817 41.4901 11.3761L49.4598 6.64673L134.644 101.852Z" fill="url(#sandwich_paint13_linear)"/>
<path d="M134.644 101.852L125.228 107.438C124.712 107.779 124.107 108.016 123.426 108.106C110.775 109.754 94.6109 107.139 76.9959 107.139C57.4862 107.139 39.7548 109.53 26.6098 107.552C24.3909 107.217 22.8154 105.219 23.0074 102.984C24.0451 90.9447 40.5227 11.8817 41.4901 11.3761L49.4598 6.64673L134.644 101.852Z" fill="url(#sandwich_paint14_linear)"/>
<path d="M39.3843 13.96C28.0137 53.0309 48.5963 62.2729 47.5581 74.3114C47.3655 76.5467 24.3907 107.217 26.6093 107.551C39.7546 109.531 57.5966 108.864 77.1069 108.864C94.7219 108.864 110.776 109.755 123.425 108.106C126.818 107.663 128.329 103.604 126.047 101.053L46.639 12.3029C44.4102 9.81203 40.3181 10.7509 39.3843 13.96Z" fill="url(#sandwich_paint15_linear)"/>
<path d="M23.0073 102.984C22.8146 105.219 24.3905 107.217 26.609 107.551C39.7543 109.531 57.4855 110.744 76.9958 110.744C94.6111 110.744 110.776 109.755 123.425 108.106C126.818 107.663 128.329 103.604 126.047 101.054L105.192 77.745H25.9396C24.3052 89.2353 23.422 98.175 23.0073 102.984Z" fill="url(#sandwich_paint16_linear)"/>
<g opacity="0.6">
<g opacity="0.6">
<path opacity="0.6" d="M51.1111 31.2153C52.3693 31.2153 53.3893 30.1953 53.3893 28.937C53.3893 27.6788 52.3693 26.6588 51.1111 26.6588C49.8529 26.6588 48.8329 27.6788 48.8329 28.937C48.8329 30.1953 49.8529 31.2153 51.1111 31.2153Z" fill="url(#sandwich_paint17_linear)"/>
<path opacity="0.6" d="M44.2011 32.9379C45.1944 32.9379 45.9996 32.1326 45.9996 31.1393C45.9996 30.146 45.1944 29.3408 44.2011 29.3408C43.2078 29.3408 42.4026 30.146 42.4026 31.1393C42.4026 32.1326 43.2078 32.9379 44.2011 32.9379Z" fill="url(#sandwich_paint18_linear)"/>
<path opacity="0.6" d="M49.5908 38.1129C50.1896 38.1129 50.6749 37.6276 50.6749 37.0288C50.6749 36.4301 50.1896 35.9447 49.5908 35.9447C48.9921 35.9447 48.5067 36.4301 48.5067 37.0288C48.5067 37.6276 48.9921 38.1129 49.5908 38.1129Z" fill="url(#sandwich_paint19_linear)"/>
</g>
<g opacity="0.6">
<path opacity="0.6" d="M35.7355 94.8267C36.9937 94.8267 38.0137 93.8067 38.0137 92.5485C38.0137 91.2903 36.9937 90.2703 35.7355 90.2703C34.4773 90.2703 33.4573 91.2903 33.4573 92.5485C33.4573 93.8067 34.4773 94.8267 35.7355 94.8267Z" fill="url(#sandwich_paint20_linear)"/>
<path opacity="0.6" d="M36.1459 101.588C37.1392 101.588 37.9445 100.782 37.9445 99.7891C37.9445 98.7958 37.1392 97.9906 36.1459 97.9906C35.1526 97.9906 34.3474 98.7958 34.3474 99.7891C34.3474 100.782 35.1526 101.588 36.1459 101.588Z" fill="url(#sandwich_paint21_linear)"/>
<path opacity="0.6" d="M43.1929 97.1221C43.7916 97.1221 44.277 96.6367 44.277 96.038C44.277 95.4392 43.7916 94.9539 43.1929 94.9539C42.5941 94.9539 42.1088 95.4392 42.1088 96.038C42.1088 96.6367 42.5941 97.1221 43.1929 97.1221Z" fill="url(#sandwich_paint22_linear)"/>
</g>
<g opacity="0.6">
<path opacity="0.6" d="M59.7512 39.1868C60.6808 39.1868 61.4345 38.4332 61.4345 37.5035C61.4345 36.5739 60.6808 35.8203 59.7512 35.8203C58.8216 35.8203 58.068 36.5739 58.068 37.5035C58.068 38.4332 58.8216 39.1868 59.7512 39.1868Z" fill="url(#sandwich_paint23_linear)"/>
<path opacity="0.6" d="M55.1341 36.1121C55.868 36.1121 56.4629 35.5172 56.4629 34.7833C56.4629 34.0494 55.868 33.4545 55.1341 33.4545C54.4002 33.4545 53.8053 34.0494 53.8053 34.7833C53.8053 35.5172 54.4002 36.1121 55.1341 36.1121Z" fill="url(#sandwich_paint24_linear)"/>
<path opacity="0.6" d="M54.546 41.4538C54.9885 41.4538 55.3472 41.0951 55.3472 40.6526C55.3472 40.2101 54.9885 39.8514 54.546 39.8514C54.1036 39.8514 53.7449 40.2101 53.7449 40.6526C53.7449 41.0951 54.1036 41.4538 54.546 41.4538Z" fill="url(#sandwich_paint25_linear)"/>
</g>
<g opacity="0.6">
<path opacity="0.6" d="M98.3767 98.9676C99.3063 98.9676 100.06 98.2139 100.06 97.2843C100.06 96.3547 99.3063 95.6011 98.3767 95.6011C97.4471 95.6011 96.6935 96.3547 96.6935 97.2843C96.6935 98.2139 97.4471 98.9676 98.3767 98.9676Z" fill="url(#sandwich_paint26_linear)"/>
<path opacity="0.6" d="M93.7596 95.8929C94.4935 95.8929 95.0884 95.2979 95.0884 94.5641C95.0884 93.8302 94.4935 93.2352 93.7596 93.2352C93.0257 93.2352 92.4308 93.8302 92.4308 94.5641C92.4308 95.2979 93.0257 95.8929 93.7596 95.8929Z" fill="url(#sandwich_paint27_linear)"/>
<path opacity="0.6" d="M93.1715 101.235C93.614 101.235 93.9727 100.876 93.9727 100.434C93.9727 99.9913 93.614 99.6326 93.1715 99.6326C92.7291 99.6326 92.3704 99.9913 92.3704 100.434C92.3704 100.876 92.7291 101.235 93.1715 101.235Z" fill="url(#sandwich_paint28_linear)"/>
</g>
</g>
<path d="M109.644 61.7348C109.074 61.9307 108.772 62.5507 108.968 63.1198C109.164 63.6889 109.784 63.9916 110.353 63.7957C110.922 63.5998 111.224 62.9798 111.029 62.4107C110.833 61.8416 110.213 61.5389 109.644 61.7348Z" fill="#FFEAA2"/>
<path d="M112.557 63.8571C112.712 64.3065 113.202 64.5453 113.651 64.3906C114.1 64.2359 114.339 63.7465 114.185 63.2971C114.03 62.8477 113.54 62.6088 113.091 62.7635C112.642 62.9182 112.403 63.4077 112.557 63.8571Z" fill="#FFEAA2"/>
<path d="M114.93 59.9342C115.023 60.2051 115.318 60.3492 115.589 60.256C115.86 60.1627 116.004 59.8677 115.911 59.5968C115.817 59.326 115.523 59.1818 115.252 59.2751C114.981 59.3683 114.837 59.6633 114.93 59.9342Z" fill="#FFEAA2"/>
<path d="M107.127 52.812C107.555 53.2353 108.245 53.2315 108.668 52.8035C109.091 52.3756 109.087 51.6856 108.659 51.2623C108.232 50.8391 107.542 50.8429 107.118 51.2709C106.695 51.6988 106.699 52.3888 107.127 52.812Z" fill="#FFEAA2"/>
<path d="M96.0136 47.187C96.3516 47.5211 96.8963 47.5182 97.2304 47.1803C97.5645 46.8423 97.5616 46.2976 97.2236 45.9635C96.8857 45.6294 96.341 45.6323 96.0068 45.9703C95.6727 46.3082 95.676 46.8529 96.0136 47.187Z" fill="#FFEAA2"/>
<path d="M102.076 52.4063C102.28 52.6077 102.608 52.606 102.81 52.4021C103.011 52.1983 103.01 51.8701 102.806 51.6686C102.602 51.4671 102.274 51.4689 102.072 51.6727C101.871 51.8763 101.873 52.2048 102.076 52.4063Z" fill="#FFEAA2"/>
<path d="M111.431 58.6924C111.815 58.9162 112.309 58.7865 112.533 58.4021C112.756 58.018 112.627 57.5248 112.242 57.3009C111.858 57.0771 111.365 57.2068 111.141 57.5912C110.917 57.9753 111.047 58.4683 111.431 58.6924Z" fill="#FFEAA2"/>
<path d="M109.238 59.7194C109.541 59.8961 109.93 59.7935 110.107 59.4903C110.284 59.187 110.181 58.7976 109.878 58.6209C109.575 58.4441 109.185 58.5467 109.009 58.85C108.832 59.1532 108.934 59.5426 109.238 59.7194Z" fill="#FFEAA2"/>
<path d="M111.976 60.5753C111.793 60.4689 111.558 60.5306 111.452 60.7136C111.345 60.8965 111.407 61.1312 111.59 61.2377C111.773 61.3442 112.008 61.2824 112.114 61.0994C112.22 60.9168 112.158 60.6821 111.976 60.5753Z" fill="#FFEAA2"/>
<path d="M87.631 41.9086C87.0619 42.1045 86.7592 42.7245 86.9551 43.2936C87.151 43.8627 87.771 44.1654 88.3401 43.9695C88.9092 43.7736 89.2119 43.1536 89.016 42.5845C88.8201 42.0157 88.2001 41.713 87.631 41.9086Z" fill="#FFEAA2"/>
<path d="M97.8855 51.2274C98.0402 51.6768 98.5296 51.9157 98.979 51.761C99.4284 51.6063 99.6672 51.1168 99.5125 50.6674C99.3578 50.218 98.8684 49.9792 98.419 50.1339C97.9699 50.2886 97.7308 50.778 97.8855 51.2274Z" fill="#FFEAA2"/>
<path d="M95.6476 43.0511C95.7409 43.322 96.0359 43.4661 96.3067 43.3729C96.5776 43.2797 96.7217 42.9847 96.6285 42.7138C96.5353 42.4429 96.2403 42.2988 95.9694 42.392C95.6985 42.4853 95.5544 42.7805 95.6476 43.0511Z" fill="#FFEAA2"/>
<path d="M84.2986 36.7815C84.7265 37.2048 85.4165 37.2009 85.8397 36.773C86.263 36.345 86.2592 35.655 85.8312 35.2318C85.4033 34.8086 84.7133 34.8124 84.29 35.2403C83.8668 35.6683 83.8706 36.3583 84.2986 36.7815Z" fill="#FFEAA2"/>
<path d="M83.3934 37.9266C83.0593 38.2645 83.0623 38.8092 83.4002 39.1433C83.7381 39.4775 84.2828 39.4745 84.617 39.1366C84.9511 38.7986 84.9481 38.2539 84.6102 37.9198C84.2722 37.5857 83.7275 37.5889 83.3934 37.9266Z" fill="#FFEAA2"/>
<path d="M85.1173 40.9622C85.3212 41.1636 85.6494 41.1619 85.8508 40.9581C86.0523 40.7545 86.0506 40.426 85.8467 40.2245C85.6429 40.023 85.3147 40.0248 85.1132 40.2286C84.912 40.4325 84.9138 40.761 85.1173 40.9622Z" fill="#FFEAA2"/>
<path d="M93.6913 38.6709C94.0754 38.8947 94.5686 38.765 94.7924 38.3806C95.0163 37.9965 94.8866 37.5033 94.5021 37.2794C94.118 37.0556 93.6248 37.1853 93.401 37.5697C93.1771 37.9541 93.3071 38.4471 93.6913 38.6709Z" fill="#FFEAA2"/>
<path d="M87.2255 39.8933C87.5288 40.0701 87.9182 39.9674 88.0949 39.6642C88.2717 39.361 88.169 38.9716 87.8658 38.7948C87.5626 38.618 87.1732 38.7207 86.9964 39.0239C86.8196 39.3274 86.922 39.7166 87.2255 39.8933Z" fill="#FFEAA2"/>
<path d="M89.9626 40.7495C89.7797 40.6431 89.545 40.7048 89.4385 40.8878C89.332 41.0707 89.3938 41.3054 89.5767 41.4119C89.7597 41.5183 89.9944 41.4566 90.1008 41.2736C90.2073 41.0907 90.1455 40.856 89.9626 40.7495Z" fill="#FFEAA2"/>
<path d="M39.384 13.96C28.0134 53.0309 24.0455 90.9453 23.0073 102.984C22.8146 105.219 24.3905 107.216 26.609 107.551C39.7543 109.53 57.4855 110.744 76.9958 110.744C94.6108 110.744 110.776 109.754 123.425 108.105C126.818 107.663 128.329 103.604 126.047 101.053L46.6387 12.3029C44.4099 9.81203 40.3179 10.7509 39.384 13.96Z" fill="url(#sandwich_paint29_linear)"/>
<path d="M121.679 135.198C124.019 133.983 124.803 130.747 122.873 128.591L43.4643 39.84C41.9572 38.1556 39.5993 38.0415 37.9411 39.135L19.269 50.2159C18.3017 50.7209 17.5131 51.6021 17.1643 52.7997C5.79371 91.8706 1.82577 129.785 0.787532 141.823C0.594885 144.059 2.17077 146.056 4.3893 146.39C17.5346 148.37 35.2661 149.584 54.7761 149.584C72.3914 149.584 88.5561 148.594 101.205 146.945C101.888 146.856 102.493 146.619 103.007 146.279L121.679 135.198Z" fill="url(#sandwich_paint30_linear)"/>
<path d="M122.873 128.591L109.09 113.186L92.1616 130.115L102.985 146.292C102.992 146.287 103 146.284 103.008 146.279L121.68 135.198C124.02 133.983 124.803 130.747 122.873 128.591Z" fill="url(#sandwich_paint31_linear)"/>
<path d="M29.1827 48.4697C14.8438 61.1703 94.2168 150.782 108.555 138.081C111.028 135.892 110.712 131.414 108.426 125.57C107.596 123.447 107.242 121.123 107.443 118.741L107.464 118.486C107.901 113.306 105.247 108.717 100.667 106.734L100.664 106.733C96.7509 105.039 94.195 101.421 93.8453 97.0808L93.8121 96.6679C93.4262 91.8823 90.3306 88.0306 85.7756 86.6679L85.4277 86.5638C81.2441 85.3123 78.265 81.9497 77.5271 77.6458L77.4653 77.2853C76.6618 72.5991 73.2115 69.0614 68.5071 68.1011L68.015 68.0005C63.7727 67.1344 60.5177 64.162 59.3465 60.0847C57.9736 55.3055 53.7671 52.1117 48.5947 51.9211L48.2468 51.9082C45.8577 51.8203 43.5938 51.1885 41.5868 50.1079C36.0609 47.1335 31.6547 46.28 29.1827 48.4697Z" fill="url(#sandwich_paint32_linear)"/>
<path d="M108.427 125.571C107.595 123.446 107.243 121.122 107.443 118.741L107.465 118.484C107.9 113.306 105.246 108.717 100.668 106.734H100.663C96.7523 105.039 94.1958 101.421 93.8443 97.0803L93.812 96.6694C93.4255 91.8832 90.3311 88.0294 85.7746 86.6673L85.4287 86.5647C81.2452 85.3135 78.2643 81.9488 77.5264 77.6461L77.4643 77.2867C76.9617 74.3464 75.4158 71.86 73.1728 70.1791C74.9537 75.1814 73.8431 80.9811 69.8405 84.9835L55.2778 99.5461C75.6664 123.293 101.042 144.737 108.557 138.081C111.027 135.892 110.713 131.413 108.427 125.571Z" fill="url(#sandwich_paint33_linear)"/>
<path d="M41.3058 75.7649C48.4421 75.7649 54.2272 69.9798 54.2272 62.8435C54.2272 55.7071 48.4421 49.922 41.3058 49.922C34.1694 49.922 28.3843 55.7071 28.3843 62.8435C28.3843 69.9798 34.1694 75.7649 41.3058 75.7649Z" fill="url(#sandwich_paint34_linear)"/>
<path d="M83.1718 120.17C90.3082 120.17 96.0933 114.385 96.0933 107.248C96.0933 100.112 90.3082 94.3268 83.1718 94.3268C76.0355 94.3268 70.2504 100.112 70.2504 107.248C70.2504 114.385 76.0355 120.17 83.1718 120.17Z" fill="url(#sandwich_paint35_linear)"/>
<path d="M106.124 106.553C100.584 101.013 91.6016 101.013 86.0616 106.553C80.5216 112.093 80.5216 121.076 86.0616 126.616C91.6016 132.156 100.584 132.156 106.124 126.616C111.664 121.076 111.664 112.093 106.124 106.553ZM89.7228 122.954C86.2052 119.437 86.2052 113.732 89.7228 110.214C93.2405 106.697 98.944 106.698 102.461 110.216C105.979 113.733 105.98 119.437 102.463 122.954C98.9452 126.472 93.2405 126.472 89.7228 122.954Z" fill="url(#sandwich_paint36_linear)"/>
<path d="M87.7486 124.929C92.3563 129.536 99.8292 129.536 104.437 124.929C109.046 120.319 109.045 112.848 104.437 108.24C99.8278 103.631 92.3578 103.631 87.7486 108.24C83.141 112.848 83.1395 120.319 87.7486 124.929ZM102.463 110.214C105.98 113.732 105.98 119.437 102.463 122.954C98.9451 126.472 93.2416 126.471 89.7242 122.953C86.2069 119.435 86.2051 113.732 89.7228 110.214C93.2404 106.697 98.9451 106.697 102.463 110.214Z" fill="url(#sandwich_paint37_linear)"/>
<path d="M69.8411 64.9204C64.3011 59.3804 55.3188 59.3804 49.7788 64.9204C44.2388 70.4604 44.2388 79.4427 49.7788 84.9827C55.3188 90.5227 64.3011 90.5227 69.8411 84.9827C75.3811 79.4427 75.3811 70.4604 69.8411 64.9204ZM53.44 81.3215C49.9223 77.8039 49.9223 72.0992 53.44 68.5816C56.9576 65.0639 62.6611 65.0654 66.1785 68.583C69.6961 72.1007 69.6976 77.8042 66.18 81.3218C62.6623 84.8392 56.9576 84.8392 53.44 81.3215Z" fill="url(#sandwich_paint38_linear)"/>
<path d="M51.4658 83.2956C56.0735 87.9032 63.5464 87.9032 68.154 83.2956C72.7632 78.6865 72.7617 71.215 68.154 66.6074C63.5449 61.9982 56.0749 61.9982 51.4658 66.6074C46.8582 71.215 46.8567 78.6865 51.4658 83.2956ZM66.1799 68.5815C69.6976 72.0991 69.6976 77.8038 66.1799 81.3215C62.6623 84.8391 56.9588 84.8376 53.4414 81.32C49.9238 77.8024 49.9223 72.0988 53.4399 68.5815C56.9576 65.0638 62.6626 65.0638 66.1799 68.5815Z" fill="url(#sandwich_paint39_linear)"/>
<path d="M99.5572 132.75L101.594 130.891C104.541 128.202 104.955 123.456 102.56 119.362C97.199 110.2 87.7175 97.718 75.9481 84.8203C64.1787 71.9227 52.6143 61.3412 43.9804 55.1665C40.1222 52.4074 35.3584 52.3859 32.411 55.0756L30.3743 56.9341C28.9131 58.2674 29.4134 60.9247 31.3772 62.1997C40.2099 67.9335 53.0493 79.4132 66.1457 93.7653C79.2422 108.117 89.5019 121.951 94.4054 131.271C95.4955 133.342 98.096 134.083 99.5572 132.75Z" fill="url(#sandwich_paint40_linear)"/>
<path d="M67.6819 76.4042C68.251 76.2083 68.5537 75.5883 68.3578 75.0192C68.1619 74.4501 67.5419 74.1474 66.9728 74.3433C66.4037 74.5392 66.101 75.1592 66.2969 75.7283C66.4925 76.2974 67.1128 76.6001 67.6819 76.4042Z" fill="#FFEAA2"/>
<path d="M64.7678 74.2818C64.6131 73.8324 64.1237 73.5936 63.6743 73.7483C63.2249 73.903 62.986 74.3924 63.1407 74.8418C63.2954 75.2912 63.7849 75.53 64.2343 75.3753C64.6837 75.2206 64.9225 74.7312 64.7678 74.2818Z" fill="#FFEAA2"/>
<path d="M62.3958 78.2048C62.3026 77.9339 62.0076 77.7897 61.7367 77.883C61.4658 77.9762 61.3217 78.2712 61.415 78.5421C61.5082 78.813 61.8032 78.9571 62.0741 78.8639C62.345 78.7709 62.4891 78.4756 62.3958 78.2048Z" fill="#FFEAA2"/>
<path d="M70.1989 85.3268C69.771 84.9036 69.081 84.9074 68.6577 85.3353C68.2345 85.7633 68.2383 86.4532 68.6662 86.8765C69.0942 87.2997 69.7842 87.2959 70.2074 86.868C70.631 86.44 70.6271 85.75 70.1989 85.3268Z" fill="#FFEAA2"/>
<path d="M81.312 90.9518C80.974 90.6177 80.4293 90.6206 80.0952 90.9585C79.7611 91.2965 79.764 91.8412 80.102 92.1753C80.4399 92.5094 80.9846 92.5065 81.3187 92.1685C81.6529 91.8306 81.6499 91.2859 81.312 90.9518Z" fill="#FFEAA2"/>
<path d="M75.2491 85.7329C75.0452 85.5315 74.717 85.5332 74.5155 85.7371C74.3141 85.9409 74.3158 86.2691 74.5196 86.4706C74.7235 86.6721 75.0517 86.6703 75.2532 86.4665C75.4547 86.2627 75.4529 85.9344 75.2491 85.7329Z" fill="#FFEAA2"/>
<path d="M65.8939 79.4466C65.5098 79.2227 65.0166 79.3524 64.7927 79.7369C64.5689 80.121 64.6986 80.6142 65.083 80.838C65.4672 81.0619 65.9604 80.9322 66.1842 80.5477C66.408 80.1636 66.278 79.6707 65.8939 79.4466Z" fill="#FFEAA2"/>
<path d="M68.0882 78.4194C67.7849 78.2427 67.3955 78.3453 67.2188 78.6486C67.042 78.9518 67.1446 79.3412 67.4479 79.518C67.7511 79.6947 68.1405 79.5921 68.3173 79.2888C68.494 78.9856 68.3914 78.5965 68.0882 78.4194Z" fill="#FFEAA2"/>
<path d="M65.35 77.5636C65.533 77.6701 65.7677 77.6083 65.8742 77.4254C65.9806 77.2424 65.9189 77.0077 65.7359 76.9013C65.553 76.7948 65.3183 76.8566 65.2118 77.0395C65.1053 77.2224 65.1671 77.4571 65.35 77.5636Z" fill="#FFEAA2"/>
<path d="M89.6941 96.2304C90.2633 96.0345 90.5659 95.4145 90.37 94.8454C90.1741 94.2762 89.5541 93.9736 88.985 94.1695C88.4159 94.3654 88.1132 94.9854 88.3091 95.5545C88.505 96.1236 89.125 96.4262 89.6941 96.2304Z" fill="#FFEAA2"/>
<path d="M79.4406 86.9116C79.2859 86.4622 78.7965 86.2233 78.3471 86.378C77.8977 86.5327 77.6589 87.0222 77.8136 87.4716C77.9683 87.921 78.4577 88.1598 78.9071 88.0051C79.3562 87.8504 79.595 87.361 79.4406 86.9116Z" fill="#FFEAA2"/>
<path d="M81.678 95.0877C81.5847 94.8168 81.2897 94.6727 81.0188 94.7659C80.748 94.8592 80.6038 95.1542 80.6971 95.425C80.7903 95.6959 81.0853 95.84 81.3562 95.7468C81.6271 95.6536 81.7712 95.3586 81.678 95.0877Z" fill="#FFEAA2"/>
<path d="M93.0268 101.357C92.5988 100.934 91.9088 100.938 91.4856 101.366C91.0624 101.794 91.0662 102.484 91.4941 102.907C91.9221 103.33 92.6121 103.327 93.0353 102.899C93.4585 102.471 93.4547 101.781 93.0268 101.357Z" fill="#FFEAA2"/>
<path d="M93.9319 100.212C94.266 99.8744 94.2631 99.3297 93.9251 98.9956C93.5872 98.6615 93.0425 98.6644 92.7084 99.0024C92.3743 99.3403 92.3772 99.885 92.7151 100.219C93.0531 100.553 93.5978 100.55 93.9319 100.212Z" fill="#FFEAA2"/>
<path d="M92.2082 97.1768C92.0043 96.9753 91.6761 96.9771 91.4746 97.1809C91.2732 97.3844 91.2749 97.713 91.4788 97.9144C91.6826 98.1159 92.0108 98.1141 92.2123 97.9103C92.4138 97.7065 92.412 97.3783 92.2082 97.1768Z" fill="#FFEAA2"/>
<path d="M83.634 99.468C83.2499 99.2442 82.7567 99.3739 82.5329 99.7583C82.309 100.142 82.4387 100.636 82.8232 100.86C83.2073 101.083 83.7005 100.954 83.9243 100.569C84.1482 100.185 84.0184 99.6919 83.634 99.468Z" fill="#FFEAA2"/>
<path d="M90.1007 98.2456C89.7975 98.0688 89.4081 98.1715 89.2313 98.4747C89.0546 98.778 89.1572 99.1674 89.4604 99.3441C89.7637 99.5209 90.1531 99.4183 90.3298 99.115C90.5066 98.8118 90.404 98.4224 90.1007 98.2456Z" fill="#FFEAA2"/>
<path d="M87.3629 97.3898C87.5458 97.4962 87.7805 97.4345 87.887 97.2515C87.9934 97.0686 87.9317 96.8339 87.7487 96.7274C87.5658 96.621 87.3311 96.6827 87.2246 96.8657C87.1179 97.0483 87.1799 97.283 87.3629 97.3898Z" fill="#FFEAA2"/>
<path d="M42.8928 70.4115C46.3643 76.9009 51.6802 82.2168 58.1696 85.6883C59.251 86.2668 60.5587 85.4833 60.5587 84.2568V72.4103C60.5587 69.9868 58.594 68.0221 56.1705 68.0221H44.324C43.0978 68.0224 42.3143 69.33 42.8928 70.4115Z" fill="url(#sandwich_paint41_linear)"/>
<path d="M26.8222 51.5577C19.5002 58.0432 98.8728 147.655 106.195 141.169C107.458 140.051 106.141 136.46 103.063 131.318C101.944 129.45 101.123 127.54 100.69 125.719L100.644 125.524C99.7025 121.565 96.6616 117.318 92.856 114.65L92.8531 114.648C89.6022 112.369 86.8684 108.908 85.5602 105.416L85.4357 105.084C83.9934 101.235 80.811 97.4597 77.1743 95.2838L76.8963 95.1177C73.556 93.1194 70.5769 89.7565 68.9963 86.1994L68.864 85.9015C67.1428 82.0282 63.7793 78.4138 60.1316 76.5174L59.7502 76.3188C56.4607 74.6085 53.3763 71.485 51.5357 68.0003C49.3787 63.9159 45.5496 60.3874 41.7496 58.9815L41.494 58.8868C39.7387 58.2374 37.9422 57.1918 36.2231 55.8562C31.4899 52.1794 28.0846 50.4394 26.8222 51.5577Z" fill="url(#sandwich_paint42_linear)"/>
<path d="M112.425 140.691L103.01 146.278C102.493 146.618 101.888 146.856 101.207 146.945C88.5564 148.594 72.3926 149.583 54.7773 149.583C35.2676 149.583 17.5361 148.369 4.39114 146.391C2.17231 146.056 0.596726 144.059 0.788785 141.824C1.82643 129.784 5.79673 91.87 17.1661 52.7994C17.5147 51.602 18.3038 50.7212 19.2714 50.2159L27.2411 45.4865L112.425 140.691Z" fill="url(#sandwich_paint43_linear)"/>
<path d="M112.425 140.691L103.01 146.278C102.493 146.618 101.888 146.856 101.207 146.945C88.5564 148.594 72.3926 149.583 54.7773 149.583C35.2676 149.583 17.5361 148.369 4.39114 146.391C2.17231 146.056 0.596726 144.059 0.788785 141.824C1.82643 129.784 6.67908 93.0465 18.0485 53.9759C18.397 52.7785 19.1861 51.8976 20.1538 51.3923L27.2411 45.4865L112.425 140.691Z" fill="url(#sandwich_paint44_linear)"/>
<path d="M17.1653 52.7995C5.79469 91.8703 1.82674 129.785 0.788509 141.823C0.595862 144.058 2.17174 146.056 4.39027 146.39C17.5353 148.37 35.2667 149.584 54.7767 149.584C72.3917 149.584 88.5568 148.594 101.206 146.945C104.599 146.503 106.11 142.443 103.828 139.893L24.4197 51.1424C22.1912 48.6515 18.0991 49.5903 17.1653 52.7995Z" fill="url(#sandwich_paint45_linear)"/>
<path d="M0.788509 141.823C0.595862 144.058 2.17174 146.056 4.39027 146.39C17.5353 148.37 35.2667 149.584 54.7767 149.584C72.392 149.584 88.5568 148.594 101.206 146.945C104.599 146.503 106.11 142.443 103.828 139.893L82.9729 116.584L5.14469 116.73C3.50998 128.22 1.20321 137.014 0.788509 141.823Z" fill="url(#sandwich_paint46_linear)"/>
<g opacity="0.6">
<g opacity="0.6">
<path opacity="0.6" d="M28.8918 70.0546C30.15 70.0546 31.17 69.0346 31.17 67.7764C31.17 66.5182 30.15 65.4982 28.8918 65.4982C27.6335 65.4982 26.6135 66.5182 26.6135 67.7764C26.6135 69.0346 27.6335 70.0546 28.8918 70.0546Z" fill="url(#sandwich_paint47_linear)"/>
<path opacity="0.6" d="M21.9818 71.7772C22.9751 71.7772 23.7803 70.972 23.7803 69.9787C23.7803 68.9854 22.9751 68.1802 21.9818 68.1802C20.9885 68.1802 20.1832 68.9854 20.1832 69.9787C20.1832 70.972 20.9885 71.7772 21.9818 71.7772Z" fill="url(#sandwich_paint48_linear)"/>
<path opacity="0.6" d="M27.3711 76.9523C27.9698 76.9523 28.4552 76.4669 28.4552 75.8682C28.4552 75.2694 27.9698 74.7841 27.3711 74.7841C26.7724 74.7841 26.287 75.2694 26.287 75.8682C26.287 76.4669 26.7724 76.9523 27.3711 76.9523Z" fill="url(#sandwich_paint49_linear)"/>
</g>
<g opacity="0.6">
<path opacity="0.6" d="M13.5162 133.666C14.7744 133.666 15.7944 132.646 15.7944 131.388C15.7944 130.13 14.7744 129.11 13.5162 129.11C12.2579 129.11 11.2379 130.13 11.2379 131.388C11.2379 132.646 12.2579 133.666 13.5162 133.666Z" fill="url(#sandwich_paint50_linear)"/>
<path opacity="0.6" d="M13.9263 140.427C14.9196 140.427 15.7249 139.622 15.7249 138.628C15.7249 137.635 14.9196 136.83 13.9263 136.83C12.933 136.83 12.1278 137.635 12.1278 138.628C12.1278 139.622 12.933 140.427 13.9263 140.427Z" fill="url(#sandwich_paint51_linear)"/>
<path opacity="0.6" d="M20.9735 135.961C21.5723 135.961 22.0576 135.476 22.0576 134.877C22.0576 134.279 21.5723 133.793 20.9735 133.793C20.3748 133.793 19.8894 134.279 19.8894 134.877C19.8894 135.476 20.3748 135.961 20.9735 135.961Z" fill="url(#sandwich_paint52_linear)"/>
</g>
<g opacity="0.6">
<path opacity="0.6" d="M37.5319 78.0258C38.4615 78.0258 39.2151 77.2722 39.2151 76.3425C39.2151 75.4129 38.4615 74.6593 37.5319 74.6593C36.6022 74.6593 35.8486 75.4129 35.8486 76.3425C35.8486 77.2722 36.6022 78.0258 37.5319 78.0258Z" fill="url(#sandwich_paint53_linear)"/>
<path opacity="0.6" d="M32.9145 74.9511C33.6484 74.9511 34.2433 74.3562 34.2433 73.6223C34.2433 72.8884 33.6484 72.2935 32.9145 72.2935C32.1806 72.2935 31.5857 72.8884 31.5857 73.6223C31.5857 74.3562 32.1806 74.9511 32.9145 74.9511Z" fill="url(#sandwich_paint54_linear)"/>
<path opacity="0.6" d="M32.3264 80.2932C32.7689 80.2932 33.1276 79.9345 33.1276 79.492C33.1276 79.0495 32.7689 78.6908 32.3264 78.6908C31.884 78.6908 31.5253 79.0495 31.5253 79.492C31.5253 79.9345 31.884 80.2932 32.3264 80.2932Z" fill="url(#sandwich_paint55_linear)"/>
</g>
<g opacity="0.6">
<path opacity="0.6" d="M76.1574 137.807C77.087 137.807 77.8406 137.053 77.8406 136.124C77.8406 135.194 77.087 134.441 76.1574 134.441C75.2277 134.441 74.4741 135.194 74.4741 136.124C74.4741 137.053 75.2277 137.807 76.1574 137.807Z" fill="url(#sandwich_paint56_linear)"/>
<path opacity="0.6" d="M71.5403 134.732C72.2741 134.732 72.8691 134.137 72.8691 133.404C72.8691 132.67 72.2741 132.075 71.5403 132.075C70.8064 132.075 70.2114 132.67 70.2114 133.404C70.2114 134.137 70.8064 134.732 71.5403 134.732Z" fill="url(#sandwich_paint57_linear)"/>
<path opacity="0.6" d="M70.9518 140.074C71.3943 140.074 71.753 139.715 71.753 139.273C71.753 138.831 71.3943 138.472 70.9518 138.472C70.5093 138.472 70.1506 138.831 70.1506 139.273C70.1506 139.715 70.5093 140.074 70.9518 140.074Z" fill="url(#sandwich_paint58_linear)"/>
</g>
</g>
<defs>
<linearGradient id="sandwich_paint0_linear" x1="105.677" y1="30.3118" x2="84.3268" y2="70.3095" gradientUnits="userSpaceOnUse">
<stop stop-color="#FFD945"/>
<stop offset="0.3043" stop-color="#FFCD3E"/>
<stop offset="0.8558" stop-color="#FFAD2B"/>
<stop offset="1" stop-color="#FFA325"/>
</linearGradient>
<linearGradient id="sandwich_paint1_linear" x1="137.913" y1="93.3137" x2="125.481" y2="90.2058" gradientUnits="userSpaceOnUse">
<stop stop-color="#F82814" stop-opacity="0"/>
<stop offset="0.2454" stop-color="#F12817" stop-opacity="0.245"/>
<stop offset="0.6052" stop-color="#DD2820" stop-opacity="0.605"/>
<stop offset="1" stop-color="#C0272D"/>
</linearGradient>
<linearGradient id="sandwich_paint2_linear" x1="104.247" y1="41.2782" x2="97.8228" y2="47.7021" gradientUnits="userSpaceOnUse">
<stop stop-color="#BADA00"/>
<stop offset="0.2269" stop-color="#B0CE00"/>
<stop offset="0.6378" stop-color="#95AE00"/>
<stop offset="1" stop-color="#798C00"/>
</linearGradient>
<linearGradient id="sandwich_paint3_linear" x1="109.708" y1="65.7856" x2="85.025" y2="63.6235" gradientUnits="userSpaceOnUse">
<stop stop-color="#798C00" stop-opacity="0"/>
<stop offset="0.6542" stop-color="#556100" stop-opacity="0.654"/>
<stop offset="1" stop-color="#464F00"/>
</linearGradient>
<linearGradient id="sandwich_paint4_linear" x1="65.8996" y1="13.6763" x2="62.2964" y2="29.351" gradientUnits="userSpaceOnUse">
<stop stop-color="#FF6359"/>
<stop offset="0.2243" stop-color="#FE5B50"/>
<stop offset="0.5952" stop-color="#FC4637"/>
<stop offset="1" stop-color="#F82814"/>
</linearGradient>
<linearGradient id="sandwich_paint5_linear" x1="107.766" y1="58.0808" x2="104.162" y2="73.7558" gradientUnits="userSpaceOnUse">
<stop stop-color="#FF6359"/>
<stop offset="0.2243" stop-color="#FE5B50"/>
<stop offset="0.5952" stop-color="#FC4637"/>
<stop offset="1" stop-color="#F82814"/>
</linearGradient>
<linearGradient id="sandwich_paint6_linear" x1="122.451" y1="65.471" x2="116.801" y2="81.9591" gradientUnits="userSpaceOnUse">
<stop stop-color="#FFDECF"/>
<stop offset="0.3791" stop-color="#FDC4B0"/>
<stop offset="0.7655" stop-color="#FBAE97"/>
<stop offset="1" stop-color="#FAA68E"/>
</linearGradient>
<linearGradient id="sandwich_paint7_linear" x1="114.925" y1="87.8093" x2="119.625" y2="74.0942" gradientUnits="userSpaceOnUse">
<stop stop-color="#FFDECF"/>
<stop offset="0.3791" stop-color="#FDC4B0"/>
<stop offset="0.7655" stop-color="#FBAE97"/>
<stop offset="1" stop-color="#FAA68E"/>
</linearGradient>
<linearGradient id="sandwich_paint8_linear" x1="86.1733" y1="23.8443" x2="80.5237" y2="40.3322" gradientUnits="userSpaceOnUse">
<stop stop-color="#FFDECF"/>
<stop offset="0.3791" stop-color="#FDC4B0"/>
<stop offset="0.7655" stop-color="#FBAE97"/>
<stop offset="1" stop-color="#FAA68E"/>
</linearGradient>
<linearGradient id="sandwich_paint9_linear" x1="78.6475" y1="46.1827" x2="83.3472" y2="32.4675" gradientUnits="userSpaceOnUse">
<stop stop-color="#FFDECF"/>
<stop offset="0.3791" stop-color="#FDC4B0"/>
<stop offset="0.7655" stop-color="#FBAE97"/>
<stop offset="1" stop-color="#FAA68E"/>
</linearGradient>
<linearGradient id="sandwich_paint10_linear" x1="97.7765" y1="46.3422" x2="84.799" y2="58.1816" gradientUnits="userSpaceOnUse">
<stop stop-color="#A57C52"/>
<stop offset="0.1339" stop-color="#A26C4A"/>
<stop offset="0.5155" stop-color="#994336"/>
<stop offset="0.8174" stop-color="#942A2A"/>
<stop offset="1" stop-color="#922125"/>
</linearGradient>
<linearGradient id="sandwich_paint11_linear" x1="73.8478" y1="30.1785" x2="73.8478" y2="47.6679" gradientUnits="userSpaceOnUse">
<stop stop-color="#FFD945"/>
<stop offset="0.3043" stop-color="#FFCD3E"/>
<stop offset="0.8558" stop-color="#FFAD2B"/>
<stop offset="1" stop-color="#FFA325"/>
</linearGradient>
<linearGradient id="sandwich_paint12_linear" x1="95.7882" y1="51.1341" x2="90.9796" y2="55.4861" gradientUnits="userSpaceOnUse">
<stop stop-color="#BADA00"/>
<stop offset="0.2269" stop-color="#B0CE00"/>
<stop offset="0.6378" stop-color="#95AE00"/>
<stop offset="1" stop-color="#798C00"/>
</linearGradient>
<linearGradient id="sandwich_paint13_linear" x1="97.2165" y1="39.46" x2="78.303" y2="74.8926" gradientUnits="userSpaceOnUse">
<stop stop-color="#FFD945"/>
<stop offset="0.3043" stop-color="#FFCD3E"/>
<stop offset="0.8558" stop-color="#FFAD2B"/>
<stop offset="1" stop-color="#FFA325"/>
</linearGradient>
<linearGradient id="sandwich_paint14_linear" x1="89.433" y1="55.2467" x2="79.4292" y2="65.2506" gradientUnits="userSpaceOnUse">
<stop stop-color="#F82814" stop-opacity="0"/>
<stop offset="0.2918" stop-color="#EC2819" stop-opacity="0.292"/>
<stop offset="0.8165" stop-color="#CD2727" stop-opacity="0.817"/>
<stop offset="1" stop-color="#C0272D"/>
</linearGradient>
<linearGradient id="sandwich_paint15_linear" x1="41.8187" y1="37.2829" x2="86.6807" y2="124.305" gradientUnits="userSpaceOnUse">
<stop stop-color="#FAA68E"/>
<stop offset="0.2061" stop-color="#FBA682"/>
<stop offset="0.5808" stop-color="#FDA861"/>
<stop offset="1" stop-color="#FFA936"/>
</linearGradient>
<linearGradient id="sandwich_paint16_linear" x1="75.0634" y1="97.6712" x2="75.0634" y2="124.718" gradientUnits="userSpaceOnUse">
<stop stop-color="#F82814" stop-opacity="0"/>
<stop offset="0.2454" stop-color="#F12817" stop-opacity="0.245"/>
<stop offset="0.6052" stop-color="#DD2820" stop-opacity="0.605"/>
<stop offset="1" stop-color="#C0272D"/>
</linearGradient>
<linearGradient id="sandwich_paint17_linear" x1="51.1937" y1="32.1159" x2="51.946" y2="21.3626" gradientUnits="userSpaceOnUse">
<stop stop-color="#F82814" stop-opacity="0"/>
<stop offset="0.2454" stop-color="#F12817" stop-opacity="0.245"/>
<stop offset="0.6052" stop-color="#DD2820" stop-opacity="0.605"/>
<stop offset="1" stop-color="#C0272D"/>
</linearGradient>
<linearGradient id="sandwich_paint18_linear" x1="44.3365" y1="33.5889" x2="44.9305" y2="25.0997" gradientUnits="userSpaceOnUse">
<stop stop-color="#F82814" stop-opacity="0"/>
<stop offset="0.2454" stop-color="#F12817" stop-opacity="0.245"/>
<stop offset="0.6052" stop-color="#DD2820" stop-opacity="0.605"/>
<stop offset="1" stop-color="#C0272D"/>
</linearGradient>
<linearGradient id="sandwich_paint19_linear" x1="49.8" y1="38.3928" x2="50.1579" y2="33.2748" gradientUnits="userSpaceOnUse">
<stop stop-color="#F82814" stop-opacity="0"/>
<stop offset="0.2454" stop-color="#F12817" stop-opacity="0.245"/>
<stop offset="0.6052" stop-color="#DD2820" stop-opacity="0.605"/>
<stop offset="1" stop-color="#C0272D"/>
</linearGradient>
<linearGradient id="sandwich_paint20_linear" x1="39.6973" y1="93.4912" x2="29.4657" y2="90.0892" gradientUnits="userSpaceOnUse">
<stop stop-color="#F82814" stop-opacity="0"/>
<stop offset="0.2454" stop-color="#F12817" stop-opacity="0.245"/>
<stop offset="0.6052" stop-color="#DD2820" stop-opacity="0.605"/>
<stop offset="1" stop-color="#C0272D"/>
</linearGradient>
<linearGradient id="sandwich_paint21_linear" x1="39.4195" y1="100.501" x2="31.3422" y2="97.8153" gradientUnits="userSpaceOnUse">
<stop stop-color="#F82814" stop-opacity="0"/>
<stop offset="0.2454" stop-color="#F12817" stop-opacity="0.245"/>
<stop offset="0.6052" stop-color="#DD2820" stop-opacity="0.605"/>
<stop offset="1" stop-color="#C0272D"/>
</linearGradient>
<linearGradient id="sandwich_paint22_linear" x1="45.4323" y1="96.4024" x2="40.5626" y2="94.7829" gradientUnits="userSpaceOnUse">
<stop stop-color="#F82814" stop-opacity="0"/>
<stop offset="0.2454" stop-color="#F12817" stop-opacity="0.245"/>
<stop offset="0.6052" stop-color="#DD2820" stop-opacity="0.605"/>
<stop offset="1" stop-color="#C0272D"/>
</linearGradient>
<linearGradient id="sandwich_paint23_linear" x1="58.1891" y1="38.8637" x2="64.4815" y2="33.981" gradientUnits="userSpaceOnUse">
<stop stop-color="#F82814" stop-opacity="0"/>
<stop offset="0.2454" stop-color="#F12817" stop-opacity="0.245"/>
<stop offset="0.6052" stop-color="#DD2820" stop-opacity="0.605"/>
<stop offset="1" stop-color="#C0272D"/>
</linearGradient>
<linearGradient id="sandwich_paint24_linear" x1="54.0004" y1="35.8133" x2="58.9679" y2="31.9587" gradientUnits="userSpaceOnUse">
<stop stop-color="#F82814" stop-opacity="0"/>
<stop offset="0.2454" stop-color="#F12817" stop-opacity="0.245"/>
<stop offset="0.6052" stop-color="#DD2820" stop-opacity="0.605"/>
<stop offset="1" stop-color="#C0272D"/>
</linearGradient>
<linearGradient id="sandwich_paint25_linear" x1="54.0459" y1="41.1881" x2="57.0407" y2="38.8642" gradientUnits="userSpaceOnUse">
<stop stop-color="#F82814" stop-opacity="0"/>
<stop offset="0.2454" stop-color="#F12817" stop-opacity="0.245"/>
<stop offset="0.6052" stop-color="#DD2820" stop-opacity="0.605"/>
<stop offset="1" stop-color="#C0272D"/>
</linearGradient>
<linearGradient id="sandwich_paint26_linear" x1="96.7905" y1="98.6276" x2="103.083" y2="93.745" gradientUnits="userSpaceOnUse">
<stop stop-color="#F82814" stop-opacity="0"/>
<stop offset="0.2454" stop-color="#F12817" stop-opacity="0.245"/>
<stop offset="0.6052" stop-color="#DD2820" stop-opacity="0.605"/>
<stop offset="1" stop-color="#C0272D"/>
</linearGradient>
<linearGradient id="sandwich_paint27_linear" x1="92.6015" y1="95.577" x2="97.5691" y2="91.7224" gradientUnits="userSpaceOnUse">
<stop stop-color="#F82814" stop-opacity="0"/>
<stop offset="0.2454" stop-color="#F12817" stop-opacity="0.245"/>
<stop offset="0.6052" stop-color="#DD2820" stop-opacity="0.605"/>
<stop offset="1" stop-color="#C0272D"/>
</linearGradient>
<linearGradient id="sandwich_paint28_linear" x1="92.6473" y1="100.952" x2="95.6421" y2="98.6279" gradientUnits="userSpaceOnUse">
<stop stop-color="#F82814" stop-opacity="0"/>
<stop offset="0.2454" stop-color="#F12817" stop-opacity="0.245"/>
<stop offset="0.6052" stop-color="#DD2820" stop-opacity="0.605"/>
<stop offset="1" stop-color="#C0272D"/>
</linearGradient>
<linearGradient id="sandwich_paint29_linear" x1="81.6767" y1="61.2915" x2="64.3802" y2="81.8309" gradientUnits="userSpaceOnUse">
<stop stop-color="#FFD945"/>
<stop offset="0.3043" stop-color="#FFCD3E"/>
<stop offset="0.8558" stop-color="#FFAD2B"/>
<stop offset="1" stop-color="#FFA325"/>
</linearGradient>
<linearGradient id="sandwich_paint30_linear" x1="83.1378" y1="68.9809" x2="61.7878" y2="108.979" gradientUnits="userSpaceOnUse">
<stop stop-color="#FFD945"/>
<stop offset="0.3043" stop-color="#FFCD3E"/>
<stop offset="0.8558" stop-color="#FFAD2B"/>
<stop offset="1" stop-color="#FFA325"/>
</linearGradient>
<linearGradient id="sandwich_paint31_linear" x1="115.693" y1="132.153" x2="103.262" y2="129.045" gradientUnits="userSpaceOnUse">
<stop stop-color="#F82814" stop-opacity="0"/>
<stop offset="0.2454" stop-color="#F12817" stop-opacity="0.245"/>
<stop offset="0.6052" stop-color="#DD2820" stop-opacity="0.605"/>
<stop offset="1" stop-color="#C0272D"/>
</linearGradient>
<linearGradient id="sandwich_paint32_linear" x1="82.0268" y1="80.1176" x2="75.603" y2="86.5414" gradientUnits="userSpaceOnUse">
<stop stop-color="#BADA00"/>
<stop offset="0.2269" stop-color="#B0CE00"/>
<stop offset="0.6378" stop-color="#95AE00"/>
<stop offset="1" stop-color="#798C00"/>
</linearGradient>
<linearGradient id="sandwich_paint33_linear" x1="87.4884" y1="104.625" x2="62.8052" y2="102.463" gradientUnits="userSpaceOnUse">
<stop stop-color="#798C00" stop-opacity="0"/>
<stop offset="0.6542" stop-color="#556100" stop-opacity="0.654"/>
<stop offset="1" stop-color="#464F00"/>
</linearGradient>
<linearGradient id="sandwich_paint34_linear" x1="43.6802" y1="52.5158" x2="40.0766" y2="68.1905" gradientUnits="userSpaceOnUse">
<stop stop-color="#FF6359"/>
<stop offset="0.2243" stop-color="#FE5B50"/>
<stop offset="0.5952" stop-color="#FC4637"/>
<stop offset="1" stop-color="#F82814"/>
</linearGradient>
<linearGradient id="sandwich_paint35_linear" x1="85.5462" y1="96.9203" x2="81.9427" y2="112.595" gradientUnits="userSpaceOnUse">
<stop stop-color="#FF6359"/>
<stop offset="0.2243" stop-color="#FE5B50"/>
<stop offset="0.5952" stop-color="#FC4637"/>
<stop offset="1" stop-color="#F82814"/>
</linearGradient>
<linearGradient id="sandwich_paint36_linear" x1="100.234" y1="104.304" x2="94.5847" y2="120.792" gradientUnits="userSpaceOnUse">
<stop stop-color="#FFDECF"/>
<stop offset="0.3791" stop-color="#FDC4B0"/>
<stop offset="0.7655" stop-color="#FBAE97"/>
<stop offset="1" stop-color="#FAA68E"/>
</linearGradient>
<linearGradient id="sandwich_paint37_linear" x1="92.7088" y1="126.643" x2="97.4083" y2="112.928" gradientUnits="userSpaceOnUse">
<stop stop-color="#FFDECF"/>
<stop offset="0.3791" stop-color="#FDC4B0"/>
<stop offset="0.7655" stop-color="#FBAE97"/>
<stop offset="1" stop-color="#FAA68E"/>
</linearGradient>
<linearGradient id="sandwich_paint38_linear" x1="63.9571" y1="62.6778" x2="58.3074" y2="79.1659" gradientUnits="userSpaceOnUse">
<stop stop-color="#FFDECF"/>
<stop offset="0.3791" stop-color="#FDC4B0"/>
<stop offset="0.7655" stop-color="#FBAE97"/>
<stop offset="1" stop-color="#FAA68E"/>
</linearGradient>
<linearGradient id="sandwich_paint39_linear" x1="56.4314" y1="85.0162" x2="61.1311" y2="71.301" gradientUnits="userSpaceOnUse">
<stop stop-color="#FFDECF"/>
<stop offset="0.3791" stop-color="#FDC4B0"/>
<stop offset="0.7655" stop-color="#FBAE97"/>
<stop offset="1" stop-color="#FAA68E"/>
</linearGradient>
<linearGradient id="sandwich_paint40_linear" x1="75.5761" y1="85.206" x2="62.5984" y2="97.0454" gradientUnits="userSpaceOnUse">
<stop stop-color="#A57C52"/>
<stop offset="0.1339" stop-color="#A26C4A"/>
<stop offset="0.5155" stop-color="#994336"/>
<stop offset="0.8174" stop-color="#942A2A"/>
<stop offset="1" stop-color="#922125"/>
</linearGradient>
<linearGradient id="sandwich_paint41_linear" x1="51.629" y1="69.018" x2="51.629" y2="86.5074" gradientUnits="userSpaceOnUse">
<stop stop-color="#FFD945"/>
<stop offset="0.3043" stop-color="#FFCD3E"/>
<stop offset="0.8558" stop-color="#FFAD2B"/>
<stop offset="1" stop-color="#FFA325"/>
</linearGradient>
<linearGradient id="sandwich_paint42_linear" x1="73.5684" y1="89.9735" x2="68.7602" y2="94.3256" gradientUnits="userSpaceOnUse">
<stop stop-color="#BADA00"/>
<stop offset="0.2269" stop-color="#B0CE00"/>
<stop offset="0.6378" stop-color="#95AE00"/>
<stop offset="1" stop-color="#798C00"/>
</linearGradient>
<linearGradient id="sandwich_paint43_linear" x1="74.6791" y1="78.1291" x2="55.7656" y2="113.562" gradientUnits="userSpaceOnUse">
<stop stop-color="#FFD945"/>
<stop offset="0.3043" stop-color="#FFCD3E"/>
<stop offset="0.8558" stop-color="#FFAD2B"/>
<stop offset="1" stop-color="#FFA325"/>
</linearGradient>
<linearGradient id="sandwich_paint44_linear" x1="67.6606" y1="94.5323" x2="57.6567" y2="104.536" gradientUnits="userSpaceOnUse">
<stop stop-color="#F82814" stop-opacity="0"/>
<stop offset="0.2918" stop-color="#EC2819" stop-opacity="0.292"/>
<stop offset="0.8165" stop-color="#CD2727" stop-opacity="0.817"/>
<stop offset="1" stop-color="#C0272D"/>
</linearGradient>
<linearGradient id="sandwich_paint45_linear" x1="18.847" y1="76.5103" x2="63.7091" y2="163.532" gradientUnits="userSpaceOnUse">
<stop stop-color="#FFD945"/>
<stop offset="0.3043" stop-color="#FFCD3E"/>
<stop offset="0.8558" stop-color="#FFAD2B"/>
<stop offset="1" stop-color="#FFA325"/>
</linearGradient>
<linearGradient id="sandwich_paint46_linear" x1="52.8447" y1="136.511" x2="52.8447" y2="163.558" gradientUnits="userSpaceOnUse">
<stop stop-color="#F82814" stop-opacity="0"/>
<stop offset="0.2454" stop-color="#F12817" stop-opacity="0.245"/>
<stop offset="0.6052" stop-color="#DD2820" stop-opacity="0.605"/>
<stop offset="1" stop-color="#C0272D"/>
</linearGradient>
<linearGradient id="sandwich_paint47_linear" x1="28.977" y1="70.9422" x2="29.7294" y2="60.1887" gradientUnits="userSpaceOnUse">
<stop stop-color="#F82814" stop-opacity="0"/>
<stop offset="0.2454" stop-color="#F12817" stop-opacity="0.245"/>
<stop offset="0.6052" stop-color="#DD2820" stop-opacity="0.605"/>
<stop offset="1" stop-color="#C0272D"/>
</linearGradient>
<linearGradient id="sandwich_paint48_linear" x1="22.1197" y1="72.4147" x2="22.7137" y2="63.9256" gradientUnits="userSpaceOnUse">
<stop stop-color="#F82814" stop-opacity="0"/>
<stop offset="0.2454" stop-color="#F12817" stop-opacity="0.245"/>
<stop offset="0.6052" stop-color="#DD2820" stop-opacity="0.605"/>
<stop offset="1" stop-color="#C0272D"/>
</linearGradient>
<linearGradient id="sandwich_paint49_linear" x1="27.583" y1="77.2188" x2="27.9409" y2="72.1009" gradientUnits="userSpaceOnUse">
<stop stop-color="#F82814" stop-opacity="0"/>
<stop offset="0.2454" stop-color="#F12817" stop-opacity="0.245"/>
<stop offset="0.6052" stop-color="#DD2820" stop-opacity="0.605"/>
<stop offset="1" stop-color="#C0272D"/>
</linearGradient>
<linearGradient id="sandwich_paint50_linear" x1="17.5046" y1="132.345" x2="7.27304" y2="128.943" gradientUnits="userSpaceOnUse">
<stop stop-color="#F82814" stop-opacity="0"/>
<stop offset="0.2454" stop-color="#F12817" stop-opacity="0.245"/>
<stop offset="0.6052" stop-color="#DD2820" stop-opacity="0.605"/>
<stop offset="1" stop-color="#C0272D"/>
</linearGradient>
<linearGradient id="sandwich_paint51_linear" x1="17.2271" y1="139.354" x2="9.14962" y2="136.669" gradientUnits="userSpaceOnUse">
<stop stop-color="#F82814" stop-opacity="0"/>
<stop offset="0.2454" stop-color="#F12817" stop-opacity="0.245"/>
<stop offset="0.6052" stop-color="#DD2820" stop-opacity="0.605"/>
<stop offset="1" stop-color="#C0272D"/>
</linearGradient>
<linearGradient id="sandwich_paint52_linear" x1="23.2394" y1="135.256" x2="18.37" y2="133.636" gradientUnits="userSpaceOnUse">
<stop stop-color="#F82814" stop-opacity="0"/>
<stop offset="0.2454" stop-color="#F12817" stop-opacity="0.245"/>
<stop offset="0.6052" stop-color="#DD2820" stop-opacity="0.605"/>
<stop offset="1" stop-color="#C0272D"/>
</linearGradient>
<linearGradient id="sandwich_paint53_linear" x1="35.9721" y1="77.6847" x2="42.2646" y2="72.802" gradientUnits="userSpaceOnUse">
<stop stop-color="#F82814" stop-opacity="0"/>
<stop offset="0.2454" stop-color="#F12817" stop-opacity="0.245"/>
<stop offset="0.6052" stop-color="#DD2820" stop-opacity="0.605"/>
<stop offset="1" stop-color="#C0272D"/>
</linearGradient>
<linearGradient id="sandwich_paint54_linear" x1="31.7835" y1="74.634" x2="36.751" y2="70.7794" gradientUnits="userSpaceOnUse">
<stop stop-color="#F82814" stop-opacity="0"/>
<stop offset="0.2454" stop-color="#F12817" stop-opacity="0.245"/>
<stop offset="0.6052" stop-color="#DD2820" stop-opacity="0.605"/>
<stop offset="1" stop-color="#C0272D"/>
</linearGradient>
<linearGradient id="sandwich_paint55_linear" x1="31.829" y1="80.0089" x2="34.8238" y2="77.6849" gradientUnits="userSpaceOnUse">
<stop stop-color="#F82814" stop-opacity="0"/>
<stop offset="0.2454" stop-color="#F12817" stop-opacity="0.245"/>
<stop offset="0.6052" stop-color="#DD2820" stop-opacity="0.605"/>
<stop offset="1" stop-color="#C0272D"/>
</linearGradient>
<linearGradient id="sandwich_paint56_linear" x1="74.5735" y1="137.449" x2="80.866" y2="132.566" gradientUnits="userSpaceOnUse">
<stop stop-color="#F82814" stop-opacity="0"/>
<stop offset="0.2454" stop-color="#F12817" stop-opacity="0.245"/>
<stop offset="0.6052" stop-color="#DD2820" stop-opacity="0.605"/>
<stop offset="1" stop-color="#C0272D"/>
</linearGradient>
<linearGradient id="sandwich_paint57_linear" x1="70.3848" y1="134.398" x2="75.3521" y2="130.543" gradientUnits="userSpaceOnUse">
<stop stop-color="#F82814" stop-opacity="0"/>
<stop offset="0.2454" stop-color="#F12817" stop-opacity="0.245"/>
<stop offset="0.6052" stop-color="#DD2820" stop-opacity="0.605"/>
<stop offset="1" stop-color="#C0272D"/>
</linearGradient>
<linearGradient id="sandwich_paint58_linear" x1="70.4302" y1="139.773" x2="73.4251" y2="137.449" gradientUnits="userSpaceOnUse">
<stop stop-color="#F82814" stop-opacity="0"/>
<stop offset="0.2454" stop-color="#F12817" stop-opacity="0.245"/>
<stop offset="0.6052" stop-color="#DD2820" stop-opacity="0.605"/>
<stop offset="1" stop-color="#C0272D"/>
</linearGradient>
</defs>
</svg>
