<svg width="151" height="143" viewBox="0 0 151 143" fill="none" xmlns="http://www.w3.org/2000/svg">
<path d="M75.4728 133.131C56.8763 133.131 39.8098 131.298 26.4419 128.241C28.3651 133.306 31.9784 137.137 36.4337 138.363C46.489 141.13 60.2692 142.836 75.4728 142.836C90.6763 142.836 104.457 141.13 114.512 138.363C118.967 137.137 122.58 133.306 124.504 128.241C111.136 131.298 94.0692 133.131 75.4728 133.131Z" fill="url(#soups_paint0_linear)"/>
<path d="M150.473 118.768C150.473 144.48 0.4729 144.48 0.4729 118.768C0.4729 93.0555 150.473 93.0552 150.473 118.768Z" fill="url(#soups_paint1_linear)"/>
<path d="M140.178 116.882C140.178 135.214 10.7666 135.214 10.7666 116.882C10.7666 98.5503 140.178 98.5505 140.178 116.882Z" fill="url(#soups_paint2_linear)"/>
<path d="M150.473 118.768C150.473 99.8311 69.1164 94.8417 26.2358 103.798C28.6838 107.624 31.5117 111.224 34.6979 114.533L62.5973 142.416C66.7306 142.69 71.0403 142.836 75.4726 142.836C90.6761 142.836 104.456 141.13 114.512 138.363C116.83 137.725 118.917 136.377 120.659 134.522C138.191 131.375 150.473 126.124 150.473 118.768Z" fill="url(#soups_paint3_linear)"/>
<path d="M75.4726 119.638C62.5106 119.638 50.6153 117.812 41.2976 114.767C42.6382 119.812 45.1567 123.628 48.262 124.848C55.2705 127.605 64.8756 129.304 75.4726 129.304C86.0697 129.304 95.6747 127.605 102.683 124.848C105.788 123.627 108.307 119.812 109.648 114.767C100.33 117.812 88.4347 119.638 75.4726 119.638Z" fill="url(#soups_paint4_linear)"/>
<path d="M125.267 84.6249C125.267 86.821 127.047 88.6013 129.243 88.6013H141C145.715 88.6013 149.538 84.781 149.538 80.0634C149.538 77.7072 148.581 75.5722 147.037 74.0275C145.492 72.4802 143.359 71.5258 141 71.5258H135.461C135.399 72.3943 135.318 73.2605 135.222 74.1211C134.975 76.3187 134.624 78.4978 134.171 80.6487H129.243C127.047 80.6487 125.267 82.4287 125.267 84.6249Z" fill="url(#soups_paint5_linear)"/>
<path d="M125.267 84.6249C125.267 86.821 127.047 88.6013 129.243 88.6013H141C145.715 88.6013 149.538 84.781 149.538 80.0634C149.538 77.7072 148.581 75.5722 147.037 74.0275C145.492 72.4802 143.359 71.5258 141 71.5258H135.461C135.399 72.3943 135.318 73.2605 135.222 74.1211C134.975 76.3187 134.624 78.4978 134.171 80.6487H129.243C127.047 80.6487 125.267 82.4287 125.267 84.6249Z" fill="url(#soups_paint6_linear)"/>
<path d="M134.171 80.6487H138.27C140.244 80.6487 141.843 79.0493 141.843 77.0755C141.843 76.2613 141.513 75.5228 140.98 74.9872C140.444 74.4516 139.708 74.1213 138.891 74.1213H135.222C134.975 76.3184 134.624 78.4978 134.171 80.6487Z" fill="url(#soups_paint7_linear)"/>
<path d="M45.8514 120.783C65.3588 125.14 85.5867 125.14 105.094 120.783C109.343 119.835 113.228 117.669 116.248 114.533C128.632 101.672 135.651 84.444 135.651 66.4049V64.7214C135.651 38.0287 15.2947 38.0287 15.2947 64.7214V66.4049C15.2947 84.444 22.3138 101.672 34.6979 114.533C37.7173 117.669 41.6026 119.835 45.8514 120.783Z" fill="url(#soups_paint8_linear)"/>
<path d="M135.651 64.7214C135.651 91.414 15.2944 91.414 15.2944 64.7214C15.2944 38.0287 135.651 38.0287 135.651 64.7214Z" fill="url(#soups_paint9_linear)"/>
<path d="M129.515 63.2787C129.515 84.4234 21.4309 84.4234 21.4309 63.2787C21.4309 42.134 129.515 42.134 129.515 63.2787Z" fill="url(#soups_paint10_linear)"/>
<path d="M24.4561 68.9846C40.0149 82.5208 110.93 82.5208 126.489 68.9846C110.93 55.4485 40.0152 55.4485 24.4561 68.9846Z" fill="url(#soups_paint11_linear)"/>
<path d="M111.286 75.5082C111.506 74.99 111.621 74.4497 111.621 73.8865C111.621 59.7429 39.3242 59.7429 39.3242 73.8865C39.3242 74.4494 39.4398 74.99 39.6598 75.5082C59.5939 80.3456 91.3516 80.3456 111.286 75.5082Z" fill="url(#soups_paint12_linear)"/>
<path d="M45.3281 76.6988C48.0878 63.4888 102.858 63.4888 105.617 76.6988C87.6893 79.9479 63.2558 79.9479 45.3281 76.6988Z" fill="url(#soups_paint13_linear)"/>
<path d="M54.6412 72.1746C54.6412 73.8338 46.3965 73.8338 46.3965 72.1746C46.3965 70.5155 48.2421 69.1705 50.5188 69.1705C52.7956 69.1705 54.6412 70.5155 54.6412 72.1746Z" fill="url(#soups_paint14_linear)"/>
<path d="M114.872 67.5543C114.872 69.2134 106.627 69.2134 106.627 67.5543C106.627 65.8952 108.473 64.5502 110.75 64.5502C113.026 64.5502 114.872 65.8952 114.872 67.5543Z" fill="url(#soups_paint15_linear)"/>
<path d="M66.7642 78.9487C69.3421 79.0587 71.9462 79.1196 74.5545 79.1311C74.0362 77.9037 72.4686 77.0114 70.6142 77.0114C68.8536 77.0114 67.355 77.8169 66.7642 78.9487Z" fill="url(#soups_paint16_linear)"/>
<path d="M106.067 72.8699C105.589 72.6364 105.012 72.8349 104.779 73.3131C104.545 73.7914 104.744 74.3684 105.222 74.6017C105.7 74.8352 106.277 74.6366 106.511 74.1584C106.744 73.6805 106.546 73.1034 106.067 72.8699Z" fill="#FFEAA2"/>
<path d="M112.644 71.2875C112.267 71.1031 111.811 71.2599 111.627 71.6375C111.442 72.0152 111.599 72.4705 111.977 72.6549C112.355 72.839 112.81 72.6825 112.994 72.3049C113.178 71.9272 113.022 71.4716 112.644 71.2875Z" fill="#FFEAA2"/>
<path d="M111.41 67.8945C111.182 67.7834 110.907 67.8778 110.796 68.1054C110.685 68.3331 110.78 68.6078 111.007 68.7187C111.235 68.8298 111.51 68.7351 111.621 68.5078C111.732 68.2801 111.637 68.0054 111.41 67.8945Z" fill="#FFEAA2"/>
<path d="M61.1999 63.1414C60.6679 63.1443 60.2388 63.5781 60.2417 64.1105C60.2447 64.6425 60.6785 65.0717 61.2105 65.0687C61.7426 65.0658 62.1717 64.632 62.1688 64.0999C62.1661 63.5675 61.7323 63.1384 61.1999 63.1414Z" fill="#FFEAA2"/>
<path d="M52.6644 66.8134C52.2444 66.8157 51.9056 67.1581 51.908 67.5784C51.9103 67.9984 52.2527 68.3372 52.673 68.3348C53.0933 68.3325 53.4318 67.9901 53.4294 67.5698C53.4271 67.1498 53.0847 66.811 52.6644 66.8134Z" fill="#FFEAA2"/>
<path d="M65.7372 72.8187C65.4839 72.8202 65.2798 73.0267 65.281 73.2799C65.2822 73.5331 65.4889 73.7376 65.7422 73.7361C65.9954 73.7346 66.1995 73.5281 66.1984 73.2749C66.1969 73.0214 65.9904 72.8173 65.7372 72.8187Z" fill="#FFEAA2"/>
<path d="M101.73 66.0331C101.349 66.1334 101.122 66.5228 101.223 66.9031C101.323 67.2834 101.712 67.5105 102.093 67.4102C102.473 67.3099 102.7 66.9205 102.6 66.5402C102.499 66.1599 102.11 65.9328 101.73 66.0331Z" fill="#FFEAA2"/>
<path d="M100.493 71.6184C100.193 71.6975 100.014 72.0049 100.093 72.3052C100.172 72.6055 100.48 72.7846 100.78 72.7055C101.08 72.6263 101.259 72.3187 101.18 72.0187C101.101 71.7187 100.794 71.5393 100.493 71.6184Z" fill="#FFEAA2"/>
<path d="M109.561 70.9669C109.38 71.0146 109.272 71.2002 109.32 71.3811C109.367 71.5619 109.553 71.6702 109.734 71.6225C109.915 71.5749 110.023 71.3893 109.975 71.2084C109.928 71.0272 109.742 70.9193 109.561 70.9669Z" fill="#FFEAA2"/>
<path d="M49.0593 72.4114C48.5811 72.1779 48.004 72.3764 47.7708 72.8546C47.5372 73.3329 47.7358 73.9099 48.214 74.1432C48.6922 74.3767 49.2693 74.1782 49.5025 73.6999C49.7361 73.2217 49.5375 72.6449 49.0593 72.4114Z" fill="#FFEAA2"/>
<path d="M57.0368 68.3234C56.6592 68.139 56.2039 68.2958 56.0195 68.6734C55.835 69.0511 55.9918 69.5063 56.3695 69.6908C56.7471 69.8752 57.2024 69.7184 57.3868 69.3408C57.5712 68.9631 57.4145 68.5078 57.0368 68.3234Z" fill="#FFEAA2"/>
<path d="M50.2605 65.1537C50.0328 65.0425 49.7581 65.1369 49.6472 65.3646C49.536 65.5922 49.6305 65.8669 49.8581 65.9778C50.0857 66.089 50.3605 65.9946 50.4713 65.7669C50.5825 65.5393 50.4881 65.2649 50.2605 65.1537Z" fill="#FFEAA2"/>
<path d="M39.8007 68.1846C39.7977 67.6525 39.3639 67.2234 38.8315 67.2263C38.2995 67.2293 37.8704 67.6631 37.8733 68.1952C37.8762 68.7272 38.3101 69.1563 38.8424 69.1534C39.3748 69.1507 39.8036 68.7169 39.8007 68.1846Z" fill="#FFEAA2"/>
<path d="M39.7487 69.6704C39.3287 69.6728 38.9898 70.0151 38.9922 70.4354C38.9946 70.8554 39.3369 71.1943 39.7572 71.1919C40.1772 71.1895 40.516 70.8472 40.5137 70.4269C40.5113 70.0069 40.169 69.6681 39.7487 69.6704Z" fill="#FFEAA2"/>
<path d="M41.9635 70.3381C41.7103 70.3396 41.5062 70.5461 41.5073 70.7993C41.5088 71.0526 41.7153 71.2567 41.9685 71.2555C42.2217 71.2543 42.4259 71.0476 42.4247 70.7943C42.4232 70.5411 42.2167 70.3367 41.9635 70.3381Z" fill="#FFEAA2"/>
<path d="M45.5332 63.0855C45.1529 63.1858 44.9259 63.5752 45.0262 63.9555C45.1264 64.3358 45.5159 64.5628 45.8962 64.4625C46.2764 64.3622 46.5035 63.9728 46.4032 63.5925C46.3029 63.2122 45.9135 62.9852 45.5332 63.0855Z" fill="#FFEAA2"/>
<path d="M42.3314 68.1823C42.0311 68.2614 41.8519 68.5687 41.9311 68.869C42.0102 69.1693 42.3175 69.3484 42.6178 69.2693C42.9181 69.1902 43.0972 68.8829 43.0181 68.5826C42.9393 68.2826 42.6316 68.1031 42.3314 68.1823Z" fill="#FFEAA2"/>
<path d="M44.8645 68.0931C44.6836 68.1408 44.5754 68.3261 44.6231 68.5073C44.6707 68.6881 44.8563 68.7964 45.0372 68.7487C45.2181 68.7011 45.3263 68.5155 45.2786 68.3346C45.231 68.1534 45.0454 68.0452 44.8645 68.0931Z" fill="#FFEAA2"/>
<path d="M69.8631 67.5543C69.8631 69.2134 61.6184 69.2134 61.6184 67.5543C61.6184 65.8952 63.464 64.5502 65.7408 64.5502C68.0175 64.5502 69.8631 65.8952 69.8631 67.5543Z" fill="url(#soups_paint17_linear)"/>
<path d="M69.7495 64.0357C71.166 65.3389 71.9104 67.1907 71.4122 68.1715C70.9139 69.1524 69.3616 68.8907 67.9451 67.5874C66.5286 66.2842 63.698 62.513 64.1963 61.5321C64.6948 60.5513 68.333 62.7321 69.7495 64.0357Z" fill="url(#soups_paint18_linear)"/>
<path d="M71.9162 63.8125C72.2292 66.206 71.5704 68.2784 70.4445 68.441C69.3186 68.604 68.1521 66.7954 67.8392 64.4019C67.5262 62.0084 67.7242 56.4113 68.8498 56.2484C69.9756 56.086 71.603 61.419 71.9162 63.8125Z" fill="url(#soups_paint19_linear)"/>
<path d="M79.0792 60.9994C78.7513 60.9832 78.4233 61.0197 78.1054 61.1017C76.0992 61.6197 68.3251 63.9117 68.071 68.3835C67.9083 71.2447 72.6351 72.1294 76.8542 72.3517C80.7069 72.5549 84.0313 70.5011 84.2572 67.7849C84.5101 64.7411 83.7657 61.2326 79.0792 60.9994Z" fill="url(#soups_paint20_linear)"/>
<path d="M79.1177 61.0058C78.7779 60.9717 78.4365 61.0161 78.1059 61.1014C76.1021 61.6184 68.3241 63.9105 68.07 68.3834C67.9074 71.2446 72.6341 72.1293 76.8532 72.3517C80.6547 72.5523 83.6677 61.4611 79.1177 61.0058Z" fill="url(#soups_paint21_linear)"/>
<path d="M99.3599 73.6988C99.3599 75.3579 91.1152 75.3579 91.1152 73.6988C91.1152 72.0397 92.9608 70.6947 95.2376 70.6947C97.5144 70.6947 99.3599 72.0397 99.3599 73.6988Z" fill="url(#soups_paint22_linear)"/>
<path d="M24.3887 100.737C27.2225 105.715 30.6751 110.355 34.6981 114.533C37.7178 117.669 41.6028 119.835 45.8516 120.783C65.359 125.14 85.5869 125.14 105.094 120.783C109.342 119.835 113.228 117.669 116.248 114.533C120.27 110.355 123.723 105.714 126.557 100.737H24.3887Z" fill="url(#soups_paint23_linear)"/>
<path d="M66.3727 123.746C61.8992 123.446 57.4345 122.922 52.9992 122.181C50.608 121.778 48.2256 121.313 45.8521 120.784C41.6021 119.834 37.7168 117.669 34.6992 114.534C27.6286 107.193 22.308 98.4281 19.0433 88.9016C18.1315 86.2457 17.3815 83.5281 16.7962 80.7663C16.7962 80.7575 16.7933 80.7457 16.7903 80.734C16.7874 80.7046 16.7815 80.6781 16.7756 80.6487H21.7021C23.0256 80.6487 24.1933 81.2957 24.9168 82.2899L66.3727 123.746Z" fill="url(#soups_paint24_linear)"/>
<path d="M25.679 84.6249C25.679 86.821 23.8987 88.6013 21.7025 88.6013H9.94517C5.23017 88.6013 1.40723 84.781 1.40723 80.0634C1.40723 77.7072 2.36429 75.5722 3.90899 74.0275C5.4537 72.4802 7.58634 71.5258 9.94517 71.5258H15.4846C15.5469 72.3943 15.6275 73.2605 15.7237 74.1211C15.9708 76.3187 16.3219 78.4978 16.7743 80.6487H21.7025C23.8987 80.6487 25.679 82.4287 25.679 84.6249Z" fill="url(#soups_paint25_linear)"/>
<path d="M16.7743 80.6487H12.6758C10.702 80.6487 9.10254 79.0493 9.10254 77.0755C9.10254 76.2613 9.43283 75.5228 9.96607 74.9872C10.5017 74.4516 11.2378 74.1213 12.0543 74.1213H15.7237C15.9708 76.3184 16.322 78.4978 16.7743 80.6487Z" fill="url(#soups_paint26_linear)"/>
<path d="M96.5241 26.6011C96.1706 25.6631 97.142 24.7858 97.9776 25.2843C100.929 27.0458 105.263 30.6705 105.263 36.7702C105.263 46.0205 94.6444 46.8925 94.6444 53.7446C94.6444 57.2611 95.0882 59.6893 95.5203 61.2205C95.7703 62.1061 94.9067 62.8864 94.1114 62.4914C91.4659 61.1781 87.3967 57.9734 87.3967 50.6849C87.3967 39.8858 97.9267 40.0464 97.9267 34.142C97.9267 31.0584 97.2094 28.4193 96.5241 26.6011Z" fill="url(#soups_paint27_linear)"/>
<path d="M79.8919 1.48161C79.6613 1.06867 80.2783 0.692199 80.6919 0.992199C83.4966 3.02749 88.2398 7.33043 88.2398 13.1519C88.2398 21.4169 79.2627 23.7566 78.0666 30.2016C77.0989 35.4151 79.3166 40.4898 80.3333 42.461C80.5098 42.8031 80.1036 43.1499 79.683 43.0178C76.5898 42.0457 68.2683 38.4434 69.511 28.0651C70.7148 18.0113 79.7198 18.4704 81.3177 11.9654C82.4657 7.29485 81.0513 3.55779 79.8919 1.48161Z" fill="url(#soups_paint28_linear)"/>
<path d="M50.9855 28.7984C50.6702 28.0246 51.3308 27.3005 51.9737 27.712C54.2449 29.1655 57.6408 32.1564 58.004 37.1899C58.5549 44.8228 50.8143 45.5425 51.2225 51.1967C51.432 54.0981 51.9023 56.102 52.3105 57.3655C52.5467 58.0961 51.9596 58.7402 51.3523 58.4143C49.3325 57.3308 46.1555 54.6864 45.7214 48.672C45.0781 39.7608 52.8155 39.8934 52.4637 35.0211C52.2802 32.4767 51.5967 30.2987 50.9855 28.7984Z" fill="url(#soups_paint29_linear)"/>
<defs>
<linearGradient id="soups_paint0_linear" x1="75.7522" y1="132.851" x2="76.3404" y2="142.557" gradientUnits="userSpaceOnUse">
<stop stop-color="#F8F6FB"/>
<stop offset="1" stop-color="#EFDCFB"/>
</linearGradient>
<linearGradient id="soups_paint1_linear" x1="70.5455" y1="100.171" x2="82.1005" y2="143.781" gradientUnits="userSpaceOnUse">
<stop stop-color="#F8F6FB"/>
<stop offset="1" stop-color="#EFDCFB"/>
</linearGradient>
<linearGradient id="soups_paint2_linear" x1="78.6987" y1="142.691" x2="73.1104" y2="97.985" gradientUnits="userSpaceOnUse">
<stop stop-color="#F8F6FB"/>
<stop offset="1" stop-color="#EFDCFB"/>
</linearGradient>
<linearGradient id="soups_paint3_linear" x1="102.144" y1="144.129" x2="37.2426" y2="-13.5178" gradientUnits="userSpaceOnUse">
<stop stop-color="#EFDCFB" stop-opacity="0"/>
<stop offset="0.0287" stop-color="#E9D6F7" stop-opacity="0.029"/>
<stop offset="0.2203" stop-color="#C5B5DE" stop-opacity="0.22"/>
<stop offset="0.4138" stop-color="#AA9BCB" stop-opacity="0.414"/>
<stop offset="0.6078" stop-color="#9688BD" stop-opacity="0.608"/>
<stop offset="0.8028" stop-color="#8A7DB5" stop-opacity="0.803"/>
<stop offset="1" stop-color="#8679B2"/>
</linearGradient>
<linearGradient id="soups_paint4_linear" x1="75.777" y1="119.791" x2="76.3279" y2="128.878" gradientUnits="userSpaceOnUse">
<stop stop-color="#F8F6FB"/>
<stop offset="1" stop-color="#EFDCFB"/>
</linearGradient>
<linearGradient id="soups_paint5_linear" x1="137.618" y1="78.8522" x2="137.034" y2="88.4934" gradientUnits="userSpaceOnUse">
<stop stop-color="#F8F6FB"/>
<stop offset="1" stop-color="#EFDCFB"/>
</linearGradient>
<linearGradient id="soups_paint6_linear" x1="139.986" y1="80.4155" x2="123.516" y2="79.2019" gradientUnits="userSpaceOnUse">
<stop stop-color="#EFDCFB" stop-opacity="0"/>
<stop offset="0.0287" stop-color="#E9D6F7" stop-opacity="0.029"/>
<stop offset="0.2203" stop-color="#C5B5DE" stop-opacity="0.22"/>
<stop offset="0.4138" stop-color="#AA9BCB" stop-opacity="0.414"/>
<stop offset="0.6078" stop-color="#9688BD" stop-opacity="0.608"/>
<stop offset="0.8028" stop-color="#8A7DB5" stop-opacity="0.803"/>
<stop offset="1" stop-color="#8679B2"/>
</linearGradient>
<linearGradient id="soups_paint7_linear" x1="138.626" y1="75.3363" x2="136.286" y2="86.519" gradientUnits="userSpaceOnUse">
<stop stop-color="#EFDCFB" stop-opacity="0"/>
<stop offset="0.0287" stop-color="#E9D6F7" stop-opacity="0.029"/>
<stop offset="0.2203" stop-color="#C5B5DE" stop-opacity="0.22"/>
<stop offset="0.4138" stop-color="#AA9BCB" stop-opacity="0.414"/>
<stop offset="0.6078" stop-color="#9688BD" stop-opacity="0.608"/>
<stop offset="0.8028" stop-color="#8A7DB5" stop-opacity="0.803"/>
<stop offset="1" stop-color="#8679B2"/>
</linearGradient>
<linearGradient id="soups_paint8_linear" x1="66.2706" y1="50.3193" x2="98.7544" y2="126.115" gradientUnits="userSpaceOnUse">
<stop stop-color="#F8F6FB"/>
<stop offset="1" stop-color="#EFDCFB"/>
</linearGradient>
<linearGradient id="soups_paint9_linear" x1="86.7" y1="106.569" x2="76.3162" y2="67.8661" gradientUnits="userSpaceOnUse">
<stop stop-color="#F8F6FB"/>
<stop offset="1" stop-color="#EFDCFB"/>
</linearGradient>
<linearGradient id="soups_paint10_linear" x1="75.473" y1="74.831" x2="75.473" y2="-3.57189" gradientUnits="userSpaceOnUse">
<stop stop-color="#EFDCFB" stop-opacity="0"/>
<stop offset="0.0287" stop-color="#E9D6F7" stop-opacity="0.029"/>
<stop offset="0.2203" stop-color="#C5B5DE" stop-opacity="0.22"/>
<stop offset="0.4138" stop-color="#AA9BCB" stop-opacity="0.414"/>
<stop offset="0.6078" stop-color="#9688BD" stop-opacity="0.608"/>
<stop offset="0.8028" stop-color="#8A7DB5" stop-opacity="0.803"/>
<stop offset="1" stop-color="#8679B2"/>
</linearGradient>
<linearGradient id="soups_paint11_linear" x1="75.4725" y1="59.1185" x2="75.4725" y2="84.8661" gradientUnits="userSpaceOnUse">
<stop stop-color="#FFD945"/>
<stop offset="0.3043" stop-color="#FFCD3E"/>
<stop offset="0.8558" stop-color="#FFAD2B"/>
<stop offset="1" stop-color="#FFA325"/>
</linearGradient>
<linearGradient id="soups_paint12_linear" x1="76.4245" y1="71.3609" x2="111.325" y2="-21.1836" gradientUnits="userSpaceOnUse">
<stop stop-color="#F82814" stop-opacity="0"/>
<stop offset="1" stop-color="#C0272D"/>
</linearGradient>
<linearGradient id="soups_paint13_linear" x1="75.2087" y1="73.3246" x2="70.1811" y2="9.00284" gradientUnits="userSpaceOnUse">
<stop stop-color="#F82814" stop-opacity="0"/>
<stop offset="1" stop-color="#C0272D"/>
</linearGradient>
<linearGradient id="soups_paint14_linear" x1="50.1671" y1="70.9785" x2="51.8574" y2="76.0496" gradientUnits="userSpaceOnUse">
<stop stop-color="#FFDECF"/>
<stop offset="0.3791" stop-color="#FDC4B0"/>
<stop offset="0.7655" stop-color="#FBAE97"/>
<stop offset="1" stop-color="#FAA68E"/>
</linearGradient>
<linearGradient id="soups_paint15_linear" x1="110.398" y1="66.3581" x2="112.088" y2="71.4293" gradientUnits="userSpaceOnUse">
<stop stop-color="#FFDECF"/>
<stop offset="0.3791" stop-color="#FDC4B0"/>
<stop offset="0.7655" stop-color="#FBAE97"/>
<stop offset="1" stop-color="#FAA68E"/>
</linearGradient>
<linearGradient id="soups_paint16_linear" x1="70.3859" y1="78.2193" x2="71.6009" y2="81.8652" gradientUnits="userSpaceOnUse">
<stop stop-color="#FFDECF"/>
<stop offset="0.3791" stop-color="#FDC4B0"/>
<stop offset="0.7655" stop-color="#FBAE97"/>
<stop offset="1" stop-color="#FAA68E"/>
</linearGradient>
<linearGradient id="soups_paint17_linear" x1="64.2108" y1="64.4011" x2="67.1319" y2="70.0096" gradientUnits="userSpaceOnUse">
<stop stop-color="#FF6359"/>
<stop offset="0.2243" stop-color="#FE5B50"/>
<stop offset="0.5952" stop-color="#FC4637"/>
<stop offset="1" stop-color="#F82814"/>
</linearGradient>
<linearGradient id="soups_paint18_linear" x1="68.0146" y1="64.1712" x2="66.8271" y2="66.5718" gradientUnits="userSpaceOnUse">
<stop stop-color="#BADA00"/>
<stop offset="0.2269" stop-color="#B0CE00"/>
<stop offset="0.6378" stop-color="#95AE00"/>
<stop offset="1" stop-color="#798C00"/>
</linearGradient>
<linearGradient id="soups_paint19_linear" x1="70.4763" y1="62.2135" x2="67.2737" y2="64.7404" gradientUnits="userSpaceOnUse">
<stop stop-color="#BADA00"/>
<stop offset="0.2269" stop-color="#B0CE00"/>
<stop offset="0.6378" stop-color="#95AE00"/>
<stop offset="1" stop-color="#798C00"/>
</linearGradient>
<linearGradient id="soups_paint20_linear" x1="75.506" y1="65.047" x2="77.766" y2="72.0323" gradientUnits="userSpaceOnUse">
<stop stop-color="#A57C52"/>
<stop offset="0.1339" stop-color="#A26C4A"/>
<stop offset="0.5155" stop-color="#994336"/>
<stop offset="0.8174" stop-color="#942A2A"/>
<stop offset="1" stop-color="#922125"/>
</linearGradient>
<linearGradient id="soups_paint21_linear" x1="73.6365" y1="62.809" x2="77.2774" y2="74.1217" gradientUnits="userSpaceOnUse">
<stop stop-color="#A57C52"/>
<stop offset="0.1339" stop-color="#A26C4A"/>
<stop offset="0.5155" stop-color="#994336"/>
<stop offset="0.8174" stop-color="#942A2A"/>
<stop offset="1" stop-color="#922125"/>
</linearGradient>
<linearGradient id="soups_paint22_linear" x1="93.7076" y1="70.5453" x2="96.6288" y2="76.1541" gradientUnits="userSpaceOnUse">
<stop stop-color="#FF6359"/>
<stop offset="0.2243" stop-color="#FE5B50"/>
<stop offset="0.5952" stop-color="#FC4637"/>
<stop offset="1" stop-color="#F82814"/>
</linearGradient>
<linearGradient id="soups_paint23_linear" x1="75.4728" y1="109.828" x2="75.4728" y2="144.234" gradientUnits="userSpaceOnUse">
<stop stop-color="#EFDCFB" stop-opacity="0"/>
<stop offset="0.0287" stop-color="#E9D6F7" stop-opacity="0.029"/>
<stop offset="0.2203" stop-color="#C5B5DE" stop-opacity="0.22"/>
<stop offset="0.4138" stop-color="#AA9BCB" stop-opacity="0.414"/>
<stop offset="0.6078" stop-color="#9688BD" stop-opacity="0.608"/>
<stop offset="0.8028" stop-color="#8A7DB5" stop-opacity="0.803"/>
<stop offset="1" stop-color="#8679B2"/>
</linearGradient>
<linearGradient id="soups_paint24_linear" x1="37.1898" y1="102.31" x2="-28.2514" y2="72.8981" gradientUnits="userSpaceOnUse">
<stop stop-color="#EFDCFB" stop-opacity="0"/>
<stop offset="0.0287" stop-color="#E9D6F7" stop-opacity="0.029"/>
<stop offset="0.2203" stop-color="#C5B5DE" stop-opacity="0.22"/>
<stop offset="0.4138" stop-color="#AA9BCB" stop-opacity="0.414"/>
<stop offset="0.6078" stop-color="#9688BD" stop-opacity="0.608"/>
<stop offset="0.8028" stop-color="#8A7DB5" stop-opacity="0.803"/>
<stop offset="1" stop-color="#8679B2"/>
</linearGradient>
<linearGradient id="soups_paint25_linear" x1="13.3272" y1="78.8522" x2="13.9116" y2="88.4934" gradientUnits="userSpaceOnUse">
<stop stop-color="#F8F6FB"/>
<stop offset="1" stop-color="#EFDCFB"/>
</linearGradient>
<linearGradient id="soups_paint26_linear" x1="12.3193" y1="75.3363" x2="14.6599" y2="86.519" gradientUnits="userSpaceOnUse">
<stop stop-color="#EFDCFB" stop-opacity="0"/>
<stop offset="0.0287" stop-color="#E9D6F7" stop-opacity="0.029"/>
<stop offset="0.2203" stop-color="#C5B5DE" stop-opacity="0.22"/>
<stop offset="0.4138" stop-color="#AA9BCB" stop-opacity="0.414"/>
<stop offset="0.6078" stop-color="#9688BD" stop-opacity="0.608"/>
<stop offset="0.8028" stop-color="#8A7DB5" stop-opacity="0.803"/>
<stop offset="1" stop-color="#8679B2"/>
</linearGradient>
<linearGradient id="soups_paint27_linear" x1="90.6567" y1="41.3211" x2="116.359" y2="53.5531" gradientUnits="userSpaceOnUse">
<stop stop-color="#E87264" stop-opacity="0"/>
<stop offset="1" stop-color="#F8DFBE"/>
</linearGradient>
<linearGradient id="soups_paint28_linear" x1="71.7475" y1="19.9975" x2="89.9566" y2="24.2819" gradientUnits="userSpaceOnUse">
<stop stop-color="#E87264" stop-opacity="0"/>
<stop offset="0.1575" stop-color="#E97869" stop-opacity="0.158"/>
<stop offset="0.3778" stop-color="#EC8B78" stop-opacity="0.378"/>
<stop offset="0.6353" stop-color="#F0A991" stop-opacity="0.635"/>
<stop offset="0.9188" stop-color="#F6D2B3" stop-opacity="0.919"/>
<stop offset="1" stop-color="#F8DFBE"/>
</linearGradient>
<linearGradient id="soups_paint29_linear" x1="45.9328" y1="40.8243" x2="59.8537" y2="46.2493" gradientUnits="userSpaceOnUse">
<stop stop-color="#E87264" stop-opacity="0"/>
<stop offset="1" stop-color="#F8DFBE"/>
</linearGradient>
</defs>
</svg>
