<svg width="150" height="144" viewBox="0 0 150 144" fill="none" xmlns="http://www.w3.org/2000/svg">
<path d="M144.73 14.7303H59.6143V47.353C59.6143 66.5521 144.73 66.5521 144.73 47.353V14.7303H144.73Z" fill="url(#sushi_paint0_linear)"/>
<path d="M144.729 14.7303C144.729 33.9294 59.6133 33.9294 59.6133 14.7303C59.6133 -4.46885 144.729 -4.46885 144.729 14.7303Z" fill="url(#sushi_paint1_linear)"/>
<path d="M126.928 13.1824C126.928 10.0621 121.113 8.01123 113.468 7.02976C98.8058 5.14741 81.9558 7.19829 81.9558 13.1824C81.9558 16.5374 84.1388 18.6562 92.6308 19.5386C107.183 21.0506 126.928 18.9318 126.928 13.1824Z" fill="url(#sushi_paint2_linear)"/>
<path d="M115.72 19.005C109.755 17.5791 105.42 13.2764 105.42 8.18936C105.42 7.58466 105.483 6.99172 105.601 6.4126C116.736 6.79524 126.928 9.05172 126.928 13.1823C126.928 15.9879 122.226 17.9285 115.72 19.005Z" fill="url(#sushi_paint3_linear)"/>
<path d="M113.603 7.04763C112.54 10.8994 106.699 13.8453 99.6504 13.8453C93.1089 13.8453 87.608 11.3073 86.001 7.86293C93.6069 6.17528 104.831 5.90352 113.603 7.04763Z" fill="url(#sushi_paint4_linear)"/>
<path d="M77.4153 13.1823C77.4153 9.91961 83.7741 7.82638 91.9341 6.90226C95.5491 6.49285 98.8994 9.13902 99.1153 12.7708C99.1229 12.8999 99.1268 13.0296 99.1268 13.1599C99.1268 13.8184 99.0279 14.4596 98.8409 15.0764C97.9526 18.004 95.0035 19.8084 91.9638 19.4652C83.7894 18.5431 77.4153 16.449 77.4153 13.1823Z" fill="url(#sushi_paint5_linear)"/>
<path d="M109.493 16.4552C110.933 13.5464 114.458 12.3555 117.367 13.7952L123.537 16.8493C120.751 18.1479 116.484 19.0464 111.65 19.5449C109.963 19.7185 108.741 17.9749 109.493 16.4552Z" fill="url(#sushi_paint6_linear)"/>
<g opacity="0.6">
<g opacity="0.6">
<g opacity="0.6">
<path opacity="0.6" d="M68.2545 13.6645C69.1078 13.6645 69.7995 12.9727 69.7995 12.1195C69.7995 11.2662 69.1078 10.5745 68.2545 10.5745C67.4012 10.5745 66.7095 11.2662 66.7095 12.1195C66.7095 12.9727 67.4012 13.6645 68.2545 13.6645Z" fill="url(#sushi_paint7_linear)"/>
<path opacity="0.6" d="M69.4331 18.1139C70.1067 18.1139 70.6528 17.5678 70.6528 16.8941C70.6528 16.2205 70.1067 15.6744 69.4331 15.6744C68.7595 15.6744 68.2134 16.2205 68.2134 16.8941C68.2134 17.5678 68.7595 18.1139 69.4331 18.1139Z" fill="url(#sushi_paint8_linear)"/>
<path opacity="0.6" d="M73.6616 14.2481C74.0677 14.2481 74.3969 13.9189 74.3969 13.5128C74.3969 13.1067 74.0677 12.7775 73.6616 12.7775C73.2555 12.7775 72.9263 13.1067 72.9263 13.5128C72.9263 13.9189 73.2555 14.2481 73.6616 14.2481Z" fill="url(#sushi_paint9_linear)"/>
</g>
<g opacity="0.6">
<path opacity="0.6" d="M131.862 18.7644C132.715 18.7644 133.407 18.0727 133.407 17.2194C133.407 16.3662 132.715 15.6744 131.862 15.6744C131.009 15.6744 130.317 16.3662 130.317 17.2194C130.317 18.0727 131.009 18.7644 131.862 18.7644Z" fill="url(#sushi_paint10_linear)"/>
<path opacity="0.6" d="M128.993 22.4342C129.667 22.4342 130.213 21.8881 130.213 21.2145C130.213 20.5408 129.667 19.9948 128.993 19.9948C128.32 19.9948 127.774 20.5408 127.774 21.2145C127.774 21.8881 128.32 22.4342 128.993 22.4342Z" fill="url(#sushi_paint11_linear)"/>
<path opacity="0.6" d="M134.31 22.9732C134.716 22.9732 135.045 22.6439 135.045 22.2379C135.045 21.8318 134.716 21.5026 134.31 21.5026C133.903 21.5026 133.574 21.8318 133.574 22.2379C133.574 22.6439 133.903 22.9732 134.31 22.9732Z" fill="url(#sushi_paint12_linear)"/>
</g>
<g opacity="0.6">
<path opacity="0.6" d="M74.4401 7.80003C75.0705 7.80003 75.5815 7.28898 75.5815 6.65856C75.5815 6.02814 75.0705 5.51709 74.4401 5.51709C73.8096 5.51709 73.2986 6.02814 73.2986 6.65856C73.2986 7.28898 73.8096 7.80003 74.4401 7.80003Z" fill="url(#sushi_paint13_linear)"/>
<path opacity="0.6" d="M72.3914 10.5615C72.8891 10.5615 73.2926 10.158 73.2926 9.66033C73.2926 9.16263 72.8891 8.75916 72.3914 8.75916C71.8937 8.75916 71.4902 9.16263 71.4902 9.66033C71.4902 10.158 71.8937 10.5615 72.3914 10.5615Z" fill="url(#sushi_paint14_linear)"/>
<path opacity="0.6" d="M76.3367 10.8663C76.6367 10.8663 76.8799 10.623 76.8799 10.323C76.8799 10.023 76.6367 9.77979 76.3367 9.77979C76.0367 9.77979 75.7935 10.023 75.7935 10.323C75.7935 10.623 76.0367 10.8663 76.3367 10.8663Z" fill="url(#sushi_paint15_linear)"/>
</g>
</g>
</g>
<path d="M111.025 61.4714L83.3753 33.8217C79.6241 29.4414 70.5044 26.5288 59.6135 25.0829V47.3532C59.6132 58.2926 87.2479 62.9985 111.025 61.4714Z" fill="url(#sushi_paint16_linear)"/>
<path d="M85.2116 38.4119H0.0957031V71.0345C0.0957031 90.2336 85.2116 90.2336 85.2116 71.0345V38.4119Z" fill="url(#sushi_paint17_linear)"/>
<path d="M85.2116 38.4119C85.2116 57.611 0.0957031 57.611 0.0957031 38.4119C0.0957031 19.2128 85.2116 19.2131 85.2116 38.4119Z" fill="url(#sushi_paint18_linear)"/>
<path d="M17.8972 36.8643C17.8972 33.7499 23.691 31.7008 31.3149 30.7173C45.9778 28.8252 62.9863 30.8743 62.9863 36.8643C62.9863 40.1629 60.9113 42.2664 52.6225 43.1746C38.0325 44.7737 17.8972 42.6702 17.8972 36.8643Z" fill="url(#sushi_paint19_linear)"/>
<path d="M29.1055 42.687C35.0707 41.2611 39.4055 36.9584 39.4055 31.8714C39.4055 31.2667 39.3428 30.6737 39.2249 30.0946C28.0893 30.4773 17.8972 32.7337 17.8972 36.8643C17.8972 39.6696 22.5996 41.6105 29.1055 42.687Z" fill="url(#sushi_paint20_linear)"/>
<path d="M31.2222 30.7296C32.2851 34.5814 38.1263 37.5273 45.1745 37.5273C51.716 37.5273 57.2169 34.9893 58.8239 31.5449C51.2183 29.857 39.9939 29.5855 31.2222 30.7296Z" fill="url(#sushi_paint21_linear)"/>
<path d="M67.41 36.8643C67.41 33.6016 61.0511 31.5084 52.8911 30.5843C49.2761 30.1749 45.9258 32.821 45.71 36.4528C45.7023 36.5819 45.6985 36.7116 45.6985 36.8419C45.6985 37.5004 45.7973 38.1416 45.9844 38.7584C46.8726 41.686 49.8217 43.4904 52.8614 43.1472C61.0358 42.2248 67.41 40.1307 67.41 36.8643Z" fill="url(#sushi_paint22_linear)"/>
<path d="M35.3317 40.137C33.892 37.2282 30.3667 36.0373 27.4579 37.477L21.2876 40.5311C24.0744 41.8296 28.3405 42.7282 33.1752 43.2267C34.8617 43.4002 36.0841 41.6567 35.3317 40.137Z" fill="url(#sushi_paint23_linear)"/>
<g opacity="0.6">
<g opacity="0.6">
<g opacity="0.6">
<path opacity="0.6" d="M8.73641 37.346C9.58969 37.346 10.2814 36.6543 10.2814 35.801C10.2814 34.9477 9.58969 34.256 8.73641 34.256C7.88313 34.256 7.19141 34.9477 7.19141 35.801C7.19141 36.6543 7.88313 37.346 8.73641 37.346Z" fill="url(#sushi_paint24_linear)"/>
<path opacity="0.6" d="M9.91551 41.7954C10.5891 41.7954 11.1352 41.2493 11.1352 40.5757C11.1352 39.902 10.5891 39.356 9.91551 39.356C9.24188 39.356 8.6958 39.902 8.6958 40.5757C8.6958 41.2493 9.24188 41.7954 9.91551 41.7954Z" fill="url(#sushi_paint25_linear)"/>
<path opacity="0.6" d="M14.1435 37.9296C14.5496 37.9296 14.8788 37.6004 14.8788 37.1943C14.8788 36.7882 14.5496 36.459 14.1435 36.459C13.7374 36.459 13.4082 36.7882 13.4082 37.1943C13.4082 37.6004 13.7374 37.9296 14.1435 37.9296Z" fill="url(#sushi_paint26_linear)"/>
</g>
<g opacity="0.6">
<path opacity="0.6" d="M72.3443 42.4463C73.1976 42.4463 73.8893 41.7546 73.8893 40.9013C73.8893 40.048 73.1976 39.3563 72.3443 39.3563C71.491 39.3563 70.7993 40.048 70.7993 40.9013C70.7993 41.7546 71.491 42.4463 72.3443 42.4463Z" fill="url(#sushi_paint27_linear)"/>
<path opacity="0.6" d="M69.4758 46.116C70.1494 46.116 70.6955 45.57 70.6955 44.8963C70.6955 44.2227 70.1494 43.6766 69.4758 43.6766C68.8022 43.6766 68.2561 44.2227 68.2561 44.8963C68.2561 45.57 68.8022 46.116 69.4758 46.116Z" fill="url(#sushi_paint28_linear)"/>
<path opacity="0.6" d="M74.7919 46.6548C75.198 46.6548 75.5272 46.3256 75.5272 45.9195C75.5272 45.5134 75.198 45.1842 74.7919 45.1842C74.3858 45.1842 74.0566 45.5134 74.0566 45.9195C74.0566 46.3256 74.3858 46.6548 74.7919 46.6548Z" fill="url(#sushi_paint29_linear)"/>
</g>
<g opacity="0.6">
<path opacity="0.6" d="M14.922 31.4819C15.5524 31.4819 16.0635 30.9709 16.0635 30.3404C16.0635 29.71 15.5524 29.199 14.922 29.199C14.2916 29.199 13.7805 29.71 13.7805 30.3404C13.7805 30.9709 14.2916 31.4819 14.922 31.4819Z" fill="url(#sushi_paint30_linear)"/>
<path opacity="0.6" d="M12.8733 34.2434C13.371 34.2434 13.7745 33.8399 13.7745 33.3422C13.7745 32.8445 13.371 32.441 12.8733 32.441C12.3756 32.441 11.9722 32.8445 11.9722 33.3422C11.9722 33.8399 12.3756 34.2434 12.8733 34.2434Z" fill="url(#sushi_paint31_linear)"/>
<path opacity="0.6" d="M16.8186 34.5478C17.1186 34.5478 17.3619 34.3046 17.3619 34.0045C17.3619 33.7045 17.1186 33.4613 16.8186 33.4613C16.5186 33.4613 16.2754 33.7045 16.2754 34.0045C16.2754 34.3046 16.5186 34.5478 16.8186 34.5478Z" fill="url(#sushi_paint32_linear)"/>
</g>
</g>
</g>
<path d="M150.096 62.0942H64.9797V94.7169C64.9797 113.916 150.096 113.916 150.096 94.7169V62.0942Z" fill="url(#sushi_paint33_linear)"/>
<path d="M150.096 62.0942C150.096 81.2933 64.9797 81.2933 64.9797 62.0942C64.9797 42.895 150.096 42.895 150.096 62.0942Z" fill="url(#sushi_paint34_linear)"/>
<path d="M82.7812 60.5462C82.7812 63.6638 88.5874 65.7141 96.2233 66.6965C110.886 68.5829 129.322 66.5329 129.322 60.5462C129.322 57.1544 125.422 55.0262 116.798 54.1615C102.274 52.7053 82.7812 54.8335 82.7812 60.5462Z" fill="url(#sushi_paint35_linear)"/>
<path d="M93.9895 54.7235C99.9548 56.1494 104.289 60.452 104.289 65.5391C104.289 66.1438 104.227 66.7368 104.109 67.3159C92.9733 66.9332 82.7812 64.6768 82.7812 60.5462C82.7812 57.7406 87.4839 55.8 93.9895 54.7235Z" fill="url(#sushi_paint36_linear)"/>
<path d="M96.1062 66.681C97.1691 62.8292 103.01 59.8833 110.059 59.8833C116.6 59.8833 122.101 62.4212 123.708 65.8657C116.102 67.5533 104.878 67.8251 96.1062 66.681Z" fill="url(#sushi_paint37_linear)"/>
<path d="M132.294 60.5462C132.294 63.8088 125.936 65.9021 117.776 66.8262C114.161 67.2356 110.81 64.5894 110.594 60.9576C110.587 60.8285 110.583 60.6988 110.583 60.5685C110.583 59.91 110.682 59.2688 110.869 58.6521C111.757 55.7244 114.706 53.92 117.746 54.2632C125.92 55.1853 132.294 57.2797 132.294 60.5462Z" fill="url(#sushi_paint38_linear)"/>
<path d="M114.859 57.2732C116.299 60.182 119.824 61.3729 122.733 59.9332L128.904 56.8791C126.117 55.5806 121.851 54.682 117.016 54.1835C115.329 54.01 114.107 55.7538 114.859 57.2732Z" fill="url(#sushi_paint39_linear)"/>
<g opacity="0.6">
<g opacity="0.6">
<g opacity="0.6">
<path opacity="0.6" d="M73.6204 61.0282C74.4737 61.0282 75.1654 60.3365 75.1654 59.4832C75.1654 58.6299 74.4737 57.9382 73.6204 57.9382C72.7672 57.9382 72.0754 58.6299 72.0754 59.4832C72.0754 60.3365 72.7672 61.0282 73.6204 61.0282Z" fill="url(#sushi_paint40_linear)"/>
<path opacity="0.6" d="M74.7995 65.4776C75.4732 65.4776 76.0192 64.9315 76.0192 64.2579C76.0192 63.5843 75.4732 63.0382 74.7995 63.0382C74.1259 63.0382 73.5798 63.5843 73.5798 64.2579C73.5798 64.9315 74.1259 65.4776 74.7995 65.4776Z" fill="url(#sushi_paint41_linear)"/>
<path opacity="0.6" d="M79.0275 61.6118C79.4336 61.6118 79.7628 61.2826 79.7628 60.8765C79.7628 60.4704 79.4336 60.1412 79.0275 60.1412C78.6214 60.1412 78.2922 60.4704 78.2922 60.8765C78.2922 61.2826 78.6214 61.6118 79.0275 61.6118Z" fill="url(#sushi_paint42_linear)"/>
</g>
<g opacity="0.6">
<path opacity="0.6" d="M137.229 66.1282C138.082 66.1282 138.774 65.4365 138.774 64.5832C138.774 63.7299 138.082 63.0382 137.229 63.0382C136.375 63.0382 135.684 63.7299 135.684 64.5832C135.684 65.4365 136.375 66.1282 137.229 66.1282Z" fill="url(#sushi_paint43_linear)"/>
<path opacity="0.6" d="M134.36 69.7979C135.033 69.7979 135.58 69.2519 135.58 68.5782C135.58 67.9046 135.033 67.3585 134.36 67.3585C133.686 67.3585 133.14 67.9046 133.14 68.5782C133.14 69.2519 133.686 69.7979 134.36 69.7979Z" fill="url(#sushi_paint44_linear)"/>
<path opacity="0.6" d="M139.676 70.3369C140.082 70.3369 140.411 70.0077 140.411 69.6016C140.411 69.1955 140.082 68.8663 139.676 68.8663C139.27 68.8663 138.94 69.1955 138.94 69.6016C138.94 70.0077 139.27 70.3369 139.676 70.3369Z" fill="url(#sushi_paint45_linear)"/>
</g>
<g opacity="0.6">
<path opacity="0.6" d="M79.806 55.1638C80.4365 55.1638 80.9475 54.6528 80.9475 54.0223C80.9475 53.3919 80.4365 52.8809 79.806 52.8809C79.1756 52.8809 78.6646 53.3919 78.6646 54.0223C78.6646 54.6528 79.1756 55.1638 79.806 55.1638Z" fill="url(#sushi_paint46_linear)"/>
<path opacity="0.6" d="M77.7574 57.9253C78.2551 57.9253 78.6586 57.5218 78.6586 57.0241C78.6586 56.5264 78.2551 56.1229 77.7574 56.1229C77.2597 56.1229 76.8562 56.5264 76.8562 57.0241C76.8562 57.5218 77.2597 57.9253 77.7574 57.9253Z" fill="url(#sushi_paint47_linear)"/>
<path opacity="0.6" d="M81.7027 58.2297C82.0027 58.2297 82.2459 57.9864 82.2459 57.6864C82.2459 57.3864 82.0027 57.1432 81.7027 57.1432C81.4026 57.1432 81.1594 57.3864 81.1594 57.6864C81.1594 57.9864 81.4026 58.2297 81.7027 58.2297Z" fill="url(#sushi_paint48_linear)"/>
</g>
</g>
</g>
<path d="M64.9797 82.9128V94.7167C64.9797 104.578 87.4365 109.374 109.28 109.105L91.9342 91.7584C87.615 87.094 77.1141 84.1461 64.9797 82.9128Z" fill="url(#sushi_paint49_linear)"/>
<path d="M94.0339 96.647H8.91797V129.27C8.91797 148.469 94.0339 148.469 94.0339 129.27V96.647Z" fill="url(#sushi_paint50_linear)"/>
<path d="M94.0339 96.647C94.0339 115.846 8.91797 115.846 8.91797 96.647C8.91797 77.4479 94.0339 77.4479 94.0339 96.647Z" fill="url(#sushi_paint51_linear)"/>
<path d="M76.2322 95.099C76.2322 98.2152 70.4322 100.265 62.8025 101.248C48.1092 102.169 29.6604 101.088 29.6604 95.099C29.6604 91.7546 33.401 89.6384 41.8551 88.7514C47.8572 88.1214 54.753 88.1108 60.7854 88.7193C62.8669 88.9293 64.5489 89.684 66.353 90.0414C68.8066 90.5275 71.233 90.6793 72.8575 91.4384C74.9736 92.4272 76.2322 93.6475 76.2322 95.099Z" fill="url(#sushi_paint52_linear)"/>
<path d="M65.0244 89.2765C59.0591 90.7024 54.7244 95.005 54.7244 100.092C54.7244 100.697 54.787 101.29 54.905 101.869C66.0405 101.486 76.2326 99.2294 76.2326 95.0988C76.2326 92.2936 71.5303 90.353 65.0244 89.2765Z" fill="url(#sushi_paint53_linear)"/>
<path d="M62.9074 101.234C61.8445 97.382 56.0033 94.4362 48.9551 94.4362C42.4136 94.4362 36.9127 96.9741 35.3057 100.419C42.9113 102.106 54.1357 102.378 62.9074 101.234Z" fill="url(#sushi_paint54_linear)"/>
<path d="M26.7195 95.099C26.7195 98.3617 33.0783 100.455 41.2383 101.379C44.8533 101.788 48.2036 99.1423 48.4195 95.5105C48.4271 95.3814 48.4309 95.2517 48.4309 95.1214C48.4309 94.4629 48.3321 93.8217 48.1451 93.2049C47.2568 90.2773 44.3077 88.4729 41.268 88.8161C33.0936 89.7382 26.7195 91.8326 26.7195 95.099Z" fill="url(#sushi_paint55_linear)"/>
<path d="M58.7981 91.8265C60.2378 94.7353 63.7631 95.9262 66.6719 94.4865L72.8422 91.4323C70.0554 90.1338 65.7892 89.2353 60.9545 88.7368C59.2681 88.5629 58.0457 90.3068 58.7981 91.8265Z" fill="url(#sushi_paint56_linear)"/>
<g opacity="0.6">
<g opacity="0.6">
<g opacity="0.6">
<path opacity="0.6" d="M17.5587 95.5812C18.412 95.5812 19.1037 94.8895 19.1037 94.0362C19.1037 93.1829 18.412 92.4912 17.5587 92.4912C16.7054 92.4912 16.0137 93.1829 16.0137 94.0362C16.0137 94.8895 16.7054 95.5812 17.5587 95.5812Z" fill="url(#sushi_paint57_linear)"/>
<path opacity="0.6" d="M18.7378 100.031C19.4114 100.031 19.9575 99.4845 19.9575 98.8109C19.9575 98.1373 19.4114 97.5912 18.7378 97.5912C18.0641 97.5912 17.5181 98.1373 17.5181 98.8109C17.5181 99.4845 18.0641 100.031 18.7378 100.031Z" fill="url(#sushi_paint58_linear)"/>
<path opacity="0.6" d="M22.9658 96.1648C23.3719 96.1648 23.7011 95.8356 23.7011 95.4295C23.7011 95.0234 23.3719 94.6942 22.9658 94.6942C22.5597 94.6942 22.2305 95.0234 22.2305 95.4295C22.2305 95.8356 22.5597 96.1648 22.9658 96.1648Z" fill="url(#sushi_paint59_linear)"/>
</g>
<g opacity="0.6">
<path opacity="0.6" d="M81.1666 100.681C82.0199 100.681 82.7116 99.9895 82.7116 99.1362C82.7116 98.2829 82.0199 97.5912 81.1666 97.5912C80.3133 97.5912 79.6216 98.2829 79.6216 99.1362C79.6216 99.9895 80.3133 100.681 81.1666 100.681Z" fill="url(#sushi_paint60_linear)"/>
<path opacity="0.6" d="M78.2981 104.351C78.9717 104.351 79.5178 103.805 79.5178 103.131C79.5178 102.458 78.9717 101.911 78.2981 101.911C77.6245 101.911 77.0784 102.458 77.0784 103.131C77.0784 103.805 77.6245 104.351 78.2981 104.351Z" fill="url(#sushi_paint61_linear)"/>
<path opacity="0.6" d="M83.6142 104.89C84.0203 104.89 84.3495 104.561 84.3495 104.155C84.3495 103.749 84.0203 103.419 83.6142 103.419C83.2081 103.419 82.8789 103.749 82.8789 104.155C82.8789 104.561 83.2081 104.89 83.6142 104.89Z" fill="url(#sushi_paint62_linear)"/>
</g>
<g opacity="0.6">
<path opacity="0.6" d="M23.7443 89.7168C24.3747 89.7168 24.8857 89.2057 24.8857 88.5753C24.8857 87.9449 24.3747 87.4338 23.7443 87.4338C23.1138 87.4338 22.6028 87.9449 22.6028 88.5753C22.6028 89.2057 23.1138 89.7168 23.7443 89.7168Z" fill="url(#sushi_paint63_linear)"/>
<path opacity="0.6" d="M21.6956 92.4783C22.1933 92.4783 22.5968 92.0748 22.5968 91.5771C22.5968 91.0794 22.1933 90.6759 21.6956 90.6759C21.1979 90.6759 20.7944 91.0794 20.7944 91.5771C20.7944 92.0748 21.1979 92.4783 21.6956 92.4783Z" fill="url(#sushi_paint64_linear)"/>
<path opacity="0.6" d="M25.6409 92.783C25.9409 92.783 26.1841 92.5398 26.1841 92.2398C26.1841 91.9398 25.9409 91.6965 25.6409 91.6965C25.3409 91.6965 25.0977 91.9398 25.0977 92.2398C25.0977 92.5398 25.3409 92.783 25.6409 92.783Z" fill="url(#sushi_paint65_linear)"/>
</g>
</g>
</g>
<defs>
<linearGradient id="sushi_paint0_linear" x1="94.9925" y1="24.7583" x2="114.592" y2="45.5462" gradientUnits="userSpaceOnUse">
<stop stop-color="#464F00"/>
<stop offset="0.2883" stop-color="#454518"/>
<stop offset="0.7468" stop-color="#443738"/>
<stop offset="1" stop-color="#433244"/>
</linearGradient>
<linearGradient id="sushi_paint1_linear" x1="98.7486" y1="1.94557" x2="109.102" y2="40.6194" gradientUnits="userSpaceOnUse">
<stop stop-color="#F8F6FB"/>
<stop offset="1" stop-color="#EFDCFB"/>
</linearGradient>
<linearGradient id="sushi_paint2_linear" x1="104.553" y1="13.7798" x2="107.053" y2="19.368" gradientUnits="userSpaceOnUse">
<stop stop-color="#FF6359"/>
<stop offset="0.2243" stop-color="#FE5B50"/>
<stop offset="0.5952" stop-color="#FC4637"/>
<stop offset="1" stop-color="#F82814"/>
</linearGradient>
<linearGradient id="sushi_paint3_linear" x1="113.798" y1="9.07495" x2="120.122" y2="16.575" gradientUnits="userSpaceOnUse">
<stop stop-color="#FFA936"/>
<stop offset="0.4112" stop-color="#FF8548"/>
<stop offset="0.7781" stop-color="#FF6C54"/>
<stop offset="1" stop-color="#FF6359"/>
</linearGradient>
<linearGradient id="sushi_paint4_linear" x1="98.4072" y1="5.16028" x2="103.26" y2="13.2485" gradientUnits="userSpaceOnUse">
<stop stop-color="#BADA00"/>
<stop offset="0.2269" stop-color="#B0CE00"/>
<stop offset="0.6378" stop-color="#95AE00"/>
<stop offset="1" stop-color="#798C00"/>
</linearGradient>
<linearGradient id="sushi_paint5_linear" x1="86.4494" y1="10.2123" x2="92.6259" y2="18.1534" gradientUnits="userSpaceOnUse">
<stop stop-color="#FFD945"/>
<stop offset="0.3043" stop-color="#FFCD3E"/>
<stop offset="0.8558" stop-color="#FFAD2B"/>
<stop offset="1" stop-color="#FFA325"/>
</linearGradient>
<linearGradient id="sushi_paint6_linear" x1="112.031" y1="17.3499" x2="119.716" y2="14.6999" gradientUnits="userSpaceOnUse">
<stop stop-color="#FFDECF"/>
<stop offset="0.3791" stop-color="#FDC4B0"/>
<stop offset="0.7655" stop-color="#FBAE97"/>
<stop offset="1" stop-color="#FAA68E"/>
</linearGradient>
<linearGradient id="sushi_paint7_linear" x1="70.4367" y1="12.4572" x2="63.1914" y2="11.4622" gradientUnits="userSpaceOnUse">
<stop stop-color="#EFDCFB" stop-opacity="0"/>
<stop offset="0.0287" stop-color="#E9D6F7" stop-opacity="0.029"/>
<stop offset="0.2203" stop-color="#C5B5DE" stop-opacity="0.22"/>
<stop offset="0.4138" stop-color="#AA9BCB" stop-opacity="0.414"/>
<stop offset="0.6078" stop-color="#9688BD" stop-opacity="0.608"/>
<stop offset="0.8028" stop-color="#8A7DB5" stop-opacity="0.803"/>
<stop offset="1" stop-color="#8679B2"/>
</linearGradient>
<linearGradient id="sushi_paint8_linear" x1="71.1238" y1="17.1656" x2="65.4038" y2="16.3799" gradientUnits="userSpaceOnUse">
<stop stop-color="#EFDCFB" stop-opacity="0"/>
<stop offset="0.0287" stop-color="#E9D6F7" stop-opacity="0.029"/>
<stop offset="0.2203" stop-color="#C5B5DE" stop-opacity="0.22"/>
<stop offset="0.4138" stop-color="#AA9BCB" stop-opacity="0.414"/>
<stop offset="0.6078" stop-color="#9688BD" stop-opacity="0.608"/>
<stop offset="0.8028" stop-color="#8A7DB5" stop-opacity="0.803"/>
<stop offset="1" stop-color="#8679B2"/>
</linearGradient>
<linearGradient id="sushi_paint9_linear" x1="74.6227" y1="13.6843" x2="71.1744" y2="13.2106" gradientUnits="userSpaceOnUse">
<stop stop-color="#EFDCFB" stop-opacity="0"/>
<stop offset="0.0287" stop-color="#E9D6F7" stop-opacity="0.029"/>
<stop offset="0.2203" stop-color="#C5B5DE" stop-opacity="0.22"/>
<stop offset="0.4138" stop-color="#AA9BCB" stop-opacity="0.414"/>
<stop offset="0.6078" stop-color="#9688BD" stop-opacity="0.608"/>
<stop offset="0.8028" stop-color="#8A7DB5" stop-opacity="0.803"/>
<stop offset="1" stop-color="#8679B2"/>
</linearGradient>
<linearGradient id="sushi_paint10_linear" x1="132.877" y1="19.468" x2="128.929" y2="13.3081" gradientUnits="userSpaceOnUse">
<stop stop-color="#EFDCFB" stop-opacity="0"/>
<stop offset="0.0287" stop-color="#E9D6F7" stop-opacity="0.029"/>
<stop offset="0.2203" stop-color="#C5B5DE" stop-opacity="0.22"/>
<stop offset="0.4138" stop-color="#AA9BCB" stop-opacity="0.414"/>
<stop offset="0.6078" stop-color="#9688BD" stop-opacity="0.608"/>
<stop offset="0.8028" stop-color="#8A7DB5" stop-opacity="0.803"/>
<stop offset="1" stop-color="#8679B2"/>
</linearGradient>
<linearGradient id="sushi_paint11_linear" x1="129.74" y1="23.0482" x2="126.624" y2="18.1854" gradientUnits="userSpaceOnUse">
<stop stop-color="#EFDCFB" stop-opacity="0"/>
<stop offset="0.0287" stop-color="#E9D6F7" stop-opacity="0.029"/>
<stop offset="0.2203" stop-color="#C5B5DE" stop-opacity="0.22"/>
<stop offset="0.4138" stop-color="#AA9BCB" stop-opacity="0.414"/>
<stop offset="0.6078" stop-color="#9688BD" stop-opacity="0.608"/>
<stop offset="0.8028" stop-color="#8A7DB5" stop-opacity="0.803"/>
<stop offset="1" stop-color="#8679B2"/>
</linearGradient>
<linearGradient id="sushi_paint12_linear" x1="134.661" y1="23.4505" x2="132.782" y2="20.5187" gradientUnits="userSpaceOnUse">
<stop stop-color="#EFDCFB" stop-opacity="0"/>
<stop offset="0.0287" stop-color="#E9D6F7" stop-opacity="0.029"/>
<stop offset="0.2203" stop-color="#C5B5DE" stop-opacity="0.22"/>
<stop offset="0.4138" stop-color="#AA9BCB" stop-opacity="0.414"/>
<stop offset="0.6078" stop-color="#9688BD" stop-opacity="0.608"/>
<stop offset="0.8028" stop-color="#8A7DB5" stop-opacity="0.803"/>
<stop offset="1" stop-color="#8679B2"/>
</linearGradient>
<linearGradient id="sushi_paint13_linear" x1="75.2848" y1="8.36717" x2="72.2595" y2="3.88681" gradientUnits="userSpaceOnUse">
<stop stop-color="#EFDCFB" stop-opacity="0"/>
<stop offset="0.0287" stop-color="#E9D6F7" stop-opacity="0.029"/>
<stop offset="0.2203" stop-color="#C5B5DE" stop-opacity="0.22"/>
<stop offset="0.4138" stop-color="#AA9BCB" stop-opacity="0.414"/>
<stop offset="0.6078" stop-color="#9688BD" stop-opacity="0.608"/>
<stop offset="0.8028" stop-color="#8A7DB5" stop-opacity="0.803"/>
<stop offset="1" stop-color="#8679B2"/>
</linearGradient>
<linearGradient id="sushi_paint14_linear" x1="73.0313" y1="11.0673" x2="70.6429" y2="7.53054" gradientUnits="userSpaceOnUse">
<stop stop-color="#EFDCFB" stop-opacity="0"/>
<stop offset="0.0287" stop-color="#E9D6F7" stop-opacity="0.029"/>
<stop offset="0.2203" stop-color="#C5B5DE" stop-opacity="0.22"/>
<stop offset="0.4138" stop-color="#AA9BCB" stop-opacity="0.414"/>
<stop offset="0.6078" stop-color="#9688BD" stop-opacity="0.608"/>
<stop offset="0.8028" stop-color="#8A7DB5" stop-opacity="0.803"/>
<stop offset="1" stop-color="#8679B2"/>
</linearGradient>
<linearGradient id="sushi_paint15_linear" x1="76.6735" y1="11.2774" x2="75.2338" y2="9.14492" gradientUnits="userSpaceOnUse">
<stop stop-color="#EFDCFB" stop-opacity="0"/>
<stop offset="0.0287" stop-color="#E9D6F7" stop-opacity="0.029"/>
<stop offset="0.2203" stop-color="#C5B5DE" stop-opacity="0.22"/>
<stop offset="0.4138" stop-color="#AA9BCB" stop-opacity="0.414"/>
<stop offset="0.6078" stop-color="#9688BD" stop-opacity="0.608"/>
<stop offset="0.8028" stop-color="#8A7DB5" stop-opacity="0.803"/>
<stop offset="1" stop-color="#8679B2"/>
</linearGradient>
<linearGradient id="sushi_paint16_linear" x1="100.225" y1="70.6964" x2="65.6544" y2="36.1258" gradientUnits="userSpaceOnUse">
<stop offset="0.001" stop-color="#433244" stop-opacity="0"/>
<stop offset="0.4841" stop-color="#362637" stop-opacity="0.484"/>
<stop offset="1" stop-color="#2D1E2E"/>
</linearGradient>
<linearGradient id="sushi_paint17_linear" x1="35.4739" y1="48.4398" x2="55.0742" y2="69.2277" gradientUnits="userSpaceOnUse">
<stop stop-color="#464F00"/>
<stop offset="0.2883" stop-color="#454518"/>
<stop offset="0.7468" stop-color="#443738"/>
<stop offset="1" stop-color="#433244"/>
</linearGradient>
<linearGradient id="sushi_paint18_linear" x1="39.231" y1="25.6272" x2="49.5845" y2="64.3013" gradientUnits="userSpaceOnUse">
<stop stop-color="#F8F6FB"/>
<stop offset="1" stop-color="#EFDCFB"/>
</linearGradient>
<linearGradient id="sushi_paint19_linear" x1="41.431" y1="40.1482" x2="43.0487" y2="45.5893" gradientUnits="userSpaceOnUse">
<stop stop-color="#FF6359"/>
<stop offset="0.2243" stop-color="#FE5B50"/>
<stop offset="0.5952" stop-color="#FC4637"/>
<stop offset="1" stop-color="#F82814"/>
</linearGradient>
<linearGradient id="sushi_paint20_linear" x1="28.891" y1="34.4111" x2="33.4499" y2="42.9405" gradientUnits="userSpaceOnUse">
<stop stop-color="#FFA936"/>
<stop offset="0.4112" stop-color="#FF8548"/>
<stop offset="0.7781" stop-color="#FF6C54"/>
<stop offset="1" stop-color="#FF6359"/>
</linearGradient>
<linearGradient id="sushi_paint21_linear" x1="45.3454" y1="31.9105" x2="47.5513" y2="36.6164" gradientUnits="userSpaceOnUse">
<stop stop-color="#BADA00"/>
<stop offset="0.2269" stop-color="#B0CE00"/>
<stop offset="0.6378" stop-color="#95AE00"/>
<stop offset="1" stop-color="#798C00"/>
</linearGradient>
<linearGradient id="sushi_paint22_linear" x1="54.8211" y1="33.804" x2="59.8211" y2="43.951" gradientUnits="userSpaceOnUse">
<stop stop-color="#FFD945"/>
<stop offset="0.3043" stop-color="#FFCD3E"/>
<stop offset="0.8558" stop-color="#FFAD2B"/>
<stop offset="1" stop-color="#FFA325"/>
</linearGradient>
<linearGradient id="sushi_paint23_linear" x1="27.2299" y1="38.3493" x2="29.877" y2="43.2023" gradientUnits="userSpaceOnUse">
<stop stop-color="#FFDECF"/>
<stop offset="0.3791" stop-color="#FDC4B0"/>
<stop offset="0.7655" stop-color="#FBAE97"/>
<stop offset="1" stop-color="#FAA68E"/>
</linearGradient>
<linearGradient id="sushi_paint24_linear" x1="10.9047" y1="36.1275" x2="3.65933" y2="35.1324" gradientUnits="userSpaceOnUse">
<stop stop-color="#EFDCFB" stop-opacity="0"/>
<stop offset="0.0287" stop-color="#E9D6F7" stop-opacity="0.029"/>
<stop offset="0.2203" stop-color="#C5B5DE" stop-opacity="0.22"/>
<stop offset="0.4138" stop-color="#AA9BCB" stop-opacity="0.414"/>
<stop offset="0.6078" stop-color="#9688BD" stop-opacity="0.608"/>
<stop offset="0.8028" stop-color="#8A7DB5" stop-opacity="0.803"/>
<stop offset="1" stop-color="#8679B2"/>
</linearGradient>
<linearGradient id="sushi_paint25_linear" x1="11.5921" y1="40.836" x2="5.87212" y2="40.0504" gradientUnits="userSpaceOnUse">
<stop stop-color="#EFDCFB" stop-opacity="0"/>
<stop offset="0.0287" stop-color="#E9D6F7" stop-opacity="0.029"/>
<stop offset="0.2203" stop-color="#C5B5DE" stop-opacity="0.22"/>
<stop offset="0.4138" stop-color="#AA9BCB" stop-opacity="0.414"/>
<stop offset="0.6078" stop-color="#9688BD" stop-opacity="0.608"/>
<stop offset="0.8028" stop-color="#8A7DB5" stop-opacity="0.803"/>
<stop offset="1" stop-color="#8679B2"/>
</linearGradient>
<linearGradient id="sushi_paint26_linear" x1="15.0908" y1="37.3548" x2="11.6425" y2="36.8811" gradientUnits="userSpaceOnUse">
<stop stop-color="#EFDCFB" stop-opacity="0"/>
<stop offset="0.0287" stop-color="#E9D6F7" stop-opacity="0.029"/>
<stop offset="0.2203" stop-color="#C5B5DE" stop-opacity="0.22"/>
<stop offset="0.4138" stop-color="#AA9BCB" stop-opacity="0.414"/>
<stop offset="0.6078" stop-color="#9688BD" stop-opacity="0.608"/>
<stop offset="0.8028" stop-color="#8A7DB5" stop-opacity="0.803"/>
<stop offset="1" stop-color="#8679B2"/>
</linearGradient>
<linearGradient id="sushi_paint27_linear" x1="73.3313" y1="43.1686" x2="69.3838" y2="37.0087" gradientUnits="userSpaceOnUse">
<stop stop-color="#EFDCFB" stop-opacity="0"/>
<stop offset="0.0287" stop-color="#E9D6F7" stop-opacity="0.029"/>
<stop offset="0.2203" stop-color="#C5B5DE" stop-opacity="0.22"/>
<stop offset="0.4138" stop-color="#AA9BCB" stop-opacity="0.414"/>
<stop offset="0.6078" stop-color="#9688BD" stop-opacity="0.608"/>
<stop offset="0.8028" stop-color="#8A7DB5" stop-opacity="0.803"/>
<stop offset="1" stop-color="#8679B2"/>
</linearGradient>
<linearGradient id="sushi_paint28_linear" x1="70.1942" y1="46.7488" x2="67.078" y2="41.886" gradientUnits="userSpaceOnUse">
<stop stop-color="#EFDCFB" stop-opacity="0"/>
<stop offset="0.0287" stop-color="#E9D6F7" stop-opacity="0.029"/>
<stop offset="0.2203" stop-color="#C5B5DE" stop-opacity="0.22"/>
<stop offset="0.4138" stop-color="#AA9BCB" stop-opacity="0.414"/>
<stop offset="0.6078" stop-color="#9688BD" stop-opacity="0.608"/>
<stop offset="0.8028" stop-color="#8A7DB5" stop-opacity="0.803"/>
<stop offset="1" stop-color="#8679B2"/>
</linearGradient>
<linearGradient id="sushi_paint29_linear" x1="75.1152" y1="47.1511" x2="73.2363" y2="44.2193" gradientUnits="userSpaceOnUse">
<stop stop-color="#EFDCFB" stop-opacity="0"/>
<stop offset="0.0287" stop-color="#E9D6F7" stop-opacity="0.029"/>
<stop offset="0.2203" stop-color="#C5B5DE" stop-opacity="0.22"/>
<stop offset="0.4138" stop-color="#AA9BCB" stop-opacity="0.414"/>
<stop offset="0.6078" stop-color="#9688BD" stop-opacity="0.608"/>
<stop offset="0.8028" stop-color="#8A7DB5" stop-opacity="0.803"/>
<stop offset="1" stop-color="#8679B2"/>
</linearGradient>
<linearGradient id="sushi_paint30_linear" x1="15.7455" y1="32.0785" x2="12.7202" y2="27.5981" gradientUnits="userSpaceOnUse">
<stop stop-color="#EFDCFB" stop-opacity="0"/>
<stop offset="0.0287" stop-color="#E9D6F7" stop-opacity="0.029"/>
<stop offset="0.2203" stop-color="#C5B5DE" stop-opacity="0.22"/>
<stop offset="0.4138" stop-color="#AA9BCB" stop-opacity="0.414"/>
<stop offset="0.6078" stop-color="#9688BD" stop-opacity="0.608"/>
<stop offset="0.8028" stop-color="#8A7DB5" stop-opacity="0.803"/>
<stop offset="1" stop-color="#8679B2"/>
</linearGradient>
<linearGradient id="sushi_paint31_linear" x1="13.492" y1="34.7786" x2="11.1036" y2="31.2419" gradientUnits="userSpaceOnUse">
<stop stop-color="#EFDCFB" stop-opacity="0"/>
<stop offset="0.0287" stop-color="#E9D6F7" stop-opacity="0.029"/>
<stop offset="0.2203" stop-color="#C5B5DE" stop-opacity="0.22"/>
<stop offset="0.4138" stop-color="#AA9BCB" stop-opacity="0.414"/>
<stop offset="0.6078" stop-color="#9688BD" stop-opacity="0.608"/>
<stop offset="0.8028" stop-color="#8A7DB5" stop-opacity="0.803"/>
<stop offset="1" stop-color="#8679B2"/>
</linearGradient>
<linearGradient id="sushi_paint32_linear" x1="17.1343" y1="34.9887" x2="15.6945" y2="32.8561" gradientUnits="userSpaceOnUse">
<stop stop-color="#EFDCFB" stop-opacity="0"/>
<stop offset="0.0287" stop-color="#E9D6F7" stop-opacity="0.029"/>
<stop offset="0.2203" stop-color="#C5B5DE" stop-opacity="0.22"/>
<stop offset="0.4138" stop-color="#AA9BCB" stop-opacity="0.414"/>
<stop offset="0.6078" stop-color="#9688BD" stop-opacity="0.608"/>
<stop offset="0.8028" stop-color="#8A7DB5" stop-opacity="0.803"/>
<stop offset="1" stop-color="#8679B2"/>
</linearGradient>
<linearGradient id="sushi_paint33_linear" x1="100.358" y1="72.1222" x2="119.958" y2="92.9101" gradientUnits="userSpaceOnUse">
<stop stop-color="#464F00"/>
<stop offset="0.2883" stop-color="#454518"/>
<stop offset="0.7468" stop-color="#443738"/>
<stop offset="1" stop-color="#433244"/>
</linearGradient>
<linearGradient id="sushi_paint34_linear" x1="104.115" y1="49.3092" x2="114.469" y2="87.9833" gradientUnits="userSpaceOnUse">
<stop stop-color="#F8F6FB"/>
<stop offset="1" stop-color="#EFDCFB"/>
</linearGradient>
<linearGradient id="sushi_paint35_linear" x1="106.589" y1="54.4617" x2="106.132" y2="59.64" gradientUnits="userSpaceOnUse">
<stop stop-color="#FF6359"/>
<stop offset="0.2243" stop-color="#FE5B50"/>
<stop offset="0.5952" stop-color="#FC4637"/>
<stop offset="1" stop-color="#F82814"/>
</linearGradient>
<linearGradient id="sushi_paint36_linear" x1="91.7615" y1="58.2953" x2="95.7321" y2="67.4129" gradientUnits="userSpaceOnUse">
<stop stop-color="#FFA936"/>
<stop offset="0.4112" stop-color="#FF8548"/>
<stop offset="0.7781" stop-color="#FF6C54"/>
<stop offset="1" stop-color="#FF6359"/>
</linearGradient>
<linearGradient id="sushi_paint37_linear" x1="108.204" y1="61.0812" x2="111.292" y2="70.493" gradientUnits="userSpaceOnUse">
<stop stop-color="#BADA00"/>
<stop offset="0.2269" stop-color="#B0CE00"/>
<stop offset="0.6378" stop-color="#95AE00"/>
<stop offset="1" stop-color="#798C00"/>
</linearGradient>
<linearGradient id="sushi_paint38_linear" x1="120.452" y1="59.7035" x2="126.776" y2="68.8212" gradientUnits="userSpaceOnUse">
<stop stop-color="#FFD945"/>
<stop offset="0.3043" stop-color="#FFCD3E"/>
<stop offset="0.8558" stop-color="#FFAD2B"/>
<stop offset="1" stop-color="#FFA325"/>
</linearGradient>
<linearGradient id="sushi_paint39_linear" x1="117.397" y1="56.3785" x2="125.082" y2="59.0288" gradientUnits="userSpaceOnUse">
<stop stop-color="#FFDECF"/>
<stop offset="0.3791" stop-color="#FDC4B0"/>
<stop offset="0.7655" stop-color="#FBAE97"/>
<stop offset="1" stop-color="#FAA68E"/>
</linearGradient>
<linearGradient id="sushi_paint40_linear" x1="75.7921" y1="59.8286" x2="68.5465" y2="58.8337" gradientUnits="userSpaceOnUse">
<stop stop-color="#EFDCFB" stop-opacity="0"/>
<stop offset="0.0287" stop-color="#E9D6F7" stop-opacity="0.029"/>
<stop offset="0.2203" stop-color="#C5B5DE" stop-opacity="0.22"/>
<stop offset="0.4138" stop-color="#AA9BCB" stop-opacity="0.414"/>
<stop offset="0.6078" stop-color="#9688BD" stop-opacity="0.608"/>
<stop offset="0.8028" stop-color="#8A7DB5" stop-opacity="0.803"/>
<stop offset="1" stop-color="#8679B2"/>
</linearGradient>
<linearGradient id="sushi_paint41_linear" x1="76.4793" y1="64.5369" x2="70.7595" y2="63.7515" gradientUnits="userSpaceOnUse">
<stop stop-color="#EFDCFB" stop-opacity="0"/>
<stop offset="0.0287" stop-color="#E9D6F7" stop-opacity="0.029"/>
<stop offset="0.2203" stop-color="#C5B5DE" stop-opacity="0.22"/>
<stop offset="0.4138" stop-color="#AA9BCB" stop-opacity="0.414"/>
<stop offset="0.6078" stop-color="#9688BD" stop-opacity="0.608"/>
<stop offset="0.8028" stop-color="#8A7DB5" stop-opacity="0.803"/>
<stop offset="1" stop-color="#8679B2"/>
</linearGradient>
<linearGradient id="sushi_paint42_linear" x1="79.9783" y1="61.0559" x2="76.5297" y2="60.5824" gradientUnits="userSpaceOnUse">
<stop stop-color="#EFDCFB" stop-opacity="0"/>
<stop offset="0.0287" stop-color="#E9D6F7" stop-opacity="0.029"/>
<stop offset="0.2203" stop-color="#C5B5DE" stop-opacity="0.22"/>
<stop offset="0.4138" stop-color="#AA9BCB" stop-opacity="0.414"/>
<stop offset="0.6078" stop-color="#9688BD" stop-opacity="0.608"/>
<stop offset="0.8028" stop-color="#8A7DB5" stop-opacity="0.803"/>
<stop offset="1" stop-color="#8679B2"/>
</linearGradient>
<linearGradient id="sushi_paint43_linear" x1="138.251" y1="66.8557" x2="134.304" y2="60.6957" gradientUnits="userSpaceOnUse">
<stop stop-color="#EFDCFB" stop-opacity="0"/>
<stop offset="0.0287" stop-color="#E9D6F7" stop-opacity="0.029"/>
<stop offset="0.2203" stop-color="#C5B5DE" stop-opacity="0.22"/>
<stop offset="0.4138" stop-color="#AA9BCB" stop-opacity="0.414"/>
<stop offset="0.6078" stop-color="#9688BD" stop-opacity="0.608"/>
<stop offset="0.8028" stop-color="#8A7DB5" stop-opacity="0.803"/>
<stop offset="1" stop-color="#8679B2"/>
</linearGradient>
<linearGradient id="sushi_paint44_linear" x1="135.114" y1="70.4359" x2="131.998" y2="65.5728" gradientUnits="userSpaceOnUse">
<stop stop-color="#EFDCFB" stop-opacity="0"/>
<stop offset="0.0287" stop-color="#E9D6F7" stop-opacity="0.029"/>
<stop offset="0.2203" stop-color="#C5B5DE" stop-opacity="0.22"/>
<stop offset="0.4138" stop-color="#AA9BCB" stop-opacity="0.414"/>
<stop offset="0.6078" stop-color="#9688BD" stop-opacity="0.608"/>
<stop offset="0.8028" stop-color="#8A7DB5" stop-opacity="0.803"/>
<stop offset="1" stop-color="#8679B2"/>
</linearGradient>
<linearGradient id="sushi_paint45_linear" x1="140.035" y1="70.8378" x2="138.156" y2="67.906" gradientUnits="userSpaceOnUse">
<stop stop-color="#EFDCFB" stop-opacity="0"/>
<stop offset="0.0287" stop-color="#E9D6F7" stop-opacity="0.029"/>
<stop offset="0.2203" stop-color="#C5B5DE" stop-opacity="0.22"/>
<stop offset="0.4138" stop-color="#AA9BCB" stop-opacity="0.414"/>
<stop offset="0.6078" stop-color="#9688BD" stop-opacity="0.608"/>
<stop offset="0.8028" stop-color="#8A7DB5" stop-opacity="0.803"/>
<stop offset="1" stop-color="#8679B2"/>
</linearGradient>
<linearGradient id="sushi_paint46_linear" x1="80.6679" y1="55.752" x2="77.6428" y2="51.2716" gradientUnits="userSpaceOnUse">
<stop stop-color="#EFDCFB" stop-opacity="0"/>
<stop offset="0.0287" stop-color="#E9D6F7" stop-opacity="0.029"/>
<stop offset="0.2203" stop-color="#C5B5DE" stop-opacity="0.22"/>
<stop offset="0.4138" stop-color="#AA9BCB" stop-opacity="0.414"/>
<stop offset="0.6078" stop-color="#9688BD" stop-opacity="0.608"/>
<stop offset="0.8028" stop-color="#8A7DB5" stop-opacity="0.803"/>
<stop offset="1" stop-color="#8679B2"/>
</linearGradient>
<linearGradient id="sushi_paint47_linear" x1="78.4146" y1="58.4524" x2="76.0263" y2="54.9154" gradientUnits="userSpaceOnUse">
<stop stop-color="#EFDCFB" stop-opacity="0"/>
<stop offset="0.0287" stop-color="#E9D6F7" stop-opacity="0.029"/>
<stop offset="0.2203" stop-color="#C5B5DE" stop-opacity="0.22"/>
<stop offset="0.4138" stop-color="#AA9BCB" stop-opacity="0.414"/>
<stop offset="0.6078" stop-color="#9688BD" stop-opacity="0.608"/>
<stop offset="0.8028" stop-color="#8A7DB5" stop-opacity="0.803"/>
<stop offset="1" stop-color="#8679B2"/>
</linearGradient>
<linearGradient id="sushi_paint48_linear" x1="82.0569" y1="58.6622" x2="80.6168" y2="56.5297" gradientUnits="userSpaceOnUse">
<stop stop-color="#EFDCFB" stop-opacity="0"/>
<stop offset="0.0287" stop-color="#E9D6F7" stop-opacity="0.029"/>
<stop offset="0.2203" stop-color="#C5B5DE" stop-opacity="0.22"/>
<stop offset="0.4138" stop-color="#AA9BCB" stop-opacity="0.414"/>
<stop offset="0.6078" stop-color="#9688BD" stop-opacity="0.608"/>
<stop offset="0.8028" stop-color="#8A7DB5" stop-opacity="0.803"/>
<stop offset="1" stop-color="#8679B2"/>
</linearGradient>
<linearGradient id="sushi_paint49_linear" x1="113.427" y1="129.602" x2="82.88" y2="99.0552" gradientUnits="userSpaceOnUse">
<stop offset="0.001" stop-color="#433244" stop-opacity="0"/>
<stop offset="0.4841" stop-color="#362637" stop-opacity="0.484"/>
<stop offset="1" stop-color="#2D1E2E"/>
</linearGradient>
<linearGradient id="sushi_paint50_linear" x1="44.2965" y1="106.675" x2="63.8965" y2="127.463" gradientUnits="userSpaceOnUse">
<stop stop-color="#464F00"/>
<stop offset="0.2883" stop-color="#454518"/>
<stop offset="0.7468" stop-color="#443738"/>
<stop offset="1" stop-color="#433244"/>
</linearGradient>
<linearGradient id="sushi_paint51_linear" x1="48.0533" y1="83.8623" x2="58.4068" y2="122.536" gradientUnits="userSpaceOnUse">
<stop stop-color="#F8F6FB"/>
<stop offset="1" stop-color="#EFDCFB"/>
</linearGradient>
<linearGradient id="sushi_paint52_linear" x1="52.4083" y1="89.0108" x2="52.8633" y2="94.1664" gradientUnits="userSpaceOnUse">
<stop stop-color="#FF6359"/>
<stop offset="0.2243" stop-color="#FE5B50"/>
<stop offset="0.5952" stop-color="#FC4637"/>
<stop offset="1" stop-color="#F82814"/>
</linearGradient>
<linearGradient id="sushi_paint53_linear" x1="64.5391" y1="93.7597" x2="66.2138" y2="101.22" gradientUnits="userSpaceOnUse">
<stop stop-color="#FFA936"/>
<stop offset="0.4112" stop-color="#FF8548"/>
<stop offset="0.7781" stop-color="#FF6C54"/>
<stop offset="1" stop-color="#FF6359"/>
</linearGradient>
<linearGradient id="sushi_paint54_linear" x1="47.063" y1="96.7938" x2="52.2398" y2="106.691" gradientUnits="userSpaceOnUse">
<stop stop-color="#BADA00"/>
<stop offset="0.2269" stop-color="#B0CE00"/>
<stop offset="0.6378" stop-color="#95AE00"/>
<stop offset="1" stop-color="#798C00"/>
</linearGradient>
<linearGradient id="sushi_paint55_linear" x1="37.7451" y1="94.8135" x2="42.8033" y2="102.857" gradientUnits="userSpaceOnUse">
<stop stop-color="#FFD945"/>
<stop offset="0.3043" stop-color="#FFCD3E"/>
<stop offset="0.8558" stop-color="#FFAD2B"/>
<stop offset="1" stop-color="#FFA325"/>
</linearGradient>
<linearGradient id="sushi_paint56_linear" x1="61.3351" y1="90.9315" x2="69.0207" y2="93.5818" gradientUnits="userSpaceOnUse">
<stop stop-color="#FFDECF"/>
<stop offset="0.3791" stop-color="#FDC4B0"/>
<stop offset="0.7655" stop-color="#FBAE97"/>
<stop offset="1" stop-color="#FAA68E"/>
</linearGradient>
<linearGradient id="sushi_paint57_linear" x1="19.7142" y1="94.3728" x2="12.4686" y2="93.378" gradientUnits="userSpaceOnUse">
<stop stop-color="#EFDCFB" stop-opacity="0"/>
<stop offset="0.0287" stop-color="#E9D6F7" stop-opacity="0.029"/>
<stop offset="0.2203" stop-color="#C5B5DE" stop-opacity="0.22"/>
<stop offset="0.4138" stop-color="#AA9BCB" stop-opacity="0.414"/>
<stop offset="0.6078" stop-color="#9688BD" stop-opacity="0.608"/>
<stop offset="0.8028" stop-color="#8A7DB5" stop-opacity="0.803"/>
<stop offset="1" stop-color="#8679B2"/>
</linearGradient>
<linearGradient id="sushi_paint58_linear" x1="20.4014" y1="99.0812" x2="14.6816" y2="98.2957" gradientUnits="userSpaceOnUse">
<stop stop-color="#EFDCFB" stop-opacity="0"/>
<stop offset="0.0287" stop-color="#E9D6F7" stop-opacity="0.029"/>
<stop offset="0.2203" stop-color="#C5B5DE" stop-opacity="0.22"/>
<stop offset="0.4138" stop-color="#AA9BCB" stop-opacity="0.414"/>
<stop offset="0.6078" stop-color="#9688BD" stop-opacity="0.608"/>
<stop offset="0.8028" stop-color="#8A7DB5" stop-opacity="0.803"/>
<stop offset="1" stop-color="#8679B2"/>
</linearGradient>
<linearGradient id="sushi_paint59_linear" x1="23.9003" y1="95.6001" x2="20.4518" y2="95.1263" gradientUnits="userSpaceOnUse">
<stop stop-color="#EFDCFB" stop-opacity="0"/>
<stop offset="0.0287" stop-color="#E9D6F7" stop-opacity="0.029"/>
<stop offset="0.2203" stop-color="#C5B5DE" stop-opacity="0.22"/>
<stop offset="0.4138" stop-color="#AA9BCB" stop-opacity="0.414"/>
<stop offset="0.6078" stop-color="#9688BD" stop-opacity="0.608"/>
<stop offset="0.8028" stop-color="#8A7DB5" stop-opacity="0.803"/>
<stop offset="1" stop-color="#8679B2"/>
</linearGradient>
<linearGradient id="sushi_paint60_linear" x1="82.1643" y1="101.433" x2="78.2169" y2="95.2727" gradientUnits="userSpaceOnUse">
<stop stop-color="#EFDCFB" stop-opacity="0"/>
<stop offset="0.0287" stop-color="#E9D6F7" stop-opacity="0.029"/>
<stop offset="0.2203" stop-color="#C5B5DE" stop-opacity="0.22"/>
<stop offset="0.4138" stop-color="#AA9BCB" stop-opacity="0.414"/>
<stop offset="0.6078" stop-color="#9688BD" stop-opacity="0.608"/>
<stop offset="0.8028" stop-color="#8A7DB5" stop-opacity="0.803"/>
<stop offset="1" stop-color="#8679B2"/>
</linearGradient>
<linearGradient id="sushi_paint61_linear" x1="79.0275" y1="105.013" x2="75.911" y2="100.15" gradientUnits="userSpaceOnUse">
<stop stop-color="#EFDCFB" stop-opacity="0"/>
<stop offset="0.0287" stop-color="#E9D6F7" stop-opacity="0.029"/>
<stop offset="0.2203" stop-color="#C5B5DE" stop-opacity="0.22"/>
<stop offset="0.4138" stop-color="#AA9BCB" stop-opacity="0.414"/>
<stop offset="0.6078" stop-color="#9688BD" stop-opacity="0.608"/>
<stop offset="0.8028" stop-color="#8A7DB5" stop-opacity="0.803"/>
<stop offset="1" stop-color="#8679B2"/>
</linearGradient>
<linearGradient id="sushi_paint62_linear" x1="83.9485" y1="105.415" x2="82.0696" y2="102.483" gradientUnits="userSpaceOnUse">
<stop stop-color="#EFDCFB" stop-opacity="0"/>
<stop offset="0.0287" stop-color="#E9D6F7" stop-opacity="0.029"/>
<stop offset="0.2203" stop-color="#C5B5DE" stop-opacity="0.22"/>
<stop offset="0.4138" stop-color="#AA9BCB" stop-opacity="0.414"/>
<stop offset="0.6078" stop-color="#9688BD" stop-opacity="0.608"/>
<stop offset="0.8028" stop-color="#8A7DB5" stop-opacity="0.803"/>
<stop offset="1" stop-color="#8679B2"/>
</linearGradient>
<linearGradient id="sushi_paint63_linear" x1="24.5899" y1="90.3388" x2="21.5646" y2="85.8584" gradientUnits="userSpaceOnUse">
<stop stop-color="#EFDCFB" stop-opacity="0"/>
<stop offset="0.0287" stop-color="#E9D6F7" stop-opacity="0.029"/>
<stop offset="0.2203" stop-color="#C5B5DE" stop-opacity="0.22"/>
<stop offset="0.4138" stop-color="#AA9BCB" stop-opacity="0.414"/>
<stop offset="0.6078" stop-color="#9688BD" stop-opacity="0.608"/>
<stop offset="0.8028" stop-color="#8A7DB5" stop-opacity="0.803"/>
<stop offset="1" stop-color="#8679B2"/>
</linearGradient>
<linearGradient id="sushi_paint64_linear" x1="22.3364" y1="93.0389" x2="19.948" y2="89.5022" gradientUnits="userSpaceOnUse">
<stop stop-color="#EFDCFB" stop-opacity="0"/>
<stop offset="0.0287" stop-color="#E9D6F7" stop-opacity="0.029"/>
<stop offset="0.2203" stop-color="#C5B5DE" stop-opacity="0.22"/>
<stop offset="0.4138" stop-color="#AA9BCB" stop-opacity="0.414"/>
<stop offset="0.6078" stop-color="#9688BD" stop-opacity="0.608"/>
<stop offset="0.8028" stop-color="#8A7DB5" stop-opacity="0.803"/>
<stop offset="1" stop-color="#8679B2"/>
</linearGradient>
<linearGradient id="sushi_paint65_linear" x1="25.9786" y1="93.249" x2="24.5389" y2="91.1165" gradientUnits="userSpaceOnUse">
<stop stop-color="#EFDCFB" stop-opacity="0"/>
<stop offset="0.0287" stop-color="#E9D6F7" stop-opacity="0.029"/>
<stop offset="0.2203" stop-color="#C5B5DE" stop-opacity="0.22"/>
<stop offset="0.4138" stop-color="#AA9BCB" stop-opacity="0.414"/>
<stop offset="0.6078" stop-color="#9688BD" stop-opacity="0.608"/>
<stop offset="0.8028" stop-color="#8A7DB5" stop-opacity="0.803"/>
<stop offset="1" stop-color="#8679B2"/>
</linearGradient>
</defs>
</svg>
