<svg width="151" height="128" viewBox="0 0 151 128" fill="none" xmlns="http://www.w3.org/2000/svg">
<path d="M75.4238 1.52063C34.0041 1.52063 0.423828 29.6953 0.423828 64.4539C0.423828 99.2124 34.0041 127.387 75.4238 127.387C116.844 127.387 150.424 99.2124 150.424 64.4539C150.424 29.6953 116.844 1.52063 75.4238 1.52063ZM75.6435 28.613C75.5571 28.6127 75.4715 28.6098 75.3847 28.6101C75.3977 28.6101 75.4106 28.6095 75.4235 28.6095C75.4977 28.6095 75.57 28.6127 75.6435 28.613ZM75.4238 60.2989C65.3415 60.2989 56.6909 56.3209 52.9812 50.6483C56.6791 44.9809 65.2894 40.9809 75.3453 40.9312C85.4753 40.8809 94.1785 44.8539 97.8874 50.5512C94.1944 56.2483 85.5338 60.2989 75.4238 60.2989Z" fill="url(#sweets_paint0_linear)"/>
<path d="M75.4238 1.52063C34.0041 1.52063 0.423828 29.6953 0.423828 64.4539C0.423828 99.2124 34.0041 127.387 75.4238 127.387C116.844 127.387 150.424 99.2124 150.424 64.4539C150.424 29.6953 116.844 1.52063 75.4238 1.52063ZM75.6435 28.613C75.5571 28.6127 75.4715 28.6098 75.3847 28.6101C75.3977 28.6101 75.4106 28.6095 75.4235 28.6095C75.4977 28.6095 75.57 28.6127 75.6435 28.613ZM75.4238 60.2989C65.3415 60.2989 56.6909 56.3209 52.9812 50.6483C56.6791 44.9809 65.2894 40.9809 75.3453 40.9312C85.4753 40.8809 94.1785 44.8539 97.8874 50.5512C94.1944 56.2483 85.5338 60.2989 75.4238 60.2989Z" fill="url(#sweets_paint1_linear)"/>
<path d="M150.424 64.4542H109.558C82.4829 64.4542 60.5347 86.4027 60.5347 113.477C60.5347 115.58 61.4708 117.461 62.9444 118.738L71.5091 127.302C72.8056 127.358 74.1108 127.387 75.4238 127.387C116.843 127.387 150.424 99.2124 150.424 64.4542Z" fill="url(#sweets_paint2_linear)"/>
<path d="M150.424 64.4542H127.192C103.032 64.4542 83.446 84.04 83.446 108.2C83.446 110.352 84.4005 112.319 85.9155 113.642L97.0102 124.737C127.908 116.957 150.424 92.915 150.424 64.4542Z" fill="url(#sweets_paint3_linear)"/>
<path d="M150.424 64.4542C150.424 47.4763 142.409 32.0716 129.385 20.7516V85.3886C129.487 87.271 130.339 88.9519 131.644 90.1448L139.148 97.6489C146.293 88.0122 150.424 76.6389 150.424 64.4542Z" fill="url(#sweets_paint4_linear)"/>
<path d="M150.424 49.3686C150.424 22.2086 116.844 0.192993 75.4238 0.192993C34.0041 0.192993 0.423828 22.2083 0.423828 49.3686C0.423828 54.6727 1.70677 59.7798 4.07765 64.5653C6.42736 69.3077 7.56118 74.5601 7.56118 79.8527V90.1392C7.56118 93.9807 10.5956 97.2345 14.4371 97.2809C16.3924 97.3048 18.1641 96.5204 19.4424 95.2421C20.7018 93.9827 21.4815 92.2407 21.4815 90.3195C21.4815 87.4198 24.5909 85.5877 27.1288 86.9901C34.4353 91.0268 42.9335 94.1654 52.2288 96.1456C57.0588 97.1748 60.5347 101.404 60.5347 106.342V113.477C60.5347 117.323 63.6509 120.439 67.4932 120.439C69.4144 120.439 71.1565 119.659 72.4159 118.4C73.6753 117.141 74.455 115.399 74.455 113.477V106.185C74.455 103.703 76.4674 101.688 78.9521 101.688C80.1912 101.688 81.3153 102.191 82.1291 103.004C82.9429 103.822 83.4459 104.942 83.4459 106.185V108.199C83.4459 112.04 86.4806 115.294 90.3218 115.341C92.2768 115.364 94.0488 114.58 95.3271 113.302C96.5865 112.042 97.3662 110.304 97.3662 108.379V104.919C97.3662 100.094 100.553 95.8327 105.195 94.5151C113.8 92.0721 121.569 88.6024 128.144 84.3415C128.671 83.9995 129.366 84.3798 129.366 85.0086C129.366 88.8506 132.483 91.9671 136.328 91.9671C138.249 91.9671 139.988 91.1871 141.247 89.928C142.507 88.6686 143.287 86.9298 143.287 85.0089V78.1277C143.287 73.6915 144.299 69.2971 146.361 65.3689C148.993 60.353 150.424 54.9706 150.424 49.3686ZM75.3453 28.6098C88.8097 28.543 99.7568 35.5824 99.8 44.3336C99.8435 53.0848 88.9668 60.2321 75.5024 60.2989C62.0379 60.3656 51.0909 53.3262 51.0477 44.5751C51.0041 35.8239 61.8809 28.6762 75.3453 28.6098Z" fill="url(#sweets_paint5_radial)"/>
<g opacity="0.6">
<g opacity="0.6">
<path opacity="0.6" d="M32.8124 100.13C34.3842 100.13 35.6583 98.8559 35.6583 97.2842C35.6583 95.7124 34.3842 94.4383 32.8124 94.4383C31.2407 94.4383 29.9666 95.7124 29.9666 97.2842C29.9666 98.8559 31.2407 100.13 32.8124 100.13Z" fill="url(#sweets_paint6_linear)"/>
<path opacity="0.6" d="M25.0168 104.147C26.2576 104.147 27.2636 103.141 27.2636 101.901C27.2636 100.66 26.2576 99.6539 25.0168 99.6539C23.7759 99.6539 22.77 100.66 22.77 101.901C22.77 103.141 23.7759 104.147 25.0168 104.147Z" fill="url(#sweets_paint7_linear)"/>
<path opacity="0.6" d="M33.2277 108.916C33.9757 108.916 34.5821 108.31 34.5821 107.562C34.5821 106.814 33.9757 106.207 33.2277 106.207C32.4797 106.207 31.8733 106.814 31.8733 107.562C31.8733 108.31 32.4797 108.916 33.2277 108.916Z" fill="url(#sweets_paint8_linear)"/>
</g>
<g opacity="0.6">
<path opacity="0.6" d="M45.7309 107.397C46.8923 107.397 47.8338 106.456 47.8338 105.294C47.8338 104.133 46.8923 103.191 45.7309 103.191C44.5694 103.191 43.6279 104.133 43.6279 105.294C43.6279 106.456 44.5694 107.397 45.7309 107.397Z" fill="url(#sweets_paint9_linear)"/>
<path opacity="0.6" d="M39.348 104.935C40.265 104.935 41.0083 104.192 41.0083 103.275C41.0083 102.358 40.265 101.615 39.348 101.615C38.4311 101.615 37.6877 102.358 37.6877 103.275C37.6877 104.192 38.4311 104.935 39.348 104.935Z" fill="url(#sweets_paint10_linear)"/>
<path opacity="0.6" d="M40.2755 111.587C40.8283 111.587 41.2764 111.139 41.2764 110.586C41.2764 110.033 40.8283 109.585 40.2755 109.585C39.7228 109.585 39.2747 110.033 39.2747 110.586C39.2747 111.139 39.7228 111.587 40.2755 111.587Z" fill="url(#sweets_paint11_linear)"/>
</g>
<g opacity="0.6">
<path opacity="0.6" d="M132.313 98.0803C133.475 98.0803 134.416 97.1388 134.416 95.9774C134.416 94.816 133.475 93.8745 132.313 93.8745C131.152 93.8745 130.21 94.816 130.21 95.9774C130.21 97.1388 131.152 98.0803 132.313 98.0803Z" fill="url(#sweets_paint12_linear)"/>
<path opacity="0.6" d="M125.931 95.6189C126.848 95.6189 127.591 94.8755 127.591 93.9586C127.591 93.0416 126.848 92.2983 125.931 92.2983C125.014 92.2983 124.27 93.0416 124.27 93.9586C124.27 94.8755 125.014 95.6189 125.931 95.6189Z" fill="url(#sweets_paint13_linear)"/>
<path opacity="0.6" d="M126.858 102.27C127.411 102.27 127.859 101.822 127.859 101.269C127.859 100.717 127.411 100.269 126.858 100.269C126.305 100.269 125.857 100.717 125.857 101.269C125.857 101.822 126.305 102.27 126.858 102.27Z" fill="url(#sweets_paint14_linear)"/>
</g>
</g>
<path d="M81.0534 7.50835C79.6413 4.73982 75.4078 4.51394 73.9393 4.436C70.5125 4.25423 65.7707 4.67247 59.8437 5.67776C34.6901 9.94335 14.664 30.8769 13.8237 31.766C12.8631 32.7825 12.9084 34.3851 13.9248 35.3457L22.1725 43.2916C18.6398 47.1381 15.2801 51.7863 14.401 56.2351C13.5951 60.3119 15.1569 62.8342 16.609 64.2322L47.3584 94.9813C48.9557 95.4042 50.5793 95.7939 52.229 96.1457C57.059 97.1748 60.5348 101.404 60.5348 106.342V108.158L71.5237 119.147C71.8407 118.921 72.1416 118.675 72.416 118.4C73.6754 117.141 74.4551 115.399 74.4551 113.477V106.185C74.4551 103.703 76.4675 101.688 78.9522 101.688C80.1913 101.688 81.3154 102.191 82.1293 103.005C82.9431 103.822 83.446 104.942 83.446 106.185V108.199C83.446 112.04 86.4807 115.294 90.3219 115.341C92.2772 115.364 94.049 114.58 95.3272 113.302C96.5866 112.042 97.3663 110.304 97.3663 108.379V104.919C97.3663 100.094 100.553 95.8328 105.195 94.5151C113.8 92.0722 121.569 88.6025 128.144 84.3416C128.671 83.9995 129.367 84.3798 129.367 85.0087C129.367 88.8507 132.483 91.9672 136.328 91.9672C138.25 91.9672 139.988 91.1872 141.247 89.9281C142.507 88.6686 143.287 86.9298 143.287 85.0089V78.1278C143.287 75.6195 143.611 73.1245 144.265 70.7198L81.0534 7.50835ZM75.5025 60.2986C62.0381 60.3654 51.091 53.326 51.0478 44.5748C51.0046 35.8236 61.881 28.6763 75.3454 28.6095C88.8099 28.5428 99.7569 35.5822 99.8001 44.3334C99.8437 53.0845 88.9669 60.2322 75.5025 60.2986Z" fill="url(#sweets_paint15_linear)"/>
<path d="M22.6865 66.4603C20.188 66.4606 18.1474 65.7132 16.6091 64.232C15.1571 62.8341 13.5953 60.312 14.4012 56.235C15.8303 49.0047 23.8094 41.2444 28.4386 37.2623C36.14 30.637 45.6289 24.8341 54.4727 21.3414C69.0565 15.5814 74.5456 11.5403 76.0262 9.81292C74.5971 9.44027 70.6212 8.98703 60.6906 10.6709C37.19 14.6559 17.6989 35.0388 17.505 35.2444C16.5444 36.2609 14.9421 36.3062 13.9253 35.3456C12.9089 34.385 12.8636 32.7823 13.8242 31.7659C14.6644 30.8767 34.6903 9.94321 59.8442 5.67762C65.7712 4.67262 70.513 4.25409 73.9397 4.43586C75.5321 4.51997 80.3774 4.77615 81.3497 8.26115C82.3468 11.8353 78.1715 15.0091 74.9444 17.0853C70.6889 19.8232 64.2533 22.9235 56.3333 26.0517C47.9947 29.345 39.0315 34.8306 31.7418 41.1017C24.8109 47.0638 20.1859 53.0885 19.37 57.217C18.9768 59.207 19.6109 60.0917 20.1224 60.5838C21.6053 62.0109 25.1336 61.5653 30.3262 59.295C36.59 56.5564 44.5318 51.4379 50.7506 47.2847C51.9133 46.5076 53.4859 46.8212 54.2627 47.9841C55.0394 49.147 54.7262 50.7197 53.5633 51.4962C47.1706 55.7656 38.9827 61.0376 32.3544 63.9353C28.9956 65.4038 26.2003 66.2141 23.8092 66.4123C23.4253 66.4444 23.0509 66.4603 22.6865 66.4603Z" fill="url(#sweets_paint16_linear)"/>
<path d="M150.424 49.3689C150.424 54.9701 148.993 60.3518 146.359 65.3689C144.3 69.2953 143.287 73.6912 143.287 78.1277V85.0086C143.287 85.7209 143.179 86.413 142.976 87.0612L99.7869 43.8724C99.4258 36.465 91.2484 30.3774 80.4546 28.9359C80.4749 28.1053 80.8969 27.2986 81.6567 26.8324C91.0696 21.0253 99.9896 16.1027 106.026 14.2727C113.903 11.8824 119.91 12.5845 123.877 16.3659L149.617 42.1503C150.147 44.5071 150.424 46.9145 150.424 49.3689Z" fill="url(#sweets_paint17_linear)"/>
<path d="M100.931 44.1456C100.012 44.1456 99.1259 43.6442 98.6768 42.7709C98.0371 41.5274 98.5271 40.0006 99.7709 39.3609C105.575 36.3762 120.993 28.4477 121.775 23.023C121.866 22.3959 121.82 21.4036 120.381 20.0321C115.479 15.3592 102.522 19.9121 84.3145 31.1418C83.1242 31.8756 81.5645 31.5059 80.8301 30.3156C80.0962 29.1253 80.4657 27.565 81.6562 26.8309C91.0692 21.0256 99.9877 16.1027 106.024 14.2712C113.904 11.8809 119.91 12.5856 123.875 16.3668C126.765 19.1215 127.054 21.9003 126.788 23.7462C125.829 30.3947 116.219 36.5971 102.087 43.865C101.716 44.0553 101.321 44.1456 100.931 44.1456Z" fill="url(#sweets_paint18_linear)"/>
<path d="M150.183 53.3136L140.985 44.1159C140.554 43.61 140.023 43.1227 139.392 42.6547C129.922 35.635 111.18 48.2768 91.3398 61.6609C86.4872 64.9344 81.801 68.0947 77.4045 70.855C77.3822 70.8412 77.3601 70.8271 77.3375 70.8141C77.3172 70.7791 66.2057 59.65 66.1837 59.6159C66.0216 59.3647 65.821 59.1544 65.5969 58.9824C65.0292 58.8212 64.4704 58.6494 63.9266 58.4615C63.4981 58.483 63.0693 58.6115 62.6831 58.8609C55.6004 63.4306 46.4801 70.4565 49.0342 78.6736C49.6716 80.7239 50.6904 82.0853 51.769 82.9915L74.4813 105.704C74.7213 103.448 76.6298 101.687 78.9519 101.687C80.191 101.687 81.3151 102.19 82.129 103.004C82.9428 103.821 83.4457 104.942 83.4457 106.184V108.199C83.4457 112.04 86.4804 115.294 90.3216 115.34C92.2769 115.364 94.0487 114.58 95.3269 113.301C96.5863 112.042 97.366 110.303 97.366 108.379V104.919C97.366 100.094 100.553 95.8324 105.195 94.5147C113.8 92.0718 121.569 88.6021 128.143 84.3412C128.671 83.9991 129.366 84.3794 129.366 85.0083C129.366 88.8503 132.482 91.9668 136.328 91.9668C138.249 91.9668 139.988 91.1868 141.247 89.9277C142.507 88.6683 143.287 86.9294 143.287 85.0086V78.1274C143.287 73.6912 144.299 69.2968 146.36 65.3686C148.368 61.5421 149.675 57.5015 150.183 53.3136Z" fill="url(#sweets_paint19_linear)"/>
<path d="M57.4076 84.8753C56.2447 84.8756 55.1676 84.7118 54.1814 84.3653C52.4511 83.7574 50.1541 82.2762 49.0341 78.6736C46.4797 70.4562 55.6003 63.4306 62.6829 58.8609C63.8576 58.1027 65.4253 58.4406 66.1835 59.6159C66.9417 60.7912 66.6038 62.3583 65.4285 63.1165C56.6256 68.7962 52.7367 73.5244 53.8703 77.1703C54.4014 78.8795 55.2129 79.3597 55.8608 79.5874C57.5288 80.1733 61.2453 79.9439 69.4761 75.52C75.9632 72.0339 83.432 66.9953 91.34 61.6609C111.181 48.2768 129.922 35.635 139.392 42.6547C141.44 44.1724 142.44 45.8974 142.364 47.7818C142.212 51.5797 138.049 54.1765 131.154 58.4783C123.38 63.3274 112.734 69.9689 104.128 80.8886C103.261 81.9871 101.67 82.1756 100.571 81.3097C99.4732 80.4441 99.2847 78.8518 100.15 77.7536C109.304 66.1397 120.383 59.228 128.473 54.1815C132.039 51.9568 136.904 48.9224 137.291 47.6147C137.232 47.5074 137.023 47.203 136.376 46.7236C129.783 41.8368 110.038 55.1568 94.172 65.8594C79.1773 75.9744 65.9823 84.8744 57.4076 84.8753Z" fill="url(#sweets_paint20_linear)"/>
<defs>
<linearGradient id="sweets_paint0_linear" x1="44.4524" y1="53.178" x2="114.003" y2="78.4998" gradientUnits="userSpaceOnUse">
<stop stop-color="#FAA68E"/>
<stop offset="0.2061" stop-color="#FBA682"/>
<stop offset="0.5808" stop-color="#FDA861"/>
<stop offset="1" stop-color="#FFA936"/>
</linearGradient>
<linearGradient id="sweets_paint1_linear" x1="44.4524" y1="53.178" x2="114.003" y2="78.4998" gradientUnits="userSpaceOnUse">
<stop stop-color="#FAA68E"/>
<stop offset="0.2061" stop-color="#FBA682"/>
<stop offset="0.5808" stop-color="#FDA861"/>
<stop offset="1" stop-color="#FFA936"/>
</linearGradient>
<linearGradient id="sweets_paint2_linear" x1="115.054" y1="94.4448" x2="-15.0439" y2="103.223" gradientUnits="userSpaceOnUse">
<stop stop-color="#F82814" stop-opacity="0"/>
<stop offset="0.2454" stop-color="#F12817" stop-opacity="0.245"/>
<stop offset="0.6052" stop-color="#DD2820" stop-opacity="0.605"/>
<stop offset="1" stop-color="#C0272D"/>
</linearGradient>
<linearGradient id="sweets_paint3_linear" x1="119.067" y1="94.0553" x2="41.6381" y2="99.4574" gradientUnits="userSpaceOnUse">
<stop stop-color="#F82814" stop-opacity="0"/>
<stop offset="0.2454" stop-color="#F12817" stop-opacity="0.245"/>
<stop offset="0.6052" stop-color="#DD2820" stop-opacity="0.605"/>
<stop offset="1" stop-color="#C0272D"/>
</linearGradient>
<linearGradient id="sweets_paint4_linear" x1="164.088" y1="78.7701" x2="137.078" y2="61.0448" gradientUnits="userSpaceOnUse">
<stop stop-color="#F82814" stop-opacity="0"/>
<stop offset="0.2454" stop-color="#F12817" stop-opacity="0.245"/>
<stop offset="0.6052" stop-color="#DD2820" stop-opacity="0.605"/>
<stop offset="1" stop-color="#C0272D"/>
</linearGradient>
<radialGradient id="sweets_paint5_radial" cx="0" cy="0" r="1" gradientUnits="userSpaceOnUse" gradientTransform="translate(62.9318 30.7112) scale(100.275 69.19)">
<stop stop-color="#A57C52"/>
<stop offset="0.2601" stop-color="#A47950"/>
<stop offset="0.4581" stop-color="#A26F4C"/>
<stop offset="0.6356" stop-color="#9F5F44"/>
<stop offset="0.8011" stop-color="#9A4838"/>
<stop offset="0.9568" stop-color="#942B2A"/>
<stop offset="1" stop-color="#922125"/>
</radialGradient>
<linearGradient id="sweets_paint6_linear" x1="32.9124" y1="101.306" x2="30.8211" y2="87.9984" gradientUnits="userSpaceOnUse">
<stop stop-color="#F82814" stop-opacity="0"/>
<stop offset="0.2454" stop-color="#F12817" stop-opacity="0.245"/>
<stop offset="0.6052" stop-color="#DD2820" stop-opacity="0.605"/>
<stop offset="1" stop-color="#C0272D"/>
</linearGradient>
<linearGradient id="sweets_paint7_linear" x1="24.9731" y1="105.017" x2="23.3226" y2="94.5118" gradientUnits="userSpaceOnUse">
<stop stop-color="#F82814" stop-opacity="0"/>
<stop offset="0.2454" stop-color="#F12817" stop-opacity="0.245"/>
<stop offset="0.6052" stop-color="#DD2820" stop-opacity="0.605"/>
<stop offset="1" stop-color="#C0272D"/>
</linearGradient>
<linearGradient id="sweets_paint8_linear" x1="32.9704" y1="109.34" x2="31.9753" y2="103.007" gradientUnits="userSpaceOnUse">
<stop stop-color="#F82814" stop-opacity="0"/>
<stop offset="0.2454" stop-color="#F12817" stop-opacity="0.245"/>
<stop offset="0.6052" stop-color="#DD2820" stop-opacity="0.605"/>
<stop offset="1" stop-color="#C0272D"/>
</linearGradient>
<linearGradient id="sweets_paint9_linear" x1="43.5903" y1="107.433" x2="49.8864" y2="99.725" gradientUnits="userSpaceOnUse">
<stop stop-color="#F82814" stop-opacity="0"/>
<stop offset="0.2454" stop-color="#F12817" stop-opacity="0.245"/>
<stop offset="0.6052" stop-color="#DD2820" stop-opacity="0.605"/>
<stop offset="1" stop-color="#C0272D"/>
</linearGradient>
<linearGradient id="sweets_paint10_linear" x1="37.6351" y1="104.89" x2="42.6054" y2="98.8057" gradientUnits="userSpaceOnUse">
<stop stop-color="#F82814" stop-opacity="0"/>
<stop offset="0.2454" stop-color="#F12817" stop-opacity="0.245"/>
<stop offset="0.6052" stop-color="#DD2820" stop-opacity="0.605"/>
<stop offset="1" stop-color="#C0272D"/>
</linearGradient>
<linearGradient id="sweets_paint11_linear" x1="39.1954" y1="111.424" x2="42.192" y2="107.755" gradientUnits="userSpaceOnUse">
<stop stop-color="#F82814" stop-opacity="0"/>
<stop offset="0.2454" stop-color="#F12817" stop-opacity="0.245"/>
<stop offset="0.6052" stop-color="#DD2820" stop-opacity="0.605"/>
<stop offset="1" stop-color="#C0272D"/>
</linearGradient>
<linearGradient id="sweets_paint12_linear" x1="130.163" y1="98.1409" x2="136.459" y2="90.4331" gradientUnits="userSpaceOnUse">
<stop stop-color="#F82814" stop-opacity="0"/>
<stop offset="0.2454" stop-color="#F12817" stop-opacity="0.245"/>
<stop offset="0.6052" stop-color="#DD2820" stop-opacity="0.605"/>
<stop offset="1" stop-color="#C0272D"/>
</linearGradient>
<linearGradient id="sweets_paint13_linear" x1="124.208" y1="95.5985" x2="129.178" y2="89.5135" gradientUnits="userSpaceOnUse">
<stop stop-color="#F82814" stop-opacity="0"/>
<stop offset="0.2454" stop-color="#F12817" stop-opacity="0.245"/>
<stop offset="0.6052" stop-color="#DD2820" stop-opacity="0.605"/>
<stop offset="1" stop-color="#C0272D"/>
</linearGradient>
<linearGradient id="sweets_paint14_linear" x1="125.768" y1="102.132" x2="128.765" y2="98.463" gradientUnits="userSpaceOnUse">
<stop stop-color="#F82814" stop-opacity="0"/>
<stop offset="0.2454" stop-color="#F12817" stop-opacity="0.245"/>
<stop offset="0.6052" stop-color="#DD2820" stop-opacity="0.605"/>
<stop offset="1" stop-color="#C0272D"/>
</linearGradient>
<linearGradient id="sweets_paint15_linear" x1="73.5896" y1="58.9357" x2="-10.3105" y2="-46.4031" gradientUnits="userSpaceOnUse">
<stop stop-color="#42210B" stop-opacity="0"/>
<stop offset="1" stop-color="#42210B"/>
</linearGradient>
<linearGradient id="sweets_paint16_linear" x1="37.5353" y1="17.4709" x2="65.8959" y2="64.2882" gradientUnits="userSpaceOnUse">
<stop stop-color="#FFDECF"/>
<stop offset="0.3791" stop-color="#FDC4B0"/>
<stop offset="0.7655" stop-color="#FBAE97"/>
<stop offset="1" stop-color="#FAA68E"/>
</linearGradient>
<linearGradient id="sweets_paint17_linear" x1="133.913" y1="54.3983" x2="44.9696" y2="-34.545" gradientUnits="userSpaceOnUse">
<stop stop-color="#42210B" stop-opacity="0"/>
<stop offset="1" stop-color="#42210B"/>
</linearGradient>
<linearGradient id="sweets_paint18_linear" x1="102.589" y1="23.5753" x2="123.324" y2="48.8177" gradientUnits="userSpaceOnUse">
<stop stop-color="#FFDECF"/>
<stop offset="0.3791" stop-color="#FDC4B0"/>
<stop offset="0.7655" stop-color="#FBAE97"/>
<stop offset="1" stop-color="#FAA68E"/>
</linearGradient>
<linearGradient id="sweets_paint19_linear" x1="113.684" y1="95.4336" x2="64.0531" y2="-7.87967" gradientUnits="userSpaceOnUse">
<stop stop-color="#42210B" stop-opacity="0"/>
<stop offset="1" stop-color="#42210B"/>
</linearGradient>
<linearGradient id="sweets_paint20_linear" x1="89.9829" y1="52.5353" x2="110.916" y2="89.8992" gradientUnits="userSpaceOnUse">
<stop stop-color="#FFDECF"/>
<stop offset="0.3791" stop-color="#FDC4B0"/>
<stop offset="0.7655" stop-color="#FBAE97"/>
<stop offset="1" stop-color="#FAA68E"/>
</linearGradient>
</defs>
</svg>
