<svg width="124" height="137" viewBox="0 0 124 137" fill="none" xmlns="http://www.w3.org/2000/svg">
<path fill-rule="evenodd" clip-rule="evenodd" d="M105.367 131.867L3.26365 118.563C2.00962 116.63 1.44237 114.415 1.78363 112.163L18.306 3.16741C18.5659 1.45273 20.2716 0.254057 22.1121 0.493869L119.954 13.2427C121.795 13.4825 123.072 15.0698 122.812 16.7845L105.367 131.867Z" fill="#E15C42"/>
<path fill-rule="evenodd" clip-rule="evenodd" d="M3.2759 118.564L3.26365 118.563C2.00962 116.63 1.44237 114.415 1.78363 112.163L18.306 3.16741C18.5659 1.45273 20.2716 0.254057 22.1121 0.493869L25.3352 0.913842C23.7874 10.5868 22.1234 20.2417 20.4445 29.8947C18.2762 42.3788 16.2377 54.8813 14.1146 67.3727C12.1741 78.7903 9.85754 90.149 7.8993 101.563C7.87864 101.68 7.97247 101.763 8.07715 101.777C8.14385 101.786 8.21497 101.766 8.26389 101.709C10.5407 99.101 14.1656 98.3047 17.611 98.1331C19.9203 98.0177 22.242 98.1755 24.5442 98.4754C26.3347 98.7087 28.1135 99.0281 29.8648 99.3719C33.5804 100.102 37.2357 101.055 40.9144 101.927C44.435 102.763 48.0124 103.354 51.6095 103.822C53.2674 104.038 54.9301 104.229 56.5923 104.405C63.161 105.098 69.7577 105.535 76.3184 106.293C77.6186 106.443 78.9165 106.603 80.2142 106.773C85.4567 107.456 90.6824 108.273 95.9078 109.051C100.116 109.675 104.33 110.296 108.552 110.858L107.945 114.859L16.4966 102.943L16.4915 102.977C9.12857 102.44 2.65736 106.4 1.786 112.148C1.4445 114.401 2.01177 116.615 3.26577 118.549C3.26923 118.554 3.27243 118.559 3.2759 118.564Z" fill="#E0553D"/>
<path fill-rule="evenodd" clip-rule="evenodd" d="M107.945 114.859L104.639 136.669L13.1905 124.753L13.1951 124.723C8.79847 123.89 5.20745 121.547 3.2658 118.549C2.0118 116.615 1.44453 114.401 1.78603 112.148C2.65739 106.399 9.1286 102.44 16.4915 102.977L16.4967 102.943L107.945 114.859Z" fill="#BF503B"/>
<path fill-rule="evenodd" clip-rule="evenodd" d="M82.4831 12.968C82.4831 12.968 83.3139 13.0122 84.7618 13.1226C86.2084 13.2471 88.2817 13.3844 90.7574 13.6222C93.2349 13.8487 96.1211 14.143 99.209 14.49C100.752 14.6703 102.349 14.8345 103.966 15.0408C105.584 15.2409 107.228 15.4437 108.872 15.6471C109.693 15.757 110.513 15.8666 111.331 15.9762C112.235 16.0803 113.141 16.3577 113.951 16.7551C114.771 17.1528 115.51 17.7153 116.08 18.3979C116.67 19.0769 116.999 19.8876 117.238 20.673C117.642 22.2615 117.344 23.8513 117.102 25.1049C116.859 26.4151 116.629 27.6537 116.416 28.7969C115.988 31.083 115.565 32.9796 115.3 34.3114C115.019 35.6412 114.838 36.3984 114.838 36.3984C114.816 36.4889 114.719 36.546 114.623 36.5256C114.535 36.5076 114.477 36.4333 114.483 36.3522C114.483 36.3522 114.534 35.5779 114.659 34.2279C114.8 32.8799 114.957 30.9487 115.225 28.6417C115.361 27.4885 115.508 26.2391 115.663 24.9175C115.704 24.5872 115.746 24.2529 115.788 23.9135C115.821 23.5831 115.829 23.2739 115.853 22.948C115.888 22.6242 115.82 22.3116 115.817 21.9893C115.803 21.6672 115.696 21.3666 115.646 21.0503C115.435 20.4569 115.185 19.8653 114.74 19.3914C114.308 18.9134 113.764 18.5121 113.137 18.2063C112.501 17.9038 111.819 17.6927 111.083 17.6147C110.263 17.5109 109.442 17.4067 108.622 17.3027C106.981 17.078 105.34 16.8527 103.724 16.6316C102.11 16.4167 100.525 16.1665 98.9884 15.9455C95.9169 15.4898 93.055 15.0351 90.6062 14.6197C88.1557 14.2156 86.1219 13.8178 84.6943 13.5678C83.2697 13.3039 82.4579 13.1341 82.4579 13.1341C82.4095 13.1235 82.3785 13.0786 82.39 13.0334C82.4 12.993 82.4403 12.9659 82.4831 12.968Z" fill="#FFFFFE"/>
<path fill-rule="evenodd" clip-rule="evenodd" d="M107.657 116.761L104.85 135.277L15.7225 123.663L15.7273 123.632C11.7232 122.905 8.37664 121.072 6.36822 118.728C6.30343 118.657 6.24362 118.583 6.18396 118.51C5.4706 117.625 4.94119 116.675 4.63608 115.689C4.61251 115.621 4.5932 115.555 4.57575 115.487C4.33662 114.625 4.26205 113.735 4.38676 112.84L4.41558 112.65C4.56128 111.761 4.89765 110.924 5.38368 110.157C5.42057 110.097 5.4593 110.035 5.50145 109.98C6.08826 109.108 6.87993 108.328 7.82531 107.662C7.90438 107.608 7.98614 107.557 8.06544 107.501C10.6928 105.762 14.4555 104.849 18.5254 105.173L18.5293 105.148L107.657 116.761Z" fill="#DBD5C3"/>
<path fill-rule="evenodd" clip-rule="evenodd" d="M107.104 120.406L107.076 120.594L7.82545 107.662C7.90452 107.608 7.98628 107.557 8.06558 107.501L107.104 120.406Z" fill="#D6BCB4"/>
<path fill-rule="evenodd" clip-rule="evenodd" d="M106.686 123.164L106.658 123.353L5.38374 110.157C5.42064 110.097 5.45936 110.034 5.50152 109.98L106.686 123.164Z" fill="#D6BCB4"/>
<path fill-rule="evenodd" clip-rule="evenodd" d="M4.38676 112.84L106.239 126.112L106.268 125.921L4.41558 112.65L4.38676 112.84Z" fill="#D6BCB4"/>
<path fill-rule="evenodd" clip-rule="evenodd" d="M105.85 128.683L105.821 128.873L4.63609 115.689C4.61253 115.621 4.59322 115.555 4.57577 115.487L105.85 128.683Z" fill="#D6BCB4"/>
<path fill-rule="evenodd" clip-rule="evenodd" d="M105.432 131.441L105.403 131.632L6.36835 118.727C6.30356 118.657 6.24375 118.583 6.1841 118.51L105.432 131.441Z" fill="#D6BCB4"/>
<path fill-rule="evenodd" clip-rule="evenodd" d="M94.0891 25.6159L91.4364 43.1157C91.314 43.923 90.5138 44.4854 89.6478 44.3725L38.8856 37.7582C38.0196 37.6454 37.4221 36.901 37.5445 36.0936L40.1972 18.5939C40.319 17.7908 41.1149 17.2264 41.9808 17.3393L92.7431 23.9536C93.609 24.0664 94.2108 24.8129 94.0891 25.6159Z" fill="#EB926E"/>
<path fill-rule="evenodd" clip-rule="evenodd" d="M45.9671 33.3108C46.4694 33.7369 47.0004 33.9855 47.5579 34.0582C48.2562 34.1492 48.8733 33.9509 49.4155 33.4641C49.9567 32.9743 50.2956 32.2842 50.4305 31.3938C50.5318 30.7261 50.4287 30.1954 50.1226 29.8064C49.8164 29.416 49.4893 29.0946 49.1409 28.841C48.6522 28.9855 48.1421 29.1072 47.6075 29.2086C47.0746 29.3087 46.5796 29.3303 46.1219 29.2706C46.0624 29.9267 46.0199 30.5835 45.9912 31.2407C45.962 31.9006 45.9482 32.5611 45.9479 33.2234C45.966 33.2459 45.9726 33.2741 45.9671 33.3108ZM50.1506 24.997C50.2492 24.3461 50.1006 23.821 49.7042 23.4174C49.3088 23.0167 48.8424 22.7806 48.3044 22.7105C47.8449 22.6506 47.4745 22.7259 47.1902 22.9347C46.9027 23.1429 46.7141 23.5535 46.6212 24.1665C46.5142 24.8723 46.4325 25.5441 46.3762 26.179C46.3211 26.8169 46.2678 27.4335 46.2169 28.0331C46.4797 27.9166 46.7979 27.8302 47.1715 27.7739C47.5451 27.7192 47.9263 27.6123 48.3155 27.4547C48.7063 27.2972 49.0644 27.038 49.3941 26.6728C49.7237 26.3077 49.9762 25.7501 50.1506 24.997ZM53.3508 30.2126C53.5753 30.7346 53.6448 31.2826 53.5577 31.8574C53.4479 32.5815 53.1799 33.2104 52.7544 33.7411C52.3285 34.2733 51.8277 34.7008 51.2505 35.0222C50.6729 35.3448 50.0461 35.5664 49.3685 35.6863C48.6894 35.8047 48.0527 35.8267 47.4543 35.7487C47.1159 35.7046 46.7765 35.6359 46.4342 35.5453C46.0937 35.4536 45.7854 35.3127 45.5087 35.1258C45.3005 35.1562 45.1 35.1675 44.9084 35.1613C44.7167 35.1549 44.531 35.1394 44.3528 35.1162C43.9146 35.0591 43.5823 34.9741 43.3544 34.8609C43.13 34.7456 42.9672 34.6093 42.8687 34.4558C42.7706 34.3008 42.7162 34.1199 42.7066 33.9089C42.6984 33.6994 42.6915 33.4801 42.6844 33.2523C42.6739 30.9233 42.8444 28.5879 43.199 26.2492C43.351 25.2461 43.5045 24.437 43.6592 23.8236C43.8125 23.2086 43.9853 22.7397 44.1765 22.4142C44.366 22.0882 44.5876 21.8772 44.8371 21.776C45.0851 21.6747 45.3818 21.6286 45.726 21.6347C46.2807 21.4628 46.8386 21.3602 47.4012 21.3286C47.9635 21.2984 48.5244 21.3197 49.0821 21.3924C49.4612 21.4418 49.9136 21.5382 50.4403 21.6814C50.9668 21.8276 51.4612 22.043 51.9262 22.3305C52.3896 22.6179 52.7646 22.99 53.0504 23.4424C53.3376 23.8965 53.431 24.459 53.3298 25.1268C53.2286 25.7945 52.9317 26.3809 52.4378 26.884C51.9468 27.389 51.3899 27.7992 50.7746 28.117C51.2886 28.3348 51.7866 28.608 52.2656 28.9348C52.743 29.2629 53.1052 29.688 53.3508 30.2126Z" fill="#FCF9CE"/>
<path fill-rule="evenodd" clip-rule="evenodd" d="M59.0802 35.417C59.4971 35.4713 59.9158 35.2517 60.3358 34.7574C60.7559 34.2634 61.1487 33.6551 61.5102 32.9365C61.8736 32.2165 62.1839 31.4813 62.441 30.7302C62.6956 29.976 62.8614 29.3598 62.9347 28.8766C62.9938 28.4863 63.007 28.0239 62.9769 27.4899C62.9451 26.957 62.8656 26.4454 62.7367 25.9544C62.6074 25.4648 62.4299 25.0395 62.1999 24.6761C61.9709 24.3172 61.6963 24.1148 61.3775 24.0733C61.2975 24.0628 61.1512 24.0825 60.9421 24.13C60.4082 24.3076 59.9665 24.6092 59.6167 25.0364C59.2681 25.465 58.9764 25.9557 58.738 26.5122C58.5028 27.0678 58.3153 27.6639 58.1773 28.2997C58.0411 28.9343 57.9305 29.5419 57.8436 30.1154C57.7759 30.562 57.7373 31.0813 57.7272 31.6763C57.7183 32.2728 57.7531 32.8362 57.8361 33.3672C57.919 33.898 58.0567 34.3614 58.2512 34.7559C58.444 35.1503 58.722 35.3704 59.0802 35.417ZM61.0505 23.0077C61.9369 23.0671 62.7348 23.2616 63.4448 23.5898C64.1575 23.9197 64.7458 24.3598 65.2105 24.9131C65.6752 25.4666 66.0008 26.1239 66.1902 26.8871C66.3796 27.6502 66.4012 28.5036 66.2575 29.4517C66.1082 30.4366 65.8317 31.3876 65.4281 32.3105C65.0248 33.2336 64.5115 34.0374 63.8898 34.7235C63.268 35.4096 62.5336 35.9345 61.6881 36.2971C60.8412 36.6594 59.8992 36.7738 58.864 36.6389C57.9483 36.5196 57.1805 36.2485 56.5647 35.8278C55.9488 35.4084 55.4648 34.8799 55.1139 34.2466C54.7628 33.6146 54.5388 32.9173 54.4414 32.1577C54.3441 31.3964 54.3556 30.6091 54.4797 29.7906C54.6063 28.9552 54.8307 28.1151 55.1519 27.2662C55.4731 26.4188 55.9024 25.67 56.4373 25.0186C56.9717 24.3698 57.6186 23.8536 58.3764 23.4696C59.1356 23.0858 60.0268 22.9303 61.0505 23.0077Z" fill="#FCF9CE"/>
<path fill-rule="evenodd" clip-rule="evenodd" d="M71.2959 37.0088C71.7129 37.0631 72.133 36.8436 72.553 36.3494C72.9731 35.8553 73.3659 35.247 73.7276 34.5284C74.091 33.8085 74.3997 33.073 74.6567 32.3219C74.9128 31.5679 75.0771 30.9515 75.1503 30.4683C75.2095 30.078 75.2227 29.6156 75.1926 29.0816C75.1623 28.5489 75.0813 28.0371 74.9539 27.5463C74.8248 27.0568 74.6457 26.6312 74.4172 26.2681C74.1866 25.9089 73.9122 25.7065 73.5949 25.6652C73.5147 25.6547 73.3684 25.6745 73.1595 25.722C72.624 25.8993 72.1823 26.201 71.834 26.6283C71.4839 27.0567 71.1922 27.5474 70.9554 28.1041C70.7186 28.6595 70.5327 29.2559 70.3947 29.8917C70.2583 30.5262 70.1448 31.1335 70.0579 31.7069C69.9902 32.1536 69.953 32.673 69.9428 33.268C69.9342 33.8646 69.972 34.4283 70.0534 34.9591C70.1347 35.4897 70.2724 35.9531 70.4669 36.3477C70.6614 36.7422 70.9377 36.9621 71.2959 37.0088ZM73.2679 24.5996C74.1526 24.6589 74.9493 24.8532 75.6636 25.1819C76.3733 25.5115 76.9616 25.9516 77.4277 26.5051C77.8909 27.0583 78.2165 27.7156 78.406 28.4788C78.5954 29.2419 78.6186 30.0955 78.4749 31.0436C78.3256 32.0285 78.0489 32.9795 77.6455 33.9024C77.242 34.8255 76.7287 35.6293 76.1071 36.3154C75.4852 37.0016 74.7508 37.5265 73.9039 37.8888C73.0568 38.2511 72.115 38.3655 71.0813 38.2308C70.1641 38.1113 69.3977 37.8404 68.7804 37.4195C68.1645 37.0002 67.6806 36.4716 67.3297 35.8383C66.98 35.2065 66.7546 34.5091 66.6571 33.7494C66.5598 32.9882 66.5728 32.201 66.6969 31.3825C66.8235 30.5471 67.0464 29.7068 67.3693 28.8581C67.6888 28.0105 68.1181 27.2617 68.6546 26.6105C69.1875 25.9616 69.8344 25.4453 70.5936 25.0615C71.353 24.6777 72.2455 24.5224 73.2679 24.5996Z" fill="#FCF9CE"/>
<path fill-rule="evenodd" clip-rule="evenodd" d="M87.5671 39.3847C87.5867 39.5195 87.6193 39.6601 87.669 39.8102C87.7177 39.9575 87.7304 40.1071 87.708 40.255C87.6659 40.5326 87.4643 40.683 87.1069 40.7026C86.7498 40.7207 86.4016 40.7098 86.0632 40.6657C85.4058 40.58 84.9803 40.4298 84.7908 40.2155C84.5998 40.0008 84.4467 39.6692 84.3317 39.2189C84.117 38.3576 83.828 37.5196 83.4643 36.7066C83.0993 35.8918 82.6796 35.1231 82.1993 34.3982C82.087 35.1392 82.0193 35.8918 81.9942 36.6558C81.9707 37.4214 81.9499 38.1886 81.9358 38.9626C81.9187 39.0754 81.845 39.1549 81.7156 39.2055C81.5865 39.2535 81.4381 39.2872 81.2739 39.3033C81.108 39.3203 80.9293 39.3201 80.7407 39.3041C80.5488 39.2891 80.3848 39.272 80.2459 39.2539C79.847 39.202 79.5329 39.1295 79.3041 39.0321C79.0737 38.9361 78.9104 38.8242 78.8062 38.6986C78.7035 38.5717 78.6387 38.4311 78.6114 38.2753C78.5858 38.1196 78.5745 37.9486 78.5832 37.7601C78.5905 36.6448 78.6663 35.5038 78.8121 34.3389C78.9576 33.1755 79.1165 32.0353 79.2855 30.9208C79.3952 30.1967 79.5054 29.4698 79.6167 28.7357C79.7278 28.003 79.8854 27.2895 80.0933 26.5982C80.1132 26.4672 80.1791 26.3578 80.2944 26.268C80.4095 26.1797 80.546 26.1127 80.7069 26.0674C80.865 26.0207 81.0178 25.9888 81.1625 25.9689C81.3072 25.9503 81.4308 25.9478 81.5291 25.9606C81.6681 25.9787 81.8433 26.0016 82.0519 26.0287C82.2605 26.0559 82.4625 26.0952 82.659 26.1509C82.8529 26.2035 83.0151 26.2721 83.1458 26.3551C83.2733 26.4393 83.3295 26.5458 83.3099 26.6754C83.3071 26.6936 83.2989 26.707 83.2885 26.7157C83.2763 26.7241 83.2683 26.736 83.2655 26.7544C83.2572 26.8093 83.2675 26.8537 83.2916 26.8871C83.3193 26.918 83.328 26.9522 83.3225 26.9887C83.2379 27.5467 83.1391 28.1069 83.0214 28.6693C82.907 29.2319 82.804 29.799 82.7166 30.3752C83.1101 30.0673 83.4938 29.7523 83.8659 29.4316C84.2397 29.111 84.614 28.7863 84.9892 28.4559C85.1536 28.3077 85.3307 28.1355 85.523 27.9435C85.7158 27.7503 85.9235 27.579 86.1498 27.4275C86.3759 27.2788 86.6224 27.1558 86.8918 27.0559C87.1608 26.9588 87.4549 26.9309 87.7722 26.9723C88.0712 27.0112 88.319 27.1155 88.517 27.2836C88.7152 27.45 88.7893 27.6925 88.7415 28.008C88.7332 28.0629 88.7184 28.0998 88.6959 28.1156C88.4008 28.5886 88.0458 29.0194 87.632 29.4109C87.2169 29.8021 86.7783 30.1846 86.3144 30.5609C85.8508 30.9359 85.3839 31.3104 84.9114 31.6841C84.4371 32.0576 83.9966 32.4629 83.5848 32.902C84.0876 33.1946 84.5406 33.5811 84.9475 34.0593C85.3508 34.5387 85.7169 35.0719 86.0446 35.6649C86.3709 36.2562 86.6569 36.8712 86.9052 37.5098C87.1538 38.147 87.3748 38.7734 87.5671 39.3847Z" fill="#FCF9CE"/>
<path fill-rule="evenodd" clip-rule="evenodd" d="M105.384 131.756L105.445 131.351C105.453 131.352 105.46 131.353 105.467 131.354C105.438 131.487 105.41 131.621 105.384 131.756Z" fill="#D7D5CB"/>
<path fill-rule="evenodd" clip-rule="evenodd" d="M104.786 135.702C103.918 135.584 103.047 135.468 102.181 135.351C93.743 134.21 85.3078 133.071 76.87 131.93C63.2531 130.088 49.6342 128.247 36.0171 126.407C29.2538 125.492 22.4878 124.576 15.7226 123.664L104.85 135.277C104.829 135.419 104.807 135.56 104.786 135.702Z" fill="#B74E39"/>
<path fill-rule="evenodd" clip-rule="evenodd" d="M104.85 135.277L15.7225 123.663L15.7273 123.632C11.7232 122.905 8.37664 121.072 6.36822 118.728L13.4671 119.653C14.1787 120.122 14.9291 120.524 15.6877 120.843C18.3017 121.943 21.1313 122.515 23.9903 122.887C25.8366 123.128 27.6955 123.286 29.5158 123.448C30.9243 123.573 32.3269 123.733 33.7267 123.916C36.0042 124.212 38.2737 124.567 40.5427 124.922C42.8128 125.276 45.0828 125.631 47.3619 125.928C47.6552 125.966 47.9493 126.003 48.2428 126.04C57.1491 127.137 66.1407 127.51 75.0392 128.669C75.2528 128.697 75.4674 128.726 75.6809 128.754C79.2203 129.231 82.7425 129.835 86.2846 130.296C87.8278 130.498 89.3752 130.671 90.9289 130.795C91.1995 130.819 91.471 130.838 91.7414 130.853C94.6183 131.027 97.5176 130.919 100.402 130.98L105.403 131.632L105.384 131.757C105.154 132.913 105.015 134.111 104.848 135.276L104.85 135.277ZM105.431 131.442L102.517 131.062C103.357 131.112 104.196 131.185 105.032 131.294C105.17 131.312 105.307 131.331 105.445 131.351L105.431 131.442ZM13.1156 119.413L6.18396 118.51C5.4706 117.625 4.94119 116.675 4.63608 115.689L10.0638 116.396C10.8477 117.534 11.9168 118.569 13.1156 119.413ZM9.92144 116.183L4.57575 115.487C4.33662 114.625 4.26205 113.735 4.38676 112.84L9.12765 113.458C9.0811 114.334 9.31915 115.257 9.91953 116.18C9.92017 116.181 9.92095 116.182 9.92144 116.183ZM9.14251 113.266L4.41558 112.65C4.56128 111.761 4.89765 110.924 5.38368 110.157L10.2237 110.788C9.62225 111.525 9.2333 112.369 9.14251 113.266ZM10.3706 110.614L5.50145 109.98C6.08826 109.108 6.87993 108.328 7.82531 107.662L13.7952 108.44C13.6892 108.476 13.584 108.513 13.4799 108.551C12.2386 109.01 11.1496 109.73 10.3706 110.614ZM14.2292 108.304L8.06544 107.501C10.6928 105.762 14.4555 104.849 18.5254 105.173L18.5293 105.148L107.657 116.761L107.329 118.924C106.913 118.907 106.498 118.877 106.085 118.824C105.983 118.81 105.88 118.795 105.777 118.779C101.358 118.071 96.9254 117.451 92.4852 116.872C91.0971 116.691 89.7076 116.514 88.3185 116.34C83.3646 115.719 78.4052 115.123 73.448 114.533C64.365 113.45 55.2785 112.39 46.2041 111.239C46.0393 111.218 45.8749 111.197 45.71 111.175C42.7519 110.79 39.7856 110.318 36.8146 109.845C33.8439 109.373 30.8684 108.9 27.8911 108.512C25.2667 108.17 22.6408 107.894 20.0158 107.743C18.1392 107.635 16.0636 107.768 14.2292 108.304Z" fill="#D0C9B4"/>
<path fill-rule="evenodd" clip-rule="evenodd" d="M13.7952 108.44L7.82551 107.662C7.90456 107.608 7.9863 107.557 8.06557 107.501L14.2291 108.304C14.0828 108.347 13.9381 108.392 13.7952 108.44Z" fill="#CCB3A8"/>
<path fill-rule="evenodd" clip-rule="evenodd" d="M10.2236 110.787L5.3838 110.156C5.42068 110.097 5.45938 110.034 5.50151 109.98L10.3705 110.614C10.3202 110.671 10.2712 110.729 10.2236 110.787Z" fill="#CCB3A8"/>
<path fill-rule="evenodd" clip-rule="evenodd" d="M9.12754 113.458L4.38682 112.84L4.41558 112.65L9.14234 113.266C9.13586 113.33 9.13094 113.393 9.12754 113.458Z" fill="#CCB3A8"/>
<path fill-rule="evenodd" clip-rule="evenodd" d="M10.0637 116.396L4.63615 115.688C4.61257 115.621 4.59324 115.555 4.57577 115.487L9.92127 116.183C9.96772 116.255 10.0151 116.325 10.0637 116.396Z" fill="#CCB3A8"/>
<path fill-rule="evenodd" clip-rule="evenodd" d="M105.403 131.632L100.402 130.98C101.108 130.995 101.813 131.02 102.517 131.062L105.432 131.441L105.403 131.632ZM13.4672 119.652L6.36835 118.727C6.30356 118.657 6.24375 118.583 6.1841 118.51L13.1158 119.413C13.2318 119.494 13.3489 119.574 13.4672 119.652Z" fill="#CCB3A8"/>
<path fill-rule="evenodd" clip-rule="evenodd" d="M93.836 103.301C90.697 102.892 87.5566 102.409 84.4535 101.969C72.7021 100.303 60.9965 98.3957 49.1601 96.8534C43.1866 96.075 37.3846 95.0619 31.5614 94.0445C28.8566 93.571 25.9557 92.7116 23.0905 92.3383C20.8498 92.0463 18.6311 92.0517 16.5453 92.7718C16.9988 87.5739 18.4526 82.2837 19.7445 77.2367C21.7987 69.2159 23.2553 60.9995 24.5021 52.7744C26.1769 41.7258 27.3304 30.335 29.8142 19.4192C30.5562 16.1611 31.9051 13.7264 35.7323 13.3343C40.6772 12.8264 46.3038 13.1271 51.3198 13.1356C54.3427 13.1396 57.4212 13.4309 60.5049 13.8327C64.4906 14.352 68.4848 15.0561 72.3755 15.563C80.0685 16.5654 87.465 18.0709 94.9421 19.5522C99.8237 20.5187 107.517 22.0644 110.014 26.6755C111.441 29.3123 110.064 31.716 109.676 34.3896C109.181 37.7948 108.899 41.3426 108.371 44.824C107.182 52.6674 105.479 60.2425 104.29 68.0871C103.3 74.6159 102.311 81.1434 101.321 87.6721C100.88 90.5815 100.382 93.4431 100.557 96.3222C100.709 98.8362 101.237 101.514 100.471 104.016C98.2689 103.842 96.0528 103.589 93.836 103.301ZM41.9809 17.3395C41.1149 17.2267 40.319 17.7911 40.1973 18.5941L37.5445 36.0938C37.4221 36.9012 38.0197 37.6457 38.8856 37.7585L89.6479 44.3728C90.5138 44.4856 91.314 43.9233 91.4364 43.1159L94.0891 25.6162C94.2109 24.8131 93.6091 24.0667 92.7431 23.9538L41.9809 17.3395Z" fill="#E3674B"/>
<path fill-rule="evenodd" clip-rule="evenodd" d="M89.6478 44.3725L38.8856 37.7582C38.0196 37.6454 37.4221 36.901 37.5445 36.0936L40.1972 18.5939C40.319 17.7908 41.1149 17.2264 41.9808 17.3393L92.7431 23.9536C93.609 24.0664 94.2108 24.8129 94.0891 25.6159L91.4364 43.1157C91.314 43.923 90.5138 44.4854 89.6478 44.3725ZM45.5086 35.1256C45.7853 35.3125 46.0937 35.4534 46.4342 35.5451C46.7764 35.6357 47.1158 35.7044 47.4542 35.7485C48.0527 35.8264 48.6893 35.8044 49.3685 35.686C50.0461 35.5661 50.6729 35.3445 51.2504 35.022C51.8277 34.7006 52.3285 34.2731 52.7544 33.7408C53.1799 33.2102 53.4479 32.5813 53.5577 31.8572C53.6448 31.2823 53.5753 30.7344 53.3508 30.2123C53.1051 29.6877 52.7429 29.2626 52.2656 28.9346C51.7866 28.6078 51.2886 28.3346 50.7746 28.1168C51.3899 27.799 51.9467 27.3888 52.4377 26.8838C52.9317 26.3807 53.2285 25.7943 53.3297 25.1266C53.431 24.4587 53.3375 23.8963 53.0504 23.4422C52.7646 22.9898 52.3896 22.6177 51.9261 22.3303C51.4611 22.0428 50.9667 21.8273 50.4403 21.6812C49.9135 21.538 49.4612 21.4416 49.082 21.3922C48.5243 21.3195 47.9635 21.2982 47.4011 21.3284C46.8386 21.3599 46.2806 21.4625 45.7259 21.6344C45.3818 21.6284 45.0851 21.6745 44.8371 21.7758C44.5875 21.877 44.3659 22.088 44.1764 22.4139C43.9852 22.7395 43.8124 23.2084 43.6591 23.8233C43.5045 24.4367 43.351 25.2458 43.1989 26.249C42.8444 28.5877 42.6738 30.9231 42.6844 33.252C42.6914 33.4799 42.6983 33.6992 42.7066 33.9087C42.7162 34.1196 42.7705 34.3006 42.8686 34.4556C42.9671 34.6091 43.1299 34.7453 43.3544 34.8607C43.5822 34.9738 43.9145 35.0589 44.3528 35.116C44.531 35.1392 44.7167 35.1547 44.9083 35.1611C45.1 35.1673 45.3005 35.156 45.5086 35.1256ZM82.1992 34.3981C82.6795 35.123 83.0993 35.8918 83.4643 36.7065C83.8279 37.5196 84.117 38.3576 84.3316 39.2189C84.4466 39.6692 84.5997 40.0008 84.7907 40.2154C84.9802 40.4297 85.4058 40.58 86.0631 40.6657C86.4015 40.7097 86.7497 40.7206 87.1068 40.7026C87.4642 40.6829 87.6658 40.5326 87.7079 40.255C87.7303 40.107 87.7176 39.9575 87.6689 39.8102C87.6192 39.6601 87.5866 39.5195 87.567 39.3847C87.3747 38.7734 87.1537 38.147 86.9051 37.5098C86.6568 36.8711 86.3708 36.2562 86.0446 35.6649C85.7168 35.0719 85.3507 34.5387 84.9474 34.0593C84.5406 33.581 84.0876 33.1945 83.5847 32.9019C83.9965 32.4628 84.437 32.0575 84.9113 31.6841C85.3838 31.3104 85.8507 30.9358 86.3143 30.5608C86.7782 30.1845 87.2168 29.802 87.6319 29.4108C88.0457 29.0193 88.4007 28.5886 88.6959 28.1156C88.7183 28.0998 88.7331 28.0629 88.7414 28.008C88.7893 27.6925 88.7151 27.45 88.5169 27.2835C88.319 27.1154 88.0711 27.0112 87.7721 26.9722C87.4549 26.9309 87.1608 26.9588 86.8918 27.0558C86.6223 27.1558 86.3758 27.2788 86.1497 27.4274C85.9234 27.579 85.7157 27.7502 85.5229 27.9435C85.3306 28.1355 85.1535 28.3076 84.9892 28.4559C84.6139 28.7862 84.2396 29.1109 83.8658 29.4316C83.4937 29.7523 83.11 30.0672 82.7166 30.3751C82.8039 29.799 82.9069 29.2319 83.0213 28.6693C83.139 28.1069 83.2378 27.5467 83.3224 26.9887C83.328 26.9521 83.3192 26.9179 83.2915 26.8871C83.2674 26.8537 83.2571 26.8093 83.2654 26.7544C83.2682 26.736 83.2762 26.7241 83.2884 26.7156C83.2989 26.707 83.3071 26.6936 83.3098 26.6754C83.3295 26.5458 83.2732 26.4392 83.1457 26.3551C83.015 26.272 82.8529 26.2034 82.6589 26.1509C82.4624 26.0952 82.2604 26.0559 82.0518 26.0287C81.8432 26.0015 81.668 25.9787 81.529 25.9606C81.4307 25.9478 81.3071 25.9503 81.1625 25.9689C81.0177 25.9888 80.8649 26.0206 80.7068 26.0674C80.5459 26.1126 80.4094 26.1796 80.2943 26.268C80.179 26.3578 80.1131 26.4672 80.0932 26.5982C79.8853 27.2894 79.7277 28.003 79.6166 28.7356C79.5053 29.4697 79.3951 30.1967 79.2854 30.9208C79.1164 32.0353 78.9575 33.1754 78.812 34.3388C78.6662 35.5038 78.5904 36.6447 78.5831 37.7601C78.5744 37.9486 78.5857 38.1196 78.6113 38.2752C78.6386 38.4311 78.7034 38.5717 78.8061 38.6986C78.9103 38.8242 79.0736 38.936 79.304 39.0321C79.5328 39.1294 79.8469 39.2019 80.2458 39.2539C80.3847 39.272 80.5487 39.2891 80.7406 39.3041C80.9292 39.3201 81.1079 39.3202 81.2738 39.3032C81.438 39.2872 81.5864 39.2534 81.7155 39.2055C81.8449 39.1548 81.9186 39.0754 81.9357 38.9626C81.9498 38.1886 81.9706 37.4213 81.9941 36.6558C82.0192 35.8917 82.0869 35.1392 82.1992 34.3981ZM73.766 24.6484C73.6032 24.6272 73.4371 24.6109 73.2678 24.5996C72.2454 24.5224 71.3529 24.6777 70.5936 25.0615C69.8343 25.4453 69.1874 25.9615 68.6545 26.6104C68.118 27.2617 67.6887 28.0105 67.3692 28.8581C67.0463 29.7068 66.8234 30.5471 66.6968 31.3825C66.5727 32.201 66.5597 32.9881 66.657 33.7494C66.7545 34.5091 66.9799 35.2065 67.3296 35.8383C67.6806 36.4716 68.1644 37.0001 68.7803 37.4195C69.3976 37.8404 70.164 38.1113 71.0812 38.2308C72.1149 38.3655 73.0568 38.2511 73.9038 37.8888C74.7507 37.5264 75.4851 37.0015 76.1071 36.3154C76.7287 35.6292 77.2419 34.8255 77.6454 33.9024C78.0488 32.9795 78.3255 32.0285 78.4748 31.0436C78.6185 30.0955 78.5953 29.2419 78.4059 28.4788C78.2164 27.7156 77.8908 27.0583 77.4277 26.505C76.9615 25.9515 76.3732 25.5114 75.6635 25.1819C75.0858 24.9161 74.4544 24.7381 73.766 24.6484ZM61.5496 23.0566C61.3865 23.0354 61.22 23.019 61.0505 23.0077C60.0267 22.9303 59.1356 23.0858 58.3764 23.4696C57.6185 23.8536 56.9716 24.3698 56.4373 25.0186C55.9024 25.67 55.4731 26.4188 55.1518 27.2662C54.8307 28.1151 54.6062 28.9552 54.4796 29.7906C54.3555 30.6091 54.344 31.3964 54.4413 32.1577C54.5387 32.9173 54.7628 33.6146 55.1139 34.2466C55.4648 34.8799 55.9487 35.4084 56.5647 35.8278C57.1805 36.2485 57.9483 36.5196 58.864 36.6389C59.8991 36.7738 60.8411 36.6594 61.688 36.2971C62.5335 35.9345 63.2679 35.4096 63.8897 34.7235C64.5115 34.0373 65.0247 33.2336 65.4281 32.3105C65.8316 31.3876 66.1081 30.4366 66.2574 29.4517C66.4012 28.5036 66.3795 27.6502 66.1901 26.8871C66.0008 26.1239 65.6752 25.4666 65.2105 24.9131C64.7457 24.3598 64.1574 23.9197 63.4447 23.5898C62.8706 23.3245 62.2391 23.1465 61.5496 23.0566ZM47.5579 34.058C47.0004 33.9853 46.4694 33.7367 45.967 33.3106C45.9726 33.2739 45.9659 33.2457 45.9479 33.2232C45.9481 32.5609 45.9619 31.9003 45.9911 31.2405C46.0199 30.5833 46.0624 29.9265 46.1218 29.2704C46.5796 29.3301 47.0745 29.3084 47.6075 29.2083C48.142 29.1069 48.6521 28.9853 49.1408 28.8408C49.4892 29.0943 49.8164 29.4158 50.1225 29.8062C50.4287 30.1952 50.5317 30.7259 50.4305 31.3936C50.2955 32.2839 49.9567 32.9741 49.4155 33.4638C48.8732 33.9507 48.2562 34.1489 47.5579 34.058ZM71.2958 37.0087C70.9376 36.962 70.6613 36.7422 70.4668 36.3476C70.2723 35.9531 70.1346 35.4897 70.0533 34.9591C69.972 34.4283 69.9341 33.8645 69.9427 33.2679C69.9529 32.673 69.9901 32.1535 70.0578 31.7069C70.1447 31.1335 70.2583 30.5262 70.3946 29.8917C70.5326 29.2559 70.7185 28.6595 70.9553 28.1041C71.1921 27.5474 71.4838 27.0567 71.8339 26.6282C72.1822 26.2009 72.6239 25.8993 73.1594 25.722C73.3684 25.6744 73.5146 25.6547 73.5948 25.6652C73.9121 25.7065 74.1865 25.9089 74.4172 26.268C74.6457 26.6312 74.8247 27.0567 74.9538 27.5463C75.0812 28.037 75.1623 28.5489 75.1925 29.0816C75.2226 29.6156 75.2094 30.078 75.1503 30.4683C75.077 30.9515 74.9127 31.5679 74.6566 32.3219C74.3996 33.073 74.0909 33.8084 73.7275 34.5284C73.3659 35.2469 72.973 35.8553 72.5529 36.3493C72.1329 36.8435 71.7128 37.0631 71.2958 37.0087ZM59.0802 35.417C58.722 35.3703 58.444 35.1503 58.2512 34.7559C58.0567 34.3614 57.919 33.898 57.8361 33.3672C57.7531 32.8362 57.7183 32.2728 57.7271 31.6762C57.7373 31.0813 57.7758 30.562 57.8435 30.1154C57.9305 29.5419 58.0411 28.9343 58.1773 28.2997C58.3152 27.6639 58.5027 27.0678 58.738 26.5122C58.9763 25.9557 59.268 25.465 59.6167 25.0364C59.9664 24.6092 60.4081 24.3076 60.942 24.13C61.1512 24.0825 61.2974 24.0628 61.3775 24.0732C61.6963 24.1148 61.9708 24.3172 62.1998 24.6761C62.4299 25.0395 62.6073 25.4648 62.7367 25.9544C62.8656 26.4454 62.9451 26.957 62.9769 27.4899C63.007 28.0239 62.9938 28.4863 62.9346 28.8766C62.8614 29.3598 62.6955 29.976 62.4409 30.7302C62.1838 31.4812 61.8736 32.2165 61.5102 32.9365C61.1487 33.6551 60.7558 34.2634 60.3357 34.7574C59.9157 35.2516 59.497 35.4713 59.0802 35.417ZM46.2169 28.0329C46.2678 27.4333 46.3211 26.8167 46.3762 26.1788C46.4324 25.5438 46.5142 24.8721 46.6212 24.1662C46.7141 23.5533 46.9027 23.1426 47.1901 22.9344C47.4745 22.7257 47.8449 22.6504 48.3043 22.7103C48.8423 22.7804 49.3088 23.0165 49.7041 23.4171C50.1006 23.8207 50.2492 24.3458 50.1505 24.9968C49.9761 25.7499 49.7236 26.3075 49.3941 26.6726C49.0644 27.0377 48.7062 27.297 48.3155 27.4544C47.9263 27.6121 47.5451 27.719 47.1715 27.7737C46.7978 27.8299 46.4797 27.9163 46.2169 28.0329Z" fill="#ED9A76"/>
<path fill-rule="evenodd" clip-rule="evenodd" d="M47.4543 35.7487C47.1159 35.7046 46.7765 35.6359 46.4342 35.5453C46.0937 35.4536 45.7854 35.3127 45.5087 35.1258C45.3005 35.1562 45.1 35.1675 44.9084 35.1613C44.7167 35.1549 44.531 35.1394 44.3528 35.1162C43.9146 35.0591 43.5823 34.9741 43.3544 34.8609C43.13 34.7456 42.9672 34.6093 42.8687 34.4558C42.7706 34.3008 42.7162 34.1199 42.7066 33.9089C42.6984 33.6994 42.6915 33.4801 42.6844 33.2523C42.6739 30.9233 42.8444 28.5879 43.199 26.2492C43.351 25.2461 43.5045 24.437 43.6592 23.8236C43.8125 23.2086 43.9853 22.7397 44.1765 22.4142C44.366 22.0882 44.5876 21.8772 44.8371 21.776C45.0851 21.6747 45.3818 21.6286 45.726 21.6347C46.2807 21.4628 46.8386 21.3602 47.4012 21.3286C47.9635 21.2984 48.5244 21.3197 49.0821 21.3924C49.4612 21.4418 49.9136 21.5382 50.4403 21.6814C50.9668 21.8276 51.4612 22.043 51.9262 22.3305C52.3896 22.6179 52.7646 22.99 53.0504 23.4424C53.3376 23.8965 53.431 24.459 53.3298 25.1268C53.2286 25.7945 52.9317 26.3809 52.4378 26.884C51.9468 27.389 51.3899 27.7992 50.7746 28.117C51.2886 28.3348 51.7866 28.608 52.2656 28.9348C52.743 29.2629 53.1052 29.688 53.3508 30.2126C53.5753 30.7346 53.6448 31.2826 53.5577 31.8574C53.4479 32.5815 53.1799 33.2104 52.7544 33.7411C52.3285 34.2733 51.8277 34.7008 51.2505 35.0222C50.6729 35.3448 50.0461 35.5664 49.3685 35.6863C48.6894 35.8047 48.0527 35.8267 47.4543 35.7487ZM49.1409 28.841C48.6522 28.9855 48.1421 29.1072 47.6075 29.2086C47.0746 29.3087 46.5796 29.3303 46.1219 29.2706C46.0624 29.9267 46.0199 30.5835 45.9912 31.2407C45.962 31.9006 45.9482 32.5611 45.9479 33.2234C45.966 33.2459 45.9726 33.2741 45.9671 33.3108C46.4694 33.7369 47.0004 33.9855 47.5579 34.0582C48.2562 34.1492 48.8733 33.9509 49.4155 33.4641C49.9567 32.9743 50.2956 32.2842 50.4305 31.3938C50.5318 30.7261 50.4287 30.1954 50.1226 29.8064C49.8164 29.416 49.4893 29.0946 49.1409 28.841ZM48.3044 22.7105C47.8449 22.6506 47.4745 22.7259 47.1902 22.9347C46.9027 23.1429 46.7141 23.5535 46.6212 24.1665C46.5142 24.8723 46.4325 25.5441 46.3762 26.179C46.3211 26.8169 46.2678 27.4335 46.2169 28.0331C46.4797 27.9166 46.7979 27.8302 47.1715 27.7739C47.5451 27.7192 47.9263 27.6123 48.3155 27.4547C48.7063 27.2972 49.0644 27.038 49.3941 26.6728C49.7237 26.3077 49.9762 25.7501 50.1506 24.997C50.2492 24.3461 50.1006 23.821 49.7042 23.4174C49.3088 23.0167 48.8424 22.7806 48.3044 22.7105Z" fill="#FDF9D1"/>
<path fill-rule="evenodd" clip-rule="evenodd" d="M58.864 36.6389C57.9483 36.5196 57.1805 36.2485 56.5647 35.8278C55.9488 35.4084 55.4648 34.8799 55.1139 34.2466C54.7628 33.6146 54.5388 32.9173 54.4414 32.1577C54.3441 31.3964 54.3556 30.6091 54.4797 29.7906C54.6063 28.9552 54.8307 28.1151 55.1519 27.2662C55.4731 26.4188 55.9024 25.67 56.4373 25.0186C56.9717 24.3698 57.6186 23.8536 58.3764 23.4696C59.1356 23.0858 60.0268 22.9303 61.0505 23.0077C61.2201 23.019 61.3865 23.0354 61.5496 23.0566C62.2391 23.1465 62.8706 23.3244 63.4448 23.5898C64.1575 23.9197 64.7458 24.3598 65.2105 24.9131C65.6752 25.4666 66.0008 26.1239 66.1902 26.8871C66.3795 27.6502 66.4012 28.5036 66.2575 29.4517C66.1082 30.4366 65.8317 31.3876 65.4281 32.3105C65.0248 33.2336 64.5115 34.0373 63.8897 34.7235C63.268 35.4096 62.5336 35.9345 61.6881 36.2971C60.8412 36.6594 59.8992 36.7738 58.864 36.6389ZM61.3775 24.0732C61.2975 24.0628 61.1512 24.0825 60.9421 24.13C60.4082 24.3076 59.9664 24.6092 59.6167 25.0363C59.2681 25.465 58.9764 25.9557 58.738 26.5122C58.5027 27.0678 58.3153 27.6639 58.1773 28.2997C58.0411 28.9343 57.9305 29.5419 57.8436 30.1154C57.7759 30.562 57.7373 31.0813 57.7271 31.6762C57.7183 32.2728 57.7531 32.8362 57.8361 33.3672C57.919 33.898 58.0567 34.3614 58.2512 34.7559C58.444 35.1503 58.722 35.3703 59.0802 35.417C59.4971 35.4713 59.9158 35.2516 60.3358 34.7574C60.7559 34.2634 61.1487 33.6551 61.5102 32.9365C61.8736 32.2165 62.1839 31.4812 62.441 30.7302C62.6956 29.976 62.8614 29.3598 62.9347 28.8766C62.9938 28.4863 63.007 28.0239 62.9769 27.4899C62.9451 26.957 62.8656 26.4453 62.7367 25.9544C62.6074 25.4648 62.4299 25.0395 62.1999 24.6761C61.9709 24.3172 61.6963 24.1148 61.3775 24.0732Z" fill="#FDF9D1"/>
<path fill-rule="evenodd" clip-rule="evenodd" d="M71.0812 38.2308C70.1641 38.1113 69.3977 37.8404 68.7804 37.4195C68.1644 37.0001 67.6806 36.4716 67.3297 35.8383C66.98 35.2065 66.7546 34.5091 66.6571 33.7494C66.5597 32.9882 66.5728 32.201 66.6969 31.3825C66.8235 30.5471 67.0464 29.7068 67.3693 28.8581C67.6888 28.0105 68.1181 27.2617 68.6545 26.6105C69.1875 25.9616 69.8344 25.4453 70.5936 25.0615C71.353 24.6777 72.2455 24.5224 73.2679 24.5996C73.4371 24.6109 73.6032 24.6272 73.7661 24.6484C74.4545 24.7381 75.0858 24.9161 75.6636 25.1819C76.3733 25.5115 76.9616 25.9516 77.4277 26.5051C77.8909 27.0583 78.2165 27.7156 78.406 28.4788C78.5954 29.2419 78.6186 30.0955 78.4749 31.0436C78.3255 32.0285 78.0489 32.9795 77.6455 33.9024C77.242 34.8255 76.7287 35.6293 76.1071 36.3154C75.4852 37.0015 74.7508 37.5264 73.9039 37.8888C73.0568 38.2511 72.115 38.3655 71.0812 38.2308ZM73.5949 25.6652C73.5147 25.6547 73.3684 25.6745 73.1594 25.722C72.624 25.8993 72.1823 26.2009 71.834 26.6283C71.4839 27.0567 71.1922 27.5474 70.9554 28.1041C70.7186 28.6595 70.5327 29.2559 70.3947 29.8917C70.2583 30.5262 70.1448 31.1335 70.0578 31.7069C69.9901 32.1535 69.953 32.673 69.9428 33.268C69.9341 33.8646 69.972 34.4283 70.0533 34.9591C70.1347 35.4897 70.2724 35.9531 70.4669 36.3477C70.6614 36.7422 70.9377 36.9621 71.2959 37.0087C71.7129 37.0631 72.133 36.8436 72.553 36.3494C72.9731 35.8553 73.3659 35.247 73.7276 34.5284C74.091 33.8085 74.3997 33.073 74.6567 32.3219C74.9128 31.5679 75.0771 30.9515 75.1503 30.4683C75.2095 30.078 75.2227 29.6156 75.1926 29.0816C75.1623 28.5489 75.0813 28.0371 74.9539 27.5463C74.8247 27.0567 74.6457 26.6312 74.4172 26.268C74.1865 25.9089 73.9122 25.7065 73.5949 25.6652Z" fill="#FDF9D1"/>
<path fill-rule="evenodd" clip-rule="evenodd" d="M86.0632 40.6657C85.4058 40.58 84.9803 40.4298 84.7908 40.2155C84.5998 40.0008 84.4467 39.6692 84.3317 39.2189C84.117 38.3576 83.828 37.5196 83.4643 36.7066C83.0993 35.8918 82.6796 35.1231 82.1993 34.3982C82.087 35.1392 82.0193 35.8918 81.9942 36.6558C81.9707 37.4214 81.9499 38.1886 81.9358 38.9626C81.9187 39.0754 81.845 39.1549 81.7156 39.2055C81.5865 39.2535 81.4381 39.2872 81.2739 39.3033C81.108 39.3203 80.9293 39.3201 80.7407 39.3041C80.5488 39.2891 80.3848 39.272 80.2459 39.2539C79.847 39.202 79.5329 39.1295 79.3041 39.0321C79.0737 38.9361 78.9104 38.8242 78.8062 38.6986C78.7035 38.5717 78.6387 38.4311 78.6114 38.2753C78.5858 38.1196 78.5745 37.9486 78.5832 37.7601C78.5905 36.6448 78.6663 35.5038 78.8121 34.3389C78.9576 33.1755 79.1165 32.0353 79.2855 30.9208C79.3952 30.1967 79.5054 29.4698 79.6167 28.7357C79.7278 28.003 79.8854 27.2895 80.0933 26.5982C80.1132 26.4672 80.1791 26.3578 80.2944 26.268C80.4095 26.1797 80.546 26.1127 80.7069 26.0674C80.865 26.0207 81.0178 25.9888 81.1625 25.9689C81.3072 25.9503 81.4308 25.9478 81.5291 25.9606C81.6681 25.9787 81.8433 26.0016 82.0519 26.0287C82.2605 26.0559 82.4625 26.0952 82.659 26.1509C82.8529 26.2035 83.0151 26.2721 83.1458 26.3551C83.2733 26.4393 83.3295 26.5458 83.3099 26.6754C83.3071 26.6936 83.2989 26.707 83.2885 26.7157C83.2763 26.7241 83.2683 26.736 83.2655 26.7544C83.2572 26.8093 83.2675 26.8537 83.2916 26.8871C83.3193 26.918 83.328 26.9522 83.3225 26.9887C83.2379 27.5467 83.1391 28.1069 83.0214 28.6693C82.907 29.2319 82.804 29.799 82.7166 30.3752C83.1101 30.0673 83.4938 29.7523 83.8659 29.4316C84.2397 29.111 84.614 28.7863 84.9892 28.4559C85.1536 28.3077 85.3307 28.1355 85.523 27.9435C85.7158 27.7503 85.9235 27.579 86.1498 27.4275C86.3759 27.2788 86.6224 27.1558 86.8918 27.0559C87.1608 26.9588 87.4549 26.9309 87.7722 26.9723C88.0712 27.0112 88.319 27.1155 88.517 27.2836C88.7152 27.45 88.7893 27.6925 88.7415 28.008C88.7332 28.0629 88.7184 28.0998 88.6959 28.1156C88.4008 28.5886 88.0458 29.0194 87.632 29.4109C87.2169 29.8021 86.7783 30.1846 86.3144 30.5609C85.8508 30.9359 85.3839 31.3104 84.9114 31.6841C84.4371 32.0576 83.9966 32.4629 83.5848 32.902C84.0876 33.1946 84.5406 33.5811 84.9475 34.0593C85.3508 34.5387 85.7169 35.0719 86.0446 35.6649C86.3709 36.2562 86.6569 36.8712 86.9052 37.5098C87.1538 38.147 87.3748 38.7734 87.5671 39.3847C87.5867 39.5195 87.6193 39.6601 87.669 39.8102C87.7177 39.9575 87.7304 40.1071 87.708 40.255C87.6659 40.5326 87.4643 40.683 87.1069 40.7026C86.7498 40.7207 86.4016 40.7098 86.0632 40.6657Z" fill="#FDF9D1"/>
</svg>
