<svg
  width="21"
  height="20"
  viewBox="0 0 21 20"
  fill="none"
  xmlns="http://www.w3.org/2000/svg"
>
  <path
    d="M19.2923 9.50003C19.2956 10.8199 18.9942 12.1219 18.4125 13.3C17.7228 14.7118 16.6625 15.8992 15.3503 16.7293C14.0382 17.5594 12.5261 17.9994 10.9833 18C9.69308 18.0035 8.42033 17.6951 7.26869 17.1L1.69678 19L3.55408 13.3C2.97238 12.1219 2.67094 10.8199 2.67431 9.50003C2.6749 7.92179 3.10502 6.37488 3.91647 5.03258C4.72792 3.69028 5.88867 2.6056 7.26869 1.90003C8.42033 1.30496 9.69308 0.996587 10.9833 1.00003H11.4721C13.5096 1.11502 15.434 1.99479 16.8769 3.47089C18.3199 4.94699 19.1799 6.91568 19.2923 9.00003V9.50003Z"
    stroke="#6A7889"
    stroke-width="2"
    stroke-linecap="round"
    stroke-linejoin="round"
  />
</svg>
