<svg
  width="8"
  height="8"
  viewBox="0 0 8 8"
  fill="none"
  xmlns="http://www.w3.org/2000/svg"
>
  <path
    d="M7.20226 2.97391L5.74253 2.46826C5.6015 2.41937 5.48886 2.30388 5.44117 2.15928L4.94802 0.662592C4.81745 0.266326 4.45561 0 4.04769 0C3.63977 0 3.27793 0.266219 3.14736 0.662485L2.6542 2.15906C2.60652 2.30376 2.49377 2.41927 2.35274 2.46816L0.893119 2.9738C0.506532 3.10767 0.246887 3.47867 0.246887 3.89703C0.246887 4.31528 0.506532 4.68628 0.893013 4.82016L2.35274 5.3258C2.49377 5.37469 2.60652 5.49029 2.6542 5.63489L3.14736 7.13147C3.27793 7.52773 3.63977 7.79406 4.04769 7.79406C4.45561 7.79406 4.81745 7.52784 4.94802 7.13158L5.44117 5.63489C5.48886 5.49029 5.6015 5.37469 5.74253 5.32591L7.20226 4.82026C7.58874 4.68639 7.84849 4.31539 7.84849 3.89714C7.84838 3.47867 7.58863 3.10767 7.20226 2.97391ZM4.04758 4.90098C3.84533 4.46195 3.49661 4.10452 3.06842 3.89703C3.49661 3.68966 3.84522 3.33211 4.04758 2.89308C4.24994 3.33211 4.59855 3.68955 5.02674 3.89703C4.59866 4.10452 4.24994 4.46195 4.04758 4.90098Z"
    fill="#6A7889"
  />
</svg>
