<svg width="56" height="56" viewBox="0 0 56 56" fill="none" xmlns="http://www.w3.org/2000/svg">
<path d="M37.8122 30.8268C39.8552 29.8564 41.8894 29.1486 43.8876 28.715C44.464 28.59 44.8323 28.0095 44.7104 27.4186C44.5885 26.8276 44.023 26.4498 43.4459 26.575C41.1329 27.0768 38.7838 27.916 36.4344 29.0758C35.122 27.471 33.6196 25.7929 31.9987 24.131C30.2762 22.365 28.5358 20.7351 26.8825 19.3318C28.3132 17.4769 29.4809 15.4001 30.3644 13.1272C31.7419 9.58333 32.4404 5.53449 32.4404 1.09277C32.4404 0.488695 31.9627 -0.000976562 31.3737 -0.000976562C30.7846 -0.000976562 30.3069 0.488695 30.3069 1.09277C30.3069 7.93658 28.5954 13.6007 25.2156 17.9715C24.5778 17.4727 23.9594 17.0142 23.3688 16.6059C20.2073 14.4196 18.3243 13.9071 17.2718 14.9475C17.2644 14.9546 17.2566 14.9616 17.2493 14.969C17.2483 14.9701 17.2472 14.971 17.2461 14.972C17.2455 14.9727 17.245 14.9734 17.2443 14.974C16.9748 15.251 16.8083 15.5861 16.7453 15.9858L1.00049 54.4824C0.833006 54.8919 0.923679 55.3648 1.22994 55.6788C1.43412 55.888 1.70699 55.9991 1.98456 55.9991C2.12345 55.9991 2.26362 55.9713 2.39685 55.914C2.39984 55.9127 2.39685 55.914 2.39984 55.9127L39.9429 39.7703C40.2989 39.7112 40.6013 39.562 40.857 39.3261C40.8756 39.3103 40.893 39.2934 40.9104 39.2766C40.9172 39.2697 40.9245 39.264 40.9313 39.257C40.9323 39.2559 40.9332 39.2547 40.9341 39.2537C40.9415 39.2463 40.9483 39.2382 40.9554 39.2304C41.97 38.1512 41.4702 36.2206 39.3379 32.9793C38.8872 32.2942 38.375 31.573 37.8122 30.8268ZM9.37837 48.2071C9.15574 49.6304 8.66067 50.566 8.42246 50.951L3.97638 52.8627L8.4918 41.8226C9.37528 44.0933 9.68154 46.2686 9.37837 48.2071ZM15.9427 44.5063C15.5126 47.0202 14.3718 48.232 14.0474 48.5325L11.2364 49.7411C11.8613 47.4602 12.0256 43.8396 9.6106 39.087L12.8074 31.2712C16.1242 37.7188 16.3731 41.991 15.9427 44.5063ZM19.7479 46.0813L17.4486 47.0701C17.6677 46.5025 17.8609 45.8561 18.0009 45.1236C18.8547 40.6553 17.4609 35.1306 13.8603 28.6969L15.0145 25.875C15.9281 27.0021 16.969 28.5973 17.3906 29.6031C17.5641 30.0173 17.9577 30.2654 18.3711 30.2654C18.5116 30.2654 18.6546 30.2366 18.7919 30.1762C19.3331 29.9377 19.5833 29.2946 19.3507 28.7395C18.7252 27.2472 17.139 24.9251 15.9257 23.6471L17.6894 19.335C17.9983 19.9158 18.3809 20.5521 18.8399 21.2497C19.1558 21.7301 19.502 22.2281 19.8743 22.7399C23.5233 28.4172 23.4407 34.2281 22.7274 38.1054C21.9688 42.2294 20.3445 45.2487 19.7479 46.0813ZM27.9674 42.5473L22.9032 44.7248C23.6344 43.0802 24.3804 40.9212 24.8238 38.5109C25.3189 35.8188 25.5367 32.2785 24.6204 28.4556C25.1257 29.0029 25.6456 29.5514 26.1788 30.0981C27.7745 31.7341 29.385 33.2521 30.928 34.5825C30.775 39.7464 28.465 42.0995 27.9674 42.5473ZM31.6445 40.9663C32.2155 39.755 32.7198 38.1939 32.9447 36.244C33.5886 36.748 34.2129 37.2111 34.8088 37.6231C35.4895 38.0939 36.11 38.486 36.6767 38.8028L31.6445 40.9663ZM35.3965 35.3803C33.0774 33.6956 30.3396 31.2703 27.6875 28.5511C25.0356 25.8321 22.6701 23.025 21.0271 20.6472C19.4382 18.3478 19.01 17.1736 18.8972 16.665C19.3933 16.7808 20.5384 17.2198 22.781 18.8488C23.1137 19.0904 23.4554 19.3487 23.8036 19.6194C23.7288 19.6983 23.655 19.7781 23.579 19.8561C23.1624 20.2832 23.1624 20.9757 23.579 21.4029C23.7873 21.6164 24.0603 21.7233 24.3333 21.7233C24.6062 21.7233 24.8793 21.6164 25.0876 21.4029C25.2215 21.2656 25.3535 21.1263 25.484 20.9858C27.1021 22.3572 28.8131 23.9585 30.4901 25.678C31.9322 27.1566 33.2882 28.6607 34.4908 30.1081C34.2981 30.2178 34.1056 30.3294 33.9131 30.4433C33.4028 30.7454 33.228 31.4144 33.5226 31.9374C33.7202 32.2883 34.0787 32.4845 34.4475 32.4845C34.6284 32.4845 34.8119 32.4371 34.9798 32.3377C35.2759 32.1623 35.5723 31.9939 35.8685 31.8295C36.332 32.4331 36.7621 33.0199 37.1505 33.5821C38.7395 35.8815 39.1676 37.0556 39.2804 37.5642C38.7841 37.4484 37.639 37.0093 35.3965 35.3803Z" fill="#6A7889"/>
<path d="M20.2132 31.5582C19.9713 31.0073 19.3399 30.7616 18.8026 31.0096C18.282 31.2498 18.041 31.8651 18.2464 32.4042C18.4079 32.8377 18.8117 33.1075 19.2428 33.1075C19.3597 33.1075 19.4785 33.0876 19.5952 33.0458C20.1512 32.8463 20.4443 32.2223 20.2497 31.6522C20.2395 31.6225 20.2258 31.5869 20.2132 31.5582Z" fill="#6A7889"/>
<path d="M40.7529 16.9192C40.9612 17.1327 41.2342 17.2395 41.5071 17.2395C41.7802 17.2395 42.0531 17.1327 42.2614 16.9192C44.6449 14.4754 48.5064 13.3554 51.3257 13.1221C51.9129 13.0736 52.3505 12.5459 52.3031 11.9439C52.2557 11.3418 51.7422 10.8949 51.154 10.9417C47.9567 11.2063 43.5454 12.5092 40.7529 15.3724C40.3363 15.7995 40.3363 16.4921 40.7529 16.9192Z" fill="#6A7889"/>
<path d="M54.7444 11.1522C54.7142 11.1439 54.6834 11.1357 54.6524 11.1277C54.0807 10.9816 53.5019 11.3387 53.3595 11.9248C53.2172 12.511 53.5653 13.1045 54.1369 13.2504L54.1914 13.2649C54.284 13.2904 54.3771 13.3026 54.4686 13.3026C54.9395 13.3026 55.3704 12.9805 55.4982 12.492C55.6509 11.9086 55.3135 11.3088 54.7444 11.1522Z" fill="#6A7889"/>
<path d="M49.188 18.9896C47.4234 18.9896 45.9878 20.4616 45.9878 22.2709C45.9878 24.0802 47.4234 25.5521 49.188 25.5521C50.9526 25.5521 52.3883 24.0802 52.3883 22.2709C52.3883 20.4616 50.9525 18.9896 49.188 18.9896ZM49.188 23.3646C48.5998 23.3646 48.1213 22.874 48.1213 22.2709C48.1213 21.6678 48.5998 21.1771 49.188 21.1771C49.7762 21.1771 50.2548 21.6678 50.2548 22.2709C50.2548 22.874 49.7762 23.3646 49.188 23.3646Z" fill="#6A7889"/>
<path d="M22.0933 10.4585C23.8579 10.4585 25.2935 8.98653 25.2935 7.17725C25.2935 5.36797 23.8579 3.896 22.0933 3.896C20.3287 3.896 18.8931 5.36797 18.8931 7.17725C18.8931 8.98653 20.3287 10.4585 22.0933 10.4585ZM22.0933 6.0835C22.6815 6.0835 23.16 6.57416 23.16 7.17725C23.16 7.78034 22.6815 8.271 22.0933 8.271C21.5051 8.271 21.0266 7.78034 21.0266 7.17725C21.0266 6.57427 21.5051 6.0835 22.0933 6.0835Z" fill="#6A7889"/>
<path d="M48.8351 32.1625C48.8351 31.56 48.356 31.0687 47.7684 31.0687C47.1808 31.0687 46.7017 31.56 46.7017 32.1625C46.7017 32.7649 47.1808 33.2562 47.7684 33.2562C48.356 33.2562 48.8351 32.7648 48.8351 32.1625Z" fill="#6A7889"/>
<path d="M36.6737 10.3971C37.2612 10.3971 37.7404 9.90578 37.7404 9.30334C37.7404 8.70091 37.2612 8.20959 36.6737 8.20959C36.0861 8.20959 35.6069 8.70091 35.6069 9.30334C35.607 9.90567 36.0862 10.3971 36.6737 10.3971Z" fill="#6A7889"/>
<path d="M50.9682 39.2719C50.3807 39.2719 49.9014 39.7633 49.9014 40.3657C49.9014 40.9682 50.3807 41.4595 50.9682 41.4595C51.5557 41.4595 52.035 40.9682 52.035 40.3657C52.035 39.7633 51.5557 39.2719 50.9682 39.2719Z" fill="#6A7889"/>
<path d="M15.7665 3.28149C16.354 3.28149 16.8332 2.79018 16.8332 2.18774C16.8332 1.58531 16.354 1.09399 15.7665 1.09399C15.1789 1.09399 14.6997 1.58531 14.6997 2.18774C14.6997 2.79018 15.1789 3.28149 15.7665 3.28149Z" fill="#6A7889"/>
<path d="M12.4598 9.97391L11 9.46826C10.859 9.41937 10.7464 9.30387 10.6987 9.15928L10.2055 7.66259C10.075 7.26633 9.71312 7 9.3052 7C8.89728 7 8.53544 7.26622 8.40487 7.66248L7.91171 9.15906C7.86403 9.30376 7.75128 9.41927 7.61025 9.46816L6.15063 9.9738C5.76404 10.1077 5.50439 10.4787 5.50439 10.897C5.50439 11.3153 5.76404 11.6863 6.15052 11.8202L7.61025 12.3258C7.75128 12.3747 7.86403 12.4903 7.91171 12.6349L8.40487 14.1315C8.53544 14.5277 8.89728 14.7941 9.3052 14.7941C9.71312 14.7941 10.075 14.5278 10.2055 14.1316L10.6987 12.6349C10.7464 12.4903 10.859 12.3747 11 12.3259L12.4598 11.8203C12.8463 11.6864 13.106 11.3154 13.106 10.8971C13.1059 10.4787 12.8462 10.1077 12.4598 9.97391ZM9.3051 11.901C9.10284 11.462 8.75412 11.1045 8.32593 10.897C8.75412 10.6897 9.10273 10.3321 9.3051 9.89308C9.50746 10.3321 9.85607 10.6895 10.2843 10.897C9.85617 11.1045 9.50746 11.462 9.3051 11.901Z" fill="#6A7889"/>
<path d="M39.0218 17.7395L37.562 17.2339C37.421 17.185 37.3084 17.0695 37.2607 16.9249L36.7675 15.4282C36.637 15.032 36.2751 14.7656 35.8672 14.7656C35.4593 14.7656 35.0974 15.0318 34.9669 15.4281L34.4737 16.9247C34.426 17.0694 34.3133 17.1849 34.1723 17.2338L32.7126 17.7394C32.3261 17.8733 32.0664 18.2443 32.0664 18.6627C32.0664 19.0809 32.3261 19.4519 32.7125 19.5858L34.1723 20.0914C34.3133 20.1403 34.426 20.2559 34.4737 20.4005L34.9669 21.8971C35.0974 22.2934 35.4593 22.5597 35.8672 22.5597C36.2751 22.5597 36.637 22.2935 36.7675 21.8972L37.2607 20.4005C37.3084 20.2559 37.421 20.1403 37.562 20.0915L39.0218 19.5859C39.4083 19.452 39.668 19.081 39.668 18.6628C39.6679 18.2443 39.4082 17.8733 39.0218 17.7395ZM35.8671 19.6666C35.6648 19.2276 35.3161 18.8701 34.8879 18.6627C35.3161 18.4553 35.6647 18.0977 35.8671 17.6587C36.0695 18.0977 36.4181 18.4552 36.8463 18.6627C36.4182 18.8701 36.0695 19.2276 35.8671 19.6666Z" fill="#6A7889"/>
<path d="M48.9427 45.8489L47.4829 45.3433C47.3419 45.2944 47.2293 45.1789 47.1816 45.0343L46.6884 43.5376C46.5579 43.1413 46.196 42.875 45.7881 42.875C45.3802 42.875 45.0183 43.1412 44.8878 43.5375L44.3946 45.0341C44.3469 45.1788 44.2342 45.2943 44.0932 45.3432L42.6335 45.8488C42.2469 45.9827 41.9873 46.3537 41.9873 46.772C41.9873 47.1903 42.2469 47.5613 42.6334 47.6952L44.0932 48.2008C44.2342 48.2497 44.3469 48.3653 44.3946 48.5099L44.8878 50.0065C45.0183 50.4027 45.3802 50.6691 45.7881 50.6691C46.196 50.6691 46.5579 50.4028 46.6884 50.0066L47.1816 48.5099C47.2293 48.3653 47.3419 48.2497 47.4829 48.2009L48.9427 47.6953C49.3292 47.5614 49.5889 47.1904 49.5889 46.7721C49.5888 46.3537 49.3291 45.9827 48.9427 45.8489ZM45.788 47.776C45.5857 47.337 45.237 46.9795 44.8088 46.772C45.237 46.5647 45.5856 46.2071 45.788 45.7681C45.9904 46.2071 46.339 46.5645 46.7672 46.772C46.3391 46.9795 45.9904 47.337 45.788 47.776Z" fill="#6A7889"/>
</svg>
