<svg width="111" height="155" viewBox="0 0 111 155" fill="none" xmlns="http://www.w3.org/2000/svg">
<path fill-rule="evenodd" clip-rule="evenodd" d="M0.264112 142.667L88.9828 154.081L110.87 11.526L22.1513 0.112732L0.264112 142.667Z" fill="#A05C2E"/>
<path fill-rule="evenodd" clip-rule="evenodd" d="M7.18892 136.38L84.2196 146.29L103.945 17.814L26.9146 7.90436L7.18892 136.38Z" fill="#632A1E"/>
<path fill-rule="evenodd" clip-rule="evenodd" d="M8.57766 134.677L83.3973 144.302L102.556 19.5161L27.7368 9.89087L8.57766 134.677Z" fill="#7D3723"/>
<path fill-rule="evenodd" clip-rule="evenodd" d="M17.031 130.076L44.3756 133.594L52.4401 81.0682L25.0955 77.5504L17.031 130.076Z" fill="#A96B50"/>
<path fill-rule="evenodd" clip-rule="evenodd" d="M44.3755 133.594L17.0309 130.076L19.7427 127.12L42.6571 130.068L44.3755 133.594Z" fill="#8B4427"/>
<path fill-rule="evenodd" clip-rule="evenodd" d="M52.4401 81.0682L25.0955 77.5504L26.8318 81.077L49.7075 84.0198L52.4401 81.0682Z" fill="#B7896B"/>
<path fill-rule="evenodd" clip-rule="evenodd" d="M19.7428 127.12L42.6556 130.068L49.7252 84.0224L26.8124 81.0748L19.7428 127.12Z" fill="#A46437"/>
<path fill-rule="evenodd" clip-rule="evenodd" d="M47.6035 134.009L74.9464 137.526L83.0109 85.001L55.668 81.4834L47.6035 134.009Z" fill="#A96B50"/>
<path fill-rule="evenodd" clip-rule="evenodd" d="M74.9464 137.527L47.6034 134.009L50.3152 131.053L73.2296 134.001L74.9464 137.527Z" fill="#8B4427"/>
<path fill-rule="evenodd" clip-rule="evenodd" d="M83.0109 85.001L55.668 81.4834L57.4043 85.01L80.28 87.9528L83.0109 85.001Z" fill="#B7896B"/>
<path fill-rule="evenodd" clip-rule="evenodd" d="M50.3169 131.053L73.2297 134.001L80.2993 87.9557L57.3865 85.008L50.3169 131.053Z" fill="#A46437"/>
<path fill-rule="evenodd" clip-rule="evenodd" d="M42.6556 130.068L26.8124 81.0748L49.7252 84.0224L42.6556 130.068Z" fill="#AF754C"/>
<path fill-rule="evenodd" clip-rule="evenodd" d="M73.2297 134.001L57.3865 85.008L80.2993 87.9557L73.2297 134.001Z" fill="#AF754C"/>
<path fill-rule="evenodd" clip-rule="evenodd" d="M26.3389 69.4512L53.6835 72.969L61.748 20.4436L34.4034 16.9258L26.3389 69.4512Z" fill="#A96B50"/>
<path fill-rule="evenodd" clip-rule="evenodd" d="M53.6834 72.9702L26.3388 69.4524L29.0507 66.4965L51.9651 69.4444L53.6834 72.9702Z" fill="#8B4427"/>
<path fill-rule="evenodd" clip-rule="evenodd" d="M61.748 20.4436L34.4034 16.9258L36.1395 20.4539L59.0152 23.3968L61.748 20.4436Z" fill="#B7896B"/>
<path fill-rule="evenodd" clip-rule="evenodd" d="M29.0507 66.4964L51.9635 69.444L59.0331 23.3986L36.1203 20.451L29.0507 66.4964Z" fill="#A46437"/>
<path fill-rule="evenodd" clip-rule="evenodd" d="M56.9114 73.3842L84.2544 76.9018L92.3189 24.3765L64.976 20.8589L56.9114 73.3842Z" fill="#A96B50"/>
<path fill-rule="evenodd" clip-rule="evenodd" d="M84.2542 76.903L56.9112 73.3854L59.6231 70.4296L82.5375 73.3774L84.2542 76.903Z" fill="#8B4427"/>
<path fill-rule="evenodd" clip-rule="evenodd" d="M92.3189 24.3765L64.976 20.8589L66.712 24.387L89.5877 27.3298L92.3189 24.3765Z" fill="#B7896B"/>
<path fill-rule="evenodd" clip-rule="evenodd" d="M59.6248 70.4297L82.5376 73.3773L89.6072 27.3319L66.6944 24.3843L59.6248 70.4297Z" fill="#924B2A"/>
<path fill-rule="evenodd" clip-rule="evenodd" d="M51.9635 69.444L36.1203 20.451L59.0331 23.3986L51.9635 69.444Z" fill="#AF754C"/>
<path fill-rule="evenodd" clip-rule="evenodd" d="M59.6248 70.4297L82.5376 73.3773L89.6072 27.3319L66.6944 24.3843L59.6248 70.4297Z" fill="#A46437"/>
<path fill-rule="evenodd" clip-rule="evenodd" d="M82.5376 73.3773L66.6944 24.3843L89.6072 27.3319L82.5376 73.3773Z" fill="#AF754C"/>
<path fill-rule="evenodd" clip-rule="evenodd" d="M90.1036 90.3332L85.0779 89.6866C84.6695 89.6341 84.3852 89.2886 84.4426 88.9147L86.0705 78.3118C86.1279 77.9379 86.5053 77.6776 86.9136 77.7301L91.9393 78.3766C92.3477 78.4292 92.632 78.7747 92.5746 79.1485L90.9467 89.7514C90.8893 90.1253 90.5119 90.3857 90.1036 90.3332Z" fill="#9B6E2F"/>
<path fill-rule="evenodd" clip-rule="evenodd" d="M90.3176 89.3466L85.7099 88.7538C85.3355 88.7057 85.0747 88.3888 85.1273 88.046L86.6198 78.3253C86.6724 77.9825 87.0185 77.7437 87.3929 77.7919L92.0007 78.3846C92.3751 78.4328 92.6358 78.7496 92.5832 79.0925L91.0907 88.8132C91.0381 89.156 90.692 89.3948 90.3176 89.3466Z" fill="#BB933F"/>
<path fill-rule="evenodd" clip-rule="evenodd" d="M91.6209 82.1336C91.4269 83.397 90.1531 84.276 88.7748 84.0987C87.3949 83.9211 86.435 82.7549 86.629 81.4914C86.8228 80.2294 88.0966 79.3505 89.4765 79.528C90.8548 79.7053 91.8147 80.8716 91.6209 82.1336Z" fill="#A77E35"/>
<path fill-rule="evenodd" clip-rule="evenodd" d="M91.0561 82.0607C90.9061 83.0375 89.9197 83.7168 88.8545 83.5798C87.7877 83.4425 87.0456 82.5409 87.1956 81.5641C87.3454 80.5888 88.3302 79.9092 89.397 80.0465C90.4622 80.1835 91.2058 81.0854 91.0561 82.0607Z" fill="#BB933F"/>
<path fill-rule="evenodd" clip-rule="evenodd" d="M90.303 83.2345C91.1578 82.6407 91.3291 81.525 90.6827 80.7396C90.035 79.9526 88.8165 79.7958 87.9575 80.3845L90.303 83.2345Z" fill="#C9AB64"/>
<path fill-rule="evenodd" clip-rule="evenodd" d="M89.3093 85.6021C89.3674 85.2238 89.0791 84.8718 88.6643 84.8184C88.2495 84.7651 87.8648 85.0305 87.8067 85.4088C87.7609 85.7073 87.9273 85.9849 88.2014 86.1181L87.5027 87.4749L88.9794 87.6649L88.7179 86.1846C89.0199 86.1255 89.2635 85.9006 89.3093 85.6021Z" fill="#1E2721"/>
</svg>
