<svg
  width="13"
  height="12"
  viewBox="0 0 13 12"
  fill="none"
  xmlns="http://www.w3.org/2000/svg"
>
  <path
    d="M0.428569 4.25824L3.96907 3.74374L0.428569 4.25824ZM0.428569 4.25824C0.33624 4.27156 0.249479 4.31045 0.178097 4.37051M0.428569 4.25824L0.178097 4.37051M0.178097 4.37051C0.106715 4.43057 0.0535587 4.5094 0.0246369 4.59809M0.178097 4.37051L0.0246369 4.59809M0.0246369 4.59809C-0.00428491 4.68678 -0.00781831 4.78179 0.0144362 4.87239M0.0246369 4.59809L0.0144362 4.87239M0.0144362 4.87239C0.0366907 4.96298 0.0838455 5.04554 0.150569 5.11074M0.0144362 4.87239L0.150569 5.11074M0.150569 5.11074L2.71307 7.60774L0.150569 5.11074ZM11.5007 4.75304L11.5011 4.75311L8.93912 7.24964L8.75084 7.4331L8.79526 7.69221L9.39975 11.2187L9.39972 11.2187L6.23321 9.55416L6.00057 9.43186L5.76792 9.55416L2.60142 11.2187L2.60139 11.2187L3.20588 7.69221L3.2503 7.4331L3.06202 7.24964L0.5 4.75311L0.500473 4.75304L4.04097 4.23854L4.30093 4.20076L4.41731 3.96527L5.98823 0.786744C5.98935 0.785726 5.99058 0.784829 5.9919 0.784074C5.99499 0.782304 5.9985 0.781372 6.00207 0.781372C6.00564 0.781372 6.00914 0.782303 6.01224 0.784074C6.01354 0.784819 6.01476 0.785701 6.01586 0.786701L7.58366 3.96493L7.69998 4.20073L7.96017 4.23854L11.5007 4.75304Z"
    stroke="#31465E"
  />
</svg>
