<svg width="163" height="68" fill="none" xmlns="http://www.w3.org/2000/svg">
<path d="M33.654 0H34.343C43.2686 0 51.8286 3.54568 58.1399 9.85702C64.4513 16.1684 67.997 24.7284 67.997 33.654V34.343C67.997 43.2686 64.4513 51.8286 58.1399 58.1399C51.8286 64.4513 43.2686 67.997 34.343 67.997H0V33.654C0 24.7284 3.54567 16.1684 9.85701 9.85702C16.1684 3.54568 24.7284 0 33.654 0Z" fill="url(#paint0_linear)" fill-opacity="0.65"/>
<path d="M45.2301 22.0975C44.3466 21.2047 43.1451 20.6988 41.8891 20.6907C41.2595 20.6849 40.6351 20.8065 40.0537 21.0483C39.4723 21.29 38.9458 21.6469 38.5059 22.0975C37.8408 22.7625 37.3877 23.6098 37.2042 24.5323C37.0206 25.4547 37.1147 26.4109 37.4746 27.2799C37.8345 28.1488 38.444 28.8916 39.226 29.4141C40.008 29.9367 40.9274 30.2156 41.868 30.2156C42.8085 30.2156 43.728 29.9367 44.51 29.4141C45.292 28.8916 45.9015 28.1488 46.2614 27.2799C46.6213 26.4109 46.7154 25.4547 46.5318 24.5323C46.3482 23.6098 45.8952 22.7625 45.2301 22.0975ZM44.0454 27.6385C43.6136 28.0744 43.0619 28.3722 42.4606 28.4941C41.8592 28.6159 41.2352 28.5563 40.6677 28.3228C40.1003 28.0893 39.615 27.6925 39.2735 27.1827C38.932 26.6729 38.7496 26.0732 38.7496 25.4596C38.7496 24.846 38.932 24.2462 39.2735 23.7364C39.615 23.2266 40.1003 22.8298 40.6677 22.5963C41.2352 22.3629 41.8592 22.3033 42.4606 22.4251C43.0619 22.5469 43.6136 22.8447 44.0454 23.2807C44.6215 23.8595 44.945 24.6429 44.945 25.4596C44.945 26.2763 44.6215 27.0597 44.0454 27.6385ZM45.2285 22.0975C44.3451 21.2047 43.1436 20.6988 41.8876 20.6907C41.258 20.6849 40.6336 20.8065 40.0522 21.0483C39.4708 21.29 38.9443 21.6469 38.5044 22.0975C37.8392 22.7625 37.3862 23.6098 37.2027 24.5323C37.0191 25.4547 37.1132 26.4109 37.4731 27.2799C37.833 28.1488 38.4424 28.8916 39.2245 29.4141C40.0065 29.9367 40.9259 30.2156 41.8665 30.2156C42.807 30.2156 43.7264 29.9367 44.5085 29.4141C45.2905 28.8916 45.9 28.1488 46.2599 27.2799C46.6197 26.4109 46.7138 25.4547 46.5303 24.5323C46.3467 23.6098 45.8937 22.7625 45.2285 22.0975ZM44.0454 27.6385C43.6136 28.0744 43.0619 28.3722 42.4606 28.4941C41.8592 28.6159 41.2352 28.5563 40.6677 28.3228C40.1003 28.0893 39.615 27.6925 39.2735 27.1827C38.932 26.6729 38.7496 26.0732 38.7496 25.4596C38.7496 24.846 38.932 24.2462 39.2735 23.7364C39.615 23.2266 40.1003 22.8298 40.6677 22.5963C41.2352 22.3629 41.8592 22.3033 42.4606 22.4251C43.0619 22.5469 43.6136 22.8447 44.0454 23.2807C44.6215 23.8595 44.945 24.6429 44.945 25.4596C44.945 26.2763 44.6215 27.0597 44.0454 27.6385ZM45.2285 22.0975C44.3451 21.2047 43.1436 20.6988 41.8876 20.6907C41.258 20.6849 40.6336 20.8065 40.0522 21.0483C39.4708 21.29 38.9443 21.6469 38.5044 22.0975C37.8392 22.7625 37.3862 23.6098 37.2027 24.5323C37.0191 25.4547 37.1132 26.4109 37.4731 27.2799C37.833 28.1488 38.4424 28.8916 39.2245 29.4141C40.0065 29.9367 40.9259 30.2156 41.8665 30.2156C42.807 30.2156 43.7264 29.9367 44.5085 29.4141C45.2905 28.8916 45.9 28.1488 46.2599 27.2799C46.6197 26.4109 46.7138 25.4547 46.5303 24.5323C46.3467 23.6098 45.8937 22.7625 45.2285 22.0975ZM44.0454 27.6385C43.6136 28.0744 43.0619 28.3722 42.4606 28.4941C41.8592 28.6159 41.2352 28.5563 40.6677 28.3228C40.1003 28.0893 39.615 27.6925 39.2735 27.1827C38.932 26.6729 38.7496 26.0732 38.7496 25.4596C38.7496 24.846 38.932 24.2462 39.2735 23.7364C39.615 23.2266 40.1003 22.8298 40.6677 22.5963C41.2352 22.3629 41.8592 22.3033 42.4606 22.4251C43.0619 22.5469 43.6136 22.8447 44.0454 23.2807C44.6215 23.8595 44.945 24.6429 44.945 25.4596C44.945 26.2763 44.6215 27.0597 44.0454 27.6385ZM45.2285 22.0975C44.3451 21.2047 43.1436 20.6988 41.8876 20.6907C41.258 20.6849 40.6336 20.8065 40.0522 21.0483C39.4708 21.29 38.9443 21.6469 38.5044 22.0975C37.8392 22.7625 37.3862 23.6098 37.2027 24.5323C37.0191 25.4547 37.1132 26.4109 37.4731 27.2799C37.833 28.1488 38.4424 28.8916 39.2245 29.4141C40.0065 29.9367 40.9259 30.2156 41.8665 30.2156C42.807 30.2156 43.7264 29.9367 44.5085 29.4141C45.2905 28.8916 45.9 28.1488 46.2599 27.2799C46.6197 26.4109 46.7138 25.4547 46.5303 24.5323C46.3467 23.6098 45.8937 22.7625 45.2285 22.0975ZM44.0454 27.6385C43.6136 28.0744 43.0619 28.3722 42.4606 28.4941C41.8592 28.6159 41.2352 28.5563 40.6677 28.3228C40.1003 28.0893 39.615 27.6925 39.2735 27.1827C38.932 26.6729 38.7496 26.0732 38.7496 25.4596C38.7496 24.846 38.932 24.2462 39.2735 23.7364C39.615 23.2266 40.1003 22.8298 40.6677 22.5963C41.2352 22.3629 41.8592 22.3033 42.4606 22.4251C43.0619 22.5469 43.6136 22.8447 44.0454 23.2807C44.6215 23.8595 44.945 24.6429 44.945 25.4596C44.945 26.2763 44.6215 27.0597 44.0454 27.6385ZM45.2285 22.0975C44.3451 21.2047 43.1436 20.6988 41.8876 20.6907C41.258 20.6849 40.6336 20.8065 40.0522 21.0483C39.4708 21.29 38.9443 21.6469 38.5044 22.0975C37.8392 22.7625 37.3862 23.6098 37.2027 24.5323C37.0191 25.4547 37.1132 26.4109 37.4731 27.2799C37.833 28.1488 38.4424 28.8916 39.2245 29.4141C40.0065 29.9367 40.9259 30.2156 41.8665 30.2156C42.807 30.2156 43.7264 29.9367 44.5085 29.4141C45.2905 28.8916 45.9 28.1488 46.2599 27.2799C46.6197 26.4109 46.7138 25.4547 46.5303 24.5323C46.3467 23.6098 45.8937 22.7625 45.2285 22.0975ZM44.0454 27.6385C43.6136 28.0744 43.0619 28.3722 42.4606 28.4941C41.8592 28.6159 41.2352 28.5563 40.6677 28.3228C40.1003 28.0893 39.615 27.6925 39.2735 27.1827C38.932 26.6729 38.7496 26.0732 38.7496 25.4596C38.7496 24.846 38.932 24.2462 39.2735 23.7364C39.615 23.2266 40.1003 22.8298 40.6677 22.5963C41.2352 22.3629 41.8592 22.3033 42.4606 22.4251C43.0619 22.5469 43.6136 22.8447 44.0454 23.2807C44.6215 23.8595 44.945 24.6429 44.945 25.4596C44.945 26.2763 44.6215 27.0597 44.0454 27.6385ZM45.2285 22.0975C44.3451 21.2047 43.1436 20.6988 41.8876 20.6907C41.258 20.6849 40.6336 20.8065 40.0522 21.0483C39.4708 21.29 38.9443 21.6469 38.5044 22.0975C37.8392 22.7625 37.3862 23.6098 37.2027 24.5323C37.0191 25.4547 37.1132 26.4109 37.4731 27.2799C37.833 28.1488 38.4424 28.8916 39.2245 29.4141C40.0065 29.9367 40.9259 30.2156 41.8665 30.2156C42.807 30.2156 43.7264 29.9367 44.5085 29.4141C45.2905 28.8916 45.9 28.1488 46.2599 27.2799C46.6197 26.4109 46.7138 25.4547 46.5303 24.5323C46.3467 23.6098 45.8937 22.7625 45.2285 22.0975ZM44.0454 27.6385C43.6136 28.0744 43.0619 28.3722 42.4606 28.4941C41.8592 28.6159 41.2352 28.5563 40.6677 28.3228C40.1003 28.0893 39.615 27.6925 39.2735 27.1827C38.932 26.6729 38.7496 26.0732 38.7496 25.4596C38.7496 24.846 38.932 24.2462 39.2735 23.7364C39.615 23.2266 40.1003 22.8298 40.6677 22.5963C41.2352 22.3629 41.8592 22.3033 42.4606 22.4251C43.0619 22.5469 43.6136 22.8447 44.0454 23.2807C44.6215 23.8595 44.945 24.6429 44.945 25.4596C44.945 26.2763 44.6215 27.0597 44.0454 27.6385ZM45.2285 22.0975C44.3451 21.2047 43.1436 20.6988 41.8876 20.6907C41.258 20.6849 40.6336 20.8065 40.0522 21.0483C39.4708 21.29 38.9443 21.6469 38.5044 22.0975C37.8392 22.7625 37.3862 23.6098 37.2027 24.5323C37.0191 25.4547 37.1132 26.4109 37.4731 27.2799C37.833 28.1488 38.4424 28.8916 39.2245 29.4141C40.0065 29.9367 40.9259 30.2156 41.8665 30.2156C42.807 30.2156 43.7264 29.9367 44.5085 29.4141C45.2905 28.8916 45.9 28.1488 46.2599 27.2799C46.6197 26.4109 46.7138 25.4547 46.5303 24.5323C46.3467 23.6098 45.8937 22.7625 45.2285 22.0975ZM44.0454 27.6385C43.6136 28.0744 43.0619 28.3722 42.4606 28.4941C41.8592 28.6159 41.2352 28.5563 40.6677 28.3228C40.1003 28.0893 39.615 27.6925 39.2735 27.1827C38.932 26.6729 38.7496 26.0732 38.7496 25.4596C38.7496 24.846 38.932 24.2462 39.2735 23.7364C39.615 23.2266 40.1003 22.8298 40.6677 22.5963C41.2352 22.3629 41.8592 22.3033 42.4606 22.4251C43.0619 22.5469 43.6136 22.8447 44.0454 23.2807C44.6215 23.8595 44.945 24.6429 44.945 25.4596C44.945 26.2763 44.6215 27.0597 44.0454 27.6385ZM45.2285 22.0975C44.3451 21.2047 43.1436 20.6988 41.8876 20.6907C41.258 20.6849 40.6336 20.8065 40.0522 21.0483C39.4708 21.29 38.9443 21.6469 38.5044 22.0975C37.8392 22.7625 37.3862 23.6098 37.2027 24.5323C37.0191 25.4547 37.1132 26.4109 37.4731 27.2799C37.833 28.1488 38.4424 28.8916 39.2245 29.4141C40.0065 29.9367 40.9259 30.2156 41.8665 30.2156C42.807 30.2156 43.7264 29.9367 44.5085 29.4141C45.2905 28.8916 45.9 28.1488 46.2599 27.2799C46.6197 26.4109 46.7138 25.4547 46.5303 24.5323C46.3467 23.6098 45.8937 22.7625 45.2285 22.0975ZM44.0454 27.6385C43.6136 28.0744 43.0619 28.3722 42.4606 28.4941C41.8592 28.6159 41.2352 28.5563 40.6677 28.3228C40.1003 28.0893 39.615 27.6925 39.2735 27.1827C38.932 26.6729 38.7496 26.0732 38.7496 25.4596C38.7496 24.846 38.932 24.2462 39.2735 23.7364C39.615 23.2266 40.1003 22.8298 40.6677 22.5963C41.2352 22.3629 41.8592 22.3033 42.4606 22.4251C43.0619 22.5469 43.6136 22.8447 44.0454 23.2807C44.6215 23.8595 44.945 24.6429 44.945 25.4596C44.945 26.2763 44.6215 27.0597 44.0454 27.6385ZM45.2285 22.0975C44.3451 21.2047 43.1436 20.6988 41.8876 20.6907C41.258 20.6849 40.6336 20.8065 40.0522 21.0483C39.4708 21.29 38.9443 21.6469 38.5044 22.0975C37.8392 22.7625 37.3862 23.6098 37.2027 24.5323C37.0191 25.4547 37.1132 26.4109 37.4731 27.2799C37.833 28.1488 38.4424 28.8916 39.2245 29.4141C40.0065 29.9367 40.9259 30.2156 41.8665 30.2156C42.807 30.2156 43.7264 29.9367 44.5085 29.4141C45.2905 28.8916 45.9 28.1488 46.2599 27.2799C46.6197 26.4109 46.7138 25.4547 46.5303 24.5323C46.3467 23.6098 45.8937 22.7625 45.2285 22.0975ZM44.0454 27.6385C43.6136 28.0744 43.0619 28.3722 42.4606 28.4941C41.8592 28.6159 41.2352 28.5563 40.6677 28.3228C40.1003 28.0893 39.615 27.6925 39.2735 27.1827C38.932 26.6729 38.7496 26.0732 38.7496 25.4596C38.7496 24.846 38.932 24.2462 39.2735 23.7364C39.615 23.2266 40.1003 22.8298 40.6677 22.5963C41.2352 22.3629 41.8592 22.3033 42.4606 22.4251C43.0619 22.5469 43.6136 22.8447 44.0454 23.2807C44.6215 23.8595 44.945 24.6429 44.945 25.4596C44.945 26.2763 44.6215 27.0597 44.0454 27.6385ZM45.2285 22.0975C44.3451 21.2047 43.1436 20.6988 41.8876 20.6907C41.258 20.6849 40.6336 20.8065 40.0522 21.0483C39.4708 21.29 38.9443 21.6469 38.5044 22.0975C37.8392 22.7625 37.3862 23.6098 37.2027 24.5323C37.0191 25.4547 37.1132 26.4109 37.4731 27.2799C37.833 28.1488 38.4424 28.8916 39.2245 29.4141C40.0065 29.9367 40.9259 30.2156 41.8665 30.2156C42.807 30.2156 43.7264 29.9367 44.5085 29.4141C45.2905 28.8916 45.9 28.1488 46.2599 27.2799C46.6197 26.4109 46.7138 25.4547 46.5303 24.5323C46.3467 23.6098 45.8937 22.7625 45.2285 22.0975ZM44.0454 27.6385C43.6136 28.0744 43.0619 28.3722 42.4606 28.4941C41.8592 28.6159 41.2352 28.5563 40.6677 28.3228C40.1003 28.0893 39.615 27.6925 39.2735 27.1827C38.932 26.6729 38.7496 26.0732 38.7496 25.4596C38.7496 24.846 38.932 24.2462 39.2735 23.7364C39.615 23.2266 40.1003 22.8298 40.6677 22.5963C41.2352 22.3629 41.8592 22.3033 42.4606 22.4251C43.0619 22.5469 43.6136 22.8447 44.0454 23.2807C44.6215 23.8595 44.945 24.6429 44.945 25.4596C44.945 26.2763 44.6215 27.0597 44.0454 27.6385ZM45.2285 22.0975C44.3451 21.2047 43.1436 20.6988 41.8876 20.6907C41.258 20.6849 40.6336 20.8065 40.0522 21.0483C39.4708 21.29 38.9443 21.6469 38.5044 22.0975C37.8392 22.7625 37.3862 23.6098 37.2027 24.5323C37.0191 25.4547 37.1132 26.4109 37.4731 27.2799C37.833 28.1488 38.4424 28.8916 39.2245 29.4141C40.0065 29.9367 40.9259 30.2156 41.8665 30.2156C42.807 30.2156 43.7264 29.9367 44.5085 29.4141C45.2905 28.8916 45.9 28.1488 46.2599 27.2799C46.6197 26.4109 46.7138 25.4547 46.5303 24.5323C46.3467 23.6098 45.8937 22.7625 45.2285 22.0975ZM44.0454 27.6385C43.6136 28.0744 43.0619 28.3722 42.4606 28.4941C41.8592 28.6159 41.2352 28.5563 40.6677 28.3228C40.1003 28.0893 39.615 27.6925 39.2735 27.1827C38.932 26.6729 38.7496 26.0732 38.7496 25.4596C38.7496 24.846 38.932 24.2462 39.2735 23.7364C39.615 23.2266 40.1003 22.8298 40.6677 22.5963C41.2352 22.3629 41.8592 22.3033 42.4606 22.4251C43.0619 22.5469 43.6136 22.8447 44.0454 23.2807C44.6215 23.8595 44.945 24.6429 44.945 25.4596C44.945 26.2763 44.6215 27.0597 44.0454 27.6385ZM45.2285 22.0975C44.3451 21.2047 43.1436 20.6988 41.8876 20.6907C41.258 20.6849 40.6336 20.8065 40.0522 21.0483C39.4708 21.29 38.9443 21.6469 38.5044 22.0975C37.8392 22.7625 37.3862 23.6098 37.2027 24.5323C37.0191 25.4547 37.1132 26.4109 37.4731 27.2799C37.833 28.1488 38.4424 28.8916 39.2245 29.4141C40.0065 29.9367 40.9259 30.2156 41.8665 30.2156C42.807 30.2156 43.7264 29.9367 44.5085 29.4141C45.2905 28.8916 45.9 28.1488 46.2599 27.2799C46.6197 26.4109 46.7138 25.4547 46.5303 24.5323C46.3467 23.6098 45.8937 22.7625 45.2285 22.0975ZM44.0454 27.6385C43.6136 28.0744 43.0619 28.3722 42.4606 28.4941C41.8592 28.6159 41.2352 28.5563 40.6677 28.3228C40.1003 28.0893 39.615 27.6925 39.2735 27.1827C38.932 26.6729 38.7496 26.0732 38.7496 25.4596C38.7496 24.846 38.932 24.2462 39.2735 23.7364C39.615 23.2266 40.1003 22.8298 40.6677 22.5963C41.2352 22.3629 41.8592 22.3033 42.4606 22.4251C43.0619 22.5469 43.6136 22.8447 44.0454 23.2807C44.6215 23.8595 44.945 24.6429 44.945 25.4596C44.945 26.2763 44.6215 27.0597 44.0454 27.6385ZM45.2285 22.0975C44.3451 21.2047 43.1436 20.6988 41.8876 20.6907C41.258 20.6849 40.6336 20.8065 40.0522 21.0483C39.4708 21.29 38.9443 21.6469 38.5044 22.0975C37.8392 22.7625 37.3862 23.6098 37.2027 24.5323C37.0191 25.4547 37.1132 26.4109 37.4731 27.2799C37.833 28.1488 38.4424 28.8916 39.2245 29.4141C40.0065 29.9367 40.9259 30.2156 41.8665 30.2156C42.807 30.2156 43.7264 29.9367 44.5085 29.4141C45.2905 28.8916 45.9 28.1488 46.2599 27.2799C46.6197 26.4109 46.7138 25.4547 46.5303 24.5323C46.3467 23.6098 45.8937 22.7625 45.2285 22.0975ZM44.0454 27.6385C43.6136 28.0744 43.0619 28.3722 42.4606 28.4941C41.8592 28.6159 41.2352 28.5563 40.6677 28.3228C40.1003 28.0893 39.615 27.6925 39.2735 27.1827C38.932 26.6729 38.7496 26.0732 38.7496 25.4596C38.7496 24.846 38.932 24.2462 39.2735 23.7364C39.615 23.2266 40.1003 22.8298 40.6677 22.5963C41.2352 22.3629 41.8592 22.3033 42.4606 22.4251C43.0619 22.5469 43.6136 22.8447 44.0454 23.2807C44.6215 23.8595 44.945 24.6429 44.945 25.4596C44.945 26.2763 44.6215 27.0597 44.0454 27.6385ZM45.2285 22.0975C44.3451 21.2047 43.1436 20.6988 41.8876 20.6907C41.258 20.6849 40.6336 20.8065 40.0522 21.0483C39.4708 21.29 38.9443 21.6469 38.5044 22.0975C37.8392 22.7625 37.3862 23.6098 37.2027 24.5323C37.0191 25.4547 37.1132 26.4109 37.4731 27.2799C37.833 28.1488 38.4424 28.8916 39.2245 29.4141C40.0065 29.9367 40.9259 30.2156 41.8665 30.2156C42.807 30.2156 43.7264 29.9367 44.5085 29.4141C45.2905 28.8916 45.9 28.1488 46.2599 27.2799C46.6197 26.4109 46.7138 25.4547 46.5303 24.5323C46.3467 23.6098 45.8937 22.7625 45.2285 22.0975ZM44.0454 27.6385C43.6136 28.0744 43.0619 28.3722 42.4606 28.4941C41.8592 28.6159 41.2352 28.5563 40.6677 28.3228C40.1003 28.0893 39.615 27.6925 39.2735 27.1827C38.932 26.6729 38.7496 26.0732 38.7496 25.4596C38.7496 24.846 38.932 24.2462 39.2735 23.7364C39.615 23.2266 40.1003 22.8298 40.6677 22.5963C41.2352 22.3629 41.8592 22.3033 42.4606 22.4251C43.0619 22.5469 43.6136 22.8447 44.0454 23.2807C44.6215 23.8595 44.945 24.6429 44.945 25.4596C44.945 26.2763 44.6215 27.0597 44.0454 27.6385ZM45.2285 22.0975C44.3451 21.2047 43.1436 20.6988 41.8876 20.6907C41.258 20.6849 40.6336 20.8065 40.0522 21.0483C39.4708 21.29 38.9443 21.6469 38.5044 22.0975C37.8392 22.7625 37.3862 23.6098 37.2027 24.5323C37.0191 25.4547 37.1132 26.4109 37.4731 27.2799C37.833 28.1488 38.4424 28.8916 39.2245 29.4141C40.0065 29.9367 40.9259 30.2156 41.8665 30.2156C42.807 30.2156 43.7264 29.9367 44.5085 29.4141C45.2905 28.8916 45.9 28.1488 46.2599 27.2799C46.6197 26.4109 46.7138 25.4547 46.5303 24.5323C46.3467 23.6098 45.8937 22.7625 45.2285 22.0975ZM44.0454 27.6385C43.6136 28.0744 43.0619 28.3722 42.4606 28.4941C41.8592 28.6159 41.2352 28.5563 40.6677 28.3228C40.1003 28.0893 39.615 27.6925 39.2735 27.1827C38.932 26.6729 38.7496 26.0732 38.7496 25.4596C38.7496 24.846 38.932 24.2462 39.2735 23.7364C39.615 23.2266 40.1003 22.8298 40.6677 22.5963C41.2352 22.3629 41.8592 22.3033 42.4606 22.4251C43.0619 22.5469 43.6136 22.8447 44.0454 23.2807C44.6215 23.8595 44.945 24.6429 44.945 25.4596C44.945 26.2763 44.6215 27.0597 44.0454 27.6385Z" fill="#231F20"/>
<path d="M53.358 14.154C53.1594 13.9535 52.9164 13.8025 52.6487 13.7133C52.3809 13.624 52.096 13.599 51.8168 13.6402L49.7451 14.0165C43.8626 15.1442 38.2779 17.4794 33.3436 20.8748C28.4093 24.2702 24.2327 28.6519 21.0776 33.7431C21.0487 33.7881 21.0229 33.8351 21.0006 33.8837C20.9537 33.9656 20.9143 34.0516 20.8827 34.1405C20.7482 34.5455 20.7709 35.0744 20.9431 35.6969C21.2574 36.8649 22.0779 38.3548 23.2868 39.9052C22.9562 39.4018 22.6993 38.8538 22.5237 38.2778C22.419 37.9682 22.4064 37.6349 22.4874 37.3183C22.5069 37.2631 22.5306 37.2095 22.5584 37.1581C22.5642 37.1472 22.5718 37.1375 22.5811 37.1294C22.6035 37.0933 22.6304 37.0603 22.6612 37.0312C22.9226 36.7713 23.3759 36.7395 23.9486 36.9027C25.026 37.2049 26.5264 38.1886 27.9423 39.6075C29.3581 41.0264 30.3343 42.5117 30.6395 43.5891C30.8087 44.1678 30.777 44.6257 30.5201 44.8871L30.5005 44.9037C30.476 44.9268 30.4497 44.9481 30.4219 44.9672C30.3216 45.0334 30.2082 45.0772 30.0895 45.0956C29.7978 45.1332 29.5014 45.1048 29.2221 45.0125C28.661 44.8325 28.1264 44.5784 27.6325 44.257C29.1557 45.4446 30.6168 46.2621 31.7803 46.5915C32.2326 46.7394 32.712 46.7854 33.1841 46.726C33.3741 46.6772 33.5551 46.5987 33.7205 46.4933L33.849 46.4162C38.8903 43.3361 43.2333 39.2378 46.6004 34.3835C49.9675 29.5292 52.2846 24.0256 53.4034 18.2247L53.8673 15.73V15.6982C53.9085 15.419 53.8839 15.1339 53.7955 14.8658C53.7071 14.5977 53.5573 14.354 53.358 14.154ZM51.7594 17.9119C49.6817 28.7204 42.5934 38.7235 33.3896 44.7602C32.894 43.0179 31.0913 40.4068 28.8081 38.1236C26.5249 35.8405 24.5772 34.6482 22.8304 34.1587C28.9864 24.8975 39.0998 17.7487 50.0519 15.6635L52.0631 15.2963C52.0837 15.2956 52.1043 15.2991 52.1235 15.3066C52.1428 15.3142 52.1602 15.3256 52.1749 15.3401C52.1883 15.3548 52.1986 15.3719 52.2054 15.3906C52.2121 15.4093 52.2151 15.4291 52.2142 15.4489L51.7594 17.9119Z" fill="#231F20"/>
<path d="M46.4707 39.3113C46.4398 39.0744 46.3372 38.8525 46.1769 38.6754C46.0165 38.4983 45.8059 38.3743 45.5732 38.3201C45.3503 38.2709 45.1179 38.2886 44.9051 38.3708C44.6922 38.4531 44.5083 38.5962 44.3764 38.7824C42.5322 40.9649 40.4756 42.9587 38.2371 44.7344L38.2174 44.7526C37.9716 44.8575 37.7752 45.0523 37.6682 45.2972C37.5612 45.5421 37.5517 45.8186 37.6417 46.0702L39.8146 51.4843C39.9017 51.7659 40.0664 52.0174 40.2899 52.2098C40.5133 52.4022 40.7863 52.5278 41.0778 52.5722C41.1621 52.5868 41.2476 52.5938 41.3332 52.5934C41.6001 52.5934 41.8628 52.5271 42.0978 52.4005C42.3328 52.2739 42.5327 52.091 42.6795 51.8681L43.9276 50.0639C46.099 46.9278 47.0072 43.0879 46.4707 39.3113ZM42.5511 49.1119L41.3604 50.8345L39.396 45.9493C41.3828 44.3613 43.2323 42.6089 44.9249 40.7105C45.0857 43.6966 44.2507 46.6515 42.5511 49.1119Z" fill="#231F20"/>
<path d="M29.2026 22.0884C29.1477 21.8559 29.0231 21.6458 28.8454 21.4862C28.6676 21.3265 28.4454 21.2251 28.2083 21.1954C24.4305 20.6576 20.5889 21.5653 17.4512 23.737L15.706 24.9458C15.436 25.0749 15.2105 25.2813 15.058 25.5387C14.9054 25.7962 14.8328 26.0931 14.8492 26.3919C14.8717 26.7025 14.9881 26.9989 15.1829 27.2418C15.3778 27.4846 15.6419 27.6625 15.9402 27.7518L21.3089 29.9096L21.3558 29.9262C21.4583 29.9593 21.5653 29.9761 21.6731 29.9761C21.9712 29.9633 22.2591 29.8635 22.5011 29.689L22.5706 29.6437L22.7217 29.4926L22.7958 29.4094C24.4096 27.2864 26.3513 25.2843 28.7342 23.2852C28.9206 23.1532 29.0643 22.9696 29.1475 22.7569C29.2307 22.5443 29.2499 22.3119 29.2026 22.0884ZM21.599 28.2293L16.738 26.265L18.4002 25.1105C20.8605 23.4094 23.8161 22.5733 26.8031 22.7337C24.8927 24.3908 23.1497 26.2315 21.599 28.2293Z" fill="#231F20"/>
<path fill-rule="evenodd" clip-rule="evenodd" d="M10.8901 60.4962C10.8765 60.543 10.8644 60.5898 10.8523 60.6382C10.7686 60.9694 10.723 61.309 10.7163 61.6506C10.7139 62.3664 10.7899 63.0804 10.943 63.7796C10.9913 64.0244 11.1288 64.3267 11.1303 64.576C11.1303 64.576 11.0971 61.5977 16.144 59.455C24.2024 56.031 26.8724 50.691 26.1305 46.8061C25.8388 47.4256 25.3115 47.9424 24.831 48.5861C23.9727 49.7455 22.8269 50.6612 21.5067 51.2425C21.0079 51.4628 20.4879 51.6314 19.9548 51.7457C19.4441 51.853 18.8654 51.9648 18.3531 51.8122C18.3374 51.8095 18.3224 51.8036 18.3091 51.7947C18.2958 51.7859 18.2846 51.7743 18.2761 51.7608C18.2693 51.7397 18.2693 51.717 18.2761 51.6958C18.3161 51.4747 18.3948 51.2624 18.5088 51.0688C18.5672 50.9683 18.6345 50.8732 18.7097 50.7847C18.7838 50.7001 18.8775 50.6336 18.95 50.5489C18.888 50.5656 18.8231 50.5595 18.7611 50.5731C18.6705 50.5913 18.5798 50.6124 18.4906 50.6351C18.2216 50.703 17.9572 50.7878 17.6989 50.8889C17.0431 51.1383 16.4338 51.4958 15.8962 51.9467C15.0184 52.6968 14.2004 53.5142 13.4498 54.3915C13.4498 54.3915 14.7538 47.2624 18.0449 44.2177C19.0042 43.2996 20.1066 42.5438 21.3087 41.9798C15.7874 41.1095 9.82481 49.8372 7.34065 56.5387C4.1176 65.2469 0 68 0 68C0.880938 67.586 1.67726 66.9544 2.4494 66.3696C3.52224 65.5566 4.56486 64.7074 5.59842 63.8386C6.49799 63.0831 7.38598 62.3155 8.26239 61.5358C8.52531 61.3015 8.78823 61.0673 9.04359 60.8256C9.48927 60.3844 10.0306 60.0519 10.6257 59.854C10.8135 59.7932 11.0054 59.7457 11.1999 59.7119C11.1439 59.7225 11.0336 60.0806 11.011 60.138C10.9656 60.2529 10.9248 60.3738 10.8901 60.4962Z" fill="#231F20"/>
<path d="M95.256 12.0778V14.9488H90.2469V30.2103H86.6204V14.9488H81.6339V12.0778H95.256Z" fill="#333333"/>
<path d="M110.515 23.7914H100.089C100.14 25.0587 100.482 25.992 101.116 26.5914C101.431 26.8905 101.802 27.1246 102.207 27.2802C102.613 27.4357 103.045 27.5098 103.479 27.498C104.317 27.498 105.015 27.2925 105.572 26.8815C106.123 26.4799 106.503 25.887 106.639 25.2193H110.466C110.286 26.1946 109.871 27.1115 109.258 27.8909C108.627 28.6906 107.811 29.3253 106.881 29.7404C105.782 30.2152 104.592 30.4419 103.395 30.4043C102.199 30.3667 101.025 30.0657 99.9586 29.5228C98.8902 28.9432 98.015 28.0633 97.4412 26.9918C96.8368 25.8968 96.5371 24.6038 96.5422 23.113C96.5472 21.6221 96.8469 20.3251 97.4412 19.222C98.0071 18.1424 98.882 17.2559 99.9541 16.6759C101.094 16.079 102.366 15.7787 103.653 15.8025C105.056 15.8025 106.285 16.0936 107.339 16.6759C108.363 17.23 109.209 18.0631 109.779 19.0785C110.565 20.5159 110.825 22.183 110.512 23.7914H110.515ZM106.083 19.5605C105.421 18.9568 104.552 18.632 103.656 18.6539C102.749 18.6309 101.867 18.9552 101.19 19.5605C100.522 20.1649 100.154 21.0469 100.086 22.2063H106.996C107.047 21.0378 106.743 20.1533 106.083 19.5529V19.5605Z" fill="#333333"/>
<path d="M121.864 16.6502C122.704 17.1946 123.344 17.9969 123.688 18.9364V15.9899H127.284V30.2209H123.688V27.2336C123.342 28.1758 122.703 28.982 121.864 29.5334C121.009 30.1056 119.982 30.3922 118.782 30.3932C117.643 30.4097 116.521 30.1072 115.545 29.5198C114.565 28.9144 113.784 28.035 113.298 26.9903C112.758 25.8822 112.488 24.5847 112.488 23.0978C112.488 21.611 112.758 20.314 113.298 19.2069C113.785 18.1623 114.566 17.2826 115.545 16.6759C116.522 16.0892 117.643 15.7867 118.782 15.8025C119.984 15.8025 121.011 16.0851 121.864 16.6502ZM117.192 20.0697C116.507 20.8071 116.165 21.8175 116.165 23.1009C116.165 24.3842 116.507 25.3916 117.192 26.123C117.878 26.8503 118.785 27.2139 119.912 27.2139C120.417 27.2294 120.92 27.1379 121.387 26.9454C121.854 26.753 122.275 26.464 122.623 26.0973C123.333 25.3518 123.686 24.354 123.681 23.1039C123.681 21.8376 123.328 20.8303 122.623 20.0818C122.275 19.7149 121.854 19.4256 121.387 19.2329C120.92 19.0402 120.417 18.9485 119.912 18.9636C118.784 18.9626 117.877 19.3313 117.192 20.0697Z" fill="#333333"/>
<path d="M152.783 17.3831C153.786 18.4529 154.286 19.9726 154.285 21.9419V30.2134H150.689V22.356C150.689 21.261 150.411 20.4178 149.855 19.8265C149.299 19.2352 148.531 18.9385 147.552 18.9365C146.545 18.9365 145.739 19.2533 145.134 19.8869C144.53 20.5206 144.228 21.4453 144.228 22.6612V30.2164H140.631V22.359C140.631 21.264 140.353 20.4208 139.797 19.8295C139.241 19.2382 138.475 18.9425 137.498 18.9425C136.49 18.9425 135.684 19.2593 135.08 19.893C134.475 20.5266 134.173 21.4514 134.173 22.6672V30.2225H130.547V15.9899H134.173V18.6796C134.521 17.7903 135.147 17.0379 135.959 16.5354C136.815 16.0198 137.799 15.7577 138.797 15.7799C139.86 15.7488 140.908 16.0322 141.81 16.5944C142.677 17.1656 143.345 17.9912 143.723 18.9576C144.15 18.0019 144.846 17.1915 145.727 16.6257C146.608 16.06 147.634 15.7634 148.681 15.7724C150.414 15.7754 151.782 16.3123 152.783 17.3831Z" fill="#333333"/>
<path d="M94.691 53.5C94.1973 54.3069 93.4847 54.9572 92.636 55.3752C91.7294 55.8446 90.6248 56.0798 89.3223 56.0808C88.1422 56.1014 86.9704 55.8787 85.8801 55.4266C84.9159 55.0263 84.0772 54.3739 83.4519 53.5378C82.8384 52.6997 82.4776 51.7034 82.4123 50.6668H86.2655C86.3319 51.3653 86.646 52.017 87.1509 52.5042C87.6546 52.9928 88.327 53.2366 89.1682 53.2356C89.9207 53.2356 90.4984 53.0341 90.9013 52.6311C91.1022 52.4265 91.2594 52.1831 91.3633 51.9158C91.4672 51.6485 91.5157 51.3629 91.5058 51.0763C91.5247 50.5651 91.3504 50.0656 91.0177 49.677C90.6751 49.2963 90.2546 48.9938 89.7847 48.7901C89.288 48.5684 88.603 48.3116 87.7297 48.0194C86.7788 47.7156 85.8516 47.3424 84.9554 46.9028C84.2226 46.523 83.5923 45.972 83.1179 45.2965C82.6143 44.5914 82.3624 43.6752 82.3624 42.548C82.3624 40.9906 82.923 39.7621 84.0442 38.8625C85.1654 37.9629 86.6513 37.5132 88.5018 37.5132C90.4158 37.5132 91.944 37.9755 93.0863 38.9003C94.2287 39.825 94.8754 41.0581 95.0265 42.5993H91.122C91.0384 41.9865 90.7484 41.4205 90.2999 40.9946C89.8547 40.5745 89.2468 40.3645 88.4761 40.3645C87.8082 40.3645 87.2688 40.5403 86.8578 40.8919C86.4468 41.2434 86.2413 41.7526 86.2413 42.4195C86.2243 42.9052 86.3941 43.3789 86.7158 43.7432C87.0552 44.11 87.4667 44.4027 87.9246 44.603C88.5746 44.8869 89.2394 45.1356 89.9161 45.3479C90.8835 45.6783 91.831 46.0643 92.7539 46.5039C93.5004 46.8792 94.1409 47.4356 94.617 48.1222C95.1308 48.8415 95.3876 49.7833 95.3876 50.9478C95.3927 51.8462 95.1518 52.7288 94.691 53.5Z" fill="#333333"/>
<path d="M109.794 42.3636C110.775 42.9698 111.556 43.8496 112.043 44.8946C112.583 46.0027 112.852 47.2997 112.851 48.7856C112.85 50.2714 112.581 51.5689 112.043 52.678C111.557 53.7229 110.775 54.6023 109.794 55.2075C108.819 55.7951 107.698 56.0976 106.559 56.0809C105.359 56.0809 104.336 55.7943 103.489 55.2211C102.656 54.6661 102.021 53.8607 101.675 52.9213V62.6811H98.0488V41.6776H101.675V44.6317C102.019 43.6949 102.655 42.8934 103.489 42.3455C104.336 41.7804 105.359 41.4978 106.559 41.4978C107.697 41.4795 108.817 41.7794 109.794 42.3636ZM102.718 45.768C102.008 46.5134 101.652 47.5208 101.651 48.7901C101.651 50.0412 102.007 51.039 102.718 51.7835C103.065 52.1501 103.486 52.4391 103.953 52.6316C104.42 52.8241 104.922 52.9156 105.427 52.9001C106.559 52.9001 107.465 52.5365 108.147 51.8092C108.829 51.0818 109.171 50.0745 109.173 48.7871C109.173 47.5027 108.831 46.4923 108.147 45.7559C107.463 45.0195 106.557 44.6513 105.427 44.6513C104.922 44.636 104.42 44.7276 103.953 44.92C103.486 45.1124 103.065 45.4014 102.718 45.768Z" fill="#333333"/>
<path d="M124.077 42.3379C124.916 42.8823 125.556 43.6846 125.901 44.6241V41.6776H129.497V55.9086H125.901V52.9288C125.555 53.871 124.915 54.6772 124.077 55.2286C123.221 55.8008 122.194 56.0874 120.994 56.0884C119.855 56.1049 118.734 55.8024 117.758 55.215C116.779 54.6065 116.001 53.7244 115.518 52.678C114.979 51.5699 114.709 50.2724 114.708 48.7855C114.707 47.2987 114.977 46.0017 115.518 44.8946C116.005 43.85 116.786 42.9703 117.765 42.3636C118.742 41.7769 119.863 41.4744 121.002 41.4902C122.195 41.4902 123.22 41.7728 124.077 42.3379ZM119.402 45.7574C118.718 46.4948 118.375 47.5052 118.374 48.7886C118.373 50.0719 118.716 51.0793 119.402 51.8107C120.088 52.537 120.994 52.9006 122.121 52.9016C122.626 52.9171 123.129 52.8256 123.596 52.6331C124.063 52.4407 124.485 52.1516 124.832 51.785C125.537 51.0405 125.89 50.0427 125.89 48.7916C125.89 47.5253 125.537 46.518 124.832 45.7695C124.485 45.4026 124.064 45.1133 123.596 44.9206C123.129 44.7279 122.627 44.6362 122.121 44.6513C120.993 44.6503 120.087 45.019 119.402 45.7574Z" fill="#333333"/>
<path d="M143.775 42.9802C144.999 43.9744 145.765 45.3273 146.073 47.0388H142.245C142.12 46.3357 141.744 45.7017 141.188 45.2543C140.641 44.8171 139.947 44.5985 139.107 44.5985C138.653 44.5897 138.203 44.6807 137.788 44.865C137.373 45.0494 137.004 45.3226 136.706 45.6653C136.064 46.3705 135.743 47.4106 135.742 48.7856C135.741 50.1607 136.062 51.2013 136.706 51.9074C137.005 52.2483 137.374 52.5196 137.789 52.7023C138.204 52.8851 138.654 52.9748 139.107 52.9651C139.947 52.9651 140.641 52.7471 141.188 52.3109C141.745 51.8632 142.121 51.2286 142.245 50.5248H146.073C145.765 52.2373 144.999 53.5902 143.775 54.5835C142.551 55.5767 141.022 56.0734 139.189 56.0734C137.9 56.0976 136.627 55.7929 135.49 55.1879C134.422 54.6075 133.547 53.7278 132.972 52.6569C132.374 51.5619 132.072 50.2689 132.066 48.7781C132.059 47.2872 132.362 45.9902 132.972 44.8871C133.542 43.8127 134.418 42.9317 135.49 42.3561C136.63 41.7593 137.902 41.4589 139.189 41.4827C141.017 41.4878 142.546 41.9869 143.775 42.9802Z" fill="#333333"/>
<path d="M161.889 49.4792H151.463C151.514 50.7464 151.857 51.6797 152.49 52.2791C152.806 52.5768 153.177 52.8095 153.582 52.9637C153.988 53.118 154.42 53.1909 154.854 53.1782C155.693 53.1782 156.391 52.9727 156.948 52.5617C157.495 52.1586 157.872 51.5659 158.006 50.8995H161.833C161.652 51.8747 161.237 52.7915 160.624 53.5711C159.994 54.3707 159.179 55.0054 158.249 55.4206C157.15 55.8953 155.959 56.122 154.763 56.0844C153.566 56.0468 152.392 55.7458 151.325 55.203C150.257 54.6226 149.382 53.7429 148.808 52.672C148.203 51.577 147.904 50.284 147.909 48.7931C147.914 47.3022 148.213 46.0053 148.808 44.9022C149.378 43.8278 150.254 42.9468 151.325 42.3712C152.465 41.7744 153.737 41.474 155.024 41.4978C156.428 41.4978 157.656 41.7889 158.711 42.3712C159.735 42.9253 160.582 43.7584 161.152 44.7738C161.736 45.8377 162.032 47.0356 162.011 48.2492C162.008 48.662 161.967 49.0737 161.889 49.4792ZM157.459 45.2407C156.795 44.6402 155.925 44.3183 155.03 44.3416C154.124 44.3166 153.242 44.6381 152.564 45.2407C151.896 45.8451 151.528 46.727 151.46 47.8865H158.37C158.421 46.722 158.117 45.8401 157.459 45.2407Z" fill="#333333"/>
<defs>
<linearGradient id="paint0_linear" x1="33.9985" y1="0" x2="33.9985" y2="67.997" gradientUnits="userSpaceOnUse">
<stop stop-color="#6E44FF"/>
<stop offset="1" stop-color="#72DDF7"/>
</linearGradient>
</defs>
</svg>
