<svg width="115" height="49" viewBox="0 0 115 49" fill="none" xmlns="http://www.w3.org/2000/svg">
<path d="M24.3891 0.0993652H24.8755C27.9952 0.0993652 31.0844 0.713839 33.9666 1.9077C36.8488 3.10157 39.4677 4.85144 41.6737 7.05741C43.8797 9.26339 45.6295 11.8823 46.8234 14.7645C48.0173 17.6468 48.6317 20.7359 48.6317 23.8556V24.342C48.6317 30.6426 46.1289 36.6851 41.6737 41.1402C37.2185 45.5954 31.176 48.0983 24.8755 48.0983H0.632812V23.8556C0.632813 17.5551 3.1357 11.5126 7.59086 7.05741C12.046 2.60225 18.0885 0.0993652 24.3891 0.0993652V0.0993652Z" fill="white"/>
<path d="M32.5611 15.698C31.9374 15.0678 31.0893 14.7107 30.2027 14.705C29.7582 14.7008 29.3175 14.7867 28.9071 14.9574C28.4967 15.128 28.125 15.38 27.8145 15.698C27.345 16.1674 27.0252 16.7655 26.8956 17.4167C26.766 18.0679 26.8325 18.7428 27.0865 19.3562C27.3405 19.9697 27.7708 20.494 28.3228 20.8628C28.8748 21.2317 29.5238 21.4286 30.1878 21.4286C30.8517 21.4286 31.5007 21.2317 32.0528 20.8628C32.6048 20.494 33.035 19.9697 33.2891 19.3562C33.5431 18.7428 33.6095 18.0679 33.48 17.4167C33.3504 16.7655 33.0306 16.1674 32.5611 15.698ZM31.7259 19.6094C31.4211 19.9171 31.0317 20.1273 30.6072 20.2133C30.1826 20.2993 29.7421 20.2573 29.3416 20.0925C28.941 19.9277 28.5985 19.6475 28.3574 19.2877C28.1163 18.9278 27.9876 18.5044 27.9876 18.0713C27.9876 17.6382 28.1163 17.2148 28.3574 16.8549C28.5985 16.4951 28.941 16.215 29.3416 16.0501C29.7421 15.8853 30.1826 15.8433 30.6072 15.9293C31.0317 16.0153 31.4211 16.2255 31.7259 16.5332C32.1326 16.9418 32.3609 17.4948 32.3609 18.0713C32.3609 18.6478 32.1326 19.2008 31.7259 19.6094V19.6094ZM32.5611 15.698C31.9374 15.0678 31.0893 14.7107 30.2027 14.705C29.7582 14.7008 29.3175 14.7867 28.9071 14.9574C28.4967 15.128 28.125 15.38 27.8145 15.698C27.345 16.1674 27.0252 16.7655 26.8956 17.4167C26.766 18.0679 26.8325 18.7428 27.0865 19.3562C27.3405 19.9697 27.7708 20.494 28.3228 20.8628C28.8748 21.2317 29.5238 21.4286 30.1878 21.4286C30.8517 21.4286 31.5007 21.2317 32.0528 20.8628C32.6048 20.494 33.035 19.9697 33.2891 19.3562C33.5431 18.7428 33.6095 18.0679 33.48 17.4167C33.3504 16.7655 33.0306 16.1674 32.5611 15.698ZM31.7259 19.6094C31.4211 19.9171 31.0317 20.1273 30.6072 20.2133C30.1826 20.2993 29.7421 20.2573 29.3416 20.0925C28.941 19.9277 28.5985 19.6475 28.3574 19.2877C28.1163 18.9278 27.9876 18.5044 27.9876 18.0713C27.9876 17.6382 28.1163 17.2148 28.3574 16.8549C28.5985 16.4951 28.941 16.215 29.3416 16.0501C29.7421 15.8853 30.1826 15.8433 30.6072 15.9293C31.0317 16.0153 31.4211 16.2255 31.7259 16.5332C32.1326 16.9418 32.3609 17.4948 32.3609 18.0713C32.3609 18.6478 32.1326 19.2008 31.7259 19.6094V19.6094ZM32.5611 15.698C31.9374 15.0678 31.0893 14.7107 30.2027 14.705C29.7582 14.7008 29.3175 14.7867 28.9071 14.9574C28.4967 15.128 28.125 15.38 27.8145 15.698C27.345 16.1674 27.0252 16.7655 26.8956 17.4167C26.766 18.0679 26.8325 18.7428 27.0865 19.3562C27.3405 19.9697 27.7708 20.494 28.3228 20.8628C28.8748 21.2317 29.5238 21.4286 30.1878 21.4286C30.8517 21.4286 31.5007 21.2317 32.0528 20.8628C32.6048 20.494 33.035 19.9697 33.2891 19.3562C33.5431 18.7428 33.6095 18.0679 33.48 17.4167C33.3504 16.7655 33.0306 16.1674 32.5611 15.698ZM31.7259 19.6094C31.4211 19.9171 31.0317 20.1273 30.6072 20.2133C30.1826 20.2993 29.7421 20.2573 29.3416 20.0925C28.941 19.9277 28.5985 19.6475 28.3574 19.2877C28.1163 18.9278 27.9876 18.5044 27.9876 18.0713C27.9876 17.6382 28.1163 17.2148 28.3574 16.8549C28.5985 16.4951 28.941 16.215 29.3416 16.0501C29.7421 15.8853 30.1826 15.8433 30.6072 15.9293C31.0317 16.0153 31.4211 16.2255 31.7259 16.5332C32.1326 16.9418 32.3609 17.4948 32.3609 18.0713C32.3609 18.6478 32.1326 19.2008 31.7259 19.6094V19.6094ZM32.5611 15.698C31.9374 15.0678 31.0893 14.7107 30.2027 14.705C29.7582 14.7008 29.3175 14.7867 28.9071 14.9574C28.4967 15.128 28.125 15.38 27.8145 15.698C27.345 16.1674 27.0252 16.7655 26.8956 17.4167C26.766 18.0679 26.8325 18.7428 27.0865 19.3562C27.3405 19.9697 27.7708 20.494 28.3228 20.8628C28.8748 21.2317 29.5238 21.4286 30.1878 21.4286C30.8517 21.4286 31.5007 21.2317 32.0528 20.8628C32.6048 20.494 33.035 19.9697 33.2891 19.3562C33.5431 18.7428 33.6095 18.0679 33.48 17.4167C33.3504 16.7655 33.0306 16.1674 32.5611 15.698ZM31.7259 19.6094C31.4211 19.9171 31.0317 20.1273 30.6072 20.2133C30.1826 20.2993 29.7421 20.2573 29.3416 20.0925C28.941 19.9277 28.5985 19.6475 28.3574 19.2877C28.1163 18.9278 27.9876 18.5044 27.9876 18.0713C27.9876 17.6382 28.1163 17.2148 28.3574 16.8549C28.5985 16.4951 28.941 16.215 29.3416 16.0501C29.7421 15.8853 30.1826 15.8433 30.6072 15.9293C31.0317 16.0153 31.4211 16.2255 31.7259 16.5332C32.1326 16.9418 32.3609 17.4948 32.3609 18.0713C32.3609 18.6478 32.1326 19.2008 31.7259 19.6094V19.6094ZM32.5611 15.698C31.9374 15.0678 31.0893 14.7107 30.2027 14.705C29.7582 14.7008 29.3175 14.7867 28.9071 14.9574C28.4967 15.128 28.125 15.38 27.8145 15.698C27.345 16.1674 27.0252 16.7655 26.8956 17.4167C26.766 18.0679 26.8325 18.7428 27.0865 19.3562C27.3405 19.9697 27.7708 20.494 28.3228 20.8628C28.8748 21.2317 29.5238 21.4286 30.1878 21.4286C30.8517 21.4286 31.5007 21.2317 32.0528 20.8628C32.6048 20.494 33.035 19.9697 33.2891 19.3562C33.5431 18.7428 33.6095 18.0679 33.48 17.4167C33.3504 16.7655 33.0306 16.1674 32.5611 15.698ZM31.7259 19.6094C31.4211 19.9171 31.0317 20.1273 30.6072 20.2133C30.1826 20.2993 29.7421 20.2573 29.3416 20.0925C28.941 19.9277 28.5985 19.6475 28.3574 19.2877C28.1163 18.9278 27.9876 18.5044 27.9876 18.0713C27.9876 17.6382 28.1163 17.2148 28.3574 16.8549C28.5985 16.4951 28.941 16.215 29.3416 16.0501C29.7421 15.8853 30.1826 15.8433 30.6072 15.9293C31.0317 16.0153 31.4211 16.2255 31.7259 16.5332C32.1326 16.9418 32.3609 17.4948 32.3609 18.0713C32.3609 18.6478 32.1326 19.2008 31.7259 19.6094V19.6094ZM32.5611 15.698C31.9374 15.0678 31.0893 14.7107 30.2027 14.705C29.7582 14.7008 29.3175 14.7867 28.9071 14.9574C28.4967 15.128 28.125 15.38 27.8145 15.698C27.345 16.1674 27.0252 16.7655 26.8956 17.4167C26.766 18.0679 26.8325 18.7428 27.0865 19.3562C27.3405 19.9697 27.7708 20.494 28.3228 20.8628C28.8748 21.2317 29.5238 21.4286 30.1878 21.4286C30.8517 21.4286 31.5007 21.2317 32.0528 20.8628C32.6048 20.494 33.035 19.9697 33.2891 19.3562C33.5431 18.7428 33.6095 18.0679 33.48 17.4167C33.3504 16.7655 33.0306 16.1674 32.5611 15.698ZM31.7259 19.6094C31.4211 19.9171 31.0317 20.1273 30.6072 20.2133C30.1826 20.2993 29.7421 20.2573 29.3416 20.0925C28.941 19.9277 28.5985 19.6475 28.3574 19.2877C28.1163 18.9278 27.9876 18.5044 27.9876 18.0713C27.9876 17.6382 28.1163 17.2148 28.3574 16.8549C28.5985 16.4951 28.941 16.215 29.3416 16.0501C29.7421 15.8853 30.1826 15.8433 30.6072 15.9293C31.0317 16.0153 31.4211 16.2255 31.7259 16.5332C32.1326 16.9418 32.3609 17.4948 32.3609 18.0713C32.3609 18.6478 32.1326 19.2008 31.7259 19.6094V19.6094ZM32.5611 15.698C31.9374 15.0678 31.0893 14.7107 30.2027 14.705C29.7582 14.7008 29.3175 14.7867 28.9071 14.9574C28.4967 15.128 28.125 15.38 27.8145 15.698C27.345 16.1674 27.0252 16.7655 26.8956 17.4167C26.766 18.0679 26.8325 18.7428 27.0865 19.3562C27.3405 19.9697 27.7708 20.494 28.3228 20.8628C28.8748 21.2317 29.5238 21.4286 30.1878 21.4286C30.8517 21.4286 31.5007 21.2317 32.0528 20.8628C32.6048 20.494 33.035 19.9697 33.2891 19.3562C33.5431 18.7428 33.6095 18.0679 33.48 17.4167C33.3504 16.7655 33.0306 16.1674 32.5611 15.698ZM31.7259 19.6094C31.4211 19.9171 31.0317 20.1273 30.6072 20.2133C30.1826 20.2993 29.7421 20.2573 29.3416 20.0925C28.941 19.9277 28.5985 19.6475 28.3574 19.2877C28.1163 18.9278 27.9876 18.5044 27.9876 18.0713C27.9876 17.6382 28.1163 17.2148 28.3574 16.8549C28.5985 16.4951 28.941 16.215 29.3416 16.0501C29.7421 15.8853 30.1826 15.8433 30.6072 15.9293C31.0317 16.0153 31.4211 16.2255 31.7259 16.5332C32.1326 16.9418 32.3609 17.4948 32.3609 18.0713C32.3609 18.6478 32.1326 19.2008 31.7259 19.6094V19.6094ZM32.5611 15.698C31.9374 15.0678 31.0893 14.7107 30.2027 14.705C29.7582 14.7008 29.3175 14.7867 28.9071 14.9574C28.4967 15.128 28.125 15.38 27.8145 15.698C27.345 16.1674 27.0252 16.7655 26.8956 17.4167C26.766 18.0679 26.8325 18.7428 27.0865 19.3562C27.3405 19.9697 27.7708 20.494 28.3228 20.8628C28.8748 21.2317 29.5238 21.4286 30.1878 21.4286C30.8517 21.4286 31.5007 21.2317 32.0528 20.8628C32.6048 20.494 33.035 19.9697 33.2891 19.3562C33.5431 18.7428 33.6095 18.0679 33.48 17.4167C33.3504 16.7655 33.0306 16.1674 32.5611 15.698ZM31.7259 19.6094C31.4211 19.9171 31.0317 20.1273 30.6072 20.2133C30.1826 20.2993 29.7421 20.2573 29.3416 20.0925C28.941 19.9277 28.5985 19.6475 28.3574 19.2877C28.1163 18.9278 27.9876 18.5044 27.9876 18.0713C27.9876 17.6382 28.1163 17.2148 28.3574 16.8549C28.5985 16.4951 28.941 16.215 29.3416 16.0501C29.7421 15.8853 30.1826 15.8433 30.6072 15.9293C31.0317 16.0153 31.4211 16.2255 31.7259 16.5332C32.1326 16.9418 32.3609 17.4948 32.3609 18.0713C32.3609 18.6478 32.1326 19.2008 31.7259 19.6094V19.6094ZM32.5611 15.698C31.9374 15.0678 31.0893 14.7107 30.2027 14.705C29.7582 14.7008 29.3175 14.7867 28.9071 14.9574C28.4967 15.128 28.125 15.38 27.8145 15.698C27.345 16.1674 27.0252 16.7655 26.8956 17.4167C26.766 18.0679 26.8325 18.7428 27.0865 19.3562C27.3405 19.9697 27.7708 20.494 28.3228 20.8628C28.8748 21.2317 29.5238 21.4286 30.1878 21.4286C30.8517 21.4286 31.5007 21.2317 32.0528 20.8628C32.6048 20.494 33.035 19.9697 33.2891 19.3562C33.5431 18.7428 33.6095 18.0679 33.48 17.4167C33.3504 16.7655 33.0306 16.1674 32.5611 15.698ZM31.7259 19.6094C31.4211 19.9171 31.0317 20.1273 30.6072 20.2133C30.1826 20.2993 29.7421 20.2573 29.3416 20.0925C28.941 19.9277 28.5985 19.6475 28.3574 19.2877C28.1163 18.9278 27.9876 18.5044 27.9876 18.0713C27.9876 17.6382 28.1163 17.2148 28.3574 16.8549C28.5985 16.4951 28.941 16.215 29.3416 16.0501C29.7421 15.8853 30.1826 15.8433 30.6072 15.9293C31.0317 16.0153 31.4211 16.2255 31.7259 16.5332C32.1326 16.9418 32.3609 17.4948 32.3609 18.0713C32.3609 18.6478 32.1326 19.2008 31.7259 19.6094V19.6094ZM32.5611 15.698C31.9374 15.0678 31.0893 14.7107 30.2027 14.705C29.7582 14.7008 29.3175 14.7867 28.9071 14.9574C28.4967 15.128 28.125 15.38 27.8145 15.698C27.345 16.1674 27.0252 16.7655 26.8956 17.4167C26.766 18.0679 26.8325 18.7428 27.0865 19.3562C27.3405 19.9697 27.7708 20.494 28.3228 20.8628C28.8748 21.2317 29.5238 21.4286 30.1878 21.4286C30.8517 21.4286 31.5007 21.2317 32.0528 20.8628C32.6048 20.494 33.035 19.9697 33.2891 19.3562C33.5431 18.7428 33.6095 18.0679 33.48 17.4167C33.3504 16.7655 33.0306 16.1674 32.5611 15.698ZM31.7259 19.6094C31.4211 19.9171 31.0317 20.1273 30.6072 20.2133C30.1826 20.2993 29.7421 20.2573 29.3416 20.0925C28.941 19.9277 28.5985 19.6475 28.3574 19.2877C28.1163 18.9278 27.9876 18.5044 27.9876 18.0713C27.9876 17.6382 28.1163 17.2148 28.3574 16.8549C28.5985 16.4951 28.941 16.215 29.3416 16.0501C29.7421 15.8853 30.1826 15.8433 30.6072 15.9293C31.0317 16.0153 31.4211 16.2255 31.7259 16.5332C32.1326 16.9418 32.3609 17.4948 32.3609 18.0713C32.3609 18.6478 32.1326 19.2008 31.7259 19.6094V19.6094ZM32.5611 15.698C31.9374 15.0678 31.0893 14.7107 30.2027 14.705C29.7582 14.7008 29.3175 14.7867 28.9071 14.9574C28.4967 15.128 28.125 15.38 27.8145 15.698C27.345 16.1674 27.0252 16.7655 26.8956 17.4167C26.766 18.0679 26.8325 18.7428 27.0865 19.3562C27.3405 19.9697 27.7708 20.494 28.3228 20.8628C28.8748 21.2317 29.5238 21.4286 30.1878 21.4286C30.8517 21.4286 31.5007 21.2317 32.0528 20.8628C32.6048 20.494 33.035 19.9697 33.2891 19.3562C33.5431 18.7428 33.6095 18.0679 33.48 17.4167C33.3504 16.7655 33.0306 16.1674 32.5611 15.698ZM31.7259 19.6094C31.4211 19.9171 31.0317 20.1273 30.6072 20.2133C30.1826 20.2993 29.7421 20.2573 29.3416 20.0925C28.941 19.9277 28.5985 19.6475 28.3574 19.2877C28.1163 18.9278 27.9876 18.5044 27.9876 18.0713C27.9876 17.6382 28.1163 17.2148 28.3574 16.8549C28.5985 16.4951 28.941 16.215 29.3416 16.0501C29.7421 15.8853 30.1826 15.8433 30.6072 15.9293C31.0317 16.0153 31.4211 16.2255 31.7259 16.5332C32.1326 16.9418 32.3609 17.4948 32.3609 18.0713C32.3609 18.6478 32.1326 19.2008 31.7259 19.6094V19.6094ZM32.5611 15.698C31.9374 15.0678 31.0893 14.7107 30.2027 14.705C29.7582 14.7008 29.3175 14.7867 28.9071 14.9574C28.4967 15.128 28.125 15.38 27.8145 15.698C27.345 16.1674 27.0252 16.7655 26.8956 17.4167C26.766 18.0679 26.8325 18.7428 27.0865 19.3562C27.3405 19.9697 27.7708 20.494 28.3228 20.8628C28.8748 21.2317 29.5238 21.4286 30.1878 21.4286C30.8517 21.4286 31.5007 21.2317 32.0528 20.8628C32.6048 20.494 33.035 19.9697 33.2891 19.3562C33.5431 18.7428 33.6095 18.0679 33.48 17.4167C33.3504 16.7655 33.0306 16.1674 32.5611 15.698ZM31.7259 19.6094C31.4211 19.9171 31.0317 20.1273 30.6072 20.2133C30.1826 20.2993 29.7421 20.2573 29.3416 20.0925C28.941 19.9277 28.5985 19.6475 28.3574 19.2877C28.1163 18.9278 27.9876 18.5044 27.9876 18.0713C27.9876 17.6382 28.1163 17.2148 28.3574 16.8549C28.5985 16.4951 28.941 16.215 29.3416 16.0501C29.7421 15.8853 30.1826 15.8433 30.6072 15.9293C31.0317 16.0153 31.4211 16.2255 31.7259 16.5332C32.1326 16.9418 32.3609 17.4948 32.3609 18.0713C32.3609 18.6478 32.1326 19.2008 31.7259 19.6094V19.6094ZM32.5611 15.698C31.9374 15.0678 31.0893 14.7107 30.2027 14.705C29.7582 14.7008 29.3175 14.7867 28.9071 14.9574C28.4967 15.128 28.125 15.38 27.8145 15.698C27.345 16.1674 27.0252 16.7655 26.8956 17.4167C26.766 18.0679 26.8325 18.7428 27.0865 19.3562C27.3405 19.9697 27.7708 20.494 28.3228 20.8628C28.8748 21.2317 29.5238 21.4286 30.1878 21.4286C30.8517 21.4286 31.5007 21.2317 32.0528 20.8628C32.6048 20.494 33.035 19.9697 33.2891 19.3562C33.5431 18.7428 33.6095 18.0679 33.48 17.4167C33.3504 16.7655 33.0306 16.1674 32.5611 15.698ZM31.7259 19.6094C31.4211 19.9171 31.0317 20.1273 30.6072 20.2133C30.1826 20.2993 29.7421 20.2573 29.3416 20.0925C28.941 19.9277 28.5985 19.6475 28.3574 19.2877C28.1163 18.9278 27.9876 18.5044 27.9876 18.0713C27.9876 17.6382 28.1163 17.2148 28.3574 16.8549C28.5985 16.4951 28.941 16.215 29.3416 16.0501C29.7421 15.8853 30.1826 15.8433 30.6072 15.9293C31.0317 16.0153 31.4211 16.2255 31.7259 16.5332C32.1326 16.9418 32.3609 17.4948 32.3609 18.0713C32.3609 18.6478 32.1326 19.2008 31.7259 19.6094V19.6094ZM32.5611 15.698C31.9374 15.0678 31.0893 14.7107 30.2027 14.705C29.7582 14.7008 29.3175 14.7867 28.9071 14.9574C28.4967 15.128 28.125 15.38 27.8145 15.698C27.345 16.1674 27.0252 16.7655 26.8956 17.4167C26.766 18.0679 26.8325 18.7428 27.0865 19.3562C27.3405 19.9697 27.7708 20.494 28.3228 20.8628C28.8748 21.2317 29.5238 21.4286 30.1878 21.4286C30.8517 21.4286 31.5007 21.2317 32.0528 20.8628C32.6048 20.494 33.035 19.9697 33.2891 19.3562C33.5431 18.7428 33.6095 18.0679 33.48 17.4167C33.3504 16.7655 33.0306 16.1674 32.5611 15.698ZM31.7259 19.6094C31.4211 19.9171 31.0317 20.1273 30.6072 20.2133C30.1826 20.2993 29.7421 20.2573 29.3416 20.0925C28.941 19.9277 28.5985 19.6475 28.3574 19.2877C28.1163 18.9278 27.9876 18.5044 27.9876 18.0713C27.9876 17.6382 28.1163 17.2148 28.3574 16.8549C28.5985 16.4951 28.941 16.215 29.3416 16.0501C29.7421 15.8853 30.1826 15.8433 30.6072 15.9293C31.0317 16.0153 31.4211 16.2255 31.7259 16.5332C32.1326 16.9418 32.3609 17.4948 32.3609 18.0713C32.3609 18.6478 32.1326 19.2008 31.7259 19.6094V19.6094ZM32.5611 15.698C31.9374 15.0678 31.0893 14.7107 30.2027 14.705C29.7582 14.7008 29.3175 14.7867 28.9071 14.9574C28.4967 15.128 28.125 15.38 27.8145 15.698C27.345 16.1674 27.0252 16.7655 26.8956 17.4167C26.766 18.0679 26.8325 18.7428 27.0865 19.3562C27.3405 19.9697 27.7708 20.494 28.3228 20.8628C28.8748 21.2317 29.5238 21.4286 30.1878 21.4286C30.8517 21.4286 31.5007 21.2317 32.0528 20.8628C32.6048 20.494 33.035 19.9697 33.2891 19.3562C33.5431 18.7428 33.6095 18.0679 33.48 17.4167C33.3504 16.7655 33.0306 16.1674 32.5611 15.698ZM31.7259 19.6094C31.4211 19.9171 31.0317 20.1273 30.6072 20.2133C30.1826 20.2993 29.7421 20.2573 29.3416 20.0925C28.941 19.9277 28.5985 19.6475 28.3574 19.2877C28.1163 18.9278 27.9876 18.5044 27.9876 18.0713C27.9876 17.6382 28.1163 17.2148 28.3574 16.8549C28.5985 16.4951 28.941 16.215 29.3416 16.0501C29.7421 15.8853 30.1826 15.8433 30.6072 15.9293C31.0317 16.0153 31.4211 16.2255 31.7259 16.5332C32.1326 16.9418 32.3609 17.4948 32.3609 18.0713C32.3609 18.6478 32.1326 19.2008 31.7259 19.6094V19.6094Z" fill="#231F20"/>
<path d="M38.3038 10.0906C38.1635 9.94922 37.992 9.84286 37.803 9.78005C37.614 9.71723 37.4129 9.69974 37.2159 9.72897L35.7439 9.99349C31.5914 10.7895 27.6492 12.438 24.1661 14.8348C20.683 17.2316 17.7347 20.3246 15.5075 23.9185C15.4873 23.9504 15.4692 23.9835 15.4531 24.0177C15.4201 24.0756 15.3922 24.1362 15.3699 24.199C15.275 24.4849 15.291 24.8582 15.4126 25.2977C15.6345 26.1222 16.2137 27.1739 17.067 28.2683C16.8355 27.9126 16.6559 27.5258 16.5337 27.1195C16.4597 26.901 16.4508 26.6657 16.5081 26.4422C16.5218 26.4032 16.5385 26.3654 16.5582 26.3291C16.5622 26.3214 16.5677 26.3146 16.5742 26.3089C16.59 26.2834 16.609 26.2601 16.6307 26.2395C16.8152 26.0561 17.1352 26.0337 17.5395 26.1489C18.3 26.3622 19.3592 27.0566 20.3586 28.0582C21.3581 29.0597 22.0471 30.1082 22.2626 30.8688C22.3821 31.2773 22.3597 31.6005 22.1783 31.785L22.1645 31.7967C22.1472 31.8131 22.1286 31.8281 22.109 31.8415C22.0382 31.8883 21.9582 31.9192 21.8743 31.9322C21.6684 31.9587 21.4592 31.9387 21.2621 31.8735C20.866 31.7465 20.4886 31.5671 20.14 31.3402C21.2152 32.1797 22.2466 32.7556 23.0679 32.9882C23.3872 33.0926 23.7256 33.125 24.0588 33.0831C24.1931 33.0492 24.321 32.9937 24.4375 32.9189L24.5281 32.8645C28.0864 30.6898 31.1518 27.7967 33.5284 24.3701C35.905 20.9435 37.5405 17.0587 38.3305 12.9641L38.658 11.2031V11.1807C38.6877 10.9839 38.6712 10.783 38.6097 10.5938C38.5483 10.4045 38.4435 10.2322 38.3038 10.0906V10.0906ZM37.1753 12.7433C35.7087 20.373 30.7051 27.4342 24.2081 31.6954C23.8583 30.4656 22.5858 28.6235 20.9741 27.0118C19.3624 25.4001 17.9875 24.5585 16.7544 24.2129C21.1 17.6744 28.239 12.6281 35.97 11.1561L37.3897 10.8969C37.4043 10.8964 37.4188 10.8989 37.4324 10.9042C37.446 10.9095 37.4583 10.9176 37.4687 10.9279C37.4781 10.9382 37.4854 10.9503 37.4902 10.9635C37.4949 10.9767 37.497 10.9907 37.4964 11.0047L37.1753 12.7433Z" fill="#231F20"/>
<path d="M33.4368 27.8491C33.4149 27.6818 33.3425 27.5252 33.2293 27.4002C33.1161 27.2752 32.9674 27.1876 32.8032 27.1493C32.6459 27.1147 32.4818 27.1271 32.3316 27.1852C32.1813 27.2432 32.0515 27.3443 31.9584 27.4757C30.6566 29.0164 29.2048 30.4238 27.6246 31.6772L27.6108 31.69C27.4373 31.7641 27.2986 31.9016 27.2231 32.0745C27.1475 32.2473 27.1408 32.4425 27.2044 32.6202L28.7393 36.4419C28.8008 36.6408 28.9171 36.8182 29.0748 36.9541C29.2325 37.0899 29.4252 37.1786 29.631 37.2099C29.6905 37.2202 29.7508 37.2252 29.8113 37.2249C29.9997 37.2248 30.1851 37.1781 30.351 37.0887C30.5169 36.9993 30.658 36.8702 30.7616 36.7129L31.6427 35.4393C33.1751 33.2254 33.8158 30.5148 33.4368 27.8491V27.8491ZM30.6699 34.7673L29.8294 35.9833L28.4427 32.5348C29.8457 31.4126 31.1517 30.1741 32.3467 28.8325C32.4608 30.9419 31.871 33.0295 30.6699 34.7673V34.7673Z" fill="#231F20"/>
<path d="M21.2468 15.6915C21.2079 15.5275 21.1198 15.3792 20.9944 15.2666C20.869 15.1539 20.7122 15.0823 20.5449 15.0612C17.8789 14.6825 15.1681 15.3232 12.9536 16.8553L11.7216 17.7086C11.5311 17.7997 11.3719 17.9454 11.2642 18.1271C11.1565 18.3088 11.1052 18.5184 11.1168 18.7293C11.133 18.9485 11.2153 19.1576 11.3528 19.329C11.4903 19.5004 11.6765 19.626 11.887 19.6893L15.6767 21.2114L15.7098 21.2232C15.7822 21.2465 15.8578 21.2583 15.9338 21.2584C16.1443 21.2493 16.3475 21.1789 16.5183 21.0557L16.5663 21.0237L16.673 20.917L16.7253 20.8584C17.8644 19.3651 19.2351 17.9464 20.9172 16.5353C21.0484 16.4421 21.1494 16.3125 21.208 16.1626C21.2666 16.0127 21.28 15.849 21.2468 15.6915V15.6915ZM15.8794 20.0221L12.448 18.6429L13.6213 17.828C15.3578 16.6264 17.4443 16.0359 19.5529 16.1491C18.2047 17.3169 16.9743 18.6141 15.8794 20.0221V20.0221Z" fill="#231F20"/>
<path fill-rule="evenodd" clip-rule="evenodd" d="M8.32002 42.8057C8.31042 42.8387 8.30189 42.8718 8.29335 42.9059C8.23425 43.1397 8.20204 43.3795 8.19735 43.6206C8.19565 44.1259 8.2493 44.6299 8.35735 45.1235C8.39148 45.2963 8.48855 45.5096 8.48961 45.6856C8.48961 45.6856 8.46615 43.5832 12.0287 42.0707C17.7171 39.6537 19.6072 35.8842 19.0782 33.1419C18.8723 33.5792 18.5001 33.944 18.1609 34.3984C17.8353 34.837 17.4505 35.2282 17.0174 35.561C16.6461 35.846 16.2417 36.0852 15.8132 36.2735C15.4613 36.4295 15.0942 36.5485 14.7177 36.6287C14.3572 36.7045 13.9487 36.7834 13.5871 36.6757C13.5759 36.6739 13.5653 36.6698 13.5559 36.6635C13.5465 36.6573 13.5386 36.649 13.5327 36.6394C13.5279 36.6245 13.5279 36.6084 13.5327 36.5935C13.5609 36.4375 13.6165 36.2876 13.697 36.1509C13.7382 36.08 13.7857 36.0129 13.8388 35.9503C13.8911 35.8906 13.9572 35.8437 14.0084 35.784C13.9647 35.7957 13.9188 35.7925 13.8751 35.801C13.8111 35.8138 13.7471 35.8287 13.6842 35.8447C13.4943 35.8927 13.3076 35.9526 13.1252 36.024C12.6625 36.2004 12.2325 36.4527 11.8527 36.7706C11.2331 37.3001 10.6557 37.8771 10.1258 38.4964C10.1258 38.4964 11.0464 33.4651 13.3695 31.3147C14.0471 30.6653 14.826 30.1307 15.6756 29.7318C11.7781 29.1174 7.5691 35.273 5.81554 40.0089C3.54039 46.156 0.633789 48.0994 0.633789 48.0994C1.25564 47.8072 1.81776 47.3613 2.36282 46.9485C3.12013 46.3746 3.85612 45.7752 4.5857 45.1619C5.22 44.6286 5.84683 44.0871 6.46619 43.5374C6.65179 43.372 6.83738 43.2057 7.01765 43.035C7.33225 42.7236 7.7144 42.4889 8.13442 42.3491C8.267 42.3062 8.40245 42.2727 8.53975 42.2489C8.50028 42.2563 8.42242 42.5091 8.40642 42.5497C8.37335 42.6318 8.34455 42.7171 8.32002 42.8057Z" fill="#231F20"/>
<path d="M67.7584 9.26819V11.2948H64.2224V22.0679H61.6625V11.2948H58.1426V9.26819H67.7584Z" fill="white"/>
<path d="M78.5297 17.5368H71.1699C71.2061 18.4314 71.4479 19.0902 71.8952 19.5133C72.1179 19.7235 72.3799 19.8878 72.6661 19.9967C72.9524 20.1056 73.2573 20.157 73.5634 20.148C74.1551 20.148 74.6475 20.0029 75.0407 19.7128C75.4304 19.428 75.6991 19.0074 75.7938 18.5341H78.4956C78.3681 19.2226 78.0753 19.8698 77.6423 20.42C77.1969 20.9845 76.6211 21.4325 75.9644 21.7255C75.1888 22.0607 74.3487 22.2207 73.5042 22.1942C72.6596 22.1676 71.8312 21.9552 71.0781 21.5719C70.324 21.1628 69.7062 20.5417 69.3011 19.7853C68.8745 19.0123 68.6611 18.0997 68.6611 17.0472C68.6611 15.9948 68.8745 15.0793 69.3011 14.3006C69.7032 13.5429 70.3213 12.9218 71.0771 12.5161C71.882 12.0948 72.7799 11.8828 73.6882 11.8996C74.6788 11.8996 75.546 12.1051 76.2898 12.5161C77.0127 12.9073 77.61 13.4953 78.0124 14.2121C78.5676 15.2268 78.7506 16.4036 78.5297 17.539V17.5368ZM75.4013 14.5428C74.9332 14.1186 74.3196 13.8912 73.6882 13.9081C73.0483 13.8904 72.4258 14.1174 71.9475 14.5428C71.476 14.9694 71.2161 15.592 71.1677 16.4104H76.0455C76.0818 15.592 75.867 14.9694 75.4013 14.5428Z" fill="white"/>
<path d="M86.5433 12.4958C87.136 12.8801 87.5878 13.4465 87.8308 14.1097V12.0244H90.3694V22.07H87.8308V19.9666C87.5866 20.6317 87.1353 21.2008 86.5433 21.59C85.9396 21.9939 85.2143 22.1963 84.3674 22.197C83.5632 22.2086 82.7718 21.9951 82.0826 21.5804C81.3908 21.1531 80.8393 20.5323 80.4965 19.7949C80.1154 19.0127 79.9248 18.0968 79.9248 17.0472C79.9248 15.9976 80.1154 15.0821 80.4965 14.3006C80.8402 13.564 81.3914 12.9438 82.0826 12.5161C82.772 12.1019 83.5632 11.8884 84.3674 11.8996C85.2143 11.8982 85.9396 12.0969 86.5433 12.4958ZM83.2431 14.9075C82.7596 15.428 82.5178 16.1413 82.5178 17.0472C82.5178 17.9531 82.7596 18.6642 83.2431 19.1805C83.7274 19.6932 84.3674 19.9499 85.1631 19.9506C85.5196 19.9615 85.8744 19.8969 86.2041 19.7611C86.5339 19.6252 86.8313 19.4212 87.0766 19.1624C87.5744 18.6369 87.8251 17.9325 87.8286 17.0493C87.8286 16.1555 87.578 15.4444 87.0766 14.9161C86.8313 14.6571 86.534 14.4529 86.2042 14.3168C85.8745 14.1808 85.5197 14.116 85.1631 14.1267C84.3667 14.1274 83.7267 14.3877 83.2431 14.9075V14.9075Z" fill="white"/>
<path d="M108.367 13.0132C109.074 13.7683 109.427 14.841 109.427 16.2312V22.07H106.889V16.5235C106.889 15.7505 106.692 15.1553 106.3 14.7379C105.907 14.3205 105.366 14.1118 104.676 14.1118C103.965 14.1118 103.396 14.3354 102.97 14.7827C102.543 15.23 102.332 15.8828 102.335 16.7411V22.0743H99.7965V16.5277C99.7965 15.7548 99.6002 15.1596 99.2077 14.7422C98.8152 14.3248 98.2741 14.1161 97.5843 14.1161C96.8732 14.1161 96.3043 14.3397 95.8777 14.787C95.451 15.2343 95.2377 15.887 95.2377 16.7453V22.0786H92.6777V12.0244H95.2377V13.9283C95.4826 13.3004 95.9251 12.7691 96.4985 12.4148C97.1021 12.0508 97.7968 11.8658 98.5016 11.8814C99.2475 11.864 99.9822 12.0657 100.615 12.4617C101.229 12.863 101.704 13.4452 101.974 14.1278C102.274 13.4524 102.766 12.8796 103.388 12.4796C104.01 12.0796 104.735 11.8698 105.474 11.8761C106.696 11.8761 107.66 12.2551 108.367 13.0132Z" fill="white"/>
<path d="M67.36 38.5081C67.0114 39.0777 66.5084 39.5367 65.9093 39.8318C65.2693 40.1646 64.4896 40.3306 63.5702 40.3299C62.7371 40.3445 61.91 40.1872 61.1404 39.8681C60.4597 39.5855 59.8676 39.125 59.4263 38.5348C58.9932 37.9432 58.7385 37.2399 58.6924 36.5082H61.4124C61.4593 37.0012 61.681 37.4613 62.0374 37.8052C62.393 38.1501 62.8676 38.3222 63.4614 38.3214C63.9926 38.3214 64.4004 38.1792 64.6848 37.8948C64.8266 37.7503 64.9376 37.5785 65.0109 37.3898C65.0843 37.2011 65.1185 36.9995 65.1115 36.7972C65.1247 36.4364 65.0017 36.0838 64.767 35.8095C64.5248 35.5411 64.2281 35.3276 63.8966 35.1834C63.546 35.0269 63.0625 34.8456 62.4459 34.6394C61.7747 34.4249 61.1202 34.1615 60.4876 33.8511C59.9703 33.5831 59.5254 33.1941 59.1905 32.7173C58.835 32.2195 58.6572 31.5728 58.6572 30.7771C58.6572 29.677 59.053 28.8098 59.8444 28.1755C60.6358 27.5412 61.6847 27.2237 62.991 27.223C64.3421 27.223 65.4208 27.5494 66.2272 28.2022C67.0336 28.855 67.4901 29.7254 67.5968 30.8133H64.8406C64.7816 30.3808 64.5769 29.9812 64.2603 29.6806C63.9453 29.384 63.5161 29.2358 62.9729 29.2358C62.5014 29.2358 62.1206 29.3599 61.8305 29.608C61.5404 29.8562 61.3953 30.2157 61.3953 30.6864C61.3833 31.0292 61.5032 31.3636 61.7302 31.6208C61.9698 31.8797 62.2603 32.0864 62.5835 32.2277C63.0422 32.4286 63.5115 32.6041 63.9894 32.7536C64.6722 32.9868 65.3411 33.2593 65.9925 33.5695C66.5195 33.8345 66.9716 34.2272 67.3077 34.7119C67.6704 35.2196 67.8517 35.8845 67.8517 36.7065C67.8553 37.3407 67.6852 37.9637 67.36 38.5081Z" fill="white"/>
<path d="M78.0205 30.6491C78.7126 31.077 79.2643 31.6981 79.6077 32.4357C79.9888 33.2179 80.179 34.1334 80.1783 35.1823C80.1776 36.2312 79.9874 37.1471 79.6077 37.93C79.2646 38.6676 78.7128 39.2883 78.0205 39.7155C77.3315 40.1304 76.54 40.344 75.7358 40.3321C74.8903 40.3321 74.1681 40.1298 73.5694 39.7251C72.9811 39.3337 72.5328 38.7651 72.2894 38.1017V44.9922H69.7295V30.1574H72.2894V32.2426C72.5317 31.5812 72.9805 31.0153 73.5694 30.6288C74.1674 30.2299 74.8896 30.0304 75.7358 30.0304C76.5401 30.0196 77.3315 30.2339 78.0205 30.6491ZM73.0254 33.0522C72.5277 33.5784 72.2766 34.2895 72.2724 35.1855C72.2724 36.0687 72.5234 36.773 73.0254 37.2985C73.2706 37.5573 73.5677 37.7614 73.8974 37.8972C74.227 38.0331 74.5816 38.0977 74.9379 38.0868C75.7358 38.0868 76.3758 37.8301 76.8579 37.3167C77.34 36.8033 77.5818 36.0922 77.5832 35.1834C77.5832 34.2767 77.3414 33.5635 76.8579 33.0437C76.3743 32.5239 75.7343 32.264 74.9379 32.264C74.5817 32.2529 74.2272 32.3172 73.8977 32.4526C73.5681 32.5881 73.2708 32.7917 73.0254 33.0501V33.0522Z" fill="white"/>
<path d="M88.1065 30.6288C88.6991 31.0131 89.1509 31.5794 89.3939 32.2427V30.1574H91.9325V40.203H89.3864V38.0996C89.1423 38.7647 88.691 39.3338 88.099 39.723C87.4953 40.1269 86.77 40.3292 85.923 40.33C85.1189 40.3416 84.3274 40.1281 83.6383 39.7134C82.9464 39.2861 82.395 38.6653 82.0522 37.9279C81.671 37.1457 81.4805 36.2298 81.4805 35.1802C81.4805 34.1306 81.671 33.2151 82.0522 32.4336C82.3955 31.6962 82.9468 31.0752 83.6383 30.647C84.3276 30.2328 85.1189 30.0193 85.923 30.0304C86.7714 30.0304 87.4992 30.2299 88.1065 30.6288ZM84.7999 33.0405C84.3163 33.561 84.0745 34.2743 84.0745 35.1802C84.0745 36.0861 84.3163 36.7972 84.7999 37.3135C85.2834 37.8262 85.9234 38.0829 86.7198 38.0836C87.0763 38.0945 87.4311 38.0299 87.7609 37.8941C88.0907 37.7582 88.388 37.5542 88.6334 37.2954C89.1347 36.7699 89.3836 36.0655 89.38 35.1823C89.38 34.2885 89.1311 33.5774 88.6334 33.0491C88.388 32.7901 88.0907 32.5859 87.761 32.4498C87.4312 32.3138 87.0764 32.249 86.7198 32.2597C85.9248 32.2604 85.2848 32.5207 84.7999 33.0405Z" fill="white"/>
<path d="M102.003 31.0821C102.867 31.784 103.407 32.739 103.625 33.9471H100.923C100.835 33.4508 100.57 33.0033 100.177 32.6874C99.7891 32.3795 99.2995 32.2252 98.7079 32.2245C98.3874 32.2182 98.0695 32.2824 97.7767 32.4125C97.4838 32.5427 97.2231 32.7356 97.013 32.9776C96.56 33.4789 96.3332 34.2131 96.3324 35.1802C96.3317 36.1473 96.5586 36.8818 97.013 37.3839C97.2238 37.6246 97.4848 37.8162 97.7776 37.9452C98.0704 38.0742 98.388 38.1375 98.7079 38.1305C99.3002 38.1305 99.7898 37.9766 100.177 37.6687C100.57 37.3526 100.835 36.9047 100.923 36.4079H103.625C103.407 37.6167 102.867 38.5717 102.003 39.2729C101.139 39.974 100.06 40.3246 98.7655 40.3246C97.8561 40.3417 96.9574 40.1266 96.1543 39.6995C95.4003 39.2901 94.7826 38.6691 94.3773 37.9129C93.9506 37.14 93.7373 36.2273 93.7373 35.1749C93.7373 34.1224 93.9506 33.2069 94.3773 32.4282C94.7795 31.6698 95.398 31.048 96.1543 30.6416C96.9592 30.2203 97.8571 30.0083 98.7655 30.0251C100.059 30.0287 101.138 30.381 102.003 31.0821Z" fill="white"/>
<path d="M114.795 35.6698H107.435C107.471 36.565 107.713 37.2239 108.16 37.6462C108.383 37.8574 108.644 38.0226 108.931 38.1324C109.217 38.2422 109.522 38.2945 109.829 38.2862C110.421 38.2862 110.914 38.1412 111.307 37.851C111.693 37.5665 111.959 37.1481 112.054 36.6777H114.755C114.628 37.3662 114.335 38.0134 113.902 38.5636C113.457 39.128 112.882 39.5761 112.225 39.8691C111.449 40.2043 110.609 40.3643 109.764 40.3377C108.92 40.3112 108.091 40.0987 107.338 39.7155C106.584 39.3061 105.966 38.6851 105.561 37.9289C105.134 37.1559 104.921 36.2433 104.921 35.1908C104.921 34.1384 105.134 33.2229 105.561 32.4442C105.963 31.6858 106.582 31.0639 107.338 30.6576C108.143 30.2363 109.041 30.0243 109.949 30.0411C110.94 30.0411 111.807 30.2466 112.552 30.6576C113.275 31.0488 113.872 31.6368 114.274 32.3536C114.687 33.1046 114.896 33.9502 114.881 34.8068C114.878 35.0965 114.85 35.3853 114.795 35.6698V35.6698ZM111.667 32.6832C111.2 32.2573 110.586 32.0281 109.953 32.0432C109.313 32.027 108.69 32.2559 108.213 32.6832C107.741 33.1098 107.481 33.7324 107.433 34.5508H112.311C112.347 33.7274 112.132 33.1023 111.667 32.6757V32.6832Z" fill="white"/>
</svg>
