<svg width="49" height="49" viewBox="0 0 49 49" fill="none" xmlns="http://www.w3.org/2000/svg">
<path d="M24.3891 0.0993652H24.8755C27.9952 0.0993652 31.0844 0.713839 33.9666 1.9077C36.8488 3.10157 39.4677 4.85144 41.6737 7.05741C43.8797 9.26339 45.6295 11.8823 46.8234 14.7645C48.0173 17.6467 48.6317 20.7359 48.6317 23.8556V24.342C48.6317 30.6426 46.1289 36.6851 41.6737 41.1402C37.2185 45.5954 31.176 48.0983 24.8755 48.0983H0.632812V23.8556C0.632813 17.5551 3.1357 11.5126 7.59086 7.05741C12.046 2.60225 18.0885 0.0993652 24.3891 0.0993652V0.0993652Z" fill="white"/>
<path d="M32.5611 15.698C31.9374 15.0678 31.0893 14.7107 30.2027 14.705C29.7582 14.7008 29.3175 14.7867 28.9071 14.9574C28.4967 15.128 28.125 15.38 27.8145 15.698C27.345 16.1674 27.0252 16.7655 26.8956 17.4167C26.766 18.0679 26.8325 18.7428 27.0865 19.3562C27.3405 19.9697 27.7708 20.4939 28.3228 20.8628C28.8748 21.2317 29.5238 21.4286 30.1878 21.4286C30.8517 21.4286 31.5007 21.2317 32.0528 20.8628C32.6048 20.4939 33.035 19.9697 33.2891 19.3562C33.5431 18.7428 33.6095 18.0679 33.48 17.4167C33.3504 16.7655 33.0306 16.1674 32.5611 15.698ZM31.7259 19.6094C31.4211 19.9171 31.0317 20.1273 30.6072 20.2133C30.1826 20.2993 29.7421 20.2573 29.3416 20.0925C28.941 19.9276 28.5985 19.6475 28.3574 19.2877C28.1163 18.9278 27.9876 18.5044 27.9876 18.0713C27.9876 17.6382 28.1163 17.2148 28.3574 16.8549C28.5985 16.4951 28.941 16.215 29.3416 16.0501C29.7421 15.8853 30.1826 15.8433 30.6072 15.9293C31.0317 16.0153 31.4211 16.2255 31.7259 16.5332C32.1326 16.9418 32.3609 17.4948 32.3609 18.0713C32.3609 18.6478 32.1326 19.2008 31.7259 19.6094V19.6094ZM32.5611 15.698C31.9374 15.0678 31.0893 14.7107 30.2027 14.705C29.7582 14.7008 29.3175 14.7867 28.9071 14.9574C28.4967 15.128 28.125 15.38 27.8145 15.698C27.345 16.1674 27.0252 16.7655 26.8956 17.4167C26.766 18.0679 26.8325 18.7428 27.0865 19.3562C27.3405 19.9697 27.7708 20.4939 28.3228 20.8628C28.8748 21.2317 29.5238 21.4286 30.1878 21.4286C30.8517 21.4286 31.5007 21.2317 32.0528 20.8628C32.6048 20.4939 33.035 19.9697 33.2891 19.3562C33.5431 18.7428 33.6095 18.0679 33.48 17.4167C33.3504 16.7655 33.0306 16.1674 32.5611 15.698ZM31.7259 19.6094C31.4211 19.9171 31.0317 20.1273 30.6072 20.2133C30.1826 20.2993 29.7421 20.2573 29.3416 20.0925C28.941 19.9276 28.5985 19.6475 28.3574 19.2877C28.1163 18.9278 27.9876 18.5044 27.9876 18.0713C27.9876 17.6382 28.1163 17.2148 28.3574 16.8549C28.5985 16.4951 28.941 16.215 29.3416 16.0501C29.7421 15.8853 30.1826 15.8433 30.6072 15.9293C31.0317 16.0153 31.4211 16.2255 31.7259 16.5332C32.1326 16.9418 32.3609 17.4948 32.3609 18.0713C32.3609 18.6478 32.1326 19.2008 31.7259 19.6094V19.6094ZM32.5611 15.698C31.9374 15.0678 31.0893 14.7107 30.2027 14.705C29.7582 14.7008 29.3175 14.7867 28.9071 14.9574C28.4967 15.128 28.125 15.38 27.8145 15.698C27.345 16.1674 27.0252 16.7655 26.8956 17.4167C26.766 18.0679 26.8325 18.7428 27.0865 19.3562C27.3405 19.9697 27.7708 20.4939 28.3228 20.8628C28.8748 21.2317 29.5238 21.4286 30.1878 21.4286C30.8517 21.4286 31.5007 21.2317 32.0528 20.8628C32.6048 20.4939 33.035 19.9697 33.2891 19.3562C33.5431 18.7428 33.6095 18.0679 33.48 17.4167C33.3504 16.7655 33.0306 16.1674 32.5611 15.698ZM31.7259 19.6094C31.4211 19.9171 31.0317 20.1273 30.6072 20.2133C30.1826 20.2993 29.7421 20.2573 29.3416 20.0925C28.941 19.9276 28.5985 19.6475 28.3574 19.2877C28.1163 18.9278 27.9876 18.5044 27.9876 18.0713C27.9876 17.6382 28.1163 17.2148 28.3574 16.8549C28.5985 16.4951 28.941 16.215 29.3416 16.0501C29.7421 15.8853 30.1826 15.8433 30.6072 15.9293C31.0317 16.0153 31.4211 16.2255 31.7259 16.5332C32.1326 16.9418 32.3609 17.4948 32.3609 18.0713C32.3609 18.6478 32.1326 19.2008 31.7259 19.6094V19.6094ZM32.5611 15.698C31.9374 15.0678 31.0893 14.7107 30.2027 14.705C29.7582 14.7008 29.3175 14.7867 28.9071 14.9574C28.4967 15.128 28.125 15.38 27.8145 15.698C27.345 16.1674 27.0252 16.7655 26.8956 17.4167C26.766 18.0679 26.8325 18.7428 27.0865 19.3562C27.3405 19.9697 27.7708 20.4939 28.3228 20.8628C28.8748 21.2317 29.5238 21.4286 30.1878 21.4286C30.8517 21.4286 31.5007 21.2317 32.0528 20.8628C32.6048 20.4939 33.035 19.9697 33.2891 19.3562C33.5431 18.7428 33.6095 18.0679 33.48 17.4167C33.3504 16.7655 33.0306 16.1674 32.5611 15.698ZM31.7259 19.6094C31.4211 19.9171 31.0317 20.1273 30.6072 20.2133C30.1826 20.2993 29.7421 20.2573 29.3416 20.0925C28.941 19.9276 28.5985 19.6475 28.3574 19.2877C28.1163 18.9278 27.9876 18.5044 27.9876 18.0713C27.9876 17.6382 28.1163 17.2148 28.3574 16.8549C28.5985 16.4951 28.941 16.215 29.3416 16.0501C29.7421 15.8853 30.1826 15.8433 30.6072 15.9293C31.0317 16.0153 31.4211 16.2255 31.7259 16.5332C32.1326 16.9418 32.3609 17.4948 32.3609 18.0713C32.3609 18.6478 32.1326 19.2008 31.7259 19.6094V19.6094ZM32.5611 15.698C31.9374 15.0678 31.0893 14.7107 30.2027 14.705C29.7582 14.7008 29.3175 14.7867 28.9071 14.9574C28.4967 15.128 28.125 15.38 27.8145 15.698C27.345 16.1674 27.0252 16.7655 26.8956 17.4167C26.766 18.0679 26.8325 18.7428 27.0865 19.3562C27.3405 19.9697 27.7708 20.4939 28.3228 20.8628C28.8748 21.2317 29.5238 21.4286 30.1878 21.4286C30.8517 21.4286 31.5007 21.2317 32.0528 20.8628C32.6048 20.4939 33.035 19.9697 33.2891 19.3562C33.5431 18.7428 33.6095 18.0679 33.48 17.4167C33.3504 16.7655 33.0306 16.1674 32.5611 15.698ZM31.7259 19.6094C31.4211 19.9171 31.0317 20.1273 30.6072 20.2133C30.1826 20.2993 29.7421 20.2573 29.3416 20.0925C28.941 19.9276 28.5985 19.6475 28.3574 19.2877C28.1163 18.9278 27.9876 18.5044 27.9876 18.0713C27.9876 17.6382 28.1163 17.2148 28.3574 16.8549C28.5985 16.4951 28.941 16.215 29.3416 16.0501C29.7421 15.8853 30.1826 15.8433 30.6072 15.9293C31.0317 16.0153 31.4211 16.2255 31.7259 16.5332C32.1326 16.9418 32.3609 17.4948 32.3609 18.0713C32.3609 18.6478 32.1326 19.2008 31.7259 19.6094V19.6094ZM32.5611 15.698C31.9374 15.0678 31.0893 14.7107 30.2027 14.705C29.7582 14.7008 29.3175 14.7867 28.9071 14.9574C28.4967 15.128 28.125 15.38 27.8145 15.698C27.345 16.1674 27.0252 16.7655 26.8956 17.4167C26.766 18.0679 26.8325 18.7428 27.0865 19.3562C27.3405 19.9697 27.7708 20.4939 28.3228 20.8628C28.8748 21.2317 29.5238 21.4286 30.1878 21.4286C30.8517 21.4286 31.5007 21.2317 32.0528 20.8628C32.6048 20.4939 33.035 19.9697 33.2891 19.3562C33.5431 18.7428 33.6095 18.0679 33.48 17.4167C33.3504 16.7655 33.0306 16.1674 32.5611 15.698ZM31.7259 19.6094C31.4211 19.9171 31.0317 20.1273 30.6072 20.2133C30.1826 20.2993 29.7421 20.2573 29.3416 20.0925C28.941 19.9276 28.5985 19.6475 28.3574 19.2877C28.1163 18.9278 27.9876 18.5044 27.9876 18.0713C27.9876 17.6382 28.1163 17.2148 28.3574 16.8549C28.5985 16.4951 28.941 16.215 29.3416 16.0501C29.7421 15.8853 30.1826 15.8433 30.6072 15.9293C31.0317 16.0153 31.4211 16.2255 31.7259 16.5332C32.1326 16.9418 32.3609 17.4948 32.3609 18.0713C32.3609 18.6478 32.1326 19.2008 31.7259 19.6094V19.6094ZM32.5611 15.698C31.9374 15.0678 31.0893 14.7107 30.2027 14.705C29.7582 14.7008 29.3175 14.7867 28.9071 14.9574C28.4967 15.128 28.125 15.38 27.8145 15.698C27.345 16.1674 27.0252 16.7655 26.8956 17.4167C26.766 18.0679 26.8325 18.7428 27.0865 19.3562C27.3405 19.9697 27.7708 20.4939 28.3228 20.8628C28.8748 21.2317 29.5238 21.4286 30.1878 21.4286C30.8517 21.4286 31.5007 21.2317 32.0528 20.8628C32.6048 20.4939 33.035 19.9697 33.2891 19.3562C33.5431 18.7428 33.6095 18.0679 33.48 17.4167C33.3504 16.7655 33.0306 16.1674 32.5611 15.698ZM31.7259 19.6094C31.4211 19.9171 31.0317 20.1273 30.6072 20.2133C30.1826 20.2993 29.7421 20.2573 29.3416 20.0925C28.941 19.9276 28.5985 19.6475 28.3574 19.2877C28.1163 18.9278 27.9876 18.5044 27.9876 18.0713C27.9876 17.6382 28.1163 17.2148 28.3574 16.8549C28.5985 16.4951 28.941 16.215 29.3416 16.0501C29.7421 15.8853 30.1826 15.8433 30.6072 15.9293C31.0317 16.0153 31.4211 16.2255 31.7259 16.5332C32.1326 16.9418 32.3609 17.4948 32.3609 18.0713C32.3609 18.6478 32.1326 19.2008 31.7259 19.6094V19.6094ZM32.5611 15.698C31.9374 15.0678 31.0893 14.7107 30.2027 14.705C29.7582 14.7008 29.3175 14.7867 28.9071 14.9574C28.4967 15.128 28.125 15.38 27.8145 15.698C27.345 16.1674 27.0252 16.7655 26.8956 17.4167C26.766 18.0679 26.8325 18.7428 27.0865 19.3562C27.3405 19.9697 27.7708 20.4939 28.3228 20.8628C28.8748 21.2317 29.5238 21.4286 30.1878 21.4286C30.8517 21.4286 31.5007 21.2317 32.0528 20.8628C32.6048 20.4939 33.035 19.9697 33.2891 19.3562C33.5431 18.7428 33.6095 18.0679 33.48 17.4167C33.3504 16.7655 33.0306 16.1674 32.5611 15.698ZM31.7259 19.6094C31.4211 19.9171 31.0317 20.1273 30.6072 20.2133C30.1826 20.2993 29.7421 20.2573 29.3416 20.0925C28.941 19.9276 28.5985 19.6475 28.3574 19.2877C28.1163 18.9278 27.9876 18.5044 27.9876 18.0713C27.9876 17.6382 28.1163 17.2148 28.3574 16.8549C28.5985 16.4951 28.941 16.215 29.3416 16.0501C29.7421 15.8853 30.1826 15.8433 30.6072 15.9293C31.0317 16.0153 31.4211 16.2255 31.7259 16.5332C32.1326 16.9418 32.3609 17.4948 32.3609 18.0713C32.3609 18.6478 32.1326 19.2008 31.7259 19.6094V19.6094ZM32.5611 15.698C31.9374 15.0678 31.0893 14.7107 30.2027 14.705C29.7582 14.7008 29.3175 14.7867 28.9071 14.9574C28.4967 15.128 28.125 15.38 27.8145 15.698C27.345 16.1674 27.0252 16.7655 26.8956 17.4167C26.766 18.0679 26.8325 18.7428 27.0865 19.3562C27.3405 19.9697 27.7708 20.4939 28.3228 20.8628C28.8748 21.2317 29.5238 21.4286 30.1878 21.4286C30.8517 21.4286 31.5007 21.2317 32.0528 20.8628C32.6048 20.4939 33.035 19.9697 33.2891 19.3562C33.5431 18.7428 33.6095 18.0679 33.48 17.4167C33.3504 16.7655 33.0306 16.1674 32.5611 15.698ZM31.7259 19.6094C31.4211 19.9171 31.0317 20.1273 30.6072 20.2133C30.1826 20.2993 29.7421 20.2573 29.3416 20.0925C28.941 19.9276 28.5985 19.6475 28.3574 19.2877C28.1163 18.9278 27.9876 18.5044 27.9876 18.0713C27.9876 17.6382 28.1163 17.2148 28.3574 16.8549C28.5985 16.4951 28.941 16.215 29.3416 16.0501C29.7421 15.8853 30.1826 15.8433 30.6072 15.9293C31.0317 16.0153 31.4211 16.2255 31.7259 16.5332C32.1326 16.9418 32.3609 17.4948 32.3609 18.0713C32.3609 18.6478 32.1326 19.2008 31.7259 19.6094V19.6094ZM32.5611 15.698C31.9374 15.0678 31.0893 14.7107 30.2027 14.705C29.7582 14.7008 29.3175 14.7867 28.9071 14.9574C28.4967 15.128 28.125 15.38 27.8145 15.698C27.345 16.1674 27.0252 16.7655 26.8956 17.4167C26.766 18.0679 26.8325 18.7428 27.0865 19.3562C27.3405 19.9697 27.7708 20.4939 28.3228 20.8628C28.8748 21.2317 29.5238 21.4286 30.1878 21.4286C30.8517 21.4286 31.5007 21.2317 32.0528 20.8628C32.6048 20.4939 33.035 19.9697 33.2891 19.3562C33.5431 18.7428 33.6095 18.0679 33.48 17.4167C33.3504 16.7655 33.0306 16.1674 32.5611 15.698ZM31.7259 19.6094C31.4211 19.9171 31.0317 20.1273 30.6072 20.2133C30.1826 20.2993 29.7421 20.2573 29.3416 20.0925C28.941 19.9276 28.5985 19.6475 28.3574 19.2877C28.1163 18.9278 27.9876 18.5044 27.9876 18.0713C27.9876 17.6382 28.1163 17.2148 28.3574 16.8549C28.5985 16.4951 28.941 16.215 29.3416 16.0501C29.7421 15.8853 30.1826 15.8433 30.6072 15.9293C31.0317 16.0153 31.4211 16.2255 31.7259 16.5332C32.1326 16.9418 32.3609 17.4948 32.3609 18.0713C32.3609 18.6478 32.1326 19.2008 31.7259 19.6094V19.6094ZM32.5611 15.698C31.9374 15.0678 31.0893 14.7107 30.2027 14.705C29.7582 14.7008 29.3175 14.7867 28.9071 14.9574C28.4967 15.128 28.125 15.38 27.8145 15.698C27.345 16.1674 27.0252 16.7655 26.8956 17.4167C26.766 18.0679 26.8325 18.7428 27.0865 19.3562C27.3405 19.9697 27.7708 20.4939 28.3228 20.8628C28.8748 21.2317 29.5238 21.4286 30.1878 21.4286C30.8517 21.4286 31.5007 21.2317 32.0528 20.8628C32.6048 20.4939 33.035 19.9697 33.2891 19.3562C33.5431 18.7428 33.6095 18.0679 33.48 17.4167C33.3504 16.7655 33.0306 16.1674 32.5611 15.698ZM31.7259 19.6094C31.4211 19.9171 31.0317 20.1273 30.6072 20.2133C30.1826 20.2993 29.7421 20.2573 29.3416 20.0925C28.941 19.9276 28.5985 19.6475 28.3574 19.2877C28.1163 18.9278 27.9876 18.5044 27.9876 18.0713C27.9876 17.6382 28.1163 17.2148 28.3574 16.8549C28.5985 16.4951 28.941 16.215 29.3416 16.0501C29.7421 15.8853 30.1826 15.8433 30.6072 15.9293C31.0317 16.0153 31.4211 16.2255 31.7259 16.5332C32.1326 16.9418 32.3609 17.4948 32.3609 18.0713C32.3609 18.6478 32.1326 19.2008 31.7259 19.6094V19.6094ZM32.5611 15.698C31.9374 15.0678 31.0893 14.7107 30.2027 14.705C29.7582 14.7008 29.3175 14.7867 28.9071 14.9574C28.4967 15.128 28.125 15.38 27.8145 15.698C27.345 16.1674 27.0252 16.7655 26.8956 17.4167C26.766 18.0679 26.8325 18.7428 27.0865 19.3562C27.3405 19.9697 27.7708 20.4939 28.3228 20.8628C28.8748 21.2317 29.5238 21.4286 30.1878 21.4286C30.8517 21.4286 31.5007 21.2317 32.0528 20.8628C32.6048 20.4939 33.035 19.9697 33.2891 19.3562C33.5431 18.7428 33.6095 18.0679 33.48 17.4167C33.3504 16.7655 33.0306 16.1674 32.5611 15.698ZM31.7259 19.6094C31.4211 19.9171 31.0317 20.1273 30.6072 20.2133C30.1826 20.2993 29.7421 20.2573 29.3416 20.0925C28.941 19.9276 28.5985 19.6475 28.3574 19.2877C28.1163 18.9278 27.9876 18.5044 27.9876 18.0713C27.9876 17.6382 28.1163 17.2148 28.3574 16.8549C28.5985 16.4951 28.941 16.215 29.3416 16.0501C29.7421 15.8853 30.1826 15.8433 30.6072 15.9293C31.0317 16.0153 31.4211 16.2255 31.7259 16.5332C32.1326 16.9418 32.3609 17.4948 32.3609 18.0713C32.3609 18.6478 32.1326 19.2008 31.7259 19.6094V19.6094ZM32.5611 15.698C31.9374 15.0678 31.0893 14.7107 30.2027 14.705C29.7582 14.7008 29.3175 14.7867 28.9071 14.9574C28.4967 15.128 28.125 15.38 27.8145 15.698C27.345 16.1674 27.0252 16.7655 26.8956 17.4167C26.766 18.0679 26.8325 18.7428 27.0865 19.3562C27.3405 19.9697 27.7708 20.4939 28.3228 20.8628C28.8748 21.2317 29.5238 21.4286 30.1878 21.4286C30.8517 21.4286 31.5007 21.2317 32.0528 20.8628C32.6048 20.4939 33.035 19.9697 33.2891 19.3562C33.5431 18.7428 33.6095 18.0679 33.48 17.4167C33.3504 16.7655 33.0306 16.1674 32.5611 15.698ZM31.7259 19.6094C31.4211 19.9171 31.0317 20.1273 30.6072 20.2133C30.1826 20.2993 29.7421 20.2573 29.3416 20.0925C28.941 19.9276 28.5985 19.6475 28.3574 19.2877C28.1163 18.9278 27.9876 18.5044 27.9876 18.0713C27.9876 17.6382 28.1163 17.2148 28.3574 16.8549C28.5985 16.4951 28.941 16.215 29.3416 16.0501C29.7421 15.8853 30.1826 15.8433 30.6072 15.9293C31.0317 16.0153 31.4211 16.2255 31.7259 16.5332C32.1326 16.9418 32.3609 17.4948 32.3609 18.0713C32.3609 18.6478 32.1326 19.2008 31.7259 19.6094V19.6094ZM32.5611 15.698C31.9374 15.0678 31.0893 14.7107 30.2027 14.705C29.7582 14.7008 29.3175 14.7867 28.9071 14.9574C28.4967 15.128 28.125 15.38 27.8145 15.698C27.345 16.1674 27.0252 16.7655 26.8956 17.4167C26.766 18.0679 26.8325 18.7428 27.0865 19.3562C27.3405 19.9697 27.7708 20.4939 28.3228 20.8628C28.8748 21.2317 29.5238 21.4286 30.1878 21.4286C30.8517 21.4286 31.5007 21.2317 32.0528 20.8628C32.6048 20.4939 33.035 19.9697 33.2891 19.3562C33.5431 18.7428 33.6095 18.0679 33.48 17.4167C33.3504 16.7655 33.0306 16.1674 32.5611 15.698ZM31.7259 19.6094C31.4211 19.9171 31.0317 20.1273 30.6072 20.2133C30.1826 20.2993 29.7421 20.2573 29.3416 20.0925C28.941 19.9276 28.5985 19.6475 28.3574 19.2877C28.1163 18.9278 27.9876 18.5044 27.9876 18.0713C27.9876 17.6382 28.1163 17.2148 28.3574 16.8549C28.5985 16.4951 28.941 16.215 29.3416 16.0501C29.7421 15.8853 30.1826 15.8433 30.6072 15.9293C31.0317 16.0153 31.4211 16.2255 31.7259 16.5332C32.1326 16.9418 32.3609 17.4948 32.3609 18.0713C32.3609 18.6478 32.1326 19.2008 31.7259 19.6094V19.6094ZM32.5611 15.698C31.9374 15.0678 31.0893 14.7107 30.2027 14.705C29.7582 14.7008 29.3175 14.7867 28.9071 14.9574C28.4967 15.128 28.125 15.38 27.8145 15.698C27.345 16.1674 27.0252 16.7655 26.8956 17.4167C26.766 18.0679 26.8325 18.7428 27.0865 19.3562C27.3405 19.9697 27.7708 20.4939 28.3228 20.8628C28.8748 21.2317 29.5238 21.4286 30.1878 21.4286C30.8517 21.4286 31.5007 21.2317 32.0528 20.8628C32.6048 20.4939 33.035 19.9697 33.2891 19.3562C33.5431 18.7428 33.6095 18.0679 33.48 17.4167C33.3504 16.7655 33.0306 16.1674 32.5611 15.698ZM31.7259 19.6094C31.4211 19.9171 31.0317 20.1273 30.6072 20.2133C30.1826 20.2993 29.7421 20.2573 29.3416 20.0925C28.941 19.9276 28.5985 19.6475 28.3574 19.2877C28.1163 18.9278 27.9876 18.5044 27.9876 18.0713C27.9876 17.6382 28.1163 17.2148 28.3574 16.8549C28.5985 16.4951 28.941 16.215 29.3416 16.0501C29.7421 15.8853 30.1826 15.8433 30.6072 15.9293C31.0317 16.0153 31.4211 16.2255 31.7259 16.5332C32.1326 16.9418 32.3609 17.4948 32.3609 18.0713C32.3609 18.6478 32.1326 19.2008 31.7259 19.6094V19.6094Z" fill="#231F20"/>
<path d="M38.3038 10.0906C38.1635 9.94922 37.992 9.84286 37.803 9.78005C37.614 9.71723 37.4129 9.69974 37.2159 9.72897L35.7439 9.99349C31.5914 10.7895 27.6492 12.438 24.1661 14.8348C20.683 17.2316 17.7347 20.3246 15.5075 23.9185C15.4873 23.9504 15.4692 23.9835 15.4531 24.0177C15.4201 24.0756 15.3922 24.1362 15.3699 24.199C15.275 24.4849 15.291 24.8582 15.4126 25.2977C15.6345 26.1222 16.2137 27.1739 17.067 28.2683C16.8355 27.9126 16.6559 27.5258 16.5337 27.1195C16.4597 26.901 16.4508 26.6657 16.5081 26.4422C16.5218 26.4032 16.5385 26.3654 16.5582 26.3291C16.5622 26.3214 16.5677 26.3146 16.5742 26.3089C16.59 26.2834 16.609 26.2601 16.6307 26.2395C16.8152 26.0561 17.1352 26.0337 17.5395 26.1489C18.3 26.3622 19.3592 27.0566 20.3586 28.0582C21.3581 29.0597 22.0471 30.1082 22.2626 30.8688C22.3821 31.2773 22.3597 31.6005 22.1783 31.785L22.1645 31.7967C22.1472 31.8131 22.1286 31.8281 22.109 31.8415C22.0382 31.8883 21.9582 31.9192 21.8743 31.9322C21.6684 31.9587 21.4592 31.9387 21.2621 31.8735C20.866 31.7465 20.4886 31.5671 20.14 31.3402C21.2152 32.1797 22.2466 32.7556 23.0679 32.9882C23.3872 33.0926 23.7256 33.125 24.0588 33.0831C24.1931 33.0492 24.321 32.9937 24.4375 32.9189L24.5281 32.8645C28.0864 30.6898 31.1518 27.7967 33.5284 24.3701C35.905 20.9435 37.5405 17.0587 38.3305 12.9641L38.658 11.2031V11.1807C38.6877 10.9839 38.6712 10.783 38.6097 10.5938C38.5483 10.4045 38.4435 10.2322 38.3038 10.0906V10.0906ZM37.1753 12.7433C35.7087 20.373 30.7051 27.4342 24.2081 31.6954C23.8583 30.4656 22.5858 28.6235 20.9741 27.0118C19.3624 25.4001 17.9875 24.5585 16.7544 24.2129C21.1 17.6744 28.239 12.6281 35.97 11.1561L37.3897 10.8969C37.4043 10.8964 37.4188 10.8989 37.4324 10.9042C37.446 10.9095 37.4583 10.9176 37.4687 10.9279C37.4781 10.9382 37.4854 10.9503 37.4902 10.9635C37.4949 10.9767 37.497 10.9907 37.4964 11.0047L37.1753 12.7433Z" fill="#231F20"/>
<path d="M33.4368 27.8491C33.4149 27.6818 33.3425 27.5252 33.2293 27.4002C33.1161 27.2752 32.9674 27.1876 32.8032 27.1493C32.6459 27.1147 32.4818 27.1271 32.3316 27.1852C32.1813 27.2432 32.0515 27.3443 31.9584 27.4757C30.6566 29.0164 29.2048 30.4238 27.6246 31.6772L27.6108 31.69C27.4373 31.7641 27.2986 31.9016 27.2231 32.0745C27.1475 32.2473 27.1408 32.4425 27.2044 32.6202L28.7393 36.4419C28.8008 36.6408 28.9171 36.8182 29.0748 36.9541C29.2325 37.0899 29.4252 37.1786 29.631 37.2099C29.6905 37.2202 29.7508 37.2252 29.8113 37.2249C29.9997 37.2248 30.1851 37.1781 30.351 37.0887C30.5169 36.9993 30.658 36.8702 30.7616 36.7129L31.6427 35.4393C33.1751 33.2254 33.8158 30.5148 33.4368 27.8491V27.8491ZM30.6699 34.7673L29.8294 35.9833L28.4427 32.5348C29.8457 31.4126 31.1517 30.1741 32.3467 28.8325C32.4608 30.9419 31.871 33.0295 30.6699 34.7673V34.7673Z" fill="#231F20"/>
<path d="M21.2468 15.6915C21.2079 15.5275 21.1198 15.3792 20.9944 15.2666C20.869 15.1539 20.7122 15.0823 20.5449 15.0612C17.8789 14.6825 15.1681 15.3232 12.9536 16.8553L11.7216 17.7086C11.5311 17.7997 11.3719 17.9454 11.2642 18.1271C11.1565 18.3088 11.1052 18.5184 11.1168 18.7293C11.133 18.9485 11.2153 19.1576 11.3528 19.329C11.4903 19.5004 11.6765 19.626 11.887 19.6893L15.6767 21.2114L15.7098 21.2232C15.7822 21.2465 15.8578 21.2583 15.9338 21.2584C16.1443 21.2493 16.3475 21.1789 16.5183 21.0557L16.5663 21.0237L16.673 20.917L16.7253 20.8584C17.8644 19.3651 19.2351 17.9464 20.9172 16.5353C21.0484 16.4421 21.1494 16.3125 21.208 16.1626C21.2666 16.0127 21.28 15.849 21.2468 15.6915V15.6915ZM15.8794 20.0221L12.448 18.6429L13.6213 17.828C15.3578 16.6264 17.4443 16.0359 19.5529 16.1491C18.2047 17.3169 16.9743 18.6141 15.8794 20.0221V20.0221Z" fill="#231F20"/>
<path fill-rule="evenodd" clip-rule="evenodd" d="M8.32002 42.8057C8.31042 42.8387 8.30189 42.8718 8.29335 42.9059C8.23425 43.1397 8.20204 43.3795 8.19735 43.6206C8.19565 44.1259 8.2493 44.6299 8.35735 45.1235C8.39148 45.2963 8.48855 45.5096 8.48961 45.6856C8.48961 45.6856 8.46615 43.5832 12.0287 42.0707C17.7171 39.6537 19.6072 35.8842 19.0782 33.1419C18.8723 33.5792 18.5001 33.944 18.1609 34.3984C17.8353 34.837 17.4505 35.2282 17.0174 35.561C16.6461 35.846 16.2417 36.0852 15.8132 36.2735C15.4613 36.4295 15.0942 36.5485 14.7177 36.6287C14.3572 36.7045 13.9487 36.7834 13.5871 36.6757C13.5759 36.6739 13.5653 36.6698 13.5559 36.6635C13.5465 36.6573 13.5386 36.649 13.5327 36.6394C13.5279 36.6245 13.5279 36.6084 13.5327 36.5935C13.5609 36.4375 13.6165 36.2876 13.697 36.1509C13.7382 36.08 13.7857 36.0129 13.8388 35.9503C13.8911 35.8906 13.9572 35.8437 14.0084 35.784C13.9647 35.7957 13.9188 35.7925 13.8751 35.801C13.8111 35.8138 13.7471 35.8287 13.6842 35.8447C13.4943 35.8927 13.3076 35.9526 13.1252 36.024C12.6625 36.2004 12.2325 36.4527 11.8527 36.7706C11.2331 37.3001 10.6557 37.8771 10.1258 38.4964C10.1258 38.4964 11.0464 33.4651 13.3695 31.3147C14.0471 30.6653 14.826 30.1307 15.6756 29.7318C11.7781 29.1174 7.5691 35.273 5.81554 40.0089C3.54039 46.156 0.633789 48.0994 0.633789 48.0994C1.25564 47.8072 1.81776 47.3613 2.36282 46.9485C3.12013 46.3746 3.85612 45.7752 4.5857 45.1619C5.22 44.6286 5.84683 44.0871 6.46619 43.5374C6.65179 43.372 6.83738 43.2057 7.01765 43.035C7.33225 42.7236 7.7144 42.4889 8.13442 42.3491C8.267 42.3062 8.40245 42.2727 8.53975 42.2489C8.50028 42.2563 8.42242 42.5091 8.40642 42.5497C8.37335 42.6318 8.34455 42.7171 8.32002 42.8057Z" fill="#231F20"/>
</svg>
