<svg
  width="100%"
  height="100%"
  viewBox="0 0 65 73"
  fill="none"
  xmlns="http://www.w3.org/2000/svg"
>
  <path
    d="M58.516 35.8001L30.7475 42.1449L32.1045 37.7151C32.2748 37.1594 31.9734 36.5674 31.4314 36.3929L23.6378 33.883C23.3776 33.7993 23.0957 33.8249 22.8536 33.9542C22.6117 34.0837 22.4299 34.3063 22.3482 34.5731L19.137 45.056C18.7608 44.7049 18.3118 44.4386 17.812 44.2777C15.9452 43.6764 13.9492 44.7445 13.363 46.6588C13.0681 47.6214 13.1853 48.6172 13.6117 49.446C13.6066 49.4487 13.6013 49.4511 13.5963 49.4539C12.756 49.9036 12.1367 50.6619 11.8526 51.5892C11.5685 52.5164 11.6536 53.5016 12.0922 54.3632C12.5309 55.2248 13.2705 55.8597 14.1749 56.151C14.6749 56.3119 15.1918 56.3556 15.6963 56.288L12.4845 66.772C12.4028 67.0388 12.4277 67.328 12.554 67.576C12.6803 67.824 12.8973 68.0104 13.1576 68.0942L20.9512 70.6041C21.1297 70.6615 21.3119 70.6666 21.4823 70.6276C21.8293 70.5484 22.1266 70.2867 22.2408 69.914L28.9336 48.0664L33.0288 66.9085C33.1524 67.4771 33.7021 67.8352 34.2566 67.7085L63.9753 60.9182C64.5298 60.7915 64.8791 60.2279 64.7555 59.6593L59.7438 36.6001C59.6202 36.0316 59.0705 35.6734 58.516 35.8001ZM24.0026 36.2114L29.8336 38.0892L26.258 49.7613L20.4271 47.8835L24.0026 36.2114ZM24.7784 54.5911L18.9475 52.7133L19.8106 49.8959L25.6415 51.7737L24.7784 54.5911ZM15.3255 47.2908C15.4909 46.7508 15.9231 46.3712 16.4266 46.2561C16.6735 46.1997 16.9374 46.2069 17.1955 46.2899C17.9802 46.5427 18.4179 47.4026 18.1716 48.2072L17.7246 49.6664L16.3017 49.2081C15.5169 48.9554 15.0791 48.0953 15.3255 47.2908ZM16.6611 53.1377C16.4147 53.9422 15.5759 54.3912 14.7911 54.1386C14.0064 53.8858 13.5686 53.0258 13.8151 52.2212C13.9345 51.8315 14.1947 51.5128 14.5479 51.3237C14.6659 51.2607 14.7895 51.2145 14.9159 51.1856C15.1681 51.128 15.4318 51.139 15.6851 51.2205L17.108 51.6788L16.6611 53.1377ZM20.5864 68.2757L14.7554 66.3979L18.331 54.7258L24.162 56.6036L20.5864 68.2757ZM30.2488 44.42L40.6905 42.0341L45.2548 63.0345L34.8131 65.4203L30.2488 44.42ZM62.5238 59.0887L52.0821 61.4745L50.8682 55.8897C50.7447 55.3211 50.195 54.9629 49.6405 55.0896C49.086 55.2163 48.7367 55.7799 48.8602 56.3485L50.0741 61.9333L47.2628 62.5757L42.6985 41.5753L45.5098 40.933L46.8466 47.0836C46.9701 47.6522 47.5198 48.0103 48.0743 47.8836C48.6288 47.7569 48.9782 47.1934 48.8546 46.6248L47.5178 40.4742L57.9595 38.0884L62.5238 59.0887Z"
    fill="#6A7889"
  />
  <path
    d="M42.9399 35.8948C43.4944 35.7681 43.8438 35.2046 43.7202 34.636L41.3012 23.5062C41.1776 22.9376 40.6279 22.5794 40.0734 22.7061C39.5189 22.8328 39.1696 23.3964 39.2932 23.965L41.7122 35.0948C41.8357 35.6634 42.3854 36.0215 42.9399 35.8948Z"
    fill="#6A7889"
  />
  <path
    d="M49.0334 34.5032C49.5879 34.3765 49.9372 33.8129 49.8137 33.2444C48.9596 29.315 49.6491 25.2799 51.7551 21.8824C52.0598 21.3908 51.9181 20.739 51.4387 20.4265C50.9592 20.1141 50.3235 20.2593 50.0188 20.7509C47.6181 24.6241 46.8321 29.2239 47.8056 33.7032C47.9292 34.2717 48.4789 34.6299 49.0334 34.5032Z"
    fill="#6A7889"
  />
  <path
    d="M35.6183 36.4874C35.7418 37.0559 36.2915 37.4141 36.846 37.2874C37.4005 37.1607 37.7499 36.5971 37.6263 36.0285C36.6527 31.5493 34.0362 27.7268 30.2587 25.2653C29.7793 24.9529 29.1435 25.0982 28.8389 25.5899C28.5342 26.0814 28.6758 26.7333 29.1554 27.0457C32.469 29.2049 34.7642 32.558 35.6183 36.4874Z"
    fill="#6A7889"
  />
  <path
    d="M23.9427 25.2273C25.7142 24.8225 26.8343 23.0155 26.4395 21.199C26.0447 19.3826 24.2823 18.2342 22.5107 18.6389C20.7391 19.0437 19.619 20.8508 20.0138 22.6672C20.4086 24.4837 22.1711 25.6321 23.9427 25.2273ZM22.9582 20.6978C23.6225 20.546 24.2834 20.9767 24.4315 21.6578C24.5795 22.339 24.1595 23.0167 23.4952 23.1685C22.8308 23.3203 22.1699 22.8896 22.0219 22.2084C21.8738 21.5272 22.2939 20.8496 22.9582 20.6978Z"
    fill="#6A7889"
  />
  <path
    d="M33.007 19.6215C33.2711 19.5611 33.5064 19.3928 33.6513 19.1576C33.7964 18.9235 33.8464 18.6344 33.7873 18.3626C33.7285 18.0919 33.5633 17.8508 33.3349 17.702C33.1066 17.5532 32.8236 17.5023 32.5595 17.5626C32.2955 17.6229 32.0603 17.7923 31.9143 18.0266C31.7691 18.2608 31.7204 18.5507 31.7793 18.8214C31.8381 19.0922 32.0023 19.3334 32.2306 19.4822C32.4601 19.6319 32.742 19.682 33.007 19.6215Z"
    fill="#6A7889"
  />
  <path
    d="M53.8318 29.4879C54.0602 29.6367 54.3432 29.6876 54.6072 29.6273C54.8713 29.567 55.1064 29.3976 55.2515 29.1635C55.3976 28.9291 55.4463 28.6392 55.3875 28.3685C55.3287 28.0977 55.1645 27.8565 54.9351 27.7079C54.7068 27.5591 54.4238 27.5081 54.1597 27.5684C53.8957 27.6288 53.6606 27.7981 53.5155 28.0323C53.3703 28.2664 53.3206 28.5565 53.3795 28.8273C53.4382 29.098 53.6035 29.3391 53.8318 29.4879Z"
    fill="#6A7889"
  />
  <path
    d="M54.4594 17.1332C54.7234 17.0728 54.9585 16.9035 55.1036 16.6694C55.2488 16.4352 55.2985 16.1451 55.2396 15.8743C55.1806 15.6026 55.0156 15.3625 54.787 15.2127C54.5587 15.0639 54.2759 15.014 54.0119 15.0743C53.7478 15.1346 53.5125 15.3029 53.3674 15.5371C53.2225 15.7723 53.1725 16.0614 53.2316 16.3331C53.2904 16.6039 53.4556 16.8449 53.684 16.9937C53.9123 17.1425 54.1952 17.1935 54.4594 17.1332Z"
    fill="#6A7889"
  />
  <path
    d="M48.634 50.4571C48.37 50.5175 48.1346 50.6858 47.9897 50.9209C47.8446 51.1551 47.7947 51.4442 47.8537 51.716C47.9126 51.9867 48.0777 52.2277 48.3061 52.3766C48.5345 52.5254 48.8174 52.5763 49.0815 52.516C49.3456 52.4557 49.5807 52.2863 49.7258 52.0522C49.8709 51.818 49.9206 51.5279 49.8618 51.2571C49.8027 50.9854 49.6378 50.7454 49.4094 50.5966C49.1808 50.4467 48.8981 50.3968 48.634 50.4571Z"
    fill="#6A7889"
  />
  <path
    d="M44.6587 4.94681L43.1814 4.78482C43.0386 4.76913 42.909 4.68465 42.8345 4.55882L42.0642 3.25619C41.8602 2.91131 41.4652 2.73846 41.0813 2.82618C40.6973 2.91391 40.4112 3.24228 40.3694 3.64333L40.2114 5.15796C40.1961 5.3044 40.1136 5.43736 39.9909 5.51371L38.7205 6.30351C38.384 6.51265 38.2156 6.91767 38.3011 7.31143C38.3867 7.70508 38.707 7.99843 39.0981 8.04132L40.5754 8.20331C40.7182 8.21899 40.848 8.30356 40.9224 8.42939L41.6927 9.73191C41.8967 10.0768 42.2917 10.2497 42.6756 10.1619C43.0596 10.0742 43.3457 9.74582 43.3875 9.34478L43.5455 7.83005C43.5608 7.6837 43.6432 7.55067 43.7659 7.47443L45.0364 6.6846C45.3728 6.47548 45.5413 6.07044 45.4558 5.67678C45.3701 5.28294 45.0497 4.98962 44.6587 4.94681ZM42.0837 7.43899C41.8036 7.06927 41.4022 6.80785 40.9568 6.70465C41.3174 6.41738 41.5723 6.00589 41.673 5.54916C41.9533 5.91885 42.3545 6.1803 42.7999 6.2835C42.4395 6.57085 42.1844 6.98226 42.0837 7.43899Z"
    fill="#6A7889"
  />
</svg>
