<svg width="103" height="145" viewBox="0 0 103 145" fill="none" xmlns="http://www.w3.org/2000/svg">
<path fill-rule="evenodd" clip-rule="evenodd" d="M81.5492 137.514C81.1258 140.329 78.6932 142.33 76.1158 141.992L7.77821 133.02C5.20081 132.682 3.45389 130.131 3.87727 127.317L21.9476 7.20643C22.3706 4.39455 24.8029 2.38964 27.3803 2.72801L95.7179 11.6998C98.2953 12.0382 100.043 14.5918 99.6195 17.4037L81.5492 137.514ZM95.9919 9.87824L27.6544 0.906423C24.0081 0.427714 20.576 3.14 20.0026 6.95108L1.93231 127.062C1.35884 130.874 3.85776 134.364 7.50404 134.842L75.8416 143.814C79.4903 144.293 82.9206 141.582 83.4941 137.77L101.564 17.6591C102.138 13.848 99.6406 10.3573 95.9919 9.87824Z" fill="#C6C6C3"/>
<path fill-rule="evenodd" clip-rule="evenodd" d="M10.51 117.745L77.9969 126.605L93.2127 25.4678L25.7258 16.6076L10.51 117.745ZM95.4943 13.1855L90.5609 12.5378L26.8032 4.17562C24.2258 3.83724 21.8448 5.52238 21.4225 8.3298L3.3517 128.443C3.14113 129.843 3.46659 131.176 4.16245 132.204C4.07496 131.989 4.0014 131.768 3.94063 131.543C4.53949 133.113 5.86758 134.284 7.55464 134.506L75.8922 143.478C78.4696 143.816 80.9022 141.814 81.3256 139L99.3959 18.8894C99.8189 16.0775 98.0717 13.5239 95.4943 13.1855Z" fill="#FFFFFE"/>
<path fill-rule="evenodd" clip-rule="evenodd" d="M43.5671 126.732C40.7533 126.362 38.148 128.199 37.7513 130.836L37.7452 131.022C38.1721 128.184 40.804 126.471 43.5544 126.832C46.3056 127.193 48.343 129.411 47.9001 132.355L47.9482 132.175C48.345 129.538 46.3834 127.101 43.5671 126.732Z" fill="#C6C6C3"/>
<path fill-rule="evenodd" clip-rule="evenodd" d="M43.4494 127.514C40.9871 127.191 38.7148 128.799 38.3681 131.104C38.3319 131.344 38.3302 131.581 38.3349 131.819C39.2158 132.676 39.8782 133.459 42.5056 133.804C44.5449 134.071 45.8458 133.627 47.0982 132.967C47.1758 132.742 47.2464 132.515 47.2826 132.274C47.6293 129.97 45.9125 127.837 43.4494 127.514Z" fill="#C6C6C3"/>
<path fill-rule="evenodd" clip-rule="evenodd" d="M47.0982 132.967C45.8458 133.627 44.545 134.072 42.5056 133.804C39.8782 133.459 39.2158 132.676 38.3349 131.819L38.3234 131.804L38.3335 131.883C38.3378 131.988 38.358 132.09 38.373 132.195C38.392 132.354 38.4141 132.514 38.4515 132.668C38.4791 132.77 38.5152 132.869 38.5496 132.968C38.6026 133.122 38.6571 133.27 38.7264 133.412C38.7693 133.503 38.8188 133.589 38.8686 133.677C38.9519 133.823 39.0464 133.964 39.1454 134.097C39.1987 134.173 39.2561 134.243 39.3155 134.316C39.4315 134.454 39.5617 134.583 39.6964 134.705L39.8822 134.874C40.0371 134.995 40.201 135.105 40.3764 135.214L40.5573 135.329C40.7565 135.436 40.9669 135.522 41.1836 135.604L41.333 135.665C41.6021 135.753 41.8856 135.822 42.1816 135.86L42.1883 135.859L42.1935 135.862L42.2499 135.863C44.4514 136.124 46.4265 135.055 47.0455 133.135L47.0724 133.069L47.1174 132.958L47.0982 132.967Z" fill="#9B9D9C"/>
<mask id="mask0" mask-type="alpha" maskUnits="userSpaceOnUse" x="51" y="14" width="18" height="4">
<path d="M68.2338 16.3959L52.4139 14.319C52.2132 14.2926 52.0348 14.198 51.886 14.058C51.9496 14.7269 52.2966 15.2445 52.7933 15.3097L67.5776 17.2507C68.0728 17.3157 68.5622 16.908 68.82 16.2812C68.6356 16.3774 68.4338 16.4222 68.2338 16.3959Z" fill="white"/>
</mask>
<g mask="url(#mask0)">
<path fill-rule="evenodd" clip-rule="evenodd" d="M68.2338 16.3959L52.4139 14.319C52.2132 14.2926 52.0348 14.198 51.886 14.058C51.9496 14.7269 52.2966 15.2445 52.7933 15.3097L67.5776 17.2507C68.0728 17.3157 68.5622 16.908 68.82 16.2812C68.6356 16.3774 68.4338 16.4222 68.2338 16.3959Z" fill="url(#paint0_linear)"/>
</g>
<path fill-rule="evenodd" clip-rule="evenodd" d="M8.62662 119.851L79.1948 129.116L95.1051 23.3625L24.5369 14.0978L8.62662 119.851Z" fill="#3E4141"/>
<path fill-rule="evenodd" clip-rule="evenodd" d="M13.1839 88.3222L24.3543 14.0738L24.5369 14.0978L13.3949 88.1568L13.1839 88.3222Z" fill="#FFFFFE"/>
<path fill-rule="evenodd" clip-rule="evenodd" d="M13.395 88.1569L24.5369 14.0978L94.9226 23.3385L94.78 24.2865L13.395 88.1569Z" fill="#515453"/>
<defs>
<linearGradient id="paint0_linear" x1="60.3532" y1="15.168" x2="60.206" y2="16.2894" gradientUnits="userSpaceOnUse">
<stop stop-color="#AFB0AC"/>
<stop offset="1" stop-color="#737573"/>
</linearGradient>
</defs>
</svg>
